<svg xmlns="http://www.w3.org/2000/svg" width="101" height="101" viewBox="0 0 101 101">
  <g fill="none" fill-rule="evenodd" transform="translate(-9 10)">
    <path fill="#000" fill-rule="nonzero" d="M10,69 L16.5555556,69 L16.5555556,62.4444444 L10,62.4444444 L10,69 Z M16.5555556,23.1111111 L10,23.1111111 L10,29.6666667 L16.5555556,29.6666667 L16.5555556,23.1111111 Z M10,55.8888889 L16.5555556,55.8888889 L16.5555556,49.3333333 L10,49.3333333 L10,55.8888889 Z M23.1111111,69 L29.6666667,69 L29.6666667,62.4444444 L23.1111111,62.4444444 L23.1111111,69 Z M16.5555556,10 L10,10 L10,16.5555556 L16.5555556,16.5555556 L16.5555556,10 Z M29.6666667,10 L23.1111111,10 L23.1111111,16.5555556 L29.6666667,16.5555556 L29.6666667,10 Z M55.8888889,10 L49.3333333,10 L49.3333333,16.5555556 L55.8888889,16.5555556 L55.8888889,10 Z M42.7777778,23.1111111 L36.2222222,23.1111111 L36.2222222,29.6666667 L42.7777778,29.6666667 L42.7777778,23.1111111 Z M42.7777778,10 L36.2222222,10 L36.2222222,16.5555556 L42.7777778,16.5555556 L42.7777778,10 Z M62.4444444,55.8888889 L69,55.8888889 L69,49.3333333 L62.4444444,49.3333333 L62.4444444,55.8888889 Z M36.2222222,69 L42.7777778,69 L42.7777778,62.4444444 L36.2222222,62.4444444 L36.2222222,69 Z M10,42.7777778 L69,42.7777778 L69,36.2222222 L10,36.2222222 L10,42.7777778 Z M62.4444444,10 L62.4444444,16.5555556 L69,16.5555556 L69,10 L62.4444444,10 Z M62.4444444,29.6666667 L69,29.6666667 L69,23.1111111 L62.4444444,23.1111111 L62.4444444,29.6666667 Z M36.2222222,55.8888889 L42.7777778,55.8888889 L42.7777778,49.3333333 L36.2222222,49.3333333 L36.2222222,55.8888889 Z M49.3333333,69 L55.8888889,69 L55.8888889,62.4444444 L49.3333333,62.4444444 L49.3333333,69 Z M62.4444444,69 L69,69 L69,62.4444444 L62.4444444,62.4444444 L62.4444444,69 Z"/>
    <polygon points="0 0 78 0 78 78 0 78"/>
  </g>
</svg>
