<svg width="82" height="82" viewBox="0 0 82 82" fill="none" xmlns="http://www.w3.org/2000/svg">
<g id="locations_icon_GroupCall">
<g id="Group 45">
<g id="Group 18">
<circle id="Oval" cx="14.2124" cy="27.4067" r="9.78657" stroke="black" stroke-width="3"/>
<g id="Combined Shape">
<mask id="path-2-inside-1_27_5414" fill="white">
<path fill-rule="evenodd" clip-rule="evenodd" d="M27.9567 67.1185C27.9903 66.4442 28.0074 65.7618 28.0074 65.0726C28.0074 51.8891 21.7377 41.2017 14.0037 41.2017C6.26967 41.2017 0 51.8891 0 65.0726C0 65.7618 0.0171329 66.4442 0.0507124 67.1185H27.9567Z"/>
</mask>
<path d="M27.9567 67.1185V70.1185H30.811L30.953 67.2677L27.9567 67.1185ZM0.0507124 67.1185L-2.94558 67.2677L-2.80362 70.1185H0.0507124V67.1185ZM25.0074 65.0726C25.0074 65.7121 24.9915 66.3447 24.9604 66.9693L30.953 67.2677C30.989 66.5436 31.0074 65.8115 31.0074 65.0726H25.0074ZM14.0037 44.2017C16.3693 44.2017 19.057 45.8567 21.3182 49.7113C23.538 53.4952 25.0074 58.9194 25.0074 65.0726H31.0074C31.0074 58.0423 29.342 51.5311 26.4934 46.6753C23.6863 41.8903 19.3722 38.2017 14.0037 38.2017V44.2017ZM3 65.0726C3 58.9194 4.46943 53.4951 6.68919 49.7113C8.95045 45.8567 11.6382 44.2017 14.0037 44.2017V38.2017C8.63523 38.2017 4.32108 41.8903 1.51399 46.6753C-1.33459 51.5311 -3 58.0423 -3 65.0726H3ZM3.047 66.9693C3.0159 66.3447 3 65.7121 3 65.0726H-3C-3 65.8115 -2.98163 66.5436 -2.94558 67.2677L3.047 66.9693ZM0.0507124 70.1185H27.9567V64.1185H0.0507124V70.1185Z" fill="black" mask="url(#path-2-inside-1_27_5414)"/>
</g>
</g>
<path id="Subtract" d="M28.8612 33.3644C28.5069 33.3644 28.1581 33.3426 27.8159 33.3004C29.1391 31.2868 29.9098 28.8758 29.9098 26.2866C29.9098 22.6392 28.3819 19.3492 25.9349 17.0212C26.8458 16.6841 27.8312 16.5 28.8612 16.5C33.5181 16.5 37.2934 20.2752 37.2934 24.9322C37.2934 29.5891 33.5181 33.3644 28.8612 33.3644Z" stroke="black" stroke-width="3"/>
<path id="Subtract_2" d="M39.5 58.0782C39.5 58.1785 39.4996 58.2785 39.4987 58.3784H32.0475C31.0274 50.8308 27.9406 44.3219 23.5492 40.9682C25.1557 39.3754 26.9162 38.5718 28.6767 38.5718C31.329 38.5718 34.0032 40.4146 36.0968 43.9834C38.1697 47.5169 39.5 52.4967 39.5 58.0782Z" stroke="black" stroke-width="3"/>
</g>
</g>
</svg>
