<svg id="Draw_Layer" data-name="Draw Layer" xmlns="http://www.w3.org/2000/svg" viewBox="0 0 812.85 1126.26"><defs><style>.cls-1{fill:#7fb2f0;}.cls-2{fill:#2c2c2c;}</style></defs><title>mmd_persona1</title><path class="cls-1" d="M980.35,637.34a67,67,0,0,0-7.77,5.39q-1.14.15-2.27,0.36l-1.22,1.19c-1.84,1.8-3.67,3.61-5.45,5.48-3.38,3.54-6.59,7.19-9.71,10.94-2.22,3.09-4.36,6.2-6.46,9.4-3.08,4.68-5.74,9.71-8.49,14.58q-1.19,2.11-2.36,4.23a21,21,0,0,1-3,9.33c-4.95,8-10,15.88-15,23.82l-3.78,7c-4.63,8.54-9.3,17.11-14.28,25.45-3,5-5.82,10.15-9,15L886,778.06c-2.23,3.43-4.58,6.71-7,10a23.06,23.06,0,0,1-4,5l-2.34,3.83q0.4,2.48.63,5a21.28,21.28,0,0,1-.15,2.49,56.36,56.36,0,0,1-1.37,8.84c-0.49,1.67-1,3.34-1.61,5-2,5-3.83,10.3-6.94,14.71A123.79,123.79,0,0,1,853.62,845l-1.16,1.41c-3.62,4.36-7.34,9.19-12.5,11.81a22.68,22.68,0,0,1-11.48,3.11l-4.82-.65-0.79.84a188.25,188.25,0,0,0-12.34,15.34c-1.95,2.56-3.68,5.32-5.51,8-2,3-4.16,5.88-6.22,8.84-1.68,2.4-4.7,10.7-4.87,11.18a30.08,30.08,0,0,0-1.6,11.75l1.41,10.46a39.29,39.29,0,0,0,10.12,17.36c2.49,2.92,5.8,5,9,7.05,0.36,0.23.74,0.45,1.13,0.67q-0.24,1-.41,2.1a83,83,0,0,0-1.3,12.39c-0.07,5,.53,9.93.54,14.89q0,1.3,0,2.6-1,7.28-1.91,14.56,0.32-2.38.64-4.77c-1.1,8.35-1.91,16.73-2.8,25.11-0.62,5.86-1.23,11.71-1.62,17.58-1,14.64-1.64,29.32-2.95,43.93q-0.12.89-.22,1.78c-0.44,2.05-.81,4.14-1.1,6.21a29.4,29.4,0,0,0,7.57,28.63,28.74,28.74,0,0,0,6.71,5c0.82,10.33,2.21,20.61,3.71,30.86,0.86,6.65,2,13.24,3,19.87l0.71,5.84c0.25,2,.3,4.07.45,6.12,0.42,6,.18,12.14,1.82,18a28.59,28.59,0,0,0,35.16,20,28.52,28.52,0,0,0,12.61-7.35l0.78-.93a29.29,29.29,0,0,0,6.54-2c1.5,2.59,3.75,4.84,5.58,7.12a29.89,29.89,0,0,0,13.21,7.7,31.72,31.72,0,0,0,11.65.9,60.5,60.5,0,0,0,3.8,4.75c4.41,5,10.54,7.15,16.49,9.56a11.48,11.48,0,0,0,2.7.63c2.8,0.41,6.68,1.36,9.91,1.09a41.63,41.63,0,0,0,10-1.61,71.44,71.44,0,0,0,9.14-3.93,19.72,19.72,0,0,0,2.49-1.6c3-2.13,5.93-4.43,8.72-6.84,4.42-3.82,7.8-8.43,11.34-13.07a76.72,76.72,0,0,0,5.85-9.11q0.5-.88,1-1.78a73.87,73.87,0,0,0,7.13,2.8,53.1,53.1,0,0,0,8.37,1.35,63.16,63.16,0,0,1,9.32-2.18c4.53-.65,9.09-1.36,13.66-1.77l9.45-.86c5.48-.5,11-0.79,16.46-1.09,4.79-.26,9.59-0.37,14.38-0.48,2.92-.07,5.85-0.16,8.77-0.21l5.47-1.9a291.36,291.36,0,0,1,29.91-8.72,230.63,230.63,0,0,1,28.76-5c1.46-.14,2.95-0.32,4.43-0.46l2.87-.82c4.41-1.26,8.79-2.69,13.16-4.09a146.76,146.76,0,0,1,11-11.92,176.78,176.78,0,0,1,20.48-16.89,67.07,67.07,0,0,1,14.13-7.23,40.83,40.83,0,0,1,10.16-2.36,80.76,80.76,0,0,1,7.85-6c3.35-2.22,6.78-4.25,10.12-6.44l6.39-11.88c3.73-6.93,7.42-14,11.95-20.45a22.88,22.88,0,0,1,8.16-8.16l5.44-2.29a24.24,24.24,0,0,1,3.88-.71,31,31,0,0,0,.33-4.53c1.4-12.94,1.7-25.94,2-38.94q0.13-1.14.27-2.28,1.38-.66,2.75-1.34a26.54,26.54,0,0,0,5.23-3.42c1.49-10.31,3-20.63,4.57-30.92q2-13,4-26l0.41-9.33c0.27-6.32.14-12.68,0.21-19q0.07-6.59.07-13.16,0-10.22-.05-20.45-0.35-2.91-.69-5.83c-0.59-5-.78-10.09-1.1-15.13s-0.75-10.37-.82-15.57q-0.07-6.1-.14-12.21c-0.05-4.38.14-8.74,0.3-13.12a27.65,27.65,0,0,1,.59-4.77,33,33,0,0,0-9.66-3c-1.41-10.85-2.89-21.68-4.52-32.5-0.47-3.94-.93-7.87-1.53-11.8a27.7,27.7,0,0,0-1.29-5.07c-0.62-1.77-1.25-3.5-2-5.17a41.63,41.63,0,0,0-1-16.47l-0.46-1.71c-2.11-7.89-5.84-13-11.11-19-1.3-1.5-2.68-2.92-4.07-4.34s-2.54-2.46-3.86-3.66-2.53-2.36-3.84-3.48c-4.16-3.57-7.85-7.89-12.92-10.27a40,40,0,0,0-17.41-5.4A43.72,43.72,0,0,0,1205,716.2c-2.27-1.2-4.57-2.27-6.91-3.29l2.15,0.91q-4.45-2-8.93-3.9c-5.32-3-10.66-6-15.84-9.29-8.84-5.58-17.57-11.31-26.41-16.86-7.49-4.7-15.16-9.12-22.93-13.35a272.38,272.38,0,0,0-32.85-14.68,151.54,151.54,0,0,0-23.68-6.65c-4.82-1-9.76-1.47-14.63-2.07-4.21-.52-9.05.3-13.2,1-1-.09-2-0.16-3-0.2-3.95-.2-9.37.94-12.44,1.4l-0.39.06v0a33.23,33.23,0,0,0-28.74-16.49,33,33,0,0,0-16.82,4.54h0ZM1238,749.55l0.3,0,4.68,2c-1.64-.69-3.33-1.32-5-2h0Z" transform="translate(-484.01 -118.07)"/><path class="cls-1" d="M793.93,904.89l0-.08,0,0.08h0Z" transform="translate(-484.01 -118.07)"/><path class="cls-1" d="M1024.21,652.44a35.55,35.55,0,0,1,3.88,6c1.93,4.86,2.91,10,4.68,15,0.71,2,1.48,3.89,2.29,5.81q0.83,2.06,1.71,4.1c0.36,0.9.74,1.81,1.12,2.71l0-.1,0.74,1.92a0,0,0,0,0,0,0,68.36,68.36,0,0,0-1.3-13.73,46.66,46.66,0,0,0-3.46-11.39,29.54,29.54,0,0,0-3.52-5.81c-1.55-2-4-3.32-6.11-4.53h0a0,0,0,0,0,0,0h0Z" transform="translate(-484.01 -118.07)"/><path class="cls-1" d="M587.53,699.42c-1,.46-1.92.89-2.89,1.32A25.34,25.34,0,0,0,580.7,703a40.54,40.54,0,0,0-18,4.3,125.4,125.4,0,0,0-12.49,13.53,181.4,181.4,0,0,0-12.45,19.5l-4.07,7.3c-1.83,3.29-3.41,6.74-4.92,10.2a194,194,0,0,0-10.55,35.84c-1.11,5.74-2.3,11.47-3.29,17.23q-3,17.41-6,34.81a43.21,43.21,0,0,0,3.51,7.66l0.71,0.92q-0.66,6.38-1.32,12.75c0.12-.91.25-1.82,0.37-2.74-0.59,4.79-1.1,9.57-1.6,14.37-0.1.64-.19,1.29-0.29,1.94-0.12.86-.32,1.69-0.51,2.54-0.43,1.95-.66,3.94-1.17,5.87a52.32,52.32,0,0,0-1.29,6.32,30,30,0,0,0-5.84,7.14c-1.4,3-2.88,6-4.15,9.12Q497.14,923,497,934.45q-0.05,4.48-.07,9c0.18,1.81.29,3.64,0.48,5.43,0.13,1.18.24,2.36,0.35,3.55q0.32,3.35.64,6.7c0.48,5,1,9.94,1.47,14.91q0.83,8.7,1.52,17.4c0.34,4.34.63,8.7,0.62,13.06a89.54,89.54,0,0,1-.58,10.53c-0.64,5.37-1,10.53-3.43,15.28,1,6.87,2,13.73,3,20.59-0.65,3.52-1,7.09-1.43,10.65a28.28,28.28,0,0,0,3.84,14.27q0.21,7.31.55,14.61c0.07,1.46.13,2.92,0.18,4.38a37.52,37.52,0,0,0-6.91,5.44l-5.78,7.48a36.79,36.79,0,0,0-5.05,18.67c0.05,0.79.1,1.59,0.16,2.38-0.14,1-.28,2.2-0.46,3.56a32,32,0,0,0-.24,3.77q0,1.58-.09,3.16l4.1,3.66q4.18,3.71,8.41,7.36c3.34,2,6.65,4,10,6.07,5.95,3.63,11.67,7.66,17.33,11.72q8.23,5.92,16.3,12,0.23-.47.48-0.93a25.06,25.06,0,0,1,16.2-12.39,32.6,32.6,0,0,1,8.79-.84,47.14,47.14,0,0,1,9.38,1.37,45.9,45.9,0,0,1,11.39,5,173.34,173.34,0,0,1,14.85,11.2c3.64,2.93,7.27,5.87,10.64,9.12a21.23,21.23,0,0,1,3,3.69l0.09,0c1.67-.21,3.35-0.43,5.06-0.69a30,30,0,0,0,8.23-2.7l6.84,2.88a34.83,34.83,0,0,0,16.2.54c2.93-.33,5.86-0.75,8.76-1.27,3.13-.55,9.87-4,10-4a20.47,20.47,0,0,0,2.86-1.52q1,0.35,2,.63a38.37,38.37,0,0,0,20.25,0c4.25-1.79,8.56-3.43,12.79-5.31a24.71,24.71,0,0,0,5.35-3.36c0.07,0.28.14,0.55,0.21,0.82a39.85,39.85,0,0,0,18.19,23.65,39.43,39.43,0,0,0,20,5.4l10.52-1.41a39.53,39.53,0,0,0,17.46-10.18c3.3-4.14,7.14-8,9.7-12.63a51.9,51.9,0,0,0,3.63-8.28l7.61-3.21a34.41,34.41,0,0,0,12.28-12.28c2.57-6,5.28-11.92,7.7-18a27.31,27.31,0,0,0,1.29-4.36,36.68,36.68,0,0,0,14.72-14.07,87.45,87.45,0,0,0,5.75-12.73c1.4-3.73,1.46-10.43,1.7-15.09,0.21-4.21.19-8.44,0.14-12.65-0.08-8.14-.89-16.32-1.75-24.41a320.93,320.93,0,0,0-6.06-37.82q0-8.11-.09-16.22-0.05-8.4-.1-16.8c0-7.33-.64-14.65-1-22l-1.21-9a33.82,33.82,0,0,0-25-23.95h0l0.68-.88c0.51-.12,1-0.25,1.52-0.38l10.44-4.4a43.93,43.93,0,0,0,15.68-15.67,24,24,0,0,0,4.5-10.57,44,44,0,0,0,0-23.24c-1.59-3.81-2.73-7.91-4.9-11.43a52.51,52.51,0,0,0-6.48-8.59,23.51,23.51,0,0,1-3.73.3l-6-.81a22.76,22.76,0,0,1-15.65-15.12l-4.17-1.85c-5.35-2.69-10.59-5.54-15.86-8.38-4.18-2.25-8.31-4.58-12.56-6.69-9.48-4.7-19.22-8.9-29-13-6.48-2.72-13.09-5.15-19.64-7.67-8-3.07-16.05-6.06-24.25-8.66a173,173,0,0,0-23-5.86c-5.93-1-11.93-1.94-18-1.62a85.08,85.08,0,0,0-12.21,1.61,9.8,9.8,0,0,0-1.81.59c-5.79,2.4-8.32,3.17-12,6a37,37,0,0,0-4.89-3.43l-0.29-.17q4.59-10.84,8.59-21.91,2-5.6,4.12-11.16c1.61,4.22,3,8.56,4.53,12.8a0,0,0,1,0,0,0c-0.71-4.16-1.47-8.32-2.16-12.49,0,0.1,0,.2,0,0.3a28.64,28.64,0,0,0-.77-4.34l-0.12-.38,0.39-1-0.41,1h0l2.09-5c0.66-1.43,1.28-2.87,1.93-4.31l2.69-6.38A26.55,26.55,0,0,0,640,714.71c-0.3-.59-0.63-1.19-1-1.77a37.68,37.68,0,0,0-51.53-13.51h0Zm-86.45,351.63v0.05L501,1052s0,0.09,0,.13l0.14-1h0Z" transform="translate(-484.01 -118.07)"/><path class="cls-1" d="M498,1030.28l0.47,3.44-0.46-3.45h0Z" transform="translate(-484.01 -118.07)"/><path class="cls-1" d="M655.4,681.21c-2.65.52-8.09,1.87-6.8,5.51v0l0-.12,0,0.15-0.06.11a11.43,11.43,0,0,1-1,.88,46,46,0,0,1-6.76,3.8c-1,.5-2,1-3,1.57-2.43,1.36-5.37,2.83-6.64,5.41-2.12,4.32,1.25,7.89,5.11,9.3,1.4,0.51,2.87.9,4.29,1.38,1.07,0.36,2.13.75,3.19,1.16q-1,.83-1.87,1.71a13.69,13.69,0,0,0-4.35,4.64l-0.91,1.61c-0.58.85-1.14,1.72-1.67,2.61a38.72,38.72,0,0,0-6,13.86c-4.18,9.73-8.37,19.43-12.29,29.26q-3.36,8.43-6.48,16.9c-0.29.45-.57,0.91-0.84,1.37-0.36.62-.87,1.19-1.26,1.79-1.6,2.45-2.43,5.39-3.5,8.1a26.6,26.6,0,0,0-.94,7.21c-2.71,7.95-5.33,15.91-7.78,23.95,0,0,0,0,0,0l9.93-13.73a26.32,26.32,0,0,0,11.23,12.41,38.84,38.84,0,0,0,13.41,13.1c3.11,2.07,6.77,3.13,10.26,4.44a40.05,40.05,0,0,0,39-10.31,46,46,0,0,0,9-12.38q1.14-2.47,2.22-5a45,45,0,0,0,4.62-2.34,44.21,44.21,0,0,0,15.78-15.77c3.12-6.84,6.28-13.6,7.95-20.95q0.64-2.81,1.25-5.63c0.91-4.21,1.5-8.52,2.54-12.7a40.12,40.12,0,0,0,.32-20,24.64,24.64,0,0,1-7.1-.82c-3.08-.85-8.41-3.47-10.47-6.07-1.5-1.88-3.29-3.59-4.3-5.78a55.15,55.15,0,0,1-3.87-9.94,60.11,60.11,0,0,1-1.11-6.15,39.39,39.39,0,0,0-7.59-1.59,43.22,43.22,0,0,0-6.76-2.52,42.08,42.08,0,0,0-18.55-.83,43.44,43.44,0,0,0-12.13-3.33,59.81,59.81,0,0,0-6.19-.33l2-1.93c2.38-2.28,6.92-7.07,4-10.22l0-.09a9.51,9.51,0,0,1,.65-1,10.89,10.89,0,0,1,1.51-1.52c0.61-.44,1.23-0.84,1.89-1.22a0,0,0,0,0,0,0h0Zm-6.75,5.65h0l0,0.06,0-.05h0Zm-0.15.06a3,3,0,0,1-.28.36l0.28-.36h0Z" transform="translate(-484.01 -118.07)"/><path class="cls-1" d="M659.79,665.14c-2.27.85-4.59,1.59-6.93,2.23l-5.48,1.51c-6.49,3.23-12.91,6.6-19.29,10.05-4.89,2.65-9.77,5.35-14.8,7.74a25.49,25.49,0,0,0-.81,6.25,23.86,23.86,0,0,0,6.88,16.48,16,16,0,0,0,4.09,4.94,26.49,26.49,0,0,0-.07,3.48,0,0,0,0,0,0,0c0.76-.73,1.56-1.39,2.38-2,4.41,2.12,8.64,3.23,13.59,1.86a22,22,0,0,0,5.68-2.7c1.11-.39,2.21-0.91,3.28-1.36a114.28,114.28,0,0,0,10.48-4.78,53.4,53.4,0,0,0,9.65-7.17c3.68-3.23,7-7.43,8.25-12.19a18,18,0,0,0-.05-9.56,27.34,27.34,0,0,0-1-5.05,24.63,24.63,0,0,0-8.53-12.67c-2.43,1.09-4.92,2.05-7.41,3h0Z" transform="translate(-484.01 -118.07)"/><path class="cls-1" d="M670.08,699.07a33.8,33.8,0,0,0,1.55,9,31.65,31.65,0,0,0,4.75,8.49s0,0,0,0a48.13,48.13,0,0,0-2.75-10.93l0.14,0.32a41,41,0,0,0-3.69-6.86h0Z" transform="translate(-484.01 -118.07)"/><path class="cls-1" d="M693.63,758.45a151.2,151.2,0,0,0-2.61,16c-0.31,1.41-.62,2.82-1,4.21-0.46,1.85-.91,3.7-1.37,5.55-1.54,6.08-3.21,12.56-3.09,18.77a34.11,34.11,0,0,0,25,32.86l9.06,1.21a33.94,33.94,0,0,0,17.2-4.65c5.86-4.14,9.84-7,13.52-13.27a34,34,0,0,0,1.7-3.29,22.74,22.74,0,0,1-9-24.76l0.9-2.12v-0.53c0-1.17,0-2.36,0-3.54,0-.06,0-0.12,0-0.19-0.08-.92-0.07-1.85-0.06-2.77a23.06,23.06,0,0,1,1-6.38c-1.37-3.45-1.56-6.24-2.12-10.68-0.06-.48-0.13-1-0.18-1.45s-0.13-1.24-.18-1.87-0.05-1.1,0-1.64a0,0,0,0,0,0,0h0a42.1,42.1,0,0,1,.81-6,22.66,22.66,0,0,1,4.47-8.53,32.27,32.27,0,0,0-2.46-2.79,30.58,30.58,0,0,0-11.1-7.07,23,23,0,0,1-9.52-.94,25.14,25.14,0,0,1-6.6-.37,31.07,31.07,0,0,0-24.37,24.31h0Z" transform="translate(-484.01 -118.07)"/><path class="cls-2" d="M791.34,603.68l0.78-1.86-0.19-.78-0.31-.13c-0.09.93-.18,1.85-0.27,2.77h0Z" transform="translate(-484.01 -118.07)"/><path class="cls-2" d="M778.39,751.6c0.18,0.73.37,1.46,0.6,2.17l0.27,0.83,1.63-3.91q-1.24.49-2.5,0.91h0Z" transform="translate(-484.01 -118.07)"/><path class="cls-2" d="M1260.8,830.67l0.43,0.09a30.66,30.66,0,0,0,4.36.54l0-.91q0-2.05-.06-4.1c-0.66,0-1.33-.11-2-0.19l-1.5-.27q-0.59,2.43-1.22,4.85h0Z" transform="translate(-484.01 -118.07)"/><path class="cls-2" d="M704.24,294.77c-4.59.59-9.16,1.25-13.74,1.9a110.16,110.16,0,0,1-12.75,1c-2.3,0-4.6,0-6.9,0-3.36,0-6.74,0-10.09.35a23.79,23.79,0,0,0-4.72,1,27.61,27.61,0,0,0-4.48,1.95,41.27,41.27,0,0,0-4.85,3.22A68.62,68.62,0,0,0,635.25,314a43.22,43.22,0,0,0-5.13,7.28,61.43,61.43,0,0,0-4.29,9.21c-1.19,3.21-2.07,6.54-3,9.83-0.5,1.74-1,3.48-1.48,5.22a3,3,0,0,0,5.79,1.59q1.12-4,2.27-7.95a93.76,93.76,0,0,1,3-8.94,51.59,51.59,0,0,1,5.71-10,44.67,44.67,0,0,1,7-6.82c1.64-1.23,3.32-2.38,5-3.48a43.63,43.63,0,0,1,5.29-3,23.39,23.39,0,0,1,4.25-1.17,65.79,65.79,0,0,1,10.12.16c2.27,0.14,4.53.31,6.8,0.42s4.38,0.18,6.58.14c2.38,0,4.74-.17,7.11-0.36,4.2-.34,8.38-0.81,12.58-1.14,2.38-.19,4.75-0.34,7.13-0.39a62.39,62.39,0,0,1,6.6.31l2,0.27c0.94,0.13,1.87.36,2.79,0.55,2.09,0.42,4.17.92,6.24,1.41,4,0.93,7.92,2,11.94,2.61,2.55,0.4,5.09.77,7.66,1,2.22,0.22,4.45.34,6.68,0.47,2,0.11,4.05.14,6.07,0.17h2.32c2.07,0,4.15,0,6.22.19a43,43,0,0,1,6,1.55c1.14,0.37,2.24.82,3.35,1.26a72.67,72.67,0,0,0,11.52,4.18c2.12,0.5,4.24.95,6.4,1.27,2.57,0.39,5.14.68,7.71,0.93,4.06,0.4,8.16.62,12.23,0.75s8.36,0.21,12.53.64a34.34,34.34,0,0,1,7.19,1.66,19.48,19.48,0,0,1,2.61,1.52,16,16,0,0,1,1.76,1.78,20.29,20.29,0,0,1,1.6,2.83,27.34,27.34,0,0,1,1.56,6l0.26,1.9c0.15,1.92.3,3.83,0.37,5.75,0.08,2.21.14,4.41,0.19,6.62,0.08,3.77,0,7.55.14,11.32,0.08,2.13.22,4.25,0.39,6.37,0.2,2.41.66,4.82,1.09,7.2a41.67,41.67,0,0,0,3.24,9.49q1.31,2.94,2.6,5.88c1.8,4.33,3.57,8.67,5.47,13a77,77,0,0,0,6.68,11.54c1.3,1.93,2.67,3.81,4.07,5.68,1.52,2,3.21,3.93,4.88,5.84,3.11,3.56,6.31,7,9.47,10.56q2.19,2.42,4.29,4.91c1.19,1.4,2.32,2.84,3.45,4.28l1.55,2.25c0.47,0.68,1,1.35,1.42,2.07l3,5.08c1,1.6,1.77,3.29,2.65,4.93,0.44,0.82.79,1.69,1.19,2.53l1,2.15c0.84,2.11,1.7,4.2,2.42,6.36,0.42,1.24.89,2.47,1.24,3.73l1.28,4.52c0.41,1.45.69,2.94,1,4.41s0.54,2.76.81,4.13c0.52,2.63.83,5.32,1.19,8-0.06-.45-0.12-0.9-0.18-1.35,0.51,4.46.91,8.93,1.36,13.4,0.26,2.58.52,5.16,0.88,7.73,0.32,2.32.61,4.66,1.11,6.94s1.13,4.58,1.86,6.84,1.76,4.66,2.74,6.91c0.5,1.14,1,2.27,1.57,3.38a10.42,10.42,0,0,0,1.37,2,6.65,6.65,0,0,0,1.74,1.4,6,6,0,0,0,2.75.7,5.59,5.59,0,0,0,3.6-1.5c2.09-1.86,3.06-4.71,4-7.27,0.36-1,.66-2,0.95-3,1.27-4.47,2.38-9,4-13.38,2.32-5.1,5.24-9.9,8-14.76a176.27,176.27,0,0,1,9.83-15.72,66.47,66.47,0,0,1,4.58-5.31c2.07-2.14,4.19-4.23,6.37-6.25a3.34,3.34,0,0,0-2.36-5.7,3.58,3.58,0,0,0-2.36,1,65,65,0,0,0-10.24,10.07,128.74,128.74,0,0,0-8.17,11.61c-2.43,3.91-4.71,7.91-7.08,11.86-1.19,2-2.37,4-3.53,6a55,55,0,0,0-2.86,5.8c-1.76,4.08-2.93,8.39-4.4,12.58q-0.57-1.65-1.08-3.31c-0.47-1.55-1-3.12-1.3-4.71-0.38-1.77-.7-3.53-1-5.31-0.52-4.22-.91-8.44-1.26-12.68-0.4-4.85-.8-9.71-1.54-14.53A108,108,0,0,0,915,476.59l-1.17-4.09c-0.3-1.07-.72-2.11-1.08-3.15-0.8-2.3-1.72-4.52-2.65-6.77s-2.13-4.66-3.25-7c-0.47-1-1.06-1.9-1.59-2.85s-0.94-1.72-1.46-2.56c-1.3-2.12-2.57-4.23-4-6.25-0.88-1.24-1.73-2.51-2.69-3.69L894.51,437c-2.77-3.4-5.86-6.54-8.86-9.73q-2.35-2.51-4.68-5c-1.57-1.7-3.18-3.38-4.68-5.15l-1.52-1.79a87.26,87.26,0,0,1-5.72-8.3c-1-1.64-2-3.28-2.82-5s-1.59-3.39-2.34-5.11c-1.07-2.64-2.12-5.28-3.18-7.93-1.14-2.84-2.33-5.65-3.53-8.46-0.62-1.51-1.2-3-1.67-4.58-0.23-.77-0.4-1.57-0.59-2.36-0.29-1.24-.5-2.49-0.72-3.74-0.24-1.8-.46-3.6-0.54-5.4-0.1-2.3-.16-4.6-0.19-6.91-0.07-4.76-.18-9.52-0.39-14.27a68.67,68.67,0,0,0-.66-7.16c-0.24-1.56-.47-3.11-0.8-4.66a25.83,25.83,0,0,0-1.24-3.91,27.36,27.36,0,0,0-2.17-4.43c-2.9-4.7-7.71-7.66-12.91-9.19a52.58,52.58,0,0,0-6.72-1.44c-4.68-.75-9.4-1-14.13-1.39-4.27-.33-8.52-0.73-12.77-1.26-1.81-.28-3.62-0.56-5.42-0.95-2.25-.49-4.46-1.09-6.66-1.77-2-.62-3.94-1.43-5.88-2.2s-3.75-1.66-5.7-2.29c-1.37-.44-2.74-0.88-4.14-1.24a38.8,38.8,0,0,0-9.42-1.09c-2.18,0-4.36,0-6.54-.08s-4.58-.18-6.87-0.32c-2-.11-3.89-0.32-5.83-0.51-2.1-.33-4.19-0.69-6.29-1.08s-4.31-.9-6.46-1.38-4.34-1-6.52-1.43l-3.9-.7c-1.54-.27-3.11-0.39-4.66-0.55a39,39,0,0,0-4-.19,71.93,71.93,0,0,0-9.18.71h0Z" transform="translate(-484.01 -118.07)"/><path class="cls-2" d="M988.87,455a19.07,19.07,0,0,0-3.13.72,23,23,0,0,0-3.13,1.37,42.27,42.27,0,0,0-4,2.39,50.81,50.81,0,0,0-4.36,3.1l-2.33,1.88c-0.7.57-1.35,1.23-2,1.84-1.14,1-2.29,2.13-3.34,3.26s-2.34,2.41-3.42,3.68c-1.54,1.82-3.09,3.64-4.6,5.49a2.87,2.87,0,0,0-.78,1.89,2.67,2.67,0,0,0,4.56,1.89c1.51-1.85,3.07-3.66,4.61-5.48,1.09-1.28,2.32-2.46,3.47-3.68s2.37-2.3,3.6-3.39c0.64-.57,1.27-1.17,1.94-1.7l2.17-1.68-0.32.25a54.19,54.19,0,0,1,7.94-4.73,17.14,17.14,0,0,1,3.18-.9,14.88,14.88,0,0,1,2.21-.06,14,14,0,0,1,1.8.5,23.18,23.18,0,0,1,3.43,2,21.3,21.3,0,0,1,2.83,2.87,39.6,39.6,0,0,1,4,7.11c0.58,1.5,1.14,3,1.63,4.54a44.45,44.45,0,0,1,1.58,6.67,28.66,28.66,0,0,1,0,6.63l-0.24,1.92a50.2,50.2,0,0,1-1.26,5.65c-0.68,2.14-1.39,4.26-2.14,6.38-1.3,3.67-2.8,7.29-4.3,10.89-3.14,7.52-6.22,15.05-9.19,22.65q-1.35,3.45-2.74,6.88c-0.56,1.27-1.13,2.52-1.74,3.76s-1.4,2.63-2.13,3.93a83.15,83.15,0,0,1-5,7.7q-1.39,1.77-2.82,3.51c-1.21,1.46-2.52,2.83-3.84,4.2a70.61,70.61,0,0,1-7.29,6.46c-2.2,1.62-4.42,3.21-6.74,4.67-1.26.79-2.52,1.63-3.85,2.31s-2.6,1.3-3.92,1.91a26.47,26.47,0,0,1-4.33,1.45h-0.4l-0.18-.05-0.62-.37a15,15,0,0,1-1.35-1.39,31.44,31.44,0,0,1-2.84-5.19l-0.44-1.19a4.43,4.43,0,0,0-1.93-2.5,4.19,4.19,0,0,0-6.15,4.73,44.44,44.44,0,0,0,3.25,8.81,17.42,17.42,0,0,0,2.56,3.59,10.65,10.65,0,0,0,3.42,2.52,12.3,12.3,0,0,0,2.27.82,8.86,8.86,0,0,0,2.61.19,15.8,15.8,0,0,0,5-1.24,50.86,50.86,0,0,0,6.52-3.16c1.87-1.08,3.65-2.26,5.43-3.48s3.53-2.54,5.23-3.87,3.18-2.48,4.69-3.82,3-2.8,4.5-4.28,2.8-3,4.15-4.6a96.28,96.28,0,0,0,7.77-10.59c1.12-1.73,2.12-3.55,3.13-5.36a59.57,59.57,0,0,0,2.61-5.54c1.75-4,3.23-8.17,4.78-12.27,1.36-3.58,2.72-7.16,4.12-10.73,1.52-3.87,3.07-7.74,4.53-11.64s2.89-7.57,4-11.44a55.28,55.28,0,0,0,1.54-5.93,59.56,59.56,0,0,0,1-8.48,35.12,35.12,0,0,0-.82-8.5c-0.27-1.32-.67-2.6-1-3.9-0.26-.92-0.63-1.82-0.95-2.72-0.44-1.25-1.05-2.48-1.57-3.7a36.44,36.44,0,0,0-3.08-5.55,26.15,26.15,0,0,0-4.49-5.28,22.36,22.36,0,0,0-5.91-3.67,14.14,14.14,0,0,0-3.37-1,11.21,11.21,0,0,0-1.9-.16,15.22,15.22,0,0,0-2.26.18h0Z" transform="translate(-484.01 -118.07)"/><path class="cls-2" d="M962.21,501.86a3.23,3.23,0,0,0,1.14,4.36c1,0.66,2,1.32,3,2a18.52,18.52,0,0,1,2.37,2.37,22.27,22.27,0,0,1,2,3.26,12.35,12.35,0,0,1,.39,1.52,13.32,13.32,0,0,1,0,2,13.64,13.64,0,0,1-.61,2.15,45.85,45.85,0,0,1-4.44,7.29,59.79,59.79,0,0,1-5.27,5.72c-1.94,1.83-4.09,3.42-6.16,5.09s-4.17,3.33-6.15,5.13q0.1-1.06.23-2.11c0.17-1.09.35-2.18,0.55-3.26a3.79,3.79,0,0,0-.36-2.75,3.57,3.57,0,0,0-6.52.85c-0.51,1.85-1.07,3.7-1.47,5.57a54.9,54.9,0,0,0-1.07,6.76,17.5,17.5,0,0,0,0,3.26c0.06,0.57.14,1.14,0.25,1.71l0.21,0.52a4.28,4.28,0,0,0,1.1,1.89,4.75,4.75,0,0,0,3.44,1.58,5.07,5.07,0,0,0,2.39-.64,10.48,10.48,0,0,0,1.34-1,7.15,7.15,0,0,0,1-1.16c0.47-.6.94-1.21,1.39-1.82l0.83-1.11a72.08,72.08,0,0,1,7.4-7.53,101.23,101.23,0,0,0,8.07-7.45c1.4-1.55,2.7-3.16,3.94-4.84s2.17-3.2,3.17-4.86a32.92,32.92,0,0,0,1.64-3.18,17.85,17.85,0,0,0,1.34-3.83,13.65,13.65,0,0,0-.48-7.36,17.57,17.57,0,0,0-1.8-3.4,24.14,24.14,0,0,0-2.28-3,30,30,0,0,0-6.16-4.79,2.73,2.73,0,0,0-1.53-.45,3.35,3.35,0,0,0-2.83,1.59h0Z" transform="translate(-484.01 -118.07)"/><path class="cls-2" d="M933.84,561.19l-0.7.54a3.5,3.5,0,0,0-.89,1.53c-2.28,5.54-4.5,11.1-6.37,16.79s-3.63,11.36-5.11,17.13a3.51,3.51,0,1,0,6.77,1.87c1.58-5.66,3.21-11.29,5-16.88,1.86-5.79,4.1-11.45,6.41-17.07a3.31,3.31,0,0,0-.35-2.67,3.48,3.48,0,0,0-2.07-1.59,3.42,3.42,0,0,0-.92-0.13,3.48,3.48,0,0,0-1.75.47h0Z" transform="translate(-484.01 -118.07)"/><path class="cls-2" d="M883.31,663.86q-7.14,5.22-14.37,10.32c-4.57,3.21-9.09,6.49-13.77,9.54-4.5,2.94-9.25,5.46-14,8-4.41,2.37-8.93,4.54-13.29,7-13.39,7.5-26.48,15.52-40.47,21.87-5.86,2.42-11.84,4.48-17.91,6.31-3,.89-5.93,1.78-8.94,2.46s-6.19,1.29-9.33,1.76a78.57,78.57,0,0,1-13.39.69c-2.63-.14-5.24-0.39-7.86-0.66a72.53,72.53,0,0,0-8.24-.29,5.38,5.38,0,0,0-1.43,10.57c1.58,0.41,3.16.82,4.75,1.17s3.28,0.55,4.92.77a74.84,74.84,0,0,0,8,.56,53.26,53.26,0,0,0,7.69-.52c2.88-.36,5.75-0.75,8.6-1.28a169.74,169.74,0,0,0,30.51-9.27c10.14-4,19.64-9.34,29.07-14.75,4.88-2.8,9.72-5.64,14.57-8.48,4.53-2.64,9.16-5.11,13.75-7.64q5.67-3.12,11.2-6.5c3.61-2.21,7.07-4.66,10.48-7.16,7.87-5.78,15.84-11.4,23.72-17.16a4.52,4.52,0,0,0,1.94-2.52,4.23,4.23,0,0,0-2.95-5.2,4.52,4.52,0,0,0-1.19-.16,3.56,3.56,0,0,0-2.07.58h0Z" transform="translate(-484.01 -118.07)"/><path class="cls-2" d="M622.25,343a4.62,4.62,0,0,0-2,2.61c-1,2.75-1.95,5.52-2.9,8.29-0.66,1.94-1.15,3.95-1.71,5.92-0.23.8-.39,1.64-0.57,2.45s-0.47,1.92-.63,2.89c-0.43,2.55-.82,5.09-1.14,7.65-0.5,4-.79,8-1,12q-0.32,6.77-.35,13.54c0,3.91.1,7.84,0.21,11.75,0.13,4.42.26,8.84,0.47,13.25,0.4,8.4,1.52,16.75,2.33,25.12,0.82,8.52,1.38,17.05,1.8,25.61,0.2,4,.35,8,0.41,12a109.62,109.62,0,0,1-.36,12.46c-0.12,1.2-.27,2.4-0.42,3.6-1.35,8.3-2.94,16.54-4,24.89q-0.41,3.33-.73,6.67c-0.18,1.88-.36,3.78-0.36,5.66a41.87,41.87,0,0,0,1.73,12.92A105.16,105.16,0,0,0,618,564.61c1.73,3.72,3.59,7.38,5.41,11.05,3.71,7.48,7.31,15,11.26,22.38,4.06,7.59,8,15.27,12.21,22.76,1.94,3.43,4.06,6.75,6,10.18,2.08,3.69,4.09,7.43,6.08,11.16,3.95,7.41,7.51,15,11.4,22.46q2.91,5.56,5.91,11.08c2,3.59,4,7.15,5.83,10.8s3.63,7.45,5.35,11.21,3.47,7.48,5.14,11.25,3.33,7.45,5,11.18c0.89,2,1.79,4,2.75,6a30,30,0,0,0,3.93,5.91,25.71,25.71,0,0,0,5.32,4.63,34.34,34.34,0,0,0,3.55,2.09,3.48,3.48,0,1,0,3.51-6,49.37,49.37,0,0,1-4.22-2.79,29.34,29.34,0,0,1-4.2-4.17,49.53,49.53,0,0,1-4-7.08c-0.88-1.77-1.73-3.56-2.6-5.33-1.84-3.75-3.62-7.52-5.41-11.3-3.59-7.6-7-15.25-11-22.66-1.95-3.64-4-7.22-5.91-10.88s-3.86-7.41-5.69-11.16-3.4-7.36-5.14-11-3.68-7.55-5.6-11.29-3.93-7.49-6-11.18c-2-3.48-3.94-6.95-5.78-10.49-2-3.81-3.91-7.65-5.86-11.48s-3.87-7.5-5.79-11.27c-2.86-5.61-5.5-11.33-8.3-17s-5.54-11-8.08-16.55c-0.73-1.73-1.44-3.47-2-5.26-0.39-1.21-.75-2.4-1.07-3.63-0.26-1-.44-2-0.63-3l-0.17-1.34c-0.1-.77-0.09-1.55-0.14-2.32a35.69,35.69,0,0,1,.1-4c0.15-2.79.5-5.58,0.84-8.36q0.77-5.58,1.75-11.12c0.71-4,1.51-8.06,2.2-12.11a101.94,101.94,0,0,0,1.44-12.84c0.18-4.1.14-8.2,0.06-12.3-0.18-8.33-.46-16.67-1.11-25-0.67-8.61-1.62-17.2-2.39-25.8-0.39-4.34-.48-8.7-0.61-13.05s-0.2-8.42-.28-12.63c-0.07-3.94-.12-7.88,0-11.82q0.18-6.73.57-13.45c0.16-2.71.46-5.42,0.78-8.12,0.23-1.46.42-2.93,0.74-4.37,0.43-1.94.83-3.87,1.37-5.78,0.48-1.72.93-3.45,1.5-5.14,0.89-2.6,1.78-5.2,2.71-7.79a4.24,4.24,0,0,0-.44-3.36,4.4,4.4,0,0,0-2.61-2,4.38,4.38,0,0,0-3.36.44h0Zm-2.33,186.38-0.11.82,0.11-.82h0Z" transform="translate(-484.01 -118.07)"/><path class="cls-2" d="M749.31,118.07l-4.82,0c-4.81,0-9.62.35-14.42,0.63-2.38.14-4.75,0.34-7.13,0.54-1.77.15-3.52,0.34-5.28,0.6a39.51,39.51,0,0,0-9.51,2.58,52,52,0,0,0-12.27,7.4c-1.59,1.26-3.23,2.47-4.76,3.82-3.12,2.77-6.18,5.58-9.16,8.5-2.73,2.67-5.54,5.27-8.45,7.75-1.52,1.3-3,2.65-4.57,3.89l-4.56,3.63c-1.77,1.27-3.52,2.58-5.33,3.79a96.7,96.7,0,0,0-10.61,7.64c-1.18,1-2.28,2.14-3.4,3.24-0.7.69-1.41,1.37-2.08,2.09-1.6,1.73-3.25,3.41-4.74,5.23-1.68,2.06-3.5,4.06-5,6.25l-2.72,3.88c-0.54.77-1.09,1.52-1.58,2.33-1.38,2.3-2.75,4.59-4,7-1.05,2-2.08,3.95-3,6l-1.79,3.86c-0.65,1.4-1.19,2.86-1.77,4.29-0.36.88-.68,1.75-1,2.66-0.39,1.18-.84,2.34-1.17,3.54-0.66,2.4-1.34,4.78-1.9,7.2q-0.89,3.86-1.75,7.73c-1,4.39-2.14,8.75-3.09,13.14-0.53,2.43-1.11,4.85-1.52,7.3l-0.78,4.6c-0.22,1.35-.33,2.71-0.46,4.07-0.34,3.39-.48,6.8-0.56,10.21-0.09,3.61-.2,7.23-0.09,10.84,0.09,2.7.16,5.36,0.45,8a50.2,50.2,0,0,0,3.88,14.83,58.82,58.82,0,0,0,3.23,6.13,68.46,68.46,0,0,0,4.6,6.94,43,43,0,0,0,4.38,5.07,24.55,24.55,0,0,0,6.06,4,3.55,3.55,0,0,0,4.77-1.25,3.5,3.5,0,0,0-1.25-4.77,34.45,34.45,0,0,1-4-2.31,29.82,29.82,0,0,1-4.11-4.45,67.16,67.16,0,0,1-7.4-12.61,45.84,45.84,0,0,1-2.7-10.38,116.75,116.75,0,0,1-.35-17.58c0.09-2.38.17-4.76,0.32-7.13,0.08-1.23.12-2.47,0.25-3.69l0.43-3.83c0.73-4.11,1.49-8.2,2.5-12.25s2.06-8.11,3-12.19c1-4.26,2-8.54,3.16-12.75,0.63-2.22,1.33-4.4,2.07-6.59,0.54-1.61,1.21-3.18,1.87-4.76,0.91-2,1.81-3.95,2.77-5.89,1-2.1,2.13-4.16,3.23-6.22,0.47-.88,1-1.71,1.54-2.57s1-1.8,1.59-2.63l4-5.61c2-2.42,3.94-4.86,6.08-7.16a93.78,93.78,0,0,1,9.42-9.11c2.59-1.89,5.33-3.57,8-5.31,0.94-.61,1.84-1.3,2.77-1.94,1.12-.79,2.25-1.57,3.33-2.41,1.81-1.43,3.68-2.81,5.43-4.31,1.93-1.64,3.86-3.27,5.76-4.95,3.53-3.11,6.87-6.41,10.29-9.62,1.81-1.7,3.67-3.34,5.54-5,1.51-1.31,3.11-2.52,4.69-3.73l-0.21.16a54.1,54.1,0,0,1,9.5-5.66,40,40,0,0,1,8.47-2.23c3.56-.43,7.15-0.66,10.72-0.86q5.79-.31,11.58-0.53c1.5-.06,3,0,4.5,0s3.09,0,4.64.07c1.81,0.11,3.65.14,5.45,0.35l5.07,0.61c6.4,1,12.8,2,19.25,2.71s12.67,1.22,19,2c4.9,0.71,9.79,1.42,14.71,2s9.65,0.8,14.5.88c4.69,0.09,9.39-.05,14.08-0.17s9.24-.17,13.82-0.67c7.14-.78,14.41-2.1,21.59-1.31a43.49,43.49,0,0,1,8.61,2.14l3.52,1.32,3.2,1.46c1.17,0.54,2.29,1.19,3.43,1.78,2.1,1.1,4.14,2.32,6.17,3.54s4.12,2.51,6.15,3.82,4,2.67,6,4.06l2.44,2c0.84,0.69,1.61,1.44,2.4,2.19,1.74,1.66,3.43,3.37,5.11,5.09,3.34,3.41,6.68,6.82,10.19,10.06,1.87,1.73,3.75,3.44,5.66,5.13,1.6,1.42,3.23,2.79,4.83,4.21,2,1.77,3.92,3.55,5.83,5.4s3.47,3.5,5.19,5.28c3.74,3.9,7.23,8,10.66,12.21,1.65,2.19,3.27,4.38,4.85,6.63s3.18,4.72,4.79,7.07,3.15,4.46,4.8,6.63c1.3,1.71,2.59,3.41,3.85,5.15a60.15,60.15,0,0,1,6.35,11.11c4.51,11.12,6.59,23,8.78,34.77,1.75,9.37,3.14,18.82,4.42,28.26q0.28,2,.55,4.07v-0.11c1.27,9.45,2.57,18.9,4.23,28.3,0.88,5,1.77,10,2.77,15,0.41,2,.81,4.11,1.37,6.12l1.11,4c0.32,1.18.79,2.33,1.18,3.48,1.17,3.4,2.67,6.7,4.11,10,0.78,1.88,1.56,3.75,2.25,5.67,0.36,1,.76,2,1.06,3l1.29,4.33c0.32,1.07.5,2.19,0.75,3.27s0.46,2.11.65,3.19c0.39,2.23.75,4.46,1.1,6.69a95.29,95.29,0,0,1,.77,12c-0.06,4.4-.23,8.79-0.68,13.17q-0.72,7.1-1.61,14.18c-0.51,4.05-1,8.11-1.49,12.16-0.4,2.72-.83,5.43-1.34,8.14s-1.16,5.62-1.79,8.43c-1.29,5.71-2.68,11.42-3.7,17.19a5.63,5.63,0,0,0,.53,4.08,5.29,5.29,0,0,0,9.67-1.27c1-3.59,1.58-7.25,2.27-10.9,0.63-3.36,1.31-6.7,2-10s1.34-6.48,1.86-9.75c0.61-3.82,1.15-7.65,1.64-11.5,1.3-9.55,2.66-19.1,3.24-28.73,0.13-2.16.18-4.33,0.15-6.5,0-1.14,0-2.29-.07-3.43q-0.14-2-.27-4c-0.09-1.24-.3-2.49-0.45-3.73-0.2-1.63-.48-3.24-0.75-4.86-0.35-2.1-.71-4.21-1.2-6.28s-0.93-4-1.53-5.93-1.33-4.11-2.07-6.16c-1.31-3.63-2.89-7.16-4.43-10.69-0.67-1.64-1.34-3.27-1.91-4.94-0.34-1-.75-2-1-3l-1-3.65c-0.5-1.77-.92-3.59-1.28-5.39s-0.81-3.89-1.16-5.85c-1.52-8.43-2.95-16.85-4.16-25.33-1.25-9.59-2.39-19.19-3.76-28.76q-1.12-7.81-2.48-15.57c-0.39-2.23-.84-4.45-1.26-6.67s-0.85-4.43-1.36-6.62-1-4.66-1.62-7c-1-3.54-1.94-7.07-3.12-10.56a72.41,72.41,0,0,0-9.43-18.79c-1.64-2.31-3.42-4.52-5.09-6.8s-3.2-4.42-4.75-6.68c-1.22-1.78-2.39-3.59-3.65-5.34-1.58-2.22-3.19-4.39-4.85-6.55s-3.17-4.07-4.88-6c-3.43-3.82-6.91-7.56-10.52-11.21a134.14,134.14,0,0,0-10.18-9.12c-3.82-3.13-7.6-6.31-11.3-9.59s-7.14-6.61-10.66-10c-0.7-.66-1.4-1.3-2.11-1.94-0.87-.78-1.71-1.6-2.62-2.32l-3.32-2.61c-1.14-.9-2.36-1.69-3.56-2.5-1.82-1.23-3.7-2.38-5.59-3.52-2.09-1.26-4.17-2.55-6.31-3.73a97,97,0,0,0-13.77-6.63c-1.56-.56-3.11-1.13-4.7-1.6a52,52,0,0,0-10.79-2,44.6,44.6,0,0,0-6,.09c-1.21.07-2.41,0.14-3.62,0.26-2.21.23-4.42,0.52-6.63,0.73-2.5.24-5,.43-7.48,0.59-2.16.13-4.35,0.1-6.52,0.1l-7,0c-4.61,0-9.25,0-13.86-.25-2.55-.15-5.08-0.32-7.62-0.55-2.16-.19-4.32-0.47-6.48-0.72-6.26-.88-12.51-1.8-18.8-2.46-3-.31-6-0.56-8.93-0.87s-5.94-.69-8.91-1.07c-5-.77-9.9-1.59-14.87-2.2l-3.61-.44c-1.36-.16-2.75-0.17-4.11-0.25-0.87-.05-1.74-0.15-2.61-0.15h-0.05Zm256.55,187.38,0.1,0.74-0.1-.74h0Z" transform="translate(-484.01 -118.07)"/><path class="cls-2" d="M970.2,606.58a1.47,1.47,0,1,0,1.47-1.47,1.49,1.49,0,0,0-1.47,1.47h0Z" transform="translate(-484.01 -118.07)"/><path class="cls-2" d="M967.63,591.74a4.4,4.4,0,0,0-2.62,2,4.19,4.19,0,0,0-.44,3.38c3.78,9.33,7.22,18.87,9,28.82a16.78,16.78,0,0,1,.07,2.62,48.57,48.57,0,0,1-2.13,7.6c-2.12,4.36-4.74,8.48-7.26,12.62-2.7,4.45-5.49,8.84-8.12,13.33s-5.07,9-7.62,13.42c-2.72,4.76-5.75,9.32-8.84,13.84q-4.45,6.55-8.62,13.29c-2.66,4.32-5.16,8.73-7.77,13.08q-4.14,6.93-8.61,13.65c-3,4.42-6.18,8.65-9.28,13s-6.09,8.62-8.89,13.1-5.13,9-7.44,13.56a135.11,135.11,0,0,0-6.46,15.62c-1.79,5.07-3.22,10.26-4.79,15.39-2.1,6.87-4,13.83-6.71,20.49-0.93,2-1.94,3.87-3,5.75a56,56,0,0,1-3.32,4.86c-1.55,1.87-3.1,3.75-4.79,5.5-2,2-4,4-6.07,6-3.74,3.5-7.74,6.73-11.71,10s-8.32,6.51-11.91,10.37c-2,2.18-3.95,4.41-5.76,6.77a47.19,47.19,0,0,0-4.23,6.67,48,48,0,0,0-2.41,5.61c-0.61,1.62-1.2,3.26-1.67,4.92-1,3.63-2,7.26-3,10.9s-1.86,7-2.67,10.57c-0.89,3.84-1.57,7.73-2.21,11.62a6,6,0,0,0,.56,4.32,5.6,5.6,0,0,0,7.67,2,5.44,5.44,0,0,0,2.57-3.35c1.41-7.2,2.94-14.38,4.66-21.51q1.25-5.16,2.61-10.29a79.13,79.13,0,0,1,3-8.91c0.67-1.33,1.36-2.63,2.09-3.93a40.52,40.52,0,0,1,2.53-3.78,81,81,0,0,1,9.85-10.45c4-3.48,8-6.88,11.92-10.47a140.39,140.39,0,0,0,11-11.16c1.93-2.23,3.88-4.47,5.61-6.87,0.77-1.07,1.54-2.12,2.25-3.24s1.4-2.3,2.07-3.48A70.67,70.67,0,0,0,881.71,817c1.39-4,2.58-8,3.87-12,2.66-8.23,5.19-16.5,8.44-24.52,2-4.52,4.09-8.92,6.45-13.25a157,157,0,0,1,8.24-13.41c5.86-8.61,12.41-16.72,18-25.5s10.66-18,16.39-26.77c3-4.55,6.12-9,9.08-13.54s5.69-9.1,8.42-13.72,5.29-9,8-13.37,5.46-8.79,8.12-13.23a71.45,71.45,0,0,0,3.49-6.4,32.54,32.54,0,0,0,2.48-8.06,28.63,28.63,0,0,0,.54-4.79,18.72,18.72,0,0,0-.38-3.27c-0.13-.7-0.27-1.4-0.43-2.1-0.57-2.55-1.3-5.07-2-7.58-2.1-7-4.66-13.89-7.41-20.68a4.77,4.77,0,0,0-2-2.62,4.42,4.42,0,0,0-2.22-.6,4.34,4.34,0,0,0-1.16.16h0Z" transform="translate(-484.01 -118.07)"/><path class="cls-2" d="M741,743.1a4.3,4.3,0,0,0-1.18,2.83c-0.87,8.76-1.41,17.55-1.88,26.34q-0.37,6.94-.74,13.89c-0.1,2-.2,3.91-0.27,5.86a32.54,32.54,0,0,0,.27,7.5,4,4,0,0,0,5.9,2.4,3.87,3.87,0,0,0,1.85-2.4,45.68,45.68,0,0,0,.49-7.12c0-2,.07-4.1.13-6.14q0.2-6.87.47-13.73c0.35-8.87.9-17.76,1.78-26.6a3.84,3.84,0,0,0-1.17-2.83,4,4,0,0,0-5.66,0h0Z" transform="translate(-484.01 -118.07)"/><path class="cls-2" d="M722.74,736.8a3.89,3.89,0,0,0-2.14,1.64q-5.65,7.41-11.22,14.89c-1.23,1.64-2.35,3.39-3.51,5.09L704,761.14c-0.51.74-.93,1.56-1.39,2.34a88.21,88.21,0,0,0-5.29,9.77,59.26,59.26,0,0,0-3,8.7c-0.39,1.5-.74,3-1.09,4.54-0.22.95-.41,1.9-0.59,2.86a45.88,45.88,0,0,0-.95,6.76,9.52,9.52,0,0,0,.72,3.93,8.14,8.14,0,0,0,1,1.88,8.79,8.79,0,0,0,1.49,1.6,10.51,10.51,0,0,0,3.59,1.91,11.24,11.24,0,0,0,2.05.35,20.56,20.56,0,0,0,2.2.12c0.82,0,1.65-.06,2.47-0.11a25.13,25.13,0,0,1,4,.06,26.28,26.28,0,0,1,4.51,1.34c1.76,0.8,3.5,1.63,5.2,2.58,2,1.11,4,2.22,6,3.29s4,2,6,3,3.85,2,5.73,3.09,3.65,2.28,5.45,3.45,3.57,2.21,5.42,3.2c3.77,2,7.71,3.64,11.54,5.53,5.55,2.72,11,5.79,16.78,8a174.7,174.7,0,0,0,18.09,5.49,4.27,4.27,0,1,0,2.27-8.24A196.68,196.68,0,0,1,777.48,830q-5.75-2.56-11.43-5.26c-4-1.89-8.1-3.63-12.12-5.52a109.11,109.11,0,0,1-11-6.42,126.14,126.14,0,0,0-11.52-6.1c-3.57-1.74-7-3.75-10.56-5.51a38.49,38.49,0,0,0-8.42-3.18,21.47,21.47,0,0,0-7.17-.35,25.69,25.69,0,0,1-4.56.27l-0.63-.17-0.46-.28-0.1-.1-0.09-.16c-0.08-.25-0.14-0.5-0.2-0.76a21.69,21.69,0,0,1,.08-2.32c0.31-2,.7-4.08,1.15-6.09,0.26-1.17.51-2.34,0.8-3.5a62.28,62.28,0,0,1,2.61-8.27,109.86,109.86,0,0,1,6-10.92c0.43-.74.93-1.44,1.41-2.14l3.37-4.94c1.39-2,2.9-4,4.38-5.95q3.88-5.17,7.79-10.32a3.42,3.42,0,0,0,.36-2.75,3.56,3.56,0,0,0-3.46-2.63,3.55,3.55,0,0,0-.94.13h0ZM699.1,796.61l0.14,0.34q-0.08-.17-0.14-0.34h0Zm-0.09.23,0.28,0.37a4.33,4.33,0,0,1-.28-0.37h0Z" transform="translate(-484.01 -118.07)"/><path class="cls-2" d="M994.16,625.64a6.24,6.24,0,0,0-2.23,8.54,5.94,5.94,0,0,0,3.73,2.87,29.55,29.55,0,0,1,5.57,1.3,23.25,23.25,0,0,1,3.21,2,46.48,46.48,0,0,1,6.31,6,27.33,27.33,0,0,1,2.49,4.1,22.28,22.28,0,0,1,.9,3.46,99.31,99.31,0,0,1-.48,19.23c-0.29,2.08-.61,4.15-1,6.21-0.54,2.68-1.17,5.34-1.86,8-1.32,5.05-3,10-4.65,14.95s-3.32,10.07-5.24,15-4.08,9.92-6,14.92c-3.85,9.95-6.4,20.35-9.32,30.6-2.87,10.07-6,20.08-7.77,30.41-1.27,7.31-2.47,14.63-3.93,21.91-0.69,3.48-1.55,6.9-2.47,10.32a79.71,79.71,0,0,1-3.37,9.47,61.84,61.84,0,0,1-3.59,7c-1.73-.58-3.4-1.35-5.11-2-2.09-.8-4.16-1.66-6.23-2.51-2.59-1.15-5.08-2.48-7.63-3.71-2.72-1.31-5.51-2.42-8.3-3.56a171.87,171.87,0,0,1-15.77-8.4c-2.92-1.7-5.83-3.4-8.75-5.09-1.94-1.12-3.87-2.24-5.86-3.27-2.35-1.21-4.75-2.3-7.18-3.33-4-1.67-8.32-2.41-12.53-3.16a5.57,5.57,0,0,0-4,.53,5.22,5.22,0,0,0-1.87,7.14,5,5,0,0,0,3.12,2.4,65.63,65.63,0,0,1,12.23,3c6.81,3,13.13,7.06,19.51,10.88,4,2.36,7.91,4.71,11.93,6.95,3.8,2.12,7.85,3.73,11.72,5.72,1.94,1,3.85,2.07,5.82,3s4.19,1.83,6.3,2.71,4.17,1.81,6.21,2.81a38.51,38.51,0,0,0,4.34,1.85c0.47,0.17.91,0.3,1.4,0.43a8.47,8.47,0,0,0,4.16,0,12,12,0,0,0,5.14-3.21,28.37,28.37,0,0,0,4-6.19c0.66-1.23,1.22-2.5,1.8-3.77,1.29-2.79,2.31-5.69,3.33-8.58,0.91-2.59,1.54-5.3,2.21-8s1.09-5.11,1.57-7.66c1-5.36,1.86-10.74,2.72-16.13,0.79-5,1.67-10,2.84-14.88,1.25-5.27,2.77-10.48,4.26-15.69s3-10.51,4.41-15.77c1.32-4.76,2.58-9.57,4.2-14.25,1.77-5.12,3.83-10.12,5.81-15.16s3.75-10,5.44-15c3.36-10.09,6.86-20.18,8.6-30.7a123,123,0,0,0,1.73-23,34.53,34.53,0,0,0-1.27-8.9,28.14,28.14,0,0,0-2.85-6.21,43.11,43.11,0,0,0-5.17-6.78,46.35,46.35,0,0,0-3.9-3.68,22.69,22.69,0,0,0-7.52-4.5,35.16,35.16,0,0,0-8-1.56,6.23,6.23,0,0,0-3.15.85h0Zm19.69,46.1-0.11.8,0.11-.8h0Z" transform="translate(-484.01 -118.07)"/><path class="cls-2" d="M670.24,655.82c-6,3.47-12,6.94-18,10.35-5.2,2.94-10.45,5.76-15.87,8.28-2,.85-4.08,1.68-6.16,2.43l-7.93,2.82c-5,1.78-9.87,3.76-14.76,5.74-5.08,2.06-10.07,4.4-15,6.82s-9.94,4.94-14.86,7.51c-4.77,2.48-9.47,5.08-14.05,7.89-1.05.64-2.06,1.38-3.08,2.07-0.53.36-1,.77-1.54,1.16-0.91.68-1.87,1.33-2.73,2.07l-3.14,2.69c-1.08.92-2.07,2-3.09,3a58.9,58.9,0,0,0-4.88,5.38l-2.71,3.36c-1.22,1.51-2.31,3.13-3.44,4.7a105.18,105.18,0,0,0-8.14,13.82c-5,9.93-8,20.71-11,31.39-1.45,5.23-2.74,10.51-4,15.8-1.2,5.12-2.3,10.29-3.21,15.47q-2.91,16.46-5.05,33c-1.42,10.81-2.82,21.64-4,32.48-0.76,7.21-1.3,14.44-1.78,21.67q-0.36,5.55-.82,11.09c-0.25,3.13-.66,6.25-1.05,9.37q-1.1,7.64-2.37,15.25c-1,5.84-1.8,11.68-2.57,17.55-0.69,5.28-1.11,10.59-1.46,15.9-0.34,5.11-.69,10.21-0.94,15.32-0.52,10.69-.83,21.41-0.78,32.11a254.11,254.11,0,0,0,2.12,33.41c0.27,2,.61,4,1.06,6s1.06,4,1.69,6c1.23,3.86,2.61,7.68,3.95,11.51,2.76,7.91,5.84,15.68,9.1,23.4,1.53,3.61,3.13,7.18,4.72,10.75,0.86,1.94,1.72,3.88,2.62,5.8,1.43,3.07,3.57,7.54,7.59,7.07a4.57,4.57,0,0,0,4.41-5.79,4.82,4.82,0,0,0-1.5-2.36c-3-6.25-5.73-12.71-8.44-19.11-1.48-3.58-2.93-7.18-4.32-10.8-1.46-3.79-2.77-7.62-4.07-11.46-1.2-3.55-2.3-7.13-3.39-10.72a73.33,73.33,0,0,1-2.3-10.47c-0.56-5.27-.94-10.55-1.25-15.85-0.3-5.14-.5-10.3-0.52-15.45,0-10.76.12-21.55,0.61-32.3,0.29-6.4.73-12.79,1.18-19.18,0.43-6,1.13-12.07,1.91-18.08,0.75-5.16,1.58-10.31,2.4-15.46,0.89-5.64,1.67-11.29,2.38-17,0.67-5.41,1-10.87,1.35-16.31,0.34-5.25.69-10.5,1.17-15.75,0.85-9.29,2.06-18.54,3.27-27.79,2.91-21.27,6-42.52,11.35-63.34q2.2-8.61,4.7-17.14c0.74-2.53,1.51-5.05,2.37-7.54s1.85-5.17,2.85-7.74c0.72-1.6,1.43-3.21,2.23-4.78,1.13-2.22,2.29-4.39,3.52-6.56,1.11-1.94,2.32-3.81,3.53-5.7,1-1.61,2.19-3.14,3.3-4.69a88.07,88.07,0,0,1,6.89-8c1.48-1.46,3-2.9,4.52-4.27,1.18-1,2.39-2,3.62-3,1.93-1.35,3.87-2.65,5.85-3.92s4.3-2.55,6.46-3.8c4.16-2.41,8.39-4.7,12.63-7s8.53-4.47,12.86-6.59,8.55-4,12.89-5.86c4.53-1.87,9.09-3.67,13.68-5.42A127,127,0,0,0,646,680.29c4.82-2.6,9.52-5.4,14.25-8.16s9.68-5.66,14.53-8.47a4.53,4.53,0,0,0-2.32-8.44,4.51,4.51,0,0,0-2.27.61h0ZM637.47,674l-0.64.27,0.64-.27h0ZM510.13,1093.36l-0.33-.79-0.18-.42,0.51,1.21h0Z" transform="translate(-484.01 -118.07)"/><path class="cls-2" d="M510,1091.62a53,53,0,0,0-5.72,2.58,35.14,35.14,0,0,0-5.56,4,45.61,45.61,0,0,0-4.94,5,50.61,50.61,0,0,0-4.33,5.73,28.58,28.58,0,0,0-2.78,6.53,63.87,63.87,0,0,0-1.66,6.72,49.2,49.2,0,0,0-1,7.13,29.81,29.81,0,0,0,.5,6.64q0.06,0.34.12,0.67a29.15,29.15,0,0,1,7.48,7.34,22.64,22.64,0,0,1,7.62,4.81,111.3,111.3,0,0,0-4.74-12.12l-0.33-.79a20,20,0,0,1-1.23-4.42,29.07,29.07,0,0,1,.11-5.5,54,54,0,0,1,2.66-10.83,27.93,27.93,0,0,1,3-4.8,45.07,45.07,0,0,1,6.45-6.66c1-.7,2-1.34,3-1.95a27.79,27.79,0,0,1,3.19-1.53l0.45-.18a4.74,4.74,0,0,0,2.6-2,4.35,4.35,0,0,0-1.56-5.95,4.75,4.75,0,0,0-2.28-.62,2.94,2.94,0,0,0-1.07.19h0Zm1.54,8.69-0.39.16,0.39-.16h0Z" transform="translate(-484.01 -118.07)"/><path class="cls-2" d="M1020.58,633.45a27.57,27.57,0,0,0-5.4,1.07,29,29,0,0,0-4.8,2.18,4,4,0,1,0,4.08,7c0.76-.41,1.53-0.78,2.31-1.14a21.51,21.51,0,0,1,4.09-1,69.64,69.64,0,0,1,15.09.2c1.48,0.25,2.95.55,4.41,0.93a31.32,31.32,0,0,1,3.8,1.34,103.33,103.33,0,0,1,11.46,6.21c3.27,2,6.55,4,9.76,6s6.3,4.19,9.49,6.2c1.54,1,3.05,2,4.64,2.93l2.8,1.57c0.78,0.44,1.55.94,2.37,1.32l5.42,2.6c1.7,0.82,3.47,1.5,5.2,2.25,3.75,1.62,7.59,3.06,11.41,4.54,6.68,2.6,13.3,5.34,20,7.82,4.21,1.56,8.46,3.06,12.63,4.74s8.58,3.48,12.86,5.25l-0.74-.31c3.36,1.41,6.73,2.81,10,4.44,1.75,0.87,3.48,1.73,5.18,2.71,1.86,1.07,3.66,2.15,5.45,3.33,6.58,4.34,12.85,9.13,19.09,13.93,3.66,2.84,7.3,5.7,11,8.43s7.62,5.23,11.59,7.61c7.54,4.54,15.53,8.34,22.71,13.44a85.62,85.62,0,0,1,7.43,6.76c2.7,2.78,5.3,5.61,7.77,8.59a32.55,32.55,0,0,1,3.12,5.07l1.46,3.06a126.08,126.08,0,0,1,6.29,19.69c0.82,3.64,1.61,7.29,2.29,11s1.38,7.52,2.12,11.27c0.7,3.54,1.64,7,2.51,10.54s1.76,7.28,2.58,10.94c0.78,3.46,1.49,6.93,2.27,10.38,0.84,3.72,1.75,7.43,2.71,11.12,1.34,5.19,2.85,10.36,3.93,15.61,1.14,5.5,2.06,11,2.88,16.59s1.26,10.88,1.81,16.32c0.62,6.13,1.16,12.27,1.54,18.42,0.36,5.87.64,11.75,0.81,17.63,0.08,2.91.12,5.83,0.05,8.75s-0.27,5.57-.52,8.35c-1,6.93-2.37,13.77-3.84,20.63-0.78,3.63-1.51,7.26-2.16,10.91s-1.18,7.39-1.72,11.1q-1.54,10.44-3.15,20.88c-1.14,7.41-2.14,14.84-3.27,22.26s-2.42,15-3.48,22.45c-1,7.34-2.17,14.67-3.3,22q-0.71,4.61-1.31,9.23a23,23,0,0,1,3.79-5l4.61-3.55c0.26-.16.53-0.3,0.8-0.45l0,0a17.58,17.58,0,0,1,1.23-2c0.47-3.15.94-6.3,1.39-9.45,1.05-7.35,2.06-14.71,3.2-22,1.2-7.7,2.27-15.42,3.36-23.14,1-7.06,2.11-14.1,3.17-21.15,1.09-7.24,2-14.54,3.42-21.72s3.27-14.33,4.48-21.57c0.67-4,1.26-8,1.62-12.06,0.3-3.48.34-7,.38-10.47,0.09-7.4.15-14.8-.17-22.2s-0.94-14.7-1.62-22c-0.72-7.78-1.61-15.53-2.85-23.25q-0.88-5.46-2.08-10.85c-0.8-3.54-1.72-7.06-2.61-10.57-1.84-7.25-3.52-14.53-5.12-21.84-0.78-3.54-1.61-7.07-2.47-10.59s-1.77-6.87-2.57-10.33c-1.64-7-2.76-14.17-4.43-21.2a135.5,135.5,0,0,0-6.63-21.39c-0.8-1.92-1.62-3.83-2.52-5.7-0.57-1.19-1.17-2.34-1.82-3.48a38.11,38.11,0,0,0-3.52-5c-2.39-3-5-5.77-7.57-8.53-1.31-1.39-2.64-2.78-4.07-4.05-2.06-1.84-4.17-3.58-6.38-5.24a121.55,121.55,0,0,0-11.79-7.45q-5.72-3.35-11.34-6.84c-4-2.5-7.84-5.23-11.64-8.05-5.81-4.55-11.55-9.18-17.45-13.61-2.93-2.2-5.85-4.41-8.88-6.46a92,92,0,0,0-9.39-5.79c-3.33-1.7-6.68-3.33-10.11-4.81q-5.88-2.54-11.81-5c-3.34-1.39-6.68-2.77-10.07-4s-6.84-2.5-10.25-3.79c-5.68-2.14-11.32-4.37-17-6.51-5.18-1.94-10.35-3.87-15.48-5.94-2.13-.95-4.28-1.87-6.34-3l-4.07-2.14c-1.36-.72-2.67-1.57-4-2.35-4.84-2.84-9.62-5.8-14.48-8.61a161.74,161.74,0,0,0-15.25-7.88,51.83,51.83,0,0,0-9.51-3.24,55.51,55.51,0,0,0-10.26-1.11c-1.1,0-2.2-.06-3.3-0.06a68.56,68.56,0,0,0-7.32.37h0Z" transform="translate(-484.01 -118.07)"/><path class="cls-2" d="M810.2,909.91a7.4,7.4,0,0,0-2.86,4.52,18.92,18.92,0,0,0-.4,3.29c-0.12,2.05-.14,4.1-0.17,6.16-0.05,4-.09,8,0,11.93q0.2,7.62.79,15.23-0.18,6-.3,12c-0.17,8.3-.25,16.59-0.31,24.89s-0.17,16.32-.15,24.48c0,8.72.07,17.45,0.4,26.17,0.3,7.84.78,15.69,1.3,23.52q0,1.09,0,2.19a4.7,4.7,0,0,0,.26,1.54c0.56,7.66,1.4,15.3,1.83,23q0.7,12.51,1.42,25t1.77,25.18c0.72,8.68,1.57,17.35,3.05,25.94,1.06,6.18,2.32,12.31,3.52,18.46,0.53,2.73,1,5.47,1.62,8.2q0.49,2.33,1,4.66c0.16,0.72.34,1.44,0.51,2.16,0.14,0.57.29,1.12,0.44,1.68a21.14,21.14,0,0,0,1.42,3.43,4.8,4.8,0,0,0,3,2.28,5,5,0,0,0,4.83-1.28,9.64,9.64,0,0,0,1.85-3,14.51,14.51,0,0,0,.57-3.13c0.23-1.51.43-3,.61-4.53a4.52,4.52,0,0,0-3.31-4.35,4.2,4.2,0,0,0-.81-0.14q-0.27-1.32-.53-2.64c-0.73-3.73-1.43-7.47-2.14-11.21-0.69-3.58-1.4-7.16-2-10.75s-1.15-7.18-1.65-10.78c-2-16.42-3.19-32.92-4.42-49.4-0.63-8.46-1.12-16.94-1.91-25.39q-0.67-7.19-1.27-14.38a5.08,5.08,0,0,0,0-.55c0.21-2.21.23-4.45,0.32-6.67s0.16-4.44.22-6.66q0.16-5.83.2-11.67,0.1-13.69.2-27.39c0-3.73.05-7.46,0-11.18,0-2.32,0-4.64-.13-7s-0.24-4.7-.36-7-0.38-4.4-.57-6.6-0.47-4.23-.71-6.34c-0.44-3.85-1-7.68-1.51-11.52-0.72-15.32-.72-30.65-0.72-46a2.91,2.91,0,0,0-.31-1.3q0-.25,0-0.5c-0.09-1.73-.27-3.66-1.94-4.6a2.86,2.86,0,0,0-1.38-.36,2.14,2.14,0,0,0-1.23.36h0Z" transform="translate(-484.01 -118.07)"/><path class="cls-2" d="M840.51,888a3.41,3.41,0,0,0-2.12,1.63c-0.5,1.08-1,2.16-1.47,3.24-0.28.3-.55,0.62-0.8,0.93a3.88,3.88,0,0,0-1.06,2.56,3.62,3.62,0,0,0,.12.91,24.78,24.78,0,0,0-.67,3.51,10.72,10.72,0,0,0,.38,4.16,7.57,7.57,0,0,0,.85,1.84,6,6,0,0,0,1.92,1.93,7,7,0,0,0,3.78,1,8.58,8.58,0,0,0,4.21-1.44,12.75,12.75,0,0,0,4.58-5.65,12,12,0,0,0,1-3.7,6.34,6.34,0,0,0,0-1.54,7.23,7.23,0,0,0-.2-1.23,6.6,6.6,0,0,0-.45-1.14,7.73,7.73,0,0,0-5.7-4.32c0-.07,0-0.14-0.05-0.21a3.53,3.53,0,0,0-3.42-2.6,3.49,3.49,0,0,0-.93.13h0Zm3.5,9.67,0.56,0.16,0.09,0.05,0.12,0.2,0,0.16c0,0.2,0,.39,0,0.59a10.32,10.32,0,0,1-.3,1.11,11.81,11.81,0,0,1-.9,1.54,10.68,10.68,0,0,1-.79.8c-0.22.14-.45,0.28-0.68,0.4l-0.51.16c0-.12-0.06-0.23-0.09-0.35a11.48,11.48,0,0,1,0-1.42,19.66,19.66,0,0,1,.93-3.28l0.46-.1a9.76,9.76,0,0,1,1.06,0h0Zm-2.77,4.87,0.26,0.33h0a2.69,2.69,0,0,1-.25-0.34h0Zm0.54,0.52,0.15,0.06-0.15-.06h0Z" transform="translate(-484.01 -118.07)"/><path class="cls-2" d="M834.6,1014.19c-4.51,2-7.77,6.73-7.31,11.79a11.52,11.52,0,0,0,.7,3.08c0,0.34,0,.67,0,1a9.28,9.28,0,0,0,1.14,3.83,8.19,8.19,0,0,0,1.85,2.23,10.09,10.09,0,0,0,3.35,1.88,7.42,7.42,0,0,0,1.63.29,9.22,9.22,0,0,0,1.94,0,12,12,0,0,0,3.88-1,12.12,12.12,0,0,0,4.59-3.58,20.7,20.7,0,0,0,3-5.36,14.94,14.94,0,0,0,1-6.08,10,10,0,0,0-.75-3.4,7.83,7.83,0,0,0-.66-1.41,9.38,9.38,0,0,0-1.32-1.67,8.35,8.35,0,0,0-2.23-1.6,10.35,10.35,0,0,0-3.28-1,13.74,13.74,0,0,0-2.06-.16,13.22,13.22,0,0,0-5.52,1.21h0Zm7,6.75c0.27,0.07.54,0.14,0.8,0.23l0.19,0.11,0.19,0.19,0.13,0.23a9.42,9.42,0,0,1,.24.92,12.87,12.87,0,0,1,0,1.29,15.3,15.3,0,0,1-.59,2.12,16.72,16.72,0,0,1-1.28,2.23,4.45,4.45,0,0,0-1.79-1.07c-0.81-.26-1.62-0.53-2.41-0.82l-0.07,0c0.8-1.47,1.66-2.9,2.5-4.35a3.8,3.8,0,0,0,.39-0.94l0.48-.11a10.63,10.63,0,0,1,1.24,0h0Zm1.27,0.53,0.27,0.2-0.27-.2h0Zm0.2,0.34,0.1,0.14-0.1-.14h0Zm-6.25,4.86,0.13,0.17-0.14-.16h0Z" transform="translate(-484.01 -118.07)"/><path class="cls-2" d="M842.18,1148.49c-0.46.47-.93,0.95-1.4,1.41a14.78,14.78,0,0,0-2,2.48,8.36,8.36,0,0,0-1,2.38,9.16,9.16,0,0,0-.08,3.74,6.34,6.34,0,0,0,.71,2.09,5.17,5.17,0,0,0,2.94,2.48c1.77,0.65,3.63.2,5.37-.29a4.15,4.15,0,0,0,1.19-7.47l0.52-.52a4.44,4.44,0,0,0-3.16-7.58,4.37,4.37,0,0,0-3.13,1.29h0Z" transform="translate(-484.01 -118.07)"/><path class="cls-2" d="M841.65,1157.44c-1.18.89-2.33,1.8-3.44,2.78a25.86,25.86,0,0,0-2.78,3,26.49,26.49,0,0,0-2.51,3.35,10.81,10.81,0,0,0-.76,1.71,10,10,0,0,0-.54,2.35,9.42,9.42,0,0,0,2.72,8c2,1.83,4.71,2.41,7.3,2.65a11.29,11.29,0,0,0,4.24-.47,10.25,10.25,0,0,0,4-2.55,9.07,9.07,0,0,0,2.24-3.95,10.77,10.77,0,0,0,.05-4.64,11.72,11.72,0,0,0-1.56-4.08,10.8,10.8,0,0,0-3.28-3.3,6.41,6.41,0,0,0-1.23-.65,3,3,0,0,0,.19-0.51,3.21,3.21,0,0,0-2.23-3.94,3.53,3.53,0,0,0-.91-0.12,2.64,2.64,0,0,0-1.56.44h0Zm-1.78,11.05a17.79,17.79,0,0,1,3-.08c0.26,0.06.52,0.13,0.78,0.21s0.45,0.25.67,0.39,0.35,0.33.52,0.51a10.5,10.5,0,0,1,.63,1.09,11.37,11.37,0,0,1,.38,1.38c0,0.28,0,.55,0,0.83s-0.07.25-.11,0.38l-0.16.27a8.51,8.51,0,0,1-.73.72q-0.25.16-.52,0.31a8.93,8.93,0,0,1-1,.29,8.4,8.4,0,0,1-3.86-.51,7.6,7.6,0,0,1-.78-0.45l-0.22-.22-0.18-.29a9.21,9.21,0,0,1-.27-1,9.64,9.64,0,0,1,0-1.22c0.07-.32.16-0.63,0.27-0.94a10.48,10.48,0,0,1,.87-1.46l0.21-.25,0.32,0h0.22Z" transform="translate(-484.01 -118.07)"/><path class="cls-2" d="M1030,984.07c-1.16.57-2.32,1.15-3.45,1.78q-3.41,1.86-6.79,3.8c-2.45,1.39-4.88,2.81-7.38,4.11-2,1.06-4.12,2-6.22,2.92-1.67.63-3.33,1.25-5,1.79s-3.34,1-5,1.47a74.18,74.18,0,0,1-9.67,1.87c-2.06.17-4.09,0.32-6.15,0.35s-4.05,0-6.07-.11c-4-.27-8-0.65-11.93-1.12-2.16-.36-4.29-0.74-6.43-1.22-2.32-.52-4.6-1.22-6.87-1.88q-6.59-1.92-13.21-3.67c-4.25-1.13-8.56-2.06-12.86-3l-16.4-3.45a5.14,5.14,0,0,0-3.8.5,4.93,4.93,0,0,0,1.18,9c5.92,1.25,11.88,2.43,17.77,3.82,5.47,1.3,10.89,2.69,16.29,4.24,2.55,0.73,5.09,1.57,7.62,2.38,2.37,0.76,4.73,1.62,7.14,2.26a74.18,74.18,0,0,0,7.65,1.72c3.26,0.51,6.53,1,9.8,1.4,2.68,0.36,5.39.52,8.09,0.69a64.86,64.86,0,0,0,7.79-.12,88.52,88.52,0,0,0,9.28-1.24,73.72,73.72,0,0,0,7.48-1.87,58.64,58.64,0,0,0,8.32-3.08c2.45-1.11,4.86-2.25,7.2-3.57,4.5-2.54,8.75-5.53,13-8.49l2.83-2c1-.71,2.08-1.4,3.06-2.18a4.73,4.73,0,0,0,1.08-.77,6.5,6.5,0,0,0,.93-1.18,4.47,4.47,0,0,0,.46-3.5,4.55,4.55,0,0,0-3.17-3.18,3.89,3.89,0,0,0-1.5-.29c-1.72,0-3.44,1-5,1.76h0Z" transform="translate(-484.01 -118.07)"/><path class="cls-2" d="M902.42,1000.7a4.44,4.44,0,0,0-2.62,2,4.74,4.74,0,0,0-.45,3.39c0.36,2.16.7,4.31,1,6.47s0.44,4.07.66,6.1c0.25,2.32.34,4.66,0.52,7,0.32,4.26.49,8.54,0.7,12.8,0.41,8.63.56,17.27,0.66,25.9,0.11,8.87,0,17.74.29,26.6,0.12,4.25.3,8.5,0.7,12.74,0.43,4.7.85,9.4,1.49,14.07,0.93,6.77,1.94,13.84,5.48,19.81a3.64,3.64,0,0,0,6.66-2.8,137.74,137.74,0,0,1-3.38-15.86q-1.6-12.69-2.17-25.48c-0.19-4-.19-8.08-0.2-12.11,0-4.54,0-9.07-.08-13.6-0.09-9-.27-18.08-0.6-27.11-0.32-8.68-.77-17.37-1.7-26-0.39-3.63-1-7.22-1.57-10.82a4.21,4.21,0,0,0-2-2.62,4.42,4.42,0,0,0-3.39-.45h0Z" transform="translate(-484.01 -118.07)"/><path class="cls-2" d="M1029.89,1017.91c-3,2.54-6,5-9,7.55-2.67,2.24-5.3,4.53-8,6.75-1.22.93-2.43,1.86-3.68,2.74-1.68,1.18-3.37,2.32-5.09,3.45a101.27,101.27,0,0,1-14.72,8.14,59.29,59.29,0,0,1-13.79,3.81c-2.26.27-4.52,0.44-6.79,0.62-1.22.1-2.46,0.09-3.69,0.07h-1.58c-1.66,0-3.33-.15-5-0.23s-3.39-.31-5.07-0.47l-5.08-.69a71.64,71.64,0,0,1-17.22-4.58,59.5,59.5,0,0,1-8.14-4.26c-2.81-1.78-5.51-3.73-8.19-5.7a3.18,3.18,0,0,0-2.55-.34,3.31,3.31,0,0,0-2.31,4.07,3.55,3.55,0,0,0,1.52,2,91.9,91.9,0,0,0,14.24,9.06,73.38,73.38,0,0,0,16.55,5.57c5.26,1.13,10.6,1.81,15.94,2.45,0.76,0.09,1.53.14,2.3,0.2,0.95,0.07,1.9.2,2.85,0.22,2,0,4,.16,6,0.07l3.88-.18a69.65,69.65,0,0,0,7.26-.8,61.13,61.13,0,0,0,16.35-5.31,106.53,106.53,0,0,0,12.43-7c1.51-1,3-2,4.47-3s2.77-2.05,4.13-3.1a78,78,0,0,0,8.56-7.9c1.29-1.34,2.5-2.75,3.75-4.12,1.39-1.54,2.82-3,4.26-4.52a3.2,3.2,0,0,0-2.27-5.46,3.37,3.37,0,0,0-2.26.94h0Z" transform="translate(-484.01 -118.07)"/><path class="cls-2" d="M1035.27,995.79a4,4,0,0,0,0,5.64,38,38,0,0,1,3.22,3.44,58.84,58.84,0,0,1,5.33,9.57c0.66,1.39,1.28,2.78,1.89,4.18,0.75,2,1.45,3.92,2,5.93a3.32,3.32,0,0,0,6.07.79,3.49,3.49,0,0,0,.33-2.56c-0.37-1.86-.8-3.7-1.29-5.53a37.24,37.24,0,0,0-1.18-3.79c-0.93-2.38-1.86-4.73-3-7a36.25,36.25,0,0,0-7.8-10.66,4.19,4.19,0,0,0-2.86-1.15,3.89,3.89,0,0,0-2.77,1.15h0Z" transform="translate(-484.01 -118.07)"/><path class="cls-2" d="M1121.24,807.4q-6.12,22.75-12,45.55c-3.49,13.35-7,26.7-10.11,40.15q-2.54,11.05-4.94,22.13c-1.44,6.59-2.79,13.2-3.91,19.85-1.09,6.45-2,12.92-2.76,19.42-0.43,3.94-.84,7.88-1.28,11.81l-0.43,1.89c-0.32,1.4-.63,2.8-0.91,4.21-0.34,1.71-.54,3.45-0.89,5.15a15.62,15.62,0,0,0-.33,2.72c0.07,0.55.14,1.09,0.22,1.64l0.09,0.23a5.94,5.94,0,0,0,.57,1.27,4.4,4.4,0,0,0,3.78,2.16,4.33,4.33,0,0,0,3.78-2.16,18.06,18.06,0,0,0,1.3-3.31c0.13-.5.24-1,0.35-1.5,0.18-.81.34-1.62,0.49-2.43,0.34-1.87.62-3.75,0.86-5.63,0.45-3.47.83-6.95,1.19-10.43l0.32-3q0.4-1.58.83-3.14c0.47-1.7.87-3.43,1.41-5.11l1.94-6c1.13-3.49,2.47-6.91,3.75-10.35,0.57-1.54,1.22-3,1.85-4.55l2.46-5.89,4.56-10.22c1.46-3.27,3-6.5,4.56-9.75,0.64-1.36,1.34-2.68,2-4l2.51-5c0.25-.51.57-1,0.85-1.5l1.95-3.45c0.7-1.23,1.34-2.5,2.11-3.68l3-4.61c0.64-1,1.24-2,1.95-3l5.16-6.9,3-3.55c0.89-1,1.73-2.14,2.68-3.14,2.4-2.52,4.79-5,7.27-7.47,2.25-2.21,4.54-4.39,6.9-6.48,1.28-1.14,2.59-2.25,3.89-3.36l1.66-1.38c0.4-.33.8-0.68,1.2-1a11.73,11.73,0,0,0,1.77-2.06,1.74,1.74,0,0,0-.27-2.12,1.77,1.77,0,0,0-2.47,0c-0.28.26-.55,0.51-0.84,0.76-0.91.67-1.87,1.27-2.79,1.9-0.72.49-1.41,1-2.11,1.53-1.54,1.16-3,2.38-4.53,3.6-1.27,1-2.48,2.16-3.71,3.23-1.45,1.27-2.83,2.61-4.24,3.92s-2.45,2.43-3.67,3.65c-1,1-2,2-2.88,3l-4.47,5.05c-1,1.08-1.81,2.28-2.7,3.42l-2.2,2.82c-0.49.63-1,1.24-1.47,1.89l-3.2,4.68c-0.79,1.16-1.64,2.3-2.36,3.51l-3.58,6c-1.86,3.12-3.5,6.36-5.2,9.57s-3.21,6.39-4.8,9.59c-2.15,4.32-4.17,8.7-6.16,13.09v0q2-9.77,4.1-19.51c1.58-7.2,3.21-14.38,5-21.54s3.51-14.1,5.31-21.14q5.34-21,10.91-41.85l1.85-6.88a4.23,4.23,0,0,0-2.93-5.16,4.07,4.07,0,0,0-1.08-.15,4.24,4.24,0,0,0-4.08,3.07h0Z" transform="translate(-484.01 -118.07)"/><path class="cls-2" d="M1087.24,976.47a135.45,135.45,0,0,1-4.28,13,33,33,0,0,1-2.86,5.16c-0.44.65-.91,1.26-1.39,1.88-1.87,2.22-3.85,4.31-5.89,6.38s-4.2,4.2-6.23,6.36q-6.26,6.7-11.9,13.9c-1,1.23-1.9,2.52-2.79,3.81s-1.72,2.47-2.53,3.74c-1.64,2.59-3.26,5.19-4.7,7.91l-1.4,2.65c-0.79,1.49-1.43,3.05-2.08,4.61a60.16,60.16,0,0,0-2.69,8.21c-0.36,1.4-.76,2.79-1,4.2-0.31,1.61-.69,3.21-0.94,4.83-0.45,2.82-.87,5.63-1.21,8.46-0.3,2.43-.43,4.87-0.51,7.32a63.54,63.54,0,0,0,.23,6.9c0.08,1.09.17,2.17,0.3,3.25,0.09,0.76.17,1.51,0.27,2.27a22,22,0,0,0,.52,2.94,8.61,8.61,0,0,0,1.11,2.29,3.06,3.06,0,0,0,5.6-2.36c-0.13-.4-0.24-0.78-0.33-1.18-0.16-2.23-.26-4.47-0.37-6.71-0.11-2-.19-4-0.21-6s0.05-3.75.18-5.62,0.34-3.76.55-5.64q0.29-2.06.59-4.11c0.25-1.72.63-3.43,0.93-5.14,0.28-1.55.72-3.08,1.09-4.62a61.25,61.25,0,0,1,3-9c1-2.27,2.13-4.47,3.31-6.64s2.31-4.23,3.62-6.26,2.77-4.22,4.2-6.31c1.16-1.69,2.44-3.31,3.7-4.93v0q2.88-3.61,5.85-7.14c1.91-2.28,3.91-4.48,5.91-6.7s3.91-4.39,5.78-6.66a41.29,41.29,0,0,0,7.18-12.85c0.5-1.45,1-2.9,1.46-4.37,0.68-2.24,1.36-4.47,2-6.71a2.1,2.1,0,0,0-1.45-2.55,2,2,0,0,0-.54-0.07,2.12,2.12,0,0,0-2,1.52h0Z" transform="translate(-484.01 -118.07)"/><path class="cls-2" d="M1170.71,932.56a7.73,7.73,0,0,0-2.53,1.62,30.05,30.05,0,0,0-2.14,2.26l-2.52,2.7c-1.72,1.84-3.48,3.65-5.29,5.4l-3.12,3c-1.07,1-2.2,2-3.3,3-1.88,1.71-3.86,3.3-5.81,4.94l-1.16.9,0.33-.25-2.85,2.2,0.33-.25-0.54.41-1.18.91,0,0-0.26.2,0.16-.13-0.06,0-0.11.09-0.05,0-0.07.05c-1.22.94-2.51,1.8-3.76,2.69s-2.26,1.64-3.41,2.43c-2.67,1.82-5.32,3.68-8,5.46l-9.55,6.33c-0.79.52-1.6,1-2.41,1.51l-5.95,3.71-3.7,2.3c-1.7,1.06-3.46,2-5.21,3-3.15,1.75-6.34,3.42-9.62,4.92s-6.91,3-10.36,4.44a3,3,0,0,0-1.43,1.87,3.12,3.12,0,0,0,2.18,3.84l0.83,0.11a3.13,3.13,0,0,0,1.57-.43c4.32-1.84,8.69-3.57,12.91-5.63,2.05-1,4.08-2.07,6.09-3.16,1.85-1,3.73-2,5.51-3.09l9.76-6c5.08-3.14,10.07-6.44,15-9.77,2.79-1.88,5.59-3.75,8.34-5.7l4.44-3.14c1.38-1,2.68-2.06,4-3.09l2.09-1.6a3.19,3.19,0,0,0,.65-0.5l0.05-.06,0.79-.64,4.27-3.59c0.56-.47,1.08-1,1.62-1.48l2.36-2.15c1.17-1.07,2.29-2.21,3.42-3.31,1.68-1.63,3.28-3.36,4.88-5.07,0.7-.74,1.38-1.51,2.07-2.27,1.14-1.27,2.2-2.63,3.4-3.84a2.72,2.72,0,0,0,0-5.25,2.92,2.92,0,0,0-.66-0.14l-0.78-.11a3,3,0,0,0-1.19.25h0Zm3,5.07-0.12,0,0.12,0h0Zm-0.55.3L1173,938l0.12-.09h0Zm-27,17.46-0.06,0-0.19.15,0.13-.1,0.11-.09h0Zm-0.63.48-0.32.25,0.32-.25h0Zm-5.3,4.09-0.17.13,0,0h0l-0.07.06-0.05,0,0.34-.26h0Zm0.6-.46,0.1-.08,0,0,0.18-.14-0.31.24h0Zm0.75-.58,0.33-.26-0.33.26h0Zm0.43-.34,0,0h0l-0.05,0h0Zm0.05,0,0,0,0,0h0Zm0.16-.12-0.18.14-0.14.11,0.23-.18,0.1-.08h0Zm-0.14.11,0.14-.11,0.11-.08-0.25.19h0Zm0.25-.19h0Z" transform="translate(-484.01 -118.07)"/><path class="cls-2" d="M1040.32,1098.88q-0.09,8.67.14,17.34,0.09,3.64.21,7.3a75.86,75.86,0,0,1-.11,10.59,33.43,33.43,0,0,1-2,7.13,82.16,82.16,0,0,1-5.43,10.1c-0.86,1.4-1.71,2.81-2.56,4.22a48.31,48.31,0,0,0-3.68,7.57,46,46,0,0,0-1.87,6.29c-0.2.89-.32,1.8-0.49,2.7-0.35,1.92-.55,3.86-0.78,5.8-0.35,3-.5,6-0.61,9q-0.17,4.85-.24,9.7c0,1.37,0,2.73,0,4.09a42.6,42.6,0,0,0,.75,6.29,3.35,3.35,0,0,0,5.6,1.48,3.21,3.21,0,0,0,1-2.37,35.57,35.57,0,0,1-.28-4.56c0-1.43,0-2.87.06-4.3,0-2.37.05-4.74,0.11-7.11,0.06-2.57.08-5.16,0.23-7.72,0.08-1.32.12-2.66,0.25-4s0.25-2.53.37-3.8l0.52-3.36a37,37,0,0,1,.89-3.89,43.65,43.65,0,0,1,1.68-5c1.42-3.23,3.17-6.31,4.86-9.4,0.7-1.27,1.36-2.56,2-3.86a64,64,0,0,0,3.57-8.6,32.43,32.43,0,0,0,1.29-6.69,45.87,45.87,0,0,0,.06-6l-0.18-4.77q-0.21-5.57-.37-11.14c-0.12-4.38-.09-8.77,0-13.15a2.47,2.47,0,0,0-4.95,0h0Z" transform="translate(-484.01 -118.07)"/><path class="cls-2" d="M617.61,964.23a3.75,3.75,0,0,0,2.59,4.57c7.89,2,15.8,4,23.68,6.05q11.08,2.9,22.11,6l11.18,3.11c3.53,1,7,2,10.6,2.87a90.8,90.8,0,0,0,16.3,2.82c2.81,0.16,5.61,0,8.43-.13,0.8,0,1.6-.14,2.4-0.22,1.13-.11,2.24-0.23,3.36-0.39a53,53,0,0,0,6.75-1.34c2.25-.64,4.43-1.41,6.61-2.26a59.05,59.05,0,0,0,6.62-3.12c1.14-.61,2.25-1.3,3.37-1.95,0,1.15,0,2.3,0,3.43,0,1.82,0,3.64,0,5.45,0,3.78,0,7.56.14,11.34,0.2,7.47.46,14.94,0.62,22.41,0.08,3.62.12,7.25,0.21,10.87,0.05,2,.05,4,0.16,6l0.3,6c0.1,1.94.36,3.89,0.54,5.82,0.08,0.82.22,1.64,0.34,2.46,0.18,1.27.36,2.53,0.53,3.79,0.26,1.84.64,3.67,1,5.5,0.29,1.63.63,3.25,1,4.86,1.1,5.19,2.34,10.33,3.56,15.49a2.51,2.51,0,0,0,4.59.6,2.71,2.71,0,0,0,.25-1.93c-0.48-2.86-1-5.71-1.46-8.56-0.43-2.4-.95-4.79-1.41-7.2-0.53-2.74-1-5.48-1.54-8.23-0.4-2.25-.7-4.52-1-6.78q-0.26-2.88-.52-5.77c-0.18-2-.2-3.94-0.29-5.91-0.18-3.77-.18-7.56-0.24-11.33-0.12-7.35-.31-14.7-0.54-22-0.23-7.5-.31-15-0.32-22.51,0-2,0-4.08,0-6.12a5.94,5.94,0,0,0-.86-3.45,3.24,3.24,0,0,0-1.83-1.41,8.35,8.35,0,0,0-1.76-.24,12.39,12.39,0,0,0-2.25.24,11.65,11.65,0,0,0-1.36.26c-3.4.91-6.62,2.42-9.92,3.63-2.32.86-4.66,1.66-7,2.35a56.21,56.21,0,0,1-6.55,1.37c-1.59.18-3.17,0.35-4.76,0.45l-3.15.19a46.77,46.77,0,0,1-8.45-.39c-3.57-.52-7.14-1.26-10.64-2.13S681.64,977,678,976c-7.53-2-15-4-22.56-5.93-11.08-2.91-22.21-5.63-33.3-8.48a3.81,3.81,0,0,0-.95-0.12,3.74,3.74,0,0,0-3.62,2.71h0Z" transform="translate(-484.01 -118.07)"/><path class="cls-2" d="M611,970.5a109.79,109.79,0,0,0-.1,12.57,79.08,79.08,0,0,0,2.15,12.3c0.25,1.09.56,2.16,0.84,3.24l1.57,6q0.88,3.37,1.74,6.74c0.71,2.79,1.48,5.56,2.14,8.36l1.25,5.35c0.27,1.13.56,2.25,0.79,3.38,0.56,2.75,1.18,5.48,1.68,8.24,0.53,3,1.07,6,1.56,8.94,0.45,2.75.89,5.51,1.36,8.26,0.38,2.21.77,4.41,1.21,6.62a61.33,61.33,0,0,0,1.9,6.81,2.64,2.64,0,0,0,5.08-1.4c-1.55-6-2.59-12.12-3.68-18.22-1-5.4-2-10.79-3.13-16.14l-1-4.57c-0.27-1.27-.62-2.52-0.93-3.77-0.63-2.55-1.25-5.1-1.93-7.64l-5-18.71A104.42,104.42,0,0,1,616,985.34a86.69,86.69,0,0,1-.15-14.84,2.43,2.43,0,0,0-2.42-2.42A2.46,2.46,0,0,0,611,970.5h0Z" transform="translate(-484.01 -118.07)"/><path class="cls-2" d="M726.07,1003.87c-6.09,2.7-12.16,5.46-18.28,8.1l-5.25,2a61.74,61.74,0,0,1-6.33,2,60.82,60.82,0,0,1-7,1.45,77,77,0,0,1-18.84-.47q-4-.56-7.89-1.3c-1.46-.28-2.95-0.54-4.39-0.91l-6-1.53-7.34-1.87c-2.79-.71-5.56-1.54-8.33-2.34a3.56,3.56,0,1,0-1.9,6.87c2.85,0.83,5.69,1.67,8.56,2.41l7.77,2,5.57,1.43c2,0.52,4.12.87,6.18,1.25,3,0.56,6,1,9.08,1.4a76.73,76.73,0,0,0,16.42.59,69,69,0,0,0,16.39-3.65c1.89-.64,3.73-1.44,5.59-2.16,1-.39,2-0.87,3-1.31,0.84-.37,1.69-0.71,2.51-1.12,2.15-1.06,4.29-2.14,6.39-3.3,2.46-1.36,4.91-2.71,7.39-4a3.21,3.21,0,0,0-.77-5.87,2.92,2.92,0,0,0-.78-0.11,4.14,4.14,0,0,0-1.69.43h0Z" transform="translate(-484.01 -118.07)"/><path class="cls-2" d="M562,809a1.81,1.81,0,0,0-1.25,2.19c0.8,3.4,1.63,6.79,2.37,10.2l2.11,9.61c0.92,4.2,1.89,8.4,2.75,12.62l3.73,18.55c0.89,4.44,1.94,8.85,2.93,13.27l1,4.25c0.1,0.45.19,0.9,0.31,1.34l2.29,8.48,1.16,4.3c0.12,0.45.24,0.91,0.38,1.35l2.84,8.89,1,3.21c0.2,0.64.47,1.26,0.7,1.89l3.29,8.76c0.26,0.7.58,1.39,0.88,2.08l2.05,4.7,1.51,3.46c0.33,0.75.72,1.49,1.08,2.23,1.08,2.22,2.11,4.47,3.24,6.66,1.25,2.39,2.48,4.79,3.73,7.19,0.58,1.11,1.2,2.2,1.8,3.3s1.12,2.09,1.7,3.12c1.15,2,2.29,4.08,3.46,6.1,1.5,2.57,3,5.14,4.59,7.66,0.77,1.21,1.56,2.41,2.36,3.6,1,1.46,2.14,2.81,3.23,4.18a2.45,2.45,0,0,0,3,.38,2.48,2.48,0,0,0,.88-3.34,69.26,69.26,0,0,0-4-6.23c-1.33-2-2.66-3.95-3.92-6q-2.09-3.35-4.12-6.73c-1.33-2.2-2.61-4.43-3.89-6.66q-3.46-6-6.6-12.2c-1-2-2.12-4-3.07-6.11l-3.8-8.34,0-.08c-1-2.47-1.94-4.94-2.9-7.4l-1.23-3.13c-0.25-.64-0.44-1.31-0.65-2L583.77,895c-0.53-1.61-1-3.24-1.43-4.87l-2.62-9.38c-0.43-1.54-.76-3.11-1.12-4.67q-1.16-5-2.33-10.07c-0.29-1.23-.57-2.47-0.82-3.71l-3.8-18.66c-0.8-3.95-1.7-7.87-2.56-11.81L566.72,821c-0.79-3.6-1.65-7.19-2.5-10.77a1.78,1.78,0,0,0-1.74-1.31,1.71,1.71,0,0,0-.45.06h0Z" transform="translate(-484.01 -118.07)"/><path class="cls-2" d="M547.71,880.35a3,3,0,0,0-.88,2.13,3.19,3.19,0,0,0,.88,2.13c2.42,2.88,4.79,5.8,7.28,8.62l3.18,3.6,9.51,10.78c1.79,2,3.71,3.91,5.6,5.84,2.38,2.41,4.71,4.84,7.14,7.2l11.09,10.77c1.68,1.63,3.3,3.34,4.89,5.07s2.83,3.21,4.15,4.89c1.07,1.47,2.14,2.94,3.18,4.42a3,3,0,0,0,1.11,1.11,3.1,3.1,0,0,0,4.25-1.11,3,3,0,0,0,.31-2.39,28,28,0,0,0-1.54-3.31c-0.45-.79-1-1.52-1.48-2.27s-1.31-1.68-2-2.5-1.29-1.45-1.93-2.16c-1-1.16-2.17-2.25-3.29-3.33s-2.43-2.37-3.68-3.53q-4.14-3.84-8.24-7.71c-1.13-1.07-2.29-2.11-3.39-3.2l-3.61-3.61-6.93-6.92c-0.4-.4-0.76-0.85-1.13-1.27l-3.46-3.89-7.83-8.83c-3.05-3.45-6-7-9-10.51a2.92,2.92,0,0,0-2.13-.88,3,3,0,0,0-2.13.88h0Z" transform="translate(-484.01 -118.07)"/><path class="cls-2" d="M534.71,928.39a3,3,0,0,0-1.36,1.77,3.12,3.12,0,0,0,.3,2.29c4.13,8.59,8.17,17.23,12.23,25.86,3,6.44,5.93,12.94,8.89,19.41,1.5,3.29,3,6.56,4.57,9.84l2.13,4.57c0.59,1.27,1.28,2.49,1.91,3.73l3.48,6.79c0.45,0.87.89,1.73,1.39,2.57l6.38,10.65c0.2,0.33.44,0.63,0.66,0.95l1.94,2.81,4.21,6.09c2,2.87,4.19,5.59,6.31,8.37,0.95,1.24,1.87,2.52,2.86,3.73l3.82,4.69,3.65,4.48c1,1.29,2.2,2.5,3.3,3.75l3.7,4.2c0.41,0.47.88,0.9,1.31,1.35l2.84,2.92c1,1.06,2.05,2.11,3.12,3.13,1.33,1.26,2.64,2.56,4,3.79s2.74,2.49,4.16,3.68,3.11,2.59,4.7,3.84c3,2.36,6.19,4.75,9.85,6a14,14,0,0,0,3.1.72,2.36,2.36,0,0,0,1,0,3.62,3.62,0,0,0,1.83-.5,5.79,5.79,0,0,0,1.17-.82c0.3-.37.59-0.75,0.86-1.14a5.18,5.18,0,0,0,.46-3.25,5,5,0,0,0-1.14-2.26,4.4,4.4,0,0,0-2.09-1.19,4,4,0,0,0-2.87.48,3.08,3.08,0,0,0-.84.73l-0.06,0a27.13,27.13,0,0,1-3-1.62c-1.13-.73-2.22-1.5-3.32-2.29-2.75-2.16-5.41-4.4-8-6.71-2.44-2.14-4.84-4.36-7.12-6.67l-4.81-4.87c-1.06-1.07-2-2.24-3-3.36L603,1042.2c-1-1.14-2-2.35-2.93-3.52-1.93-2.32-3.89-4.61-5.75-7l-6.43-8.23q-3.5-5-7-9.92c-0.57-.8-1.08-1.62-1.6-2.46l-4-6.5L573.7,1002c-0.18-.3-0.38-0.59-0.55-0.9l-2.62-5c-1.52-2.9-3.1-5.77-4.5-8.73q-5-10.5-9.87-21-4.69-10.14-9.45-20.23-3.95-8.36-7.94-16.7a2.78,2.78,0,0,0-2.55-1.45,3,3,0,0,0-1.51.39h0Z" transform="translate(-484.01 -118.07)"/><path class="cls-2" d="M634.4,1049.36a105.89,105.89,0,0,0,.52,11.94c0.27,2.16.55,4.3,0.86,6.45a48.85,48.85,0,0,0,.88,4.81c0.92,3.62,1.84,7.25,2.93,10.81a103.31,103.31,0,0,0,4.08,11c1.54,3.56,3.23,7,5,10.52q1.51,3,3,6.07c0.76,1.59,1.46,3.22,2.18,4.84,0.59,1.47,1.19,2.93,1.7,4.42,0.64,1.87,1.23,3.74,1.8,5.63,0.5,1.65.85,3.38,1.24,5.06s0.77,3.38,1.14,5.07c1.59,7.14,3.16,14.29,4.82,21.41,1.76,7.48,3.5,15,5.14,22.47,1.53,7,2.93,14,4.45,21,0.6,2.76,1.08,5.67,2.6,8.1a4.22,4.22,0,0,0,7.72-1,4.36,4.36,0,0,0-.43-3.25l-0.16-.31c-0.38-1.14-.65-2.31-0.95-3.48l-0.71-2.82q-0.58-2.31-1.14-4.64-1.35-5.58-2.67-11.16-2.62-11.14-5.31-22.26-2.58-10.68-5-21.4c-0.76-3.46-1.53-6.91-2.34-10.36-0.37-1.58-.73-3.17-1.21-4.72-0.62-2-1.27-3.9-2-5.84-1.12-3.18-2.59-6.24-4-9.3-1.26-2.76-2.73-5.43-4.14-8.11s-2.92-5.5-4.26-8.31-2.62-5.64-3.86-8.49q-2.33-5.81-4.2-11.77a75.8,75.8,0,0,1-2.37-11.78l-0.15-2.07c-0.05-.75-0.15-1.51-0.16-2.26,0-2.07-.07-4.14-0.09-6.2a2.48,2.48,0,1,0-5,0h0Z" transform="translate(-484.01 -118.07)"/></svg>