<svg id="Draw_Layer" data-name="Draw Layer" xmlns="http://www.w3.org/2000/svg" viewBox="0 0 420.24 465.78"><defs><style>.cls-1{fill:#2c2c2c;}.cls-2{fill:#7fb2f0;}</style></defs><title>Project - Drawing 3</title><path class="cls-1" d="M583,406.51c-0.28.07-.56,0.16-0.83,0.26a14.58,14.58,0,0,0-1.4.56,4.26,4.26,0,0,0-1.35.91,2.86,2.86,0,0,0-.19.26c-0.63.22-1.26,0.45-1.89,0.69l-0.42.08a4.12,4.12,0,0,0-.74.23h0l-1,.13-1.48.21a5.16,5.16,0,0,0-1.42.54H572a6.68,6.68,0,0,0-2.11.21,2.75,2.75,0,0,0-1.05-.21h-0.09l-0.13-.14a4,4,0,0,0-.71-0.56,2.59,2.59,0,0,0-1.76-.31,2.23,2.23,0,0,0-1.27-.95,2.69,2.69,0,0,0-1.43-.07,4.27,4.27,0,0,0-.75.25,10,10,0,0,0-1.59.79c-0.26.16-.5,0.34-0.75,0.53a10.2,10.2,0,0,0-.87.72,4.76,4.76,0,0,0-.52.6,2.21,2.21,0,0,0-.57,1c-0.12.53-.16,1.07-0.29,1.6s-0.18.78-.28,1.17c-0.15.63-.32,1.25-0.5,1.86l-0.05.19-0.21.14a7.57,7.57,0,0,0-1.09.91,4.39,4.39,0,0,0-.88,1.46l-0.27.64a2.68,2.68,0,0,0,0,1.43,2.62,2.62,0,0,0,.15.4,16.24,16.24,0,0,0-.82,1.65c-0.11.26-.21,0.51-0.31,0.77a3,3,0,0,0-.77,1.45,4.33,4.33,0,0,0,0,1.86,3.68,3.68,0,0,0,.24.71c0.05,0.15.11,0.29,0.18,0.44s0.08,0.49.12,0.74c0.09,0.54.17,1.08,0.26,1.62A6.22,6.22,0,0,0,554,433c0,0.27.1,0.54,0.16,0.81a7.34,7.34,0,0,0,.51,1.29,2.63,2.63,0,0,0,.93.93,2.6,2.6,0,0,0,1.29.36l0.7,1.23a55.19,55.19,0,0,0,3.18,5.13,2.62,2.62,0,0,0,2.32,1.3c-0.1.21-.19,0.42-0.28,0.65s-0.08.57-.12,0.86a3.6,3.6,0,0,0,.36,1.44,8,8,0,0,0,2.89,3.15,18.39,18.39,0,0,0,3.39,1.79l1,0.43c0.89,1.33,2.12,2.64,3.82,2.61a3.05,3.05,0,0,0,1.61-.52,2.8,2.8,0,0,0,.51-0.44c0.36,0,.73,0,1.09,0a13,13,0,0,0,4.43-.95,7.53,7.53,0,0,0,1.53-.73l0.29-.22,1,0.32a2,2,0,0,0,.42.63,2,2,0,0,0,1.91.5,1.91,1.91,0,0,0,1.21-.91,2,2,0,0,0,.25-0.57c0.09-.18.18-0.37,0.26-0.57l-0.2.46a13.47,13.47,0,0,0,.89-1.95,1.84,1.84,0,0,0,0-1.06,4.26,4.26,0,0,0,1-.56l0.42-.06,0.74-.11c0.43-.06.86-0.14,1.28-0.24a5.57,5.57,0,0,0,1.27-.61,2.33,2.33,0,0,0-.38-4.2l0.23-.24a4.36,4.36,0,0,0,1.07-1.71,3,3,0,0,0,.1-0.86c0.14-.31.27-0.62,0.4-0.94,0.56-1.08,1.14-2.16,1.72-3.23l0.64-1,1.2-1.83a43.91,43.91,0,0,0,2.59-4.62,2.7,2.7,0,0,0,.27-1,7.28,7.28,0,0,0,1.14-.47,2.93,2.93,0,0,0,1.37-1.79,3.14,3.14,0,0,0-.3-2.3,6.7,6.7,0,0,0-1.16-1.66,10.66,10.66,0,0,0-1-.85c-0.55-.45-1.11-0.89-1.67-1.33h0l0.06,0-0.07-.05-0.92-.86c-0.57-.52-1.13-1-1.73-1.54l-0.73-.6-0.2-.24-0.83-1a12.06,12.06,0,0,0-2.05-1.86,7.49,7.49,0,0,0-2.93-1.23l0.17-.31a3.91,3.91,0,0,0,.76-2.05,2,2,0,0,0-.55-1.34,1.89,1.89,0,0,0-1.85-.49,2.5,2.5,0,0,0-1.15.76l-0.43-.2a2.45,2.45,0,0,0-.32-1.24,2.27,2.27,0,0,0-.8-0.8,2.19,2.19,0,0,0-1.12-.3l-0.43,0a8.81,8.81,0,0,0-2.17.37h0Zm11.4,19.19,0.05,0,0,0,0-.08h0Zm-25.89,4.65,0.1,0.18-0.2.45,0.1-.63h0Zm32.15-10.59-0.31-.24,0.31,0.24h0Z" transform="translate(-380.25 -129.92)"/><path class="cls-1" d="M584.94,412.39a4,4,0,1,0,4-4,4,4,0,0,0-4,4h0Z" transform="translate(-380.25 -129.92)"/><path class="cls-1" d="M587.7,406.73l-0.24.26a3.41,3.41,0,0,0-.48-0.2,1.94,1.94,0,0,0-1.84.5,3.22,3.22,0,0,0-.63,2.43c0,0.44,0,.87,0,1.31a1.75,1.75,0,0,0,3.47.33,1.61,1.61,0,0,0,1.18-.5,1.79,1.79,0,0,0,.51-0.83c0-.18.05-0.35,0.07-0.53l0.12-.2,0.17-.21a1.8,1.8,0,0,0,.49-1.18,1.68,1.68,0,0,0-.49-1.18,1.72,1.72,0,0,0-1.21-.49,1.55,1.55,0,0,0-1.16.49h0Zm2.13,2.57,0,0.09,0-.09h0Zm-0.08.23,0,0.12a1.18,1.18,0,0,1,0-.12h0Zm-4,.41,0,0,0,0h0Z" transform="translate(-380.25 -129.92)"/><path class="cls-1" d="M585.16,446.93l-0.5.65a3.22,3.22,0,0,0-.44,1.62q-0.14,1.3-.26,2.6a3.87,3.87,0,0,0-1.18,1.17l0,0.07a3.08,3.08,0,0,0-5.06-1.07,13.37,13.37,0,0,0-1,1.12,5.59,5.59,0,0,0-1.21-1.74h0c-0.66-1-1.28-2.09-1.9-3.14a1.79,1.79,0,0,0-2-.81l-0.17-.11a2.65,2.65,0,0,0-1.84-.28,1.89,1.89,0,0,0-1.11.66,3.17,3.17,0,0,0-.64,1.76,7.88,7.88,0,0,0,.11,2c0.11,0.74.25,1.47,0.4,2.2,0.11,0.51.22,1,.34,1.52a6.53,6.53,0,0,0,1.36,3.29l0,0.14h0a2.33,2.33,0,0,0-1.14,1c-2.05,4.5-4,9.09-5.71,13.72q-0.42,1.12-.82,2.24c-0.52,1.07-1,2.15-1.52,3.22-0.81,1.7-1.62,3.41-2.34,5.15l-0.3.63a4.73,4.73,0,0,0-.52,1.78,3.34,3.34,0,0,0,0,1c-0.08.16-.15,0.33-0.23,0.5a5.9,5.9,0,0,0-.43,2.35,2.81,2.81,0,0,0,2,2.68,2.76,2.76,0,0,0,.56.1,2.93,2.93,0,0,0,.54,1,4.89,4.89,0,0,0-.44,1.16,10.2,10.2,0,0,0,.12,4.08c0.11,0.86.19,1.73,0.31,2.59,0.14,1,.32,2,0.52,3,0.39,2,.84,3.95,1.34,5.9,0.67,2.67,1.43,5.33,2.26,8s1.7,5.53,2.62,8.28l0.43,2.89c0.15,1,.36,2,0.54,2.94,0.53,2.82,1,5.65,1.61,8.45s1.21,5.85,1.83,8.77l0.43,2.06q0.5,3.15,1,6.3c0.34,2.57.67,5.15,0.87,7.73,0.21,2.82.35,5.64,0.43,8.47s0.13,5.67.17,8.51q0,2.08.09,4.16c0,1.38.06,2.76,0.15,4.13a6.2,6.2,0,0,0,.42,1.83l0.07,0.24a2.37,2.37,0,0,0,4,1,2.29,2.29,0,0,0,.7-1.68,1.16,1.16,0,0,1,0-.24,54.36,54.36,0,0,0,.29-8.84c-0.05-2.7-.15-5.41-0.32-8.11l0-.73A3,3,0,0,0,580,574c0.64-2,1.29-4.07,1.88-6.12l0.21,0.14a2.85,2.85,0,0,0,2.78,0,3.41,3.41,0,0,0,1.68-2,3.73,3.73,0,0,0,1.27-1.94,16.71,16.71,0,0,0,.33-2.5q1-7,2.08-13.9l0.22-1.07c1.21-5.84,2.57-11.65,3.91-17.46,0.39-1.72.76-3.44,1.13-5.16a2.82,2.82,0,0,0-.49-2.34l1.74-7.75c0.81-3.61,1.68-7.2,2.58-10.79a2.62,2.62,0,0,0,1.23-.77,12.91,12.91,0,0,0,1-1.34,4.51,4.51,0,0,0,.53-2c0.06-.83.09-1.66,0.1-2.49s0-1.52-.05-2.28c0-1.13-.1-2.25-0.19-3.37a3.47,3.47,0,0,0,1.89-.46,3.29,3.29,0,0,0,1.63-2.85,5.81,5.81,0,0,0,.07-0.82c0-.14,0-0.28-0.05-0.42a7.89,7.89,0,0,0-.21-1.28c-0.07-.33-0.16-0.66-0.24-1-0.15-.6-0.3-1.2-0.46-1.79-0.36-1.34-.74-2.67-1.12-4-0.67-2.36-1.4-4.69-2.14-7q-0.47-1.48-1-2.95-0.48-2.39-1-4.78-0.35-1.71-.7-3.42c-0.11-.56-0.23-1.12-0.36-1.67-0.07-.36-0.11-0.71-0.2-1.06a3.05,3.05,0,0,0-2.33-2.21l-0.3,0c-0.22-.42-0.45-0.83-0.7-1.22A2.86,2.86,0,0,0,591,452.8a29.4,29.4,0,0,0-.49-4.45,3.2,3.2,0,0,0-5.35-1.41h0Zm-10.84,8.46,0.09,0-0.05.07,0-.1h0Zm25.64,42,0.06,0-0.06,0h0ZM572.74,557.7l0.06,0.48-0.06-.48h0Zm6.95,34.53,0,0.22a1.2,1.2,0,0,1,0-.22h0Z" transform="translate(-380.25 -129.92)"/><path class="cls-1" d="M559.1,511.85a1.56,1.56,0,0,0-1.08,1.89c1.89,7.17,3.75,14.34,5.68,21.5v1.15c0,0.68.05,1.37,0.08,2,0.06,1.5.12,3,.18,4.48,0.32,8.16,1,16.31,1.77,24.44q0.21,2.24.43,4.48c0.07,0.79.15,1.57,0.23,2.36a32.69,32.69,0,0,0,.58,4.5,2.71,2.71,0,0,0,3.21,1.93q0.11,1.34.26,2.68a12.8,12.8,0,0,0,.3,1.63,1.89,1.89,0,0,0,.88,1.14,2.06,2.06,0,0,0,1.48.2,2.36,2.36,0,0,0,.74-0.27,2.47,2.47,0,0,0,.8-0.86,2.69,2.69,0,0,0,.31-0.89,8.77,8.77,0,0,0,.11-1c0-.62.13-1.25,0.19-1.87l0-.36a2.33,2.33,0,0,0,.77-0.51l0.36-.46a2.29,2.29,0,0,0,.31-1.16c0.09-.69.16-1.37,0.2-2.07s0-1.43.05-2.14c0-.5,0-1,0-1.49q0-2.12,0-4.24c0-2,0-4-.08-6l0-2.75c0-.93-0.09-1.86-0.14-2.78-0.1-2-.16-4-0.35-6-0.22-2.29-.37-4.6-0.69-6.87q-0.28-2-.55-3.9c-0.11-.75-0.19-1.51-0.33-2.26-0.39-2.06-.73-4.13-1.2-6.18l-0.86-3.73c-0.23-1-.52-2-0.77-3q-0.64-2.44-1.33-4.87l-0.79-2.8-0.48-1.67c-0.13-.45-0.24-0.91-0.38-1.36a12.1,12.1,0,0,0-.79-1.79,1.86,1.86,0,0,0-3.19,0,7.6,7.6,0,0,0-.82,1.84,12.59,12.59,0,0,0-.3,2.17c-0.08,1-.09,1.92-0.11,2.88s-0.05,2.21-.08,3.31l-0.78-2.93q-1-3.67-1.95-7.35a1.55,1.55,0,0,0-1.5-1.13,1.5,1.5,0,0,0-.4.05h0ZM571.45,548q0.26,2.26.48,4.52v0.16l-0.07-.44q-0.17-1-.32-2T571.45,548h0Zm-0.27,35.52,0,0.1,0-.1h0Z" transform="translate(-380.25 -129.92)"/><path class="cls-1" d="M571.77,514.19a3.63,3.63,0,0,0-1.42.23,4.48,4.48,0,0,0-2.2,2.52,17.67,17.67,0,0,0-1,3.48c-0.26,1.35-.44,2.72-0.6,4.09-0.32,2.91-.44,5.83-0.6,8.75q-0.27,5.19-.36,10.39-0.11,6.08-.13,12.14c0,3.64,0,7.29-.09,10.93s-0.17,7.57-.26,11.35c0,1.88-.09,3.75-0.09,5.63,0,0.84,0,1.69,0,2.54s0,1.8.09,2.69c0.06,0.61.14,1.22,0.25,1.82a5,5,0,0,0,.47,1.4,5,5,0,0,0,1.62,1.75,9.31,9.31,0,0,0,1.91,1,10.3,10.3,0,0,0,1.83.52,19.88,19.88,0,0,0,2.15.27,18.85,18.85,0,0,0,2.74,0,6.35,6.35,0,0,0,1.85-.36,8.3,8.3,0,0,0,1.32-.62,14.19,14.19,0,0,0,1.21-.78,13.27,13.27,0,0,0,1.35-1.12,9.93,9.93,0,0,0,1.11-1.29c0.18-.24.35-0.48,0.51-0.74a5.92,5.92,0,0,0,.49-1.18,6.26,6.26,0,0,0,.2-1.16c0-.3.06-0.61,0.08-0.91a10.55,10.55,0,0,0-.14-2.07,7.38,7.38,0,0,0-1.63-3.57,6.37,6.37,0,0,0-1.4-1.21,9.39,9.39,0,0,0-1.7-.8,7.5,7.5,0,0,0-1.87-.4,8.42,8.42,0,0,0-2.19.12,8.17,8.17,0,0,0-1.64.41,6.32,6.32,0,0,0-1.61.8,5.15,5.15,0,0,0-1.42,1.51,4.69,4.69,0,0,0-.6,2.34,3.72,3.72,0,0,0,0,.51,6.16,6.16,0,0,0,.94,2.75l0.2,0.3a3.13,3.13,0,0,0-.55,1,3,3,0,0,0-.13.79l-0.39-.22c0-.16-0.07-0.31-0.1-0.48-0.17-1.57-.2-3.16-0.32-4.73-0.13-1.77-.3-3.54-0.43-5.3-0.27-3.75-.44-7.5-0.61-11.25q-0.26-6-.51-11.93c-0.16-3.8-.22-7.61-0.27-11.41,0-3,0-6.05,0-9.08,0-1.68.1-3.36,0.15-5,0.09-2.84.23-5.67,0.59-8.48v0l0-.16v0a19.59,19.59,0,0,1,1.1-4.65,6,6,0,0,1,.48-0.83,4.28,4.28,0,0,1,.45-0.43l0.3-.18a1.7,1.7,0,0,1,.43-0.08l-0.21,0c0.68,0,1.36,0,2,0a0.78,0.78,0,0,0,0-1.56h-1.52Zm5.66,69.28a6,6,0,0,1,.82.24,7.27,7.27,0,0,1,.79.45l0.25,0.25a5.57,5.57,0,0,1,.35.61,6.7,6.7,0,0,1,.27,1,11.36,11.36,0,0,1,0,1.68l0,0.2a2.47,2.47,0,0,0-.66-0.55c0-.1,0-0.2,0-0.31a3.6,3.6,0,0,0-.1-1l-0.32-.75L578.7,585a2.24,2.24,0,0,0-.51-0.61,3.16,3.16,0,0,0-1.57-.8,5.19,5.19,0,0,0-.73-0.07l0.51-.11a6.88,6.88,0,0,1,1,0h0Zm-7.23,6.47,0.13,0.17-0.13-.17h0ZM568.68,522v0l0-.16,0,0.11h0Z" transform="translate(-380.25 -129.92)"/><path class="cls-2" d="M647.83,350.44a22.84,22.84,0,0,0-11.43,7.39l0,0.05a10.47,10.47,0,0,1,1.43,5.3L637.49,366c-0.88,5.32-2.37,10.56-3.75,15.77-1.25,4.71-2.59,9.4-4,14.08-1.3,4.43-2.73,8.82-4.1,13.23-0.7,2.25-1.39,4.5-2.11,6.74-0.65,2-1.41,4-2.22,5.9l0,0,0.09-.22,0-.12,0,0.12-0.09.22c-1.9,4.57-3.23,9.36-4.78,14.06q-0.73,2.22-1.41,4.44a28.46,28.46,0,0,0,7.33,13.49,11.68,11.68,0,0,0,1.95,3.33l-0.34.07a20.6,20.6,0,0,0-14.35,14.35c-2.93,11-8.13,21.29-11.26,32.24l-3.21,11.25c-0.55,1.93-1.23,3.87-1.66,5.83-0.92,4.2-1.74,8.42-2.56,12.64,0.48,1.8.94,3.61,1.33,5.42A103.8,103.8,0,0,1,594.17,551a8.3,8.3,0,0,1-.75,4,10.42,10.42,0,0,1,.11,1.53,10.61,10.61,0,0,1-6.11,9.52,25.18,25.18,0,0,0,35,17.72,22.07,22.07,0,0,0,5.1-2.06,24.53,24.53,0,0,0,8.88-4.93,34.21,34.21,0,0,0,7.56-2.93,17.77,17.77,0,0,0,3.63-2.71,19.19,19.19,0,0,0,8.7-.63,42.57,42.57,0,0,0,8.63-3.47,22.18,22.18,0,0,0,4.46-3.48,19.36,19.36,0,0,0,2.06,1.39,20.89,20.89,0,0,0,11.74,2.79c0.23,0.26.47,0.51,0.72,0.76a19.71,19.71,0,0,0,8.72,5.08l5.25,0.71a19.65,19.65,0,0,0,7.41-1.44,18.2,18.2,0,0,0,8.64,2A19.69,19.69,0,0,0,731,584.68l5.25-.7a19.74,19.74,0,0,0,8.28-4.67,30.07,30.07,0,0,0,9.29,8.5l7.15,3a30.15,30.15,0,0,0,15.92,0c5.92-2.23,9.46-3.54,14-8.08a30,30,0,0,0,7.74-13.28c1-2.83.92-5.95,1.3-8.93a14.41,14.41,0,0,0-.09-3.2c-0.25-2.45-.62-4.82-1-7.19,0-1.13.12-2.27,0.23-3.4,0.4-2.89.79-5.78,1.14-8.67a40.53,40.53,0,0,0,.26-5.63c-0.53-3-1.09-6-1.67-8.95a12.21,12.21,0,0,1-1.62-.86,16.33,16.33,0,0,1-5.84-6.07,17.83,17.83,0,0,1-2.11-6.82c-0.66-3.86-1.4-7.71-2-11.57-0.9-5.56-1.43-11.2-2.12-16.78-0.46-3.68-.61-7.4-0.88-11.09-0.44-5.82-.81-11.61-1.09-17.44a14,14,0,0,1,1.62-6.91l-0.62-1.45a24.93,24.93,0,0,0-8.91-8.91,24.6,24.6,0,0,0-3-1.5c-0.8-1.86-1.64-3.71-2.43-5.57a21.85,21.85,0,0,0-23.24-10.37,19.34,19.34,0,0,0-.87-4.29,17.24,17.24,0,0,0-2.41-5.16c0-.24,0-0.48,0-0.72q-0.08-3.25-.16-6.5a17.39,17.39,0,0,1,.17-2.8,28.73,28.73,0,0,0-1.15-11.13,21.21,21.21,0,0,0-9.7-12.61c-5.06-3-10.62-3.39-16.25-2.13-0.81.18-1.62,0.34-2.44,0.49a17.14,17.14,0,0,0-3.33,1l-0.22-.39a23.88,23.88,0,0,0-20.35-11.67h-1.26a24.55,24.55,0,0,0-9.63-5.19,22.8,22.8,0,0,0-2.23-.5,25.86,25.86,0,0,0-7.82-3.66,25.37,25.37,0,0,0-4.54-.82,23.7,23.7,0,0,0-4.27-1.65,23,23,0,0,0-12.18,0h0Z" transform="translate(-380.25 -129.92)"/><path class="cls-2" d="M736.82,353.06a19.06,19.06,0,0,0-20.12,10.39c-5.47-.56-11,0.46-15.43,4.25a8.87,8.87,0,0,0-3.21,9.16,13,13,0,0,0,3.18,4.91,18.51,18.51,0,0,0,5.13,3.78s0,0,0,0c-0.82-.48-1.6-1-2.38-1.58a19.31,19.31,0,0,1-3.07-3,19.86,19.86,0,0,1-1.66-2.79,9.58,9.58,0,0,1-.62-2.12,7.24,7.24,0,0,1,0-1.25,11.25,11.25,0,0,1,.54-2,6.24,6.24,0,0,1,.62-1.07,14.09,14.09,0,0,1,1.53-1.57,16.34,16.34,0,0,1,3-1.81,20.25,20.25,0,0,1,3.62-1,20,20,0,0,1,4,0l0.36,0.06-0.43.4a11.92,11.92,0,0,0-2.91,4.86,11.27,11.27,0,0,0,0,7,13,13,0,0,0,3.81,5.65,16.2,16.2,0,0,0-.27,2.78,16,16,0,0,0,.17,2.75l0,0.07a25.93,25.93,0,0,0,13.75,36.55A27.32,27.32,0,0,0,765.37,435l0.2,0.43s0,0,0,0q0-.29,0-0.58a26.49,26.49,0,0,0,7.61-8.35c2-3.44,3.84-7,4.54-11A83.12,83.12,0,0,0,779.18,402a76.81,76.81,0,0,0-.45-8.89c-0.48-4.38-1-8.75-1.67-13.12a21.41,21.41,0,0,0-.53-3.64l-0.11-.74-0.07,0a20.92,20.92,0,0,0-4-7.79l-1.64-3.89a26.77,26.77,0,0,0-9.55-9.55,26.65,26.65,0,0,0-24.32-1.32h0ZM698.7,374.61v0h0Zm-0.06,1.29v0h0Z" transform="translate(-380.25 -129.92)"/><path class="cls-2" d="M765,412.14c-0.89,8.49-1.55,17-1.79,25.57-0.08,2.74-.25,5.47-0.35,8.2q-0.09.73-.16,1.47c-0.43,4.12-.87,8.3,0,12.39a6.92,6.92,0,0,0,11.55,3.05,6.67,6.67,0,0,0,2-4.89,44.9,44.9,0,0,1,.26-6.27c0.1-1.43.17-2.85,0.23-4.28,0.09-2.29,0-4.58-.07-6.87-0.07-2-.3-4.09-0.48-6.12-0.11-1.18-.3-2.36-0.45-3.54a31.19,31.19,0,0,0-1.34-6.76,4.31,4.31,0,0,0-4.06-3.09,4.16,4.16,0,0,0-2.1.57q-1.55-4.76-3.27-9.43h0Z" transform="translate(-380.25 -129.92)"/><path class="cls-2" d="M769.14,415.77c-1.77,3-2.14,7-2.79,10.34-0.42,2.18-.79,4.38-1.12,6.58-0.46,3-.82,6.06-1.08,9.1a32.44,32.44,0,0,0,.43,8.95c0.83,4.36,6,6.79,10,5.68a8.22,8.22,0,0,0,5.65-5.7l0,0a41.23,41.23,0,0,0,1.57-8.95c0.23-2.25.41-4.52,0.48-6.79s0.11-4.44.12-6.66c0-1.46-.08-2.94-0.13-4.42,0.1-1.51.19-3,.24-4.52a7.21,7.21,0,0,0-5.27-6.93,7,7,0,0,0-1.87-.25,7.31,7.31,0,0,0-6.24,3.55h0Z" transform="translate(-380.25 -129.92)"/><path class="cls-2" d="M702.23,350c-2.66.11-5.31,0.32-8,.53l-1.73.15a10.68,10.68,0,0,0-5.21.36c-0.49,0-1,0-1.48,0a17,17,0,0,0-1.91-.1,9.39,9.39,0,0,0-9.14,11.57q-2.91-.48-5.8-1.06c-1.46-.3-2.87-0.73-4.36-0.92a5.26,5.26,0,0,0-2.86.34A1.23,1.23,0,0,0,661,362a11.72,11.72,0,0,0,.92,3.19l1.72,4.14s0,0,0,0a53.78,53.78,0,0,1-1.66-6.38,5.84,5.84,0,0,1,0-.83l0.05-.13,0.17-.09,0.39-.06a7.77,7.77,0,0,1,1.1,0,23.5,23.5,0,0,1,4.7,1.57c1.7,0.67,3.49,1.15,5.23,1.7q1.37,0.44,2.75.84a10.39,10.39,0,0,0,5,3.41,69.73,69.73,0,0,0,7.4,2.07l0.06,0c1.27,0.37,2.55.71,3.83,1s2.29,0.55,3.45.77l2.46,0.6c2.5,0.6,5,1.15,7.51,1.74,3.91,0.92,7.88,1.88,11.86,2.53h0l1.05,0.16a13,13,0,0,0,3.35.43,13.45,13.45,0,0,0,6.79-25.06,17.5,17.5,0,0,0-7.16-2.84,52.16,52.16,0,0,0-6.26-.84c-1.78-.09-3.56-0.15-5.35-0.21l-1.7,0c-2.16,0-4.33.12-6.49,0.21h0Zm16.59,28.26,0.07,0h-0.07Z" transform="translate(-380.25 -129.92)"/><path class="cls-2" d="M641.21,336.3a7.38,7.38,0,0,0-3.32,8.19c0.27,2,.61,3.93,1,5.88,0.86,4.64,2,9.55,5.54,13a9.41,9.41,0,0,0,11.45,1.46c3.59,2.48,9.22,4.26,12.82,1.15,4.65,2,9.75,2.48,14.87,2.55,7.54,0.11,15-.18,22.57-0.66,0,0,0,0,0,0-5.2-.87-10.39-1.78-15.59-2.62a68.69,68.69,0,0,1-13.67-3.4,23.47,23.47,0,0,1-3.63-2.05c-0.47-.4-0.92-0.82-1.35-1.25a6.75,6.75,0,0,0-1-3,49.88,49.88,0,0,0-4-4.83,9.15,9.15,0,0,0-1.51-2.12,6.56,6.56,0,0,0-4-1.91l-0.44-.52-1.22-1.8a13.4,13.4,0,0,0-4.27-4.25,9.57,9.57,0,0,0-4.52-1.38,7.35,7.35,0,0,0-6.15-3.35,7,7,0,0,0-3.56,1h0Z" transform="translate(-380.25 -129.92)"/><path class="cls-2" d="M491.17,375.42a21.38,21.38,0,0,0-14.88,14.88c-0.92,3.58-2,7.13-2.75,10.74a56.73,56.73,0,0,0-1,6.35,18,18,0,0,0-8.59,7.48c-1.09,1.87-2.25,3.69-3.26,5.6a37,37,0,0,0-2,4.54,23.21,23.21,0,0,0-14.27-2.82c0,0.32-.08.63-0.12,0.94a33.28,33.28,0,0,1-2.73,5.82l-1.15,1.7c-0.86,1.29-1.72,2.58-2.54,3.9-1.85,3-3.57,6-5.27,9s-3.14,6.09-4.67,9.15c-1.42,2.84-2.64,5.83-4.26,8.56a15.66,15.66,0,0,1-12,7.57c-1.1,3.29-2.2,6.58-3.12,9.91l-5.36,19.26c-1.5,5.41-2.62,10.95-3.92,16.41-0.62,2.63-1.18,5.26-1.74,7.9-0.68,2.3-1.35,4.59-2.1,6.87-0.66,2-1.41,4-2.22,6-0.34.83-.62,1.69-0.88,2.55s-0.76,1.48-1.1,2.23a27.32,27.32,0,0,0-2.48,6,26.89,26.89,0,0,0,6.92,26.18l1.56,1.21a6.85,6.85,0,0,0,4.61,4.55,6.41,6.41,0,0,0,2.76.15,26.79,26.79,0,0,0,10.09,2c2.92-.27,5.94-0.27,8.73-1.17a30.7,30.7,0,0,0,35.75-.16,24.58,24.58,0,0,0,17.09-6.25,22.13,22.13,0,0,0,3.62.3,35.45,35.45,0,0,0,3.9.3,22.63,22.63,0,0,0,4.44,6.26,23.51,23.51,0,0,0,32.21,1,25.68,25.68,0,0,0,13.52,9.26,24.26,24.26,0,0,0,18-2,26,26,0,0,0,29-18.81l0.25-1.9a10.62,10.62,0,0,1-8.69-10.34,10.27,10.27,0,0,1,.83-4l-0.2-1.46q-0.11-1.17-.23-2.33c-0.89-5.49-2.43-10.85-3.86-16.21-0.81-3-1.93-5.94-2.82-8.95q-0.75-2.53-1.45-5.08l-0.09-.33a47.62,47.62,0,0,1-2.09-8c-0.39-1.93-.73-3.87-1-5.81a17.71,17.71,0,0,1-3.32-6.09q-1.5-4.61-3.1-9.18a11.19,11.19,0,0,1-1.84-2.64l-0.49-1c-4.36-9-8.06-18.28-12.64-27.17q-2-3.92-4-7.87l-0.06,0c-0.31-.16-0.62-0.32-0.91-0.49a14.64,14.64,0,0,1-3.67-2.68,15.49,15.49,0,0,1-4-6.84l-0.2-.48v-0.06l-0.25-.55c-1.12-2.44-2.2-4.89-3.22-7.37a79.57,79.57,0,0,1-3-8c-1.25-4.28-2.32-9.07-1.62-13.54-0.58,0-1.16-.07-1.74-0.07l0-.32c0.16-2.18.14-4.36,0.2-6.55,0.06-1.95.16-3.89,0.24-5.84,0-.5.06-1,0.06-1.53a21.29,21.29,0,0,0-21.35-21.31,21.21,21.21,0,0,0-5.63.76h0ZM479.72,403s0-.09,0-0.14l0,0.14h0Z" transform="translate(-380.25 -129.92)"/><path class="cls-2" d="M461.18,406.3a13.32,13.32,0,0,0-.43,4.46c0,0.9-.06,1.81,0,2.71,0,1.23.21,2.46,0.27,3.69a2.77,2.77,0,0,0,2.36,3.53l0.33,0.61a1.42,1.42,0,0,0,2.48.25l0,0,0.12,0a1.54,1.54,0,0,1,.31.08h0a1,1,0,0,0-.3-0.79,36,36,0,0,0,2.61-5.64,21,21,0,0,0,2.18-7.48c0.2-2.21-1.69-4.32-3.71-4.87a5,5,0,0,0-1.32-.18,5.15,5.15,0,0,0-4.9,3.71h0Z" transform="translate(-380.25 -129.92)"/><path class="cls-2" d="M467.27,383.16c-1.07,1-2.11,2-3.15,3-1.9,1.85-3.65,3.83-5.39,5.82-1.53,2.05-3,4.14-4.29,6.35-1.61,2.67-3,5.52-4.36,8.3-2.36,4.65-4.89,9.23-7,14q-0.3.76-.59,1.51c-0.33,1-.68,2.08-1.09,3.09a10.44,10.44,0,0,1-1.87,3.7,15.86,15.86,0,0,0,2.07,4.21,20.31,20.31,0,0,0,35.06,0,10.39,10.39,0,0,0,.79-1.45c2.19-4.46,2.41-5.83,2.86-10.79v0a70.19,70.19,0,0,0,3.21-8.25,51.28,51.28,0,0,0,2.49-12c0.39-5-2.31-10.43-5.73-13.84a19.46,19.46,0,0,0-11-5.47c-0.67.61-1.38,1.18-2,1.77h0Z" transform="translate(-380.25 -129.92)"/><path class="cls-2" d="M502.08,378.54a46.07,46.07,0,0,0-9.62,3.59A32.84,32.84,0,0,0,483,389.8s0,0,0,0c7-2.36,14-5.67,19-11.26a0,0,0,0,0,0,0h0Z" transform="translate(-380.25 -129.92)"/><path class="cls-2" d="M510.63,366.64a48.46,48.46,0,0,1-8,1.29l-0.7.27h0c-0.54.19-1.09,0.36-1.64,0.5l-0.84.32-2.57.94-1.48.54c-1.34,1.84-2.72,3.63-3.25,6a9.81,9.81,0,0,0,14.4,11.07c4.14-2.15,5.63-6.87,7.17-11,0.66-1.55,1.19-3.11,1.73-4.71H515.4a6.54,6.54,0,0,0-.64-5.39,7.2,7.2,0,0,0-1-1.29,10.37,10.37,0,0,1-3.17,1.51h0Z" transform="translate(-380.25 -129.92)"/><path class="cls-1" d="M566.65,193.75l-2.41.19c-3.1.22-6.21,0.11-9.32,0.24a34.09,34.09,0,0,0-5,.65,46.58,46.58,0,0,0-4.77,1.27c-3,.94-5.92,2.19-9,3s-6.26,1.18-9.35,2-6.16,1.66-9.29,2.28l-2.46.5a16.86,16.86,0,0,0-4,1.48,44.74,44.74,0,0,0-4,2.36,35,35,0,0,0-7.66,6.84c-2.16,2.55-3.3,5.75-4.76,8.71a39.84,39.84,0,0,1-2.16,3.82,22.43,22.43,0,0,0-1.57,2.75,15.59,15.59,0,0,0-1.1,3.56,84.44,84.44,0,0,0-1.12,9.77c-0.23,3.11-.29,6.23-0.36,9.35q-0.17,7.72-.67,15.43c-0.18,2.77-.46,5.54-0.72,8.31-0.1,1.07-.27,2.14-0.4,3.21-0.18,1.47-.37,2.93-0.56,4.4q-0.16,1.21-.33,2.43a2.2,2.2,0,0,0,.2,1.52,2,2,0,0,0,2.71.71,1.86,1.86,0,0,0,.91-1.18q0.5-3.64,1-7.29c0.18-1.43.39-2.86,0.52-4.29,0.34-3.48.64-7,.91-10.44,0.48-6.34.79-12.7,1.41-19,0.12-1.23.28-2.46,0.43-3.69,0.22-1.56.46-3.13,0.71-4.68a27.45,27.45,0,0,1,1.27-5.11,31.39,31.39,0,0,1,2.45-3.89,34.43,34.43,0,0,0,1.83-3.14c0.57-1.08,1.12-2.17,1.69-3.26a26.66,26.66,0,0,1,1.79-3,38,38,0,0,1,5.12-4.91,42.49,42.49,0,0,1,6.54-4.14,18.83,18.83,0,0,1,2.32-.69c0.73-.17,1.47-0.31,2.2-0.49,1.56-.38,3.11-0.8,4.64-1.29s3.06-1,4.61-1.45,3.2-.83,4.82-1.13a60.1,60.1,0,0,0,8.84-2.36c1.58-.55,3.16-1.12,4.77-1.61,0.82-.25,1.64-0.48,2.47-0.69s1.46-.3,2.2-0.43c1.3-.15,2.59-0.27,3.91-0.29s2.81,0,4.22,0c1.57,0,3.13,0,4.69-.11,0.65,0,1.3-.09,2-0.15l1.25-.11a14.48,14.48,0,0,1,2.61,0,23.36,23.36,0,0,1,2.78.65,26.46,26.46,0,0,0,4.75,1.14,17.79,17.79,0,0,0,5.88-.52c1.34-.32,2.67-0.7,4-1a11.54,11.54,0,0,1,1.84,0,20.09,20.09,0,0,1,3.57,1.14,23.32,23.32,0,0,0,3.43,1.18,22.11,22.11,0,0,0,4.84.44c0.36,0,.73,0,1.09-0.05a16.63,16.63,0,0,1,2.05,0,9.39,9.39,0,0,1,1,.28,13.3,13.3,0,0,1,1.93,1.15,31.11,31.11,0,0,1,4.43,4.55,19.35,19.35,0,0,1,2.16,3.68l0.62,1.45c0.8,2.2,1.51,4.42,2.29,6.62,0.25,0.69.48,1.38,0.75,2.06a18.93,18.93,0,0,0,3,5.23c0.36,0.44.7,0.89,1.08,1.3,0.67,0.74,1.36,1.47,2,2.25a16,16,0,0,1,1.37,2.35,50.88,50.88,0,0,1,2,8.26,38.86,38.86,0,0,0,1.81,6c1.57,4.21,3.14,8.42,4.51,12.71a3.76,3.76,0,0,0,6.88.9,3.89,3.89,0,0,0,.38-2.9,65.27,65.27,0,0,0-2-7.25c-0.83-2.34-1.78-4.63-2.74-6.91-0.51-1.34-1-2.66-1.46-4s-0.75-2.59-1.09-3.89a28.59,28.59,0,0,0-3.54-8.6c-1.23-1.84-2.84-3.4-4.23-5.11a18.05,18.05,0,0,1-2-3.47l-0.37-.88c-0.73-1.9-1.39-3.81-2.07-5.73a28.39,28.39,0,0,0-4.77-9.12,26.24,26.24,0,0,0-6.71-5.75,13.31,13.31,0,0,0-1.47-.7,12.78,12.78,0,0,0-2.29-.78,16.84,16.84,0,0,0-3.46-.29,37.6,37.6,0,0,1-3.89-.18c-2.42-.45-4.65-1.5-7.06-2a16.27,16.27,0,0,0-3.64-.31,18.81,18.81,0,0,0-4.23.8c-1.07.28-2.14,0.53-3.23,0.72a14.2,14.2,0,0,1-2.67,0c-1.06-.2-2.1-0.49-3.15-0.76a32.82,32.82,0,0,0-4.43-.79,10.53,10.53,0,0,0-1.15-.06c-0.9,0-1.8.09-2.69,0.17h0Zm14.71,1.3-0.22,0,0.22,0h0Zm-29.85,5.25-0.2,0,0.2,0h0Zm84.36,43.25,0.28,0.66-0.28-.66h0Z" transform="translate(-380.25 -129.92)"/><path class="cls-1" d="M544,130.26a16.5,16.5,0,0,0-2.91,1.08c-1.56.65-3.12,1.26-4.71,1.84a48.29,48.29,0,0,1-5.17,1.4,25.8,25.8,0,0,0-3.36,1,21,21,0,0,0-3.78,2A47.38,47.38,0,0,1,517.7,141a29.23,29.23,0,0,1-5.89,1.61l-1.62.2a14.65,14.65,0,0,0-2.63.53,12.55,12.55,0,0,0-2.27,1,13.67,13.67,0,0,0-3.18,2.8l-1.51,1.64c-2,2.21-4.14,4.32-6.36,6.35-1,.88-2,1.7-3,2.51a21.1,21.1,0,0,0-2.7,2.37,12.78,12.78,0,0,0-2.27,4.36c-1.2,3.4-2,6.91-3.34,10.26a39.93,39.93,0,0,1-2.44,4.59c-0.42.68-.9,1.34-1.35,2-0.65,1-1.37,1.91-2.07,2.84s-1.49,1.84-2.22,2.78c-0.36.46-.69,0.92-1,1.41a11.51,11.51,0,0,0-.94,2,7.7,7.7,0,0,0-.4,1.78c-0.1.67-.17,1.34-0.23,2-0.21,2.39-.26,4.78-0.52,7.16a31.67,31.67,0,0,1-2,7l-1.11,2.38c-0.36.77-.8,1.49-1.21,2.23-0.29.53-.6,1-0.9,1.56a10.59,10.59,0,0,0-1.19,3.13,21.92,21.92,0,0,0-.43,3.75c-0.06,1.73,0,3.45.05,5.18a32.36,32.36,0,0,0,1.75,8.51c1.08,3.34,2.34,6.63,3.57,9.92,0.57,1.53,1.16,3.05,1.7,4.59a49.5,49.5,0,0,1,2.44,8.24c0.11,1.06.17,2.12,0.36,3.17,0.14,0.75.36,1.5,0.57,2.23,0.45,1.54.9,3.07,1.44,4.57,0.59,1.67,1.22,3.31,1.88,5a67.31,67.31,0,0,0,5.5,10.48,2.36,2.36,0,0,0,4.08-2.38c-0.88-1.43-1.74-2.86-2.57-4.31a52.86,52.86,0,0,1-2.44-5c-0.74-1.84-1.47-3.68-2.11-5.56a39.7,39.7,0,0,1-1.76-6.13c0-.65,0-1.29-0.08-1.94a22.27,22.27,0,0,0-.66-4.05c-0.41-1.67-1-3.28-1.55-4.9-0.69-2-1.43-4-2.17-6-0.81-2.17-1.63-4.34-2.41-6.53a45.76,45.76,0,0,1-2.31-8.07,37.73,37.73,0,0,1,0-8.41,12.78,12.78,0,0,1,.53-2.07c0.79-1.53,1.82-2.95,2.56-4.51a51.37,51.37,0,0,0,2.82-6.93,37.09,37.09,0,0,0,1.19-8.89c0.08-1.49.08-3,.22-4.46a9.35,9.35,0,0,1,.38-1.5,12.35,12.35,0,0,1,.84-1.33c1.33-1.65,2.68-3.28,4-5a44.26,44.26,0,0,0,3.7-5.66,48.68,48.68,0,0,0,3.69-9.73c0.5-1.7,1-3.43,1.59-5.08a9.18,9.18,0,0,1,.57-1,19.76,19.76,0,0,1,2.71-2.35q0.88-.7,1.74-1.41c1.18-1,2.36-2,3.43-3s2.31-2.35,3.44-3.55a54.13,54.13,0,0,1,4.09-4.41,10.37,10.37,0,0,1,1.12-.62,11.53,11.53,0,0,1,1.9-.46,44.55,44.55,0,0,0,4.86-.78,23.07,23.07,0,0,0,3.71-1.26,26.65,26.65,0,0,0,3.7-1.83c0.92-.56,1.84-1.12,2.71-1.75a23.9,23.9,0,0,1,3.75-2.35c2.35-.91,4.87-1.31,7.28-2a66.7,66.7,0,0,0,6.78-2.66,12.84,12.84,0,0,1,2.27-.67,10.59,10.59,0,0,1,1.25,0c0.8,0.16,1.57.39,2.34,0.62a25.26,25.26,0,0,0,4.27.88,22.6,22.6,0,0,0,6.2-.52,8.86,8.86,0,0,1,1.1,0,33.79,33.79,0,0,1,5,1.77,12.36,12.36,0,0,0,5.42.53,21.46,21.46,0,0,1,3.63-.11,21.15,21.15,0,0,1,3.79,1.1c0.74,0.28,1.49.54,2.25,0.75a30.87,30.87,0,0,0,5.46.88,10.06,10.06,0,0,1,1.79.49c2.13,1,4.08,2.42,6.14,3.61a16.25,16.25,0,0,0,5,1.81c0.48,0.09,1,.15,1.44.21a14.83,14.83,0,0,1,3,.72,35.56,35.56,0,0,1,5.22,3.37,16.52,16.52,0,0,0,4.61,2.19c1.16,0.37,2.4.42,3.56,0.79,0.22,0.11.44,0.24,0.65,0.37a24.47,24.47,0,0,1,3.05,3.47,13.66,13.66,0,0,0,2.59,2.57,12,12,0,0,0,1.8,1.13,18.47,18.47,0,0,0,2.35.92l0.56,0.3a9.15,9.15,0,0,1,.65.65,14.83,14.83,0,0,1,1.09,1.92,53.8,53.8,0,0,1,2.11,7.45c0.23,1,.46,2,0.75,3a15.36,15.36,0,0,0,1.52,3.43,18.94,18.94,0,0,0,2.11,2.62,11.9,11.9,0,0,1,.78,1.42,33.41,33.41,0,0,1,1.48,6.48c0.14,1.06.28,2.13,0.44,3.19l0.15,1.15a167.88,167.88,0,0,1,.92,20.95c-0.05,3.56,0,7.11,0,10.67s-0.06,6.84,0,10.26c0,2.73.05,5.46,0.09,8.19,0,1.32,0,2.63,0,3.95,0,1.84.11,3.7-.07,5.52a4.11,4.11,0,0,0,3,4,4.17,4.17,0,0,0,5.06-2.87,14.33,14.33,0,0,0,.64-5.11c0-.85-0.11-1.7-0.16-2.55-0.1-1.63-.17-3.26-0.18-4.89,0-3.64,0-7.29-.08-10.93-0.09-3.47-.27-6.93-0.27-10.4s0-6.79,0-10.19a147.54,147.54,0,0,0-.58-15,51.85,51.85,0,0,0-1.47-8.4c-0.34-1.23-.73-2.44-1.11-3.65a39.09,39.09,0,0,0-1.5-3.87,16.59,16.59,0,0,0-2.47-3.69,15,15,0,0,1-1.21-2.22c-0.8-2-1.45-4.14-2.16-6.2a35,35,0,0,0-3-6.85,10.66,10.66,0,0,0-2.51-2.85,9.05,9.05,0,0,0-1.86-1.15c-0.59-.27-1.2-0.48-1.8-0.7a13.6,13.6,0,0,1-2-1.17c-1.48-1.28-2.73-2.79-4.19-4.09a13.73,13.73,0,0,0-2.25-1.66,9.94,9.94,0,0,0-2.74-1,26.1,26.1,0,0,1-3.43-1,51,51,0,0,1-4.6-2.6,20.71,20.71,0,0,0-5.55-2.36,22.16,22.16,0,0,0-2.86-.44,21.21,21.21,0,0,1-3.94-1,42,42,0,0,1-3.8-2,27.15,27.15,0,0,0-4.29-2.11,15.07,15.07,0,0,0-3.51-.64,30.65,30.65,0,0,1-5.37-1.45,21.8,21.8,0,0,0-5.41-1.36,25.88,25.88,0,0,0-2.86-.06,26.06,26.06,0,0,1-2.61,0,29.77,29.77,0,0,1-5-1.59,11,11,0,0,0-5.27-.55c-0.78.11-1.56,0.25-2.34,0.37a19.49,19.49,0,0,1-4.15,0c-1.58-.27-3.13-0.74-4.72-0.9a9.17,9.17,0,0,0-.94,0,12.47,12.47,0,0,0-2.76.34h0Zm-2.64,1-0.19.08,0.19-.08h0Zm-0.31.13-0.23.1,0.23-.1h0Zm-58.17,43.59-0.07.18,0.07-.18h0Zm-11,25.83,0,0.28,0-.28h0Z" transform="translate(-380.25 -129.92)"/><path class="cls-1" d="M597.7,255.28q-2.75.15-5.5,0.48a44.35,44.35,0,0,0-6.4,1.08,34.73,34.73,0,0,0-3.48,1.08,20.69,20.69,0,0,0-3.06,1.48,19.2,19.2,0,0,0-2.85,2.18,3.88,3.88,0,0,0,4.7,6.09,25.4,25.4,0,0,1,2.42-1.25,45.41,45.41,0,0,1,7.87-2.06c2.21-.26,4.4-0.46,6.63-0.57,2.65-.12,5.28,0,7.92.11,2.4,0.12,4.79.38,7.18,0.59s5,0.43,7.5.7a31.2,31.2,0,0,1,5.41,1.23,15.33,15.33,0,0,1,2,1.13,11.34,11.34,0,0,1,.85.8l0.24,0.41c0,0.12.07,0.24,0.1,0.37a14.6,14.6,0,0,1-.05,1.87c-0.22,1.41-.48,2.81-0.82,4.19-0.23,1-.48,1.94-0.76,2.91a16.57,16.57,0,0,1-.65,1.78c-0.73,1.6-1.48,3.23-2.37,4.76-0.45.77-.87,1.54-1.36,2.27-0.39.58-.79,1.14-1.2,1.7-1.1,1.32-2.25,2.58-3.47,3.79s-2.44,2.22-3.72,3.26c-0.94.7-1.9,1.37-2.87,2a24.23,24.23,0,0,1-3,1.61,30,30,0,0,1-5.6,1.65,15.58,15.58,0,0,1-2.62,0A42.27,42.27,0,0,1,593,298.8a36.81,36.81,0,0,1-5.55-3.5A31,31,0,0,1,583,291a29.51,29.51,0,0,1-3-5.23,40.79,40.79,0,0,1-1.6-5.76c-0.37-1.66-.72-3.32-1-5-0.08-.73-0.14-1.46-0.18-2.2a12.36,12.36,0,0,0-.23-2.35l-0.09-.34a3.22,3.22,0,0,0-.83-1.42,3.4,3.4,0,0,0-1.7-1,5.15,5.15,0,0,0-2.24,0l-1.53.19-2.87.36c-2.12.25-4.24,0.52-6.36,0.82a50.2,50.2,0,0,0-5,1,22.83,22.83,0,0,0-8,3.57,2.8,2.8,0,0,0-1.18,1.54,2.58,2.58,0,0,0,1.8,3.17,2.47,2.47,0,0,0,2-.26A17.4,17.4,0,0,1,554,276.3a33.12,33.12,0,0,1,6.55-1.75c2.08-.25,4.15-0.42,6.24-0.52l3-.11,0.81,0q0,0.18,0,.35a27.22,27.22,0,0,0,.21,2.76c0.23,2.1.59,4.19,0.92,6.28,0.15,0.92.34,1.83,0.52,2.74a27,27,0,0,0,1.76,5c0.31,0.72.63,1.45,1,2.14a26,26,0,0,0,3.45,4.93,38,38,0,0,0,5.73,5q1,0.76,2.05,1.46c0.59,0.39,1.18.78,1.8,1.14a24.91,24.91,0,0,0,4.32,1.86c1.25,0.45,2.53.81,3.79,1.2a29.18,29.18,0,0,0,4.78,1,14,14,0,0,0,3.63-.11,28,28,0,0,0,3.07-.54c1-.25,1.93-0.53,2.89-0.84a27.73,27.73,0,0,0,3.37-1.42,18.68,18.68,0,0,0,2.46-1.33c1.95-1.31,3.8-2.71,5.63-4.19a48.54,48.54,0,0,0,8.08-8.73,31.62,31.62,0,0,0,2.81-4.84,57.87,57.87,0,0,0,2.54-5.9,29.31,29.31,0,0,0,1.29-5.26,46.51,46.51,0,0,0,.71-6.15,11.71,11.71,0,0,0-1.43-6,10.32,10.32,0,0,0-2.21-2.66,16.67,16.67,0,0,0-3.41-2.36,28,28,0,0,0-9.79-2.59c-3.77-.47-7.56-0.88-11.34-1.18-2.09-.17-4.18-0.3-6.29-0.41-0.5,0-1,0-1.5,0-1.28,0-2.57.07-3.85,0.14h0Z" transform="translate(-380.25 -129.92)"/><path class="cls-1" d="M648.55,251.06a102.18,102.18,0,0,0-6.55,8c-2.74,3.48-5.53,6.93-8.32,10.38a3.92,3.92,0,0,0-1.07,2.58,3.65,3.65,0,0,0,3.65,3.65,3.5,3.5,0,0,0,2.58-1.07c2.79-3.45,5.58-6.9,8.31-10.39,1.14-1.45,2.28-2.9,3.36-4.4a31.5,31.5,0,0,0,3.07-4.88,3.18,3.18,0,0,0,.44-1.62,3.19,3.19,0,0,0-3.23-3.19,3.1,3.1,0,0,0-2.25.93h0Z" transform="translate(-380.25 -129.92)"/><path class="cls-1" d="M562,268.27a14.87,14.87,0,0,0-1.71.57l-0.71.31c-0.45.19-.88,0.37-1.3,0.59-0.94.49-1.87,1-2.79,1.52s-1.71,1-2.53,1.53c-1.19.81-2.39,1.62-3.54,2.48a2.36,2.36,0,0,0-1,1.3,2.17,2.17,0,0,0,1.52,2.67,2.09,2.09,0,0,0,1.67-.22c1.11-.82,2.25-1.6,3.4-2.37,0.82-.55,1.64-1,2.5-1.54,2-1.14,4-2.23,6-3.22a2,2,0,0,0,.91-2.23,2,2,0,0,0-1.91-1.45,1.87,1.87,0,0,0-.52.07h0Z" transform="translate(-380.25 -129.92)"/><path class="cls-1" d="M527.5,267.25c-2.93.22-5.84,0.54-8.73,1a64.46,64.46,0,0,0-7.8,1.92c-1.47.45-2.91,0.93-4.36,1.43a31.39,31.39,0,0,0-8.2,4,29.92,29.92,0,0,0-3.85,3.39,16.75,16.75,0,0,0-3.3,4.66,12.47,12.47,0,0,0-.8,2.43,10,10,0,0,0-.16,2.88,21.58,21.58,0,0,0,.43,2.83,39,39,0,0,0,2.57,7.84,21.35,21.35,0,0,0,1.94,3.45,35.87,35.87,0,0,0,2.81,3.65,61.14,61.14,0,0,0,5.95,6,27.86,27.86,0,0,0,5.68,3.88,19.47,19.47,0,0,0,8.49,1.95c2.6,0,5.21-.2,7.8-0.36a56.47,56.47,0,0,0,8.8-1.14,18.93,18.93,0,0,0,2-.63c0.76-.27,1.52-0.58,2.25-0.91a24.23,24.23,0,0,0,3.68-2,29.15,29.15,0,0,0,6.37-5.91,40.13,40.13,0,0,0,2.71-3.85,28,28,0,0,0,1.93-4,22.6,22.6,0,0,0,1.16-4,19.34,19.34,0,0,0-.52-9.28A50.17,50.17,0,0,0,551,278.5c-0.57-1.19-1.19-2.37-1.82-3.52q-1.48-2.7-3-5.38a2.34,2.34,0,1,0-4,2.36c1.08,1.94,2.19,3.88,3.21,5.85s1.9,3.75,2.8,5.67c0.38,0.92.75,1.84,1.08,2.78a24.69,24.69,0,0,1,1.09,4.26,17,17,0,0,1,0,3.17,23.65,23.65,0,0,1-1.25,4.47,33.42,33.42,0,0,1-1.56,3,25.67,25.67,0,0,1-1.76,2.53c-0.58.69-1.16,1.36-1.79,2s-1.4,1.31-2.13,1.93a22.81,22.81,0,0,1-2,1.33,19.73,19.73,0,0,1-2.27,1.13c-1.11.41-2.23,0.76-3.37,1.08a24,24,0,0,1-3,.56c-2.46.27-4.94,0.4-7.41,0.49a52,52,0,0,1-7.53,0,14.77,14.77,0,0,1-6.33-2.51l-1.38-.95a65.66,65.66,0,0,1-9.47-9.12l0.41,0.54-1.17-1.52,0.4,0.52c-0.66-.93-1.28-1.87-1.85-2.86a23.08,23.08,0,0,1-1.22-2.51,24.29,24.29,0,0,1-1.47-4.9,9.63,9.63,0,0,1,0-1.5,10.79,10.79,0,0,1,.51-1.82,13.92,13.92,0,0,1,1.26-2.08,27.13,27.13,0,0,1,4-4,24.46,24.46,0,0,1,4.82-2.72c1.73-.69,3.5-1.25,5.28-1.83,1.12-.36,2.27-0.68,3.41-1,1.4-.34,2.79-0.67,4.2-0.95,1.21-.24,2.41-0.42,3.63-0.6,2.43-.25,4.86-0.45,7.3-0.59s5.18-.28,7.76-0.28a2.28,2.28,0,0,0,1.62-3.9,2.4,2.4,0,0,0-1.62-.67c-0.81-.07-1.63-0.1-2.44-0.1-2.16,0-4.32.2-6.46,0.35h0ZM548,282.92l0.11,0.27-0.11-.27h0Z" transform="translate(-380.25 -129.92)"/><path class="cls-1" d="M487.72,287.11a1.51,1.51,0,0,0-1,.41,1.41,1.41,0,0,0,1,2.4c1.82,0,3.64,0,5.46.08a1.5,1.5,0,1,0,0-3l-2.74,0h-0.21c-0.84,0-1.68.06-2.51,0.15h0Z" transform="translate(-380.25 -129.92)"/><path class="cls-1" d="M639.28,282a12.15,12.15,0,0,1,0,1.5c-0.2,1.09-.53,2.15-0.83,3.21l-0.6,2.18c-0.44,1.59-.86,3.18-1.28,4.77-0.83,3.11-1.59,6.24-2.33,9.37-0.7,2.94-1.31,5.9-2,8.85-0.69,3.14-1.45,6.27-2.25,9.39-1.56,6.08-3.19,12.14-5.06,18.14-1.77,5.66-3.85,11.22-6.14,16.69-1.16,2.64-2.35,5.27-3.53,7.91s-2.44,5.46-3.73,8.16-2.49,5.17-3.91,7.66c-0.8,1.41-1.62,2.79-2.48,4.17-0.75,1.19-1.57,2.34-2.38,3.49l-1.39,1.73c-0.53.66-1.12,1.26-1.7,1.88a42.17,42.17,0,0,1-4.49,4.16,33.21,33.21,0,0,1-6.44,3.82c-2.42,1-4.92,1.79-7.39,2.6a62.66,62.66,0,0,1-7.33,2.17c-1.25.12-2.51,0.21-3.76,0.21a32.11,32.11,0,0,1-3.8-.26,31.68,31.68,0,0,1-5.1-1.38c-1.73-.63-3.44-1.31-5.15-2-2.21-1-4.41-2-6.59-3-1.17-.54-2.34-1.09-3.45-1.74s-2-1.28-3-2a44.66,44.66,0,0,1-4.17-3.67c-1.57-1.61-3-3.3-4.46-5s-2.65-3.26-4-4.86-2.66-3.15-3.94-4.76c-0.85-1.18-1.69-2.35-2.44-3.61s-1.62-2.76-2.41-4.14c-1.52-2.63-3.09-5.22-4.61-7.86-1.62-2.82-3.23-5.65-4.82-8.49s-3.12-5.62-4.76-8.39c-1-1.62-2-3.21-2.88-4.86s-1.54-3.09-2.23-4.68c-0.75-2-1.44-4.06-2.06-6.14a67.9,67.9,0,0,1-1.55-6.89c-0.38-2-.68-4.07-1.09-6.1-0.45-2.25-.92-4.48-1.33-6.74-0.11-1-.24-1.92-0.3-2.88q-0.14-2.21-.27-4.43c-0.09-1.36,0-2.74-.07-4.1q0-3.09-.06-6.2a2.84,2.84,0,0,0-5.69,0c0,3.92,0,7.85.21,11.76a72.65,72.65,0,0,0,1.12,10.15c0.64,3.2,1.21,6.41,1.82,9.62a71.5,71.5,0,0,0,2.47,9.21,68.67,68.67,0,0,0,3.86,9.09c0.68,1.36,1.53,2.65,2.32,3.94s1.55,2.45,2.31,3.7c3.35,5.53,6.54,11.16,9.71,16.79,1.5,2.65,2.93,5.34,4.5,7.95,0.85,1.42,1.75,2.8,2.69,4.16s2.12,2.71,3.22,4c1,1.14,2,2.21,2.95,3.34s2.18,2.54,3.25,3.82a92.69,92.69,0,0,0,6.25,7,54.53,54.53,0,0,0,7.24,6,45.73,45.73,0,0,0,4,2.3l4.17,2.25c2.73,1.45,5.54,2.78,8.38,4a25.3,25.3,0,0,0,4.74,1.56c1,0.21,2,.38,3,0.5,0.52,0.06,1,.13,1.55.16a13,13,0,0,0,3.13-.29,34.31,34.31,0,0,0,7.18-2.59,78.27,78.27,0,0,1,8.65-2.5,30.78,30.78,0,0,0,9.4-4.41,36.87,36.87,0,0,0,3.69-2.87c0.64-.57,1.34-1.1,1.93-1.71l1.95-2c0.52-.54,1-1.13,1.46-1.71,1.21-1.45,2.3-3,3.4-4.51,0.46-.64.85-1.35,1.27-2s0.73-1.21,1.08-1.84c0.83-1.48,1.61-3,2.38-4.5,0.68-1.35,1.29-2.74,1.91-4.12,0.75-1.67,1.48-3.34,2.17-5q1.8-4.36,3.56-8.74c2.36-5.9,4.56-11.86,6.37-18,1.88-6.34,3.48-12.75,5.15-19.14q1.24-4.73,2.35-9.5c0.7-3,1.32-6,2-9,0.88-3.8,1.83-7.57,2.82-11.34,0.45-1.71.93-3.41,1.37-5.12,0.25-1,.5-1.93.74-2.9,0.17-.7.34-1.39,0.47-2.1a10.53,10.53,0,0,0,.14-2,11.51,11.51,0,0,0-.29-1.86,2.44,2.44,0,0,0-4.8.65h0Z" transform="translate(-380.25 -129.92)"/><path class="cls-1" d="M637,325.22a2.79,2.79,0,0,0-1.94,3.41,40.58,40.58,0,0,1,1.33,4.64c0.18,0.83.29,1.69,0.43,2.53,0.29,2.68.54,5.36,0.65,8.06,0.13,3,.18,6,0.2,8.95a125.45,125.45,0,0,1-1,16.2,203.3,203.3,0,0,1-5.31,23c-2.12,7.71-4.65,15.29-7.07,22.9s-4.1,15.35-6.32,23q-1.71,5.88-3.58,11.71c-1.2,3.76-2.46,7.5-3.6,11.27s-2.25,7.79-3.39,11.68c-1.09,3.71-2.22,7.4-3.31,11.11-2.38,8.07-4.62,16.19-6.76,24.33-2,7.7-3.93,15.42-6.22,23-1.16,3.86-2.32,7.72-3.57,11.55s-2.65,7.93-3.95,11.9a140.51,140.51,0,0,0-3.91,15.9q-0.79,3.91-1.73,7.79c-0.3,1.29-.6,2.57-0.89,3.86a12,12,0,0,0,.21,6.88,4,4,0,0,0,5.92,2.41A3.85,3.85,0,0,0,585,589c0.18-1.26.79-2.36,1.08-3.59,0.22-.92.41-1.85,0.61-2.77,0.41-1.87.81-3.74,1.18-5.62,0.74-3.77,1.3-7.57,2.11-11.32s1.8-7.77,2.94-11.6c1.18-4,2.39-8,3.54-12q3.34-11.66,6.14-23.46c1.89-7.95,3.84-15.87,5.94-23.76,2-7.68,4.37-15.27,6.59-22.9,1.15-4,2.26-7.93,3.52-11.86,1.2-3.71,2.46-7.39,3.65-11.11q1.89-5.91,3.58-11.87c1.11-3.93,2.08-7.89,3.11-11.83,2-7.56,4.58-14.93,6.76-22.43,2.24-7.71,4.32-15.5,5.86-23.39a109.78,109.78,0,0,0,2.05-24.14c-0.12-4.41-.34-8.81-0.61-13.21-0.14-2.12-.44-4.24-0.7-6.34-0.15-1.18-.37-2.34-0.58-3.51a36.28,36.28,0,0,0-1.41-5.08,2.88,2.88,0,0,0-2.68-2,2.76,2.76,0,0,0-.74.1h0Z" transform="translate(-380.25 -129.92)"/><path class="cls-1" d="M514.95,367a81.43,81.43,0,0,0-2.88,11.4c-0.31,1.87-.54,3.76-0.69,5.65a37.89,37.89,0,0,0-.12,5.16c0,0.79.09,1.57,0.13,2.35,0,0.58,0,1.18.11,1.75,0.2,1.59.32,3.2,0.59,4.78l0.72,4.27c0.23,1.37.56,2.73,0.84,4.09,0.55,2.69,1.29,5.35,2,8a156.35,156.35,0,0,0,5,15.43c1.92,5.09,4.2,10,6.36,15s4.34,10.25,6.86,15.2,5.2,9.7,7.86,14.52c1.95,3.53,3.88,7.07,5.73,10.65,1.69,3.25,3.2,6.58,4.65,9.94,0.94,2.37,1.89,4.75,2.74,7.15,1,2.71,1.85,5.44,2.67,8.2,1.55,5.21,2.93,10.46,4.75,15.57s4.18,10.07,6,15.19,3.23,10.43,4.61,15.7c0.59,2.23,1.14,4.47,1.64,6.72s0.87,4.47,1.18,6.74c0.15,1.15.29,2.3,0.46,3.44,0.07,0.52.16,1,.26,1.55a5.29,5.29,0,0,0,.71,2,2.55,2.55,0,0,0,1.41,1.08,2.26,2.26,0,0,0,1.82-.23,2.87,2.87,0,0,0,.93-0.92,3.53,3.53,0,0,0,.42-1.48,6.43,6.43,0,0,0,0-.91c0-.68-0.09-1.35-0.17-2-0.14-1.28-.3-2.56-0.47-3.84a82.93,82.93,0,0,0-1.55-8.34c-1.25-5.24-2.68-10.45-4.22-15.61a124.16,124.16,0,0,0-4.75-12.85l-0.28-.66-1.07-2.54c-0.94-2.35-1.89-4.7-2.65-7.11-0.82-2.59-1.62-5.18-2.35-7.8s-1.45-5.34-2.3-8-1.8-5.41-2.8-8.08a142.49,142.49,0,0,0-6.63-15.22c-2.53-4.91-5.18-9.75-7.86-14.57s-5.37-9.62-7.77-14.58-4.57-10.06-6.87-15.09q-2-4.4-3.91-8.86l-1.53-3.89c-0.52-1.32-1-2.68-1.45-4-0.92-2.55-1.7-5.16-2.49-7.76a141.25,141.25,0,0,1-3.77-15.69c-0.1-.54-0.2-1.08-0.3-1.63-0.22-1.61-.46-3.22-0.57-4.84-0.08-1.12-.18-2.23-0.21-3.35a52.92,52.92,0,0,1,.42-8.06,62.14,62.14,0,0,1,1.19-6.22c0.52-2.09,1.15-4.14,1.79-6.19a2.25,2.25,0,0,0-1.55-2.74,2.2,2.2,0,0,0-.59-0.08,2.29,2.29,0,0,0-2.15,1.64h0Zm1.67,30c0,0.17,0,.34.07,0.51l-0.07-.51h0Z" transform="translate(-380.25 -129.92)"/><path class="cls-1" d="M559.88,403.69a3.55,3.55,0,0,0-2,1.56c-2.65,3.95-5.2,7.95-7.76,12-0.68,1.07-1.29,2.2-1.91,3.31-1.11,2-2.23,3.93-3.21,6a55.91,55.91,0,0,0-4.28,12c-0.39,1.71-.78,3.42-1.11,5.14-0.64,3.28-1.23,6.57-1.74,9.87-0.17,1.1-.35,2.2-0.46,3.3a13.52,13.52,0,0,0-.12,2.95,2.62,2.62,0,0,0,1.3,2.26,2.66,2.66,0,0,0,3.17-.41,8.67,8.67,0,0,0,1.95-3.46,25.94,25.94,0,0,0,.89-3.05c0.47-1.93.8-3.88,1.14-5.83,1.07-6,2.16-12.06,4.48-17.76,0.59-1.35,1.2-2.7,1.91-4l1.54-2.79c0.71-1.28,1.37-2.59,2.16-3.82,2.61-4.1,5.22-8.19,7.93-12.23a3.4,3.4,0,0,0-3.84-5h0Z" transform="translate(-380.25 -129.92)"/><path class="cls-1" d="M590.4,405.9a3.43,3.43,0,0,0-2.39,4.21,3.34,3.34,0,0,0,1.57,2,48.13,48.13,0,0,1,7.88,4.68,43.49,43.49,0,0,1,6.51,6.81,85.65,85.65,0,0,1,6.19,10.13c0.66,1.21,1.36,2.4,2,3.64,0.53,1.05,1,2.11,1.49,3.18,0.24,0.67.5,1.33,0.69,2,0.27,1,.5,1.93.71,2.9,0.34,1.51.57,3,.8,4.58q0.16,1.27.3,2.54a14.63,14.63,0,0,0,.75,3.8,2.56,2.56,0,0,0,.66,1.14,2.59,2.59,0,0,0,4.33-1.14,17.88,17.88,0,0,0,.09-5.32c-0.15-1.73-.4-3.44-0.63-5.16-0.21-1.52-.46-3-0.78-4.52a34.5,34.5,0,0,0-1.43-4.61c-0.35-.95-0.81-1.86-1.22-2.78-0.31-.68-0.66-1.34-1-2-0.78-1.51-1.59-3-2.42-4.48a61.89,61.89,0,0,0-4.71-7.56,67.55,67.55,0,0,0-4.42-5.2,35.39,35.39,0,0,0-5.75-4.85,47.15,47.15,0,0,0-6.54-3.71,4.1,4.1,0,0,0-1.78-.46,3.21,3.21,0,0,0-.85.12h0Z" transform="translate(-380.25 -129.92)"/><path class="cls-1" d="M603.11,424.93a20.52,20.52,0,0,0-2.79,3.3c-0.64.84-1.28,1.7-1.87,2.58-1.25,1.88-2.37,3.84-3.43,5.84s-2.09,4.13-3.09,6.21-1.87,4.27-2.87,6.38a6.43,6.43,0,0,1-.46.81,7.38,7.38,0,0,1-.92.19c-3.07.35-6.15,0.35-9.23,0.48a38.12,38.12,0,0,0-5.06.66,18.1,18.1,0,0,0-2.38.67,19.45,19.45,0,0,0-1.88.75c-0.27-.49-0.52-1-0.8-1.48-0.42-.75-0.86-1.48-1.3-2.21-0.89-1.47-1.8-2.93-2.7-4.39L561.43,440l-1.91-3.09a23.6,23.6,0,0,0-4.63-5.8,2.56,2.56,0,0,0-1.71-.71,2.43,2.43,0,0,0-2.43,2.43,2.36,2.36,0,0,0,.71,1.72,16,16,0,0,1,2.16,2.26c1,1.4,1.93,2.91,2.84,4.4l1.89,3.12c1,1.58,1.9,3.17,2.84,4.75s1.77,3,2.64,4.44a24.27,24.27,0,0,0,1.86,2.95,3.59,3.59,0,0,0,3.68,1.27,12.33,12.33,0,0,0,2.17-.91,13.79,13.79,0,0,1,1.81-.63c0.43-.11.87-0.26,1.31-0.33l1.34-.24c0.85-.1,1.71-0.2,2.57-0.23l3.25-.11a65.16,65.16,0,0,0,7.13-.62,7.25,7.25,0,0,0,1.25-.29,4.89,4.89,0,0,0,1.82-1.12,6,6,0,0,0,.79-1,10.3,10.3,0,0,0,.57-1c0.19-.35.36-0.71,0.53-1.07,0.45-.94.88-1.88,1.32-2.83,1-2.08,1.92-4.15,2.91-6.21,1.17-2.43,2.36-4.84,3.65-7.21,0.59-1.09,1.21-2.14,1.84-3.21,0.29-.5.57-1,0.86-1.5,0.43-.78.79-1.6,1.23-2.37a1.67,1.67,0,0,0-.26-2,1.56,1.56,0,0,0-1.12-.47,1.87,1.87,0,0,0-1.21.47h0Zm-14.66,25.29-0.13.1,0.13-.1h0Zm-1.05.06-0.24,0,0.24,0h0Zm-19.07,2.78h0Zm2.84,3.93-0.18.08,0.18-.08h0Z" transform="translate(-380.25 -129.92)"/><path class="cls-1" d="M592.12,445.88a2.13,2.13,0,0,0-1,1.27,2,2,0,0,0,.21,1.63,15.61,15.61,0,0,1,1.45,2.51,40.75,40.75,0,0,1,1.5,4.82c0.27,1.05.57,2.11,0.83,3.17q0.79,3.18,1.55,6.36c0.47,1.94.91,3.88,1.35,5.83s0.7,3.75,1,5.63,0.45,3.68.58,5.54c0.16,2.18.27,4.36,0.34,6.55,0.13,4-.07,8-0.2,12-0.06,1.78-.14,3.56-0.21,5.34,0,0.8-.05,1.6,0,2.4,0,1.07.11,2.13,0.09,3.2a1.57,1.57,0,0,0,3.09.42,22.79,22.79,0,0,0,.77-3.66c0.11-1,.18-2,0.24-3,0.11-2,.13-4,0.19-6,0.11-4.09.26-8.18,0.18-12.27,0-1.87-.12-3.75-0.28-5.61-0.18-2.23-.39-4.46-0.73-6.68-0.31-2-.67-4-1.11-6s-1-4.07-1.47-6.1-0.94-3.79-1.44-5.68l-0.94-3.55a22.13,22.13,0,0,0-3.1-7.28,2.28,2.28,0,0,0-1.27-1,2.13,2.13,0,0,0-.56-0.07,2.16,2.16,0,0,0-1.08.29h0Z" transform="translate(-380.25 -129.92)"/><path class="cls-1" d="M568.87,456.16a2.68,2.68,0,0,0-1.54,1.18c-0.95,1.39-1.87,2.79-2.7,4.26-0.72,1.27-1.34,2.56-2,3.87-0.39.81-.7,1.68-1,2.51-0.23.57-.47,1.13-0.68,1.7-0.56,1.52-1.11,3-1.63,4.59-0.93,2.73-1.75,5.49-2.47,8.28s-1.41,5.65-1.91,8.52c-0.22,1.28-.44,2.55-0.64,3.84a24.66,24.66,0,0,0-.41,4.57,2.65,2.65,0,0,0,1.91,2.52,2.62,2.62,0,0,0,2-.27,2.75,2.75,0,0,0,1.2-1.56,23.78,23.78,0,0,0,1-4.2c0.22-1.29.41-2.57,0.62-3.86,0.48-2.86,1.05-5.68,1.69-8.5s1.39-5.48,2.23-8.18c0.46-1.46,1-2.91,1.46-4.36,0.37-1.07.81-2.12,1.23-3.17,0.59-1.26,1.18-2.5,1.85-3.71,0.82-1.47,1.75-2.87,2.7-4.27a2.57,2.57,0,0,0-2.22-3.86,2.54,2.54,0,0,0-.68.09h0Z" transform="translate(-380.25 -129.92)"/><path class="cls-1" d="M512.71,366.81c-1.76.21-3.52,0.44-5.27,0.67-1.31.17-2.61,0.39-3.92,0.61-1.05.17-2.13,0.36-3.17,0.62l-2.05.52c-0.61.16-1.21,0.38-1.81,0.56-2.2.69-4.34,1.56-6.46,2.43-2.5,1-5,2.06-7.43,3.19-2.67,1.23-5.3,2.55-8,3.72-1.09.44-2.18,0.88-3.27,1.34s-2.37,1.13-3.53,1.75a23.17,23.17,0,0,0-2.93,1.88c-1.07.81-2.15,1.62-3.14,2.52a58.32,58.32,0,0,0-5.12,5.45c-0.84,1-1.66,2-2.41,3.1-0.57.81-1.12,1.63-1.61,2.5a25.39,25.39,0,0,0-1.17,2.55,42.79,42.79,0,0,0-2.31,7.41c-0.25,1.13-.45,2.27-0.61,3.41a32.9,32.9,0,0,0-.42,7.22l0.18,2.32c0.05,0.7.17,1.39,0.27,2.09l0.27,1.89c0.1,0.7.27,1.4,0.41,2.09,0.48,2.47,1.07,4.92,1.63,7.38s1.09,4.8,1.64,7.2c0.27,1.16.58,2.3,0.87,3.45s0.57,2.09.9,3.1c0.8,2.42,1.65,4.82,2.43,7.24s1.38,4.77,2,7.19c0.92,3.8,1.77,7.62,2.72,11.42q0.77,3,1.46,6.11c0.22,1,.41,1.93.62,2.9,0.1,0.48.21,1,.32,1.44s0.21,0.77.33,1.16a3.72,3.72,0,0,0,1.69,2.22,2.57,2.57,0,0,0,2.55,0,2.52,2.52,0,0,0,1.16-2.85,2.84,2.84,0,0,1-.13-0.43c-0.05-.36-0.11-0.71-0.16-1.07l0.05,0.39c-0.35-2.5-.89-5-1.45-7.44s-1.19-5-1.78-7.55c-0.52-2.2-1-4.41-1.52-6.61-0.29-1.19-.55-2.38-0.87-3.56s-0.61-2.42-1-3.61-0.76-2.39-1.18-3.57-0.89-2.53-1.33-3.8c-0.81-2.37-1.45-4.79-2.09-7.22s-1.12-4.76-1.67-7.14-1.12-4.54-1.59-6.83c-0.21-1-.41-2-0.62-3.07-0.16-.76-0.25-1.55-0.36-2.32-0.12-1.43-.26-2.84-0.28-4.27a36,36,0,0,1,.34-5c0.13-.81.25-1.61,0.42-2.41,0.21-1,.45-2.06.7-3.09a36.52,36.52,0,0,1,1.61-4.79,30.35,30.35,0,0,1,3.2-5.16c1.23-1.53,2.49-3,3.83-4.46a37.12,37.12,0,0,1,4-3.6,32.68,32.68,0,0,1,2.78-1.84c1.11-.64,2.21-1.25,3.37-1.78s2.17-1,3.24-1.49,2.26-1.14,3.38-1.72c2.14-1.12,4.25-2.27,6.42-3.33s4.48-2.1,6.75-3.11a55.61,55.61,0,0,1,6.48-2.35c2.42-.67,4.87-1.1,7.34-1.53,1.78-.24,3.56-0.48,5.34-0.69a1.8,1.8,0,0,0,1.17-.48,1.67,1.67,0,0,0-1.07-2.83h-0.1Zm-19,7.82h0Zm-0.24.1-0.17.07,0.17-.07h0Z" transform="translate(-380.25 -129.92)"/><path class="cls-1" d="M447.61,409.64c-0.81,1.39-1.64,2.79-2.37,4.23a28.92,28.92,0,0,0-1.91,4.89c-0.4,1.37-.75,2.75-1.11,4.13a68.45,68.45,0,0,1-2.43,8.12,12.26,12.26,0,0,1-1,1.78,9.55,9.55,0,0,1-1.24,1.25c-0.5.36-1,.69-1.54,1a19.34,19.34,0,0,0-3.22,2.47,25,25,0,0,0-2.58,3.09c-0.4.54-.8,1.07-1.19,1.62-1.51,2.16-2.87,4.39-4.2,6.68s-2.52,4.3-3.82,6.43-2.71,4.45-4,6.73-2.27,4.47-3.35,6.73-2.17,4.53-3.29,6.77-2.31,4.45-3.5,6.66-2.23,4.4-3.3,6.62-2.18,4.66-3.52,6.85c-0.69,1.12-1.42,2.21-2.12,3.33s-1.22,2.16-1.79,3.25a67,67,0,0,0-3.28,7.6c-0.89,2.39-1.52,4.89-2.21,7.34s-1.34,4.69-2,7c-0.72,2.52-1.37,5.06-2,7.6-1.21,4.78-2.54,9.55-3.38,14.42-0.48,2.79-.92,5.59-1.21,8.41-0.26,2.56-.53,5.12-0.77,7.68q-0.73,7.74-.94,15.5c0,1.77-.07,3.54-0.08,5.3,0,0.91,0,1.81,0,2.72a10.17,10.17,0,0,0,.25,2.62,3.54,3.54,0,0,0,1.55,2,3.09,3.09,0,0,0,1.57.43,5,5,0,0,0,1.11-.12,3.06,3.06,0,0,0,2.25-3,3.07,3.07,0,0,0-.26-1.23c0-.39,0-0.78.06-1.17,0-.73,0-1.47,0-2.21q0-1.78,0-3.55c0-2.53.07-5.07,0.18-7.59,0.23-5.11.66-10.2,1.17-15.29,0.15-1.5.31-3,.49-4.5,0.36-2.45.78-4.87,1.25-7.3s1.06-4.74,1.64-7.09c0.63-2.55,1.24-5.11,1.87-7.66,0.58-2.37,1.21-4.71,1.84-7.07,0.77-2.88,1.54-5.77,2.34-8.65a69.76,69.76,0,0,1,2.64-7.57q0.73-1.62,1.52-3.21c0.57-1.16,1.24-2.28,1.9-3.39s1.27-2,1.82-3.12,1.15-2.41,1.71-3.62c1-2.22,2-4.46,3.07-6.65s2.27-4.55,3.36-6.85c2.19-4.6,4.18-9.28,6.34-13.89s4.89-8.75,7.38-13.09c1.11-1.94,2.19-3.89,3.34-5.8a57,57,0,0,1,3.52-5.16,19.77,19.77,0,0,1,2.88-3l1.83-1.36a11,11,0,0,0,3.23-3.75,26.49,26.49,0,0,0,1.9-6.05l1.15-4.78a47.07,47.07,0,0,1,1.9-6.52,56.94,56.94,0,0,1,3-5.64,1.47,1.47,0,0,0-.52-2,1.43,1.43,0,0,0-.72-0.19,1.46,1.46,0,0,0-1.27.72h0Zm-0.39,6.84-0.06.14,0.06-.14h0Z" transform="translate(-380.25 -129.92)"/><path class="cls-1" d="M635.51,331.14a5.84,5.84,0,0,0-.74,1.77,1.73,1.73,0,0,0,3.33.92l0.06-.19,0.08,0a28.83,28.83,0,0,1,3.87,2.34c1,0.69,2,1.4,3,2.12,1.81,1.4,3.59,2.83,5.38,4.26,1,0.83,2.1,1.64,3.17,2.43s1.93,1.49,3,2.13l1.68,1.06c0.56,0.35,1.17.64,1.75,1,1.21,0.66,2.5,1.17,3.77,1.71,0.54,0.22,1.11.38,1.66,0.56s1.25,0.34,1.86.51c1.25,0.34,2.52.6,3.79,0.89a74.78,74.78,0,0,0,15.07,1.89q7.3,0.13,14.61.07c2.4,0,4.79,0,7.19.21s4.79,0.38,7.18.44a30.42,30.42,0,0,0,7.52-.79c1.14-.26,2.28-0.61,3.42-0.9s2.2-.5,3.3-0.7l1.46-.25a32.22,32.22,0,0,1,6.85-.22,26.56,26.56,0,0,1,2.86.66c1.05,0.3,2.08.68,3.12,1a25.56,25.56,0,0,0,3.32.86c1.11,0.21,2.24.34,3.35,0.55s2.32,0.45,3.47.7,2.34,0.45,3.48.77a56.49,56.49,0,0,1,6.09,2.16,9.29,9.29,0,0,1,1.5.87,9.52,9.52,0,0,1,1.13,1.15,34.5,34.5,0,0,1,3.39,6.58c0.42,1.08.85,2.15,1.2,3.25s0.77,2.48,1.12,3.74c0.66,2.41,1.4,4.8,2.13,7.2s1.36,5,1.89,7.51c0.5,2.34.93,4.7,1.56,7,0.37,1.37.76,2.73,1.12,4.1s0.57,2.61.79,3.94c0.28,2.23.51,4.46,0.63,6.71,0.13,2.48.28,5,.18,7.47s-0.36,4.9-.56,7.36-0.32,4.81-.47,7.22c-0.16,2.63-.34,5.26-0.5,7.89-0.07,1.22-.12,2.43-0.15,3.66s0,2.45.13,3.68,0.29,2.52.48,3.77,0.4,2.56.61,3.84c0.41,2.51,1,5,1.37,7.5L781,464c0.13,1,.26,2,0.34,3.08,0.11,1.26.17,2.52,0.23,3.78,0.11,2.39.07,4.79,0.31,7.17,0.15,1.48.35,2.93,0.58,4.4,0.19,1.14.48,2.28,0.74,3.41s0.54,2.54.79,3.82c0.2,1,.31,2.06.44,3.09l0-.16,0.36,3.79c0.13,1.3.16,2.61,0.24,3.91,0.15,2.39.16,4.79,0.31,7.17,0.16,2.61.34,5.21,0.7,7.8,0.33,2.39.84,4.74,1.21,7.12l0.15,0.93c0.27,2.16.49,4.32,0.61,6.49,0.13,2.39.22,4.78,0.48,7.17,0.13,1.13.27,2.27,0.36,3.41,0.11,1.31.18,2.61,0.23,3.92a39.23,39.23,0,0,1-.47,6.43q-0.35,2.45-.74,4.89-0.19,1.2-.37,2.4c-0.07.5-.16,1-0.23,1.52a2.43,2.43,0,0,0-.14,2.67,2.72,2.72,0,0,0,2.54,1.49,2.59,2.59,0,0,0,1.29-.35,2.74,2.74,0,0,0,1.18-1.53,6.55,6.55,0,0,0,.27-1.59c0-.25.06-0.51,0.09-0.77,0.05-.59.1-1.18,0.15-1.77q0.15-1.89.34-3.78c0.23-2.45.47-4.89,0.63-7.34,0-.63,0-1.28,0-1.91s-0.05-1.3-.08-2c-0.06-1.25-.2-2.48-0.32-3.72-0.24-2.38-.48-4.75-0.61-7.13-0.15-2.77-.31-5.55-0.62-8.31s-0.81-5.29-1.2-7.94c-0.59-5-.74-10-1-15-0.12-2.52-.35-5-0.59-7.52-0.14-1.4-.37-2.8-0.57-4.2-0.15-1.08-.37-2.16-0.61-3.22s-0.48-2.14-.71-3.22-0.38-2-.54-2.94c-0.24-2.23-.39-4.47-0.48-6.71-0.1-2.42-.19-4.84-0.5-7.25-0.19-1.46-.39-2.91-0.64-4.36-0.19-1.15-.43-2.3-0.67-3.44-0.49-2.4-.9-4.82-1.29-7.24-0.14-1.12-.27-2.23-0.36-3.36a33.89,33.89,0,0,1,0-3.73c0.07-2.46.32-4.92,0.5-7.37s0.27-4.92.41-7.38,0.37-4.66.51-7c0.07-1.23.16-2.46,0.15-3.69,0-1.39,0-2.77-.1-4.15-0.09-2.45-.32-4.9-0.57-7.34a50.56,50.56,0,0,0-1.3-7.4c-0.62-2.36-1.27-4.71-1.78-7.11-0.54-2.55-1.05-5.09-1.68-7.61-0.57-2.31-1.36-4.56-2.07-6.82-0.78-2.46-1.46-5-2.3-7.41a71.92,71.92,0,0,0-3-7.29,31.2,31.2,0,0,0-1.6-3,18,18,0,0,0-1.39-1.9,10.6,10.6,0,0,0-2.07-1.8,12,12,0,0,0-2.55-1.27l-1.75-.7c-1.05-.42-2.1-0.82-3.17-1.19s-2.32-.66-3.48-1-2.2-.55-3.3-0.79-2.26-.39-3.4-0.55a26,26,0,0,1-3.46-.68c-1.06-.3-2.11-0.66-3.16-1a26.68,26.68,0,0,0-5.71-1c-0.91,0-1.83,0-2.74.07s-1.85.11-2.76,0.23c-1.92.24-3.84,0.53-5.73,0.91s-3.58.86-5.4,1.17a32.18,32.18,0,0,1-6.66,0c-2.47-.26-4.94-0.59-7.41-0.84-2.32-.23-4.66-0.22-7-0.25l-7.41-.12c-2,0-3.92,0-5.87-.11s-4.14-.24-6.2-0.45c-2.52-.37-5-0.84-7.5-1.36-1.43-.29-2.85-0.59-4.26-0.93-0.7-.17-1.39-0.36-2.08-0.56s-1.28-.44-1.92-0.67c-1-.43-2-0.89-2.94-1.36a34.65,34.65,0,0,1-3.29-1.94c-2.08-1.31-4.08-2.75-6.08-4.18s-4-2.81-6-4.15c-0.93-.61-1.89-1.18-2.86-1.73a23.08,23.08,0,0,0-2.64-1.35,5.75,5.75,0,0,0-2.17-.5h0a2.65,2.65,0,0,0-2.16,1.13h0Zm3,1.75-0.09.11,0.09-.11h0Zm-1,.62h0Zm42.33,15.28,0.19,0-0.19,0h0ZM790.74,515.19l0,0.31,0-.31h0Z" transform="translate(-380.25 -129.92)"/><path class="cls-1" d="M704.94,368.88c-1,1.64-1.92,3.3-2.85,5-0.57,1-1.12,2-1.62,3.07-0.67,1.41-1.4,2.81-2,4.26l-1.61,4c-0.24.59-.43,1.22-0.64,1.82s-0.45,1.22-.64,1.84c-0.37,1.23-.79,2.45-1.12,3.69-0.73,2.73-1.44,5.45-2,8.22a106.59,106.59,0,0,0-1.8,16.29c-0.23,5.48-.45,11-0.59,16.45s-0.15,10.68-.17,16c0,2.62,0,5.24.05,7.86s0.15,5.16.16,7.75a146.18,146.18,0,0,1-.73,17.84c-0.18,1.1-.37,2.2-0.56,3.29a18.31,18.31,0,0,0-.32,2.39,7.86,7.86,0,0,0,.13,1.65,2.42,2.42,0,0,0,1.16,1.51,2.56,2.56,0,0,0,1.27.35,2.48,2.48,0,0,0,2.18-1.25,12.87,12.87,0,0,0,1.13-4.39c0.21-1.4.43-2.81,0.55-4.22,0.23-2.63.39-5.27,0.48-7.91,0.18-5.17.07-10.34,0-15.51-0.11-5.5-.08-11-0.08-16.5,0-5.34.05-10.69,0.18-16,0.09-3.77.15-7.55,0.3-11.32,0.07-1.94.13-3.88,0.31-5.81,0.09-1,.15-2,0.28-3l0.42-3.21-0.08.63A98.23,98.23,0,0,1,699,393.11l0.9-3.09c0.27-.92.61-1.82,0.92-2.73,0.53-1.57,1.17-3.09,1.78-4.63l1.26-2.69c0.33-.71.63-1.45,1-2.13,1.26-2.27,2.51-4.53,3.84-6.75a2.2,2.2,0,0,0-.78-3,2.13,2.13,0,0,0-1.08-.29,2.22,2.22,0,0,0-1.9,1.08h0Z" transform="translate(-380.25 -129.92)"/><path class="cls-1" d="M641.55,267.27a9.78,9.78,0,0,0-2.11,2.33,13.58,13.58,0,0,0-1.2,2.39,2.59,2.59,0,0,0-.24,1.84,2.38,2.38,0,0,0,2.93,1.66,2.28,2.28,0,0,0,1.42-1.09,16.16,16.16,0,0,1,1.41-2.7c0.18-.21.36-0.42,0.55-0.62l0.2,0.22a10.89,10.89,0,0,1,.93,1.65,25.64,25.64,0,0,1,1.27,5.18,30.36,30.36,0,0,1,0,4.88c-0.12,1.7-.25,3.39-0.36,5.09-0.23,3.51-.33,7-0.72,10.51-0.18,1.23-.38,2.44-0.66,3.65-0.34,1.46-.74,2.91-1.17,4.34s-0.95,2.91-1.44,4.35c-0.44,1.29-.86,2.59-1.34,3.86a17.65,17.65,0,0,1-1.4,2.51,2.78,2.78,0,0,0,3.8,3.8,7.32,7.32,0,0,0,3.31-4.07,22.72,22.72,0,0,0,.72-2.19c0.4-1.39.77-2.79,1.16-4.18a77.92,77.92,0,0,0,2-8.42,68,68,0,0,0,.8-8.81q0.13-4.09.3-8.18c0.06-1.43.11-2.87,0.11-4.3a24.39,24.39,0,0,0-.59-5.11c-0.2-1-.46-1.9-0.74-2.84a13.58,13.58,0,0,0-2.95-5.35,4.25,4.25,0,0,0-2.82-1.31l-0.44,0a4.69,4.69,0,0,0-2.77.91h0Zm3.12,3.78h0Zm-0.16,0,0.25,0.1-0.25-.1h0Zm-0.24,0-0.33.26a2.75,2.75,0,0,1,.33-0.26h0Z" transform="translate(-380.25 -129.92)"/><path class="cls-1" d="M480.06,282.91a4.23,4.23,0,0,0-1.87,1.07,4.75,4.75,0,0,0-1,1.52,7.52,7.52,0,0,0-.68,2.45,18,18,0,0,0,.36,4.88c0.19,1.07.38,2.14,0.6,3.21a94.44,94.44,0,0,0,3.32,12.32c0.75,2.15,1.53,4.29,2.16,6.48a49.38,49.38,0,0,1,1.32,6.45q0.22,1.88.4,3.76c0.14,1.52.27,3.05,0.51,4.56,0.11,0.7.24,1.39,0.39,2.09a15.24,15.24,0,0,0,1.26,3.49,13.29,13.29,0,0,0,4.19,4.7,9.91,9.91,0,0,0,2.42,1.21,9,9,0,0,0,3,.43,1.94,1.94,0,0,0,1.68-2.92,1.88,1.88,0,0,0-1.16-.89,15.49,15.49,0,0,1-2.82-.78,10.57,10.57,0,0,1-1.73-1,12.29,12.29,0,0,1-1.51-1.49,10.8,10.8,0,0,1-1.05-1.81A18,18,0,0,1,489,329c-0.4-4.26-.44-8.54-1.28-12.75a44.49,44.49,0,0,0-1.73-6.13c-0.7-2-1.48-4-2.12-6q-1.12-3.5-2-7.08c-0.55-2.32-1.07-4.64-1.47-7a11.33,11.33,0,0,1-.08-2.11,7,7,0,0,1,.25-0.94c0.08-.14.16-0.28,0.25-0.42l0.09-.1,0.12,0,0.42,0.25a10.58,10.58,0,0,1,1.24,1.33l1,1.31a1.9,1.9,0,0,0,1.07.82,1.81,1.81,0,0,0,1.38-.18,1.79,1.79,0,0,0,.64-2.45l-1-1.44a8.14,8.14,0,0,0-3.42-3,4.24,4.24,0,0,0-1.49-.29,3.17,3.17,0,0,0-.75.09h0Zm0.7,3.58-0.21,0,0.21,0h0Zm0.11,0-0.19.14,0.19-.14h0Zm-0.12.17-0.06.08h0l0.06-.08h0Zm-0.06.08h0l-0.07.09,0.07-.1h0Z" transform="translate(-380.25 -129.92)"/><path class="cls-1" d="M528.37,265.78a49.31,49.31,0,0,0-11.28,1.84c-1.78.52-3.55,1.1-5.28,1.78a37.49,37.49,0,0,0-5.79,2.7,76.91,76.91,0,0,0-6.41,4.38,44.7,44.7,0,0,0-4.64,3.85,33.85,33.85,0,0,0-4.65,6.32,2.56,2.56,0,1,0,4.43,2.59c0.74-1.17,1.48-2.35,2.3-3.47a23.12,23.12,0,0,1,2.91-3,53,53,0,0,1,9.57-5.66,46.32,46.32,0,0,1,9.2-2.34,90.55,90.55,0,0,1,20.13.48,36.28,36.28,0,0,1,4.13.86,35.19,35.19,0,0,0,4.12,1.14,4.54,4.54,0,0,0,5.57-5.58,4.34,4.34,0,0,0-2.08-2.71,41.73,41.73,0,0,0-5.26-2,36.31,36.31,0,0,0-6.14-1,62.69,62.69,0,0,0-6.56-.33c-1.42,0-2.84,0-4.26.11h0Z" transform="translate(-380.25 -129.92)"/></svg>