<svg id="Draw_Layer" data-name="Draw Layer" xmlns="http://www.w3.org/2000/svg" viewBox="0 0 605.58 545.97"><defs><style>.cls-1{fill:#2c2c2c;}.cls-2{fill:#03c3eb;}.cls-3{fill:#7fb2f0;}</style></defs><title>mmd_phone</title><path class="cls-1" d="M1636.21,710.1a0.53,0.53,0,0,0-.22,1,5.09,5.09,0,0,1,.44-1h-0.22Z" transform="translate(-1149.57 -386.53)"/><path class="cls-1" d="M1691.94,759.18c0,2.14,0,4.29,0,6.43a1.47,1.47,0,1,0,2.95,0c0-2.12,0-4.24,0-6.37l-0.59-.06-1.34-.16-1,.15h0Z" transform="translate(-1149.57 -386.53)"/><path class="cls-1" d="M1361.33,386.53a7.95,7.95,0,0,0-4,14.77c0,6.07,0,12.14-.08,18.2q-0.14,12.24-.29,24.48c-0.19,16.15-.52,32.29-0.8,48.43l0,2c0.81-.54,1.63-1.06,2.46-1.56,2.66-1.61,5.31-3.19,8-4.73-0.17-8.6-.34-17.2-0.48-25.8-0.31-20-.54-39.95-0.59-59.93,8.87-.07,17.74-0.07,26.61-0.06H1407q24.61,0,49.21,0,49.61,0,99.21-.08c22,0,44,0,66-.11,10.81,0,21.62-.07,32.43-0.23,4.55-.07,9.11-0.2,13.66-0.49,2.76-.18,5.53-0.25,8.29-0.52a13.27,13.27,0,0,0,2,.12h9.05c-0.11,30.16-.25,60.32-0.17,90.49q0.13,49,.22,98,0.07,24.27.16,48.53c1.63-.37,3.27-0.69,4.93-1,0.86-.15,1.73-0.26,2.6-0.38l3.39-.46,1.64-.17h0.14q0.16-57,.27-114c0-21.39.15-42.8,0.1-64.19q-0.08-31.64-.23-63.29a6.57,6.57,0,0,0-6.51-6.51H1678.8a18.48,18.48,0,0,0-3.12.11c-1.64-.15-3.27-0.23-4.93-0.3-3.12-.14-6.24-0.42-9.37-0.52-7.54-.24-15.09-0.28-22.64-0.33q-24.35-.15-48.71-0.16-49.71-.05-99.41-0.11-32.76,0-65.52,0l-33.26,0h-9.64c-6.93,0-13.87,0-20.79-.07h-0.08Z" transform="translate(-1149.57 -386.53)"/><path class="cls-1" d="M1694.17,701.48c-2.28.35-4.59,0.69-6.91,0.84q0,2.15,0,4.3a9.26,9.26,0,0,1,1.2-.08c2.43,0.3,4.86.67,7.29,1.05l0.67,0,2.88,0.2,0.22,0q0-3.82,0-7.64a36.43,36.43,0,0,1-5.39,1.26h0Z" transform="translate(-1149.57 -386.53)"/><path class="cls-1" d="M1695.72,759.3c-0.5,0-.95,0-1.44-0.11l-1.34-.16a26.25,26.25,0,0,1-3,.33,7.51,7.51,0,0,1-2.65-.34q0,12.47-.05,24.94,0,7.25-.07,14.5l0.43,0.11a10.39,10.39,0,0,1,4.35,2.57l0.52,0.61a9.26,9.26,0,0,1,2.95,3.09c0.33,0.7.62,1.41,0.88,2.14l0,0.08h0l0,0.1q0.23,0.4.45,0.81c0.54,1,1,2.1,1.5,3.19a10.38,10.38,0,0,1,1.32.75q-0.16-26.63-.22-53.26a9.48,9.48,0,0,1-3.73.66h0Z" transform="translate(-1149.57 -386.53)"/><path class="cls-1" d="M1363.29,681.37a42.3,42.3,0,0,1-5.82,3.92,27.78,27.78,0,0,1-3,1.41q0.07,47.13.2,94.25c0.06,21.41,0,42.83.19,64.25s0.48,43,.54,64.5a6.08,6.08,0,0,0,6,6H1370a6,6,0,0,0,2.44-.55c13.68-.11,27.34-0.37,41-0.29,14.94,0.08,29.88.5,44.81,0.82,32.14,0.7,64.29.18,96.42,0.13q37-.06,74-0.06c11.73,0,23.46,0,35.19,0q7.38,0,14.76-.21c1.7,0,3.39-.1,5.09-0.1h9.67a5.79,5.79,0,0,0,5.73-5.73c0-8.15-.07-16.3.11-24.45s0.41-16.1.45-24.16q0-3,0-6.08l-0.16.08a18,18,0,0,1-1.95.84,5.64,5.64,0,0,1-.87.22l-0.32.15-0.92.45a9.17,9.17,0,0,1-2.12.89,5.48,5.48,0,0,1-3.54-.34,8.61,8.61,0,0,1-2.76.2q0,1.79,0,3.58c0,5.56.16,11.12,0.26,16.68,0.1,5.1.25,10.2,0.27,15.3q0,5.45,0,10.9h-0.07c-0.55,0-1.09,0-1.64,0-1.1,0-2.21,0-3.29,0-0.71.05-1.43,0-2.14-.06q-3-.09-6-0.14c-6.75-.11-13.49-0.12-20.24-0.12l-46.66,0q-24.15,0-48.3,0c-15.81,0-31.62-.18-47.43-0.22q-18.38,0-36.76.11c-12.32.12-24.64,0.41-37,.68q-16.92.38-33.85,0.39c-10.62,0-21.24-.23-31.87-0.31a6,6,0,0,0-2.44-.55h-2.57c0.07-13.54.26-27.07,0.36-40.61q0.18-23.52.27-47,0.13-48.16.25-96.33,0.05-21.25.08-42.5c-1.66,1.45-3.37,2.83-5.12,4.18h0Z" transform="translate(-1149.57 -386.53)"/><path class="cls-1" d="M1379.66,416.07a3.1,3.1,0,0,0-3.07,3.07v6.68c0,0.51,0,1,0,1.54,0,0.27.07,0.54,0.11,0.81a3,3,0,0,0,2.12,2.12l0,1.41q-0.09,5.12-.14,10.25-0.11,9.79-.22,19.57-0.12,10.13-.22,20.25,1.41-.73,2.84-1.43-0.07-6.66-.15-13.33-0.13-11-.25-21.95-0.06-5.5-.14-11c0-1.26,0-2.52,0-3.77a3,3,0,0,0,1.32-.77l0.47-.61a3,3,0,0,0,.42-1.54c0-.51,0-1,0-1.54,0-.74,0-1.48,0-2.23V422.2H1384q0-.26,0-0.52l1.08-.16,1.24-.19,1.2-.15,1.2-.15h0a7,7,0,0,0,1.63.82,7.43,7.43,0,0,0,1.37.33h10.42l1.35,0,0.34,0h31.31c0.08-.12.17-0.25,0.24-0.37l3.66,0.37,25.49,0,0.71-.72c1-1.1,1.89-2.26,2.87-3.36a7.61,7.61,0,0,1,2.61-1.86l0.13-.12q-39.38,0-78.76,0h-12.47Z" transform="translate(-1149.57 -386.53)"/><path class="cls-1" d="M1640,416.13q-19.64.06-39.27,0.06h-14.22a2.27,2.27,0,0,1,.89,2.45,2.54,2.54,0,0,1-.15.4,7.23,7.23,0,0,1,.92.75,2.15,2.15,0,0,1,.45,0h0.13a2.29,2.29,0,0,1,1.59.66A2.46,2.46,0,0,1,1591,422v0.1h1.33q0.13-.71.24-1.45l1,0,1.59,0.05,0.78,0h0.33c1.7,0.05,3.46.11,5.19,0.12l2.08,0c2.81,0,5.62,0,8.43,0q3,0,5.9,0h0.47c10.61-.12,21.59-0.25,32.36-0.93l8.91-.56,0.54,0,2.66-.18,2-.13a47.54,47.54,0,0,0,7.27-.85h0l1.64,0.1,1.18,0.1h0.14l0.38,0h0a6,6,0,0,0-.68,2.5c-0.46,5.59-.76,11.28-1.05,16.79v0.09q0,8.86,0,17.72-0.05,20-.1,39.91c0,0.39,0,.77,0,1.16q0.26,5.64.54,11.29c-0.09,4.25,0,8.64,0,12.5l0,3c0,2.15.13,4.33,0.25,6.47l0.08,1.39-0.14,5-0.13,4.93c-0.11,3.75-.16,7.58-0.2,11.29v0.65l0,1.65q0,1.64,0,3.28c-0.14,8.71-.2,18.28-0.2,31,0,1.43,0,2.85,0,4.34v0.36c0,4.39,0,8.94.09,13.42,0.06,2.64.15,6.15,0.32,9.87,0,0.93.09,1.86,0.14,2.79l0,0.7,0,0.7,0,0.33,0,0.33c0,1.28-.06,2.56-0.07,3.84s0,2.53.05,3.79a6.1,6.1,0,0,0,1.6,4l0.25,0.25h0a5.44,5.44,0,0,1-1,.53l-0.12.05a8.87,8.87,0,0,1-1.56,2.1c0,2,0,3.95,0,5.92l1.87-.71c1.18-.43,2.38-0.83,3.58-1.18l0.09,0q0-59.52,0-119,0-26.58-.09-53.16L1679,442.44c0-4,0-8.05,0-12.08,0-3.74.11-7.48,0.14-11.22a2.82,2.82,0,0,0-2.8-2.79c-2.67,0-5.33,0-8-.06-3.3,0-6.6,0-9.9-.07q-7.63-.09-15.27-0.1H1640Z" transform="translate(-1149.57 -386.53)"/><path class="cls-1" d="M1673.66,703.53a9.14,9.14,0,0,1,3.34-.64,9.27,9.27,0,0,1,2.09.24q0-.33,0-0.66a10.87,10.87,0,0,1-3.63-.7,9.41,9.41,0,0,1-1.8-.71q0,1.23,0,2.47h0Z" transform="translate(-1149.57 -386.53)"/><path class="cls-1" d="M1678.12,763.22a13.82,13.82,0,0,1-4.46.28v2.39l0.36,0,0.13,0c-0.19,2.31-.29,4.59-0.38,7.12l-0.07,1.64,0,0.63q0,4.93,0,9.85,0,5.87.05,11.73a9.86,9.86,0,0,1,5.28,2.23c0-.47,0-0.95,0-1.42q0.07-17.36.07-34.71c-0.32.09-.65,0.16-1,0.22h0Z" transform="translate(-1149.57 -386.53)"/><path class="cls-1" d="M1379.89,665.63q-1.59,1.73-3.19,3.42-0.18,37.1-.27,74.19c0,15.2-.12,30.39-0.16,45.59s0,30.47.06,45.7a3.36,3.36,0,0,0,3.33,3.33h11.59c1.61,0,3.23,0,4.84-.05,0.67,0,1.35-.11,2-0.21,1.24-.12,2.49-0.11,3.73-0.13l4.67,0,9.79,0,19.86,0,39.32,0q39.93,0,79.86,0c21.18,0,42.36,0,63.54-.08,10,0,20-.11,30-0.14l12.86,0a31.32,31.32,0,0,1-3.58-1.46,8.46,8.46,0,0,1-3.48-3.6l-12.84,0c-13,0-25.91-.14-38.86-0.16l-79.82-.07h-51.79a6.58,6.58,0,0,0-.39.55l-3,0h-3c0-.19,0-0.38-0.07-0.59h-1.36l-0.51.65h-0.84c-1.9,0-3.77,0-5.67.11-3.77.12-6.63,0.26-9.29,0.45-1.53.1-3.16,0.28-5.12,0.55l-0.76,0-0.75,0c-4-.21-7.85-0.28-11.41-0.33-1.1,0-2.21,0-3.31,0-5.15,0-10.26.17-14.57,0.34a79.21,79.21,0,0,0-8.54.73,35,35,0,0,0-4.29.81c-0.51.14-1.05,0.32-1.72,0.58l-0.22-.12-0.15-.08-2.09-1.62-3.21-2.48H1383c0-12.19.09-24.39,0.06-36.58q0-9.21-.06-18.42l-0.06-1.8c-0.3-8.75-.51-17.61-0.67-25.12,0-.64,0-1.27,0-1.91l-0.12-7.89-0.12-7.89q-0.05-3.81-.14-7.63l0.32-10.54,0.32-10.54c0.06-1.79.14-3.63,0.23-5.41q0-12.12-.1-24.24,0-5.3-.05-10.59c-0.89,1-1.79,2-2.69,3h0Z" transform="translate(-1149.57 -386.53)"/><path class="cls-1" d="M1564.5,416.17a9.61,9.61,0,0,1,.71,1,2.28,2.28,0,0,1,1.24-.88l0.25-.07h-2.21Z" transform="translate(-1149.57 -386.53)"/><path class="cls-1" d="M1379.66,418.32a0.82,0.82,0,0,0-.81.81c0,7.65-.08,15.3-0.15,23s-0.16,15.25-.24,22.87q-0.1,8.39-.18,16.77c0.91-.47,1.83-0.94,2.75-1.38-0.07-7.17-.17-14.33-0.23-21.5-0.12-13-.32-25.94-0.33-38.91h2.34a0.81,0.81,0,0,0,0-1.62h-3.15Z" transform="translate(-1149.57 -386.53)"/><path class="cls-1" d="M1378.33,419.38c0,20.86-.21,41.71-0.46,62.57,1.18-.62,2.37-1.23,3.57-1.79q-0.15-14.26-.29-28.52c0-.3,0-0.61,0-0.92q-0.18-1.14-.34-2.3a9.3,9.3,0,0,1,.29-3.63q-0.09-12.7-.1-25.41a1.33,1.33,0,1,0-2.66,0h0Z" transform="translate(-1149.57 -386.53)"/><path class="cls-1" d="M1673.51,778.87V779l-0.18,4.36,0,0.25,0,0.49a4,4,0,1,0,.23-5.28h0Z" transform="translate(-1149.57 -386.53)"/><path class="cls-1" d="M1356.38,444.13c0.09,2.66,0,5.32,0,8a84.59,84.59,0,0,1,9.91-.5v-0.17s0-.09,0-0.14c-0.12-1.4-.05-2.84,0-4.24V447c0-.65-0.09-1.31-0.12-2,0-.46-0.07-0.93-0.09-1.39h-0.23a87.27,87.27,0,0,0-9.42.54h0Z" transform="translate(-1149.57 -386.53)"/><path class="cls-1" d="M1377.84,449.28c0,1.09,0,2.18,0,3.27q1.76,0.29,3.49.66a10.11,10.11,0,0,1,0-1v-0.07c-0.21-1.23-.41-2.46-0.57-3.7A9.21,9.21,0,0,1,1381,445q-1.6-.29-3.2-0.52c0,1.6,0,3.2,0,4.8h0Z" transform="translate(-1149.57 -386.53)"/><path class="cls-1" d="M1523.28,842.88a27.89,27.89,0,0,0-3.67.71,24.93,24.93,0,0,0-3.53,1.32,25.19,25.19,0,0,0-5.55,3.43,26.06,26.06,0,0,0-2.09,1.85,27.89,27.89,0,0,0-2.42,2.88,23.15,23.15,0,0,0-3,5.51,25.5,25.5,0,0,0-1.62,6.54,23.5,23.5,0,0,0,0,5.62,29.84,29.84,0,0,0,.59,3.42,23,23,0,0,0,1.34,3.83,25.4,25.4,0,0,0,3.52,5.81,26.64,26.64,0,0,0,5.41,5,22.66,22.66,0,0,0,6.39,3.06,21.86,21.86,0,0,0,4,.79,10.91,10.91,0,0,0,1.51.1,24.75,24.75,0,0,0,6.3-.11,23.46,23.46,0,0,0,6.23-1.82,24.9,24.9,0,0,0,4.76-2.75,28.82,28.82,0,0,0,2.77-2.29,25.37,25.37,0,0,0,5.72-8.63,27.2,27.2,0,0,0,.91-2.69,28.66,28.66,0,0,0,.73-4.11,21.42,21.42,0,0,0-.06-5.7,22.27,22.27,0,0,0-2.08-7.35,22.65,22.65,0,0,0-3.16-5.09,26.19,26.19,0,0,0-4.9-4.67,23.67,23.67,0,0,0-5.67-3.17,25.59,25.59,0,0,0-2.82-.93,30.56,30.56,0,0,0-3.9-.67,19,19,0,0,0-2.36-.14,25.36,25.36,0,0,0-3.27.22h0Zm4.78,7.22a22.86,22.86,0,0,1,4.5,1.23,24.72,24.72,0,0,1,4.12,2.38,21.94,21.94,0,0,1,3,3.06,24.6,24.6,0,0,1,2.46,4.22,18,18,0,0,1,1.25,9.32,23,23,0,0,1-1.19,4.37,24.42,24.42,0,0,1-2.43,4.17,24.8,24.8,0,0,1-3.38,3.41,23.11,23.11,0,0,1-3.68,2.12,24.68,24.68,0,0,1-4.89,1.35,24.34,24.34,0,0,1-3.41.13c-0.48-.09-1-0.18-1.44-0.29a28,28,0,0,1-3.94-1.2,24.9,24.9,0,0,1-4.33-2.54,23.78,23.78,0,0,1-3.12-3.13,17.83,17.83,0,0,1-3.58-8.52,23.21,23.21,0,0,1,0-4.92,22,22,0,0,1,1.23-4.39,23.12,23.12,0,0,1,2.36-4,23.73,23.73,0,0,1,3.22-3.22,23.18,23.18,0,0,1,3.94-2.31,22.73,22.73,0,0,1,4.5-1.23,23.4,23.4,0,0,1,4.8,0h0Z" transform="translate(-1149.57 -386.53)"/><path class="cls-1" d="M1526.56,888.93a4,4,0,1,0,4-4,4,4,0,0,0-4,4h0Z" transform="translate(-1149.57 -386.53)"/><path class="cls-1" d="M1643.32,829.52a2,2,0,0,0,.68,2.61l3.2,2.25a2.64,2.64,0,0,0-.6,1.09,2.71,2.71,0,0,0,.29,2.19c0.31,0.41.62,0.81,1,1.2a7.55,7.55,0,0,0,1.39,1.09,16.55,16.55,0,0,0,2.38,1.38l2.29,1.12c1.63,0.8,3.32,1.46,5,2.16,2.88,1.2,5.8,2.29,8.73,3.35s5.83,2.16,8.77,3.17a39.05,39.05,0,0,0,4.38,1.25l1.21,0.24a5,5,0,0,1,2.47-4.53l1.2-.5c1-.41,2.07-0.77,3.12-1.1l0.22-.07c-0.27-.05-0.55-0.11-0.81-0.17-0.57,0-1.14,0-1.71,0-0.45-.21-0.91-0.4-1.37-0.59-1.39-.58-2.77-1.18-4.2-1.65-2.91-1-5.84-1.84-8.76-2.77s-5.95-1.93-8.89-3l-0.52-.19-1-.42q-2.71-1.2-5.38-2.49c-0.72-.35-1.44-0.73-2.14-1.13l-0.2-.13c-1.25-.81-2.48-1.69-3.79-2.41a2.08,2.08,0,0,0-.92-0.26l-3.35-2.36a1.53,1.53,0,0,0-.9-0.28,2.05,2.05,0,0,0-1.71,1h0Z" transform="translate(-1149.57 -386.53)"/><path class="cls-1" d="M1667.89,787.34a4.61,4.61,0,0,0-1.65,6.3l0.72,0.93a4.59,4.59,0,0,0,2,1.18q6.33,2.6,12.64,5.26l-1.12-.47c2,0.85,3.89,1.75,5.83,2.66s4,1.85,6,2.91a88.88,88.88,0,0,1,10.79,7.07c1.1,0.87,2.18,1.76,3.21,2.72a29.55,29.55,0,0,1,2.74,3,34.2,34.2,0,0,1,3.48,6,30.39,30.39,0,0,1,1.76,5.92,14.87,14.87,0,0,1,0,2.17,25,25,0,0,1-1.07,4.18,65.31,65.31,0,0,1-4.74,7.66c-1.23,1.83-2.44,3.68-3.71,5.49a4.5,4.5,0,0,1-1.21,2l-0.09.08a4.46,4.46,0,0,1-1,.9c-0.54.65-1.1,1.29-1.68,1.91a43.85,43.85,0,0,1-3.34,3.15,2.88,2.88,0,0,1-.42.18,4.14,4.14,0,0,0-1.91,4.68,4.22,4.22,0,0,0,4,3c2.32,0.11,4.21-1.06,6-2.42a18.24,18.24,0,0,0,2.54-2.37,74.69,74.69,0,0,0,4.84-6.08c1.3-1.84,2.48-3.77,3.7-5.65,1.35-2.08,2.72-4.14,4-6.27a25.94,25.94,0,0,0,2.85-7.05,20.87,20.87,0,0,0,.75-5.26,29.88,29.88,0,0,0-.37-4.25,30.9,30.9,0,0,0-5.14-12.91,34.88,34.88,0,0,0-4.59-5.44,69,69,0,0,0-16.93-11.23c-4.16-1.92-8.37-3.75-12.66-5.34-2-.73-4-1.46-5.92-2.27l-5.37-2.23c-0.32,0-.64,0-1-0.08l-0.75-.09-0.39,0c-0.74-.07-1.44-0.15-2.12-0.25a5.16,5.16,0,0,0-.73.34h0Zm30.18,70.6a2.57,2.57,0,0,1-.37.29l0.37-.29h0Z" transform="translate(-1149.57 -386.53)"/><path class="cls-2" d="M1583.74,422.66a5,5,0,0,1,3.06,6l-0.5,1.19a24.57,24.57,0,0,1-2.25,3.67l-1.46,2.18c-0.9,1.35-1.8,2.7-2.71,4.05-1,1.54-2.12,3.06-3.2,4.58-0.95,1.33-1.91,2.66-3,3.91q-0.53.61-1,1.24a5.21,5.21,0,0,1-1.48,1.32,4.28,4.28,0,0,1-1.73.89,18.29,18.29,0,0,1-1.89.23,4.09,4.09,0,0,1-2.14-.46l-0.1.1a40.65,40.65,0,0,1-4.23,3.81c-1.09,1.07-2.19,2.12-3.33,3.14l-1.87,1.71a5.27,5.27,0,0,1-1.14,1.82,26.08,26.08,0,0,1-4.36,3.35c-1,.69-2,1.39-3.07,2-1.72,1.07-3.46,2.11-5.21,3.13a4.4,4.4,0,0,1-1,.77c-1.1.6-2.23,1.12-3.38,1.61l-0.23.11c-0.93.48-1.85,1-2.8,1.43-2.27,1.07-4.52,2.17-6.8,3.2-10.57,4.76-21.12,9.54-31.74,14.18a4.9,4.9,0,0,1-1.25.52l-7.75,4.43q-5.71,3.27-11.44,6.5l-2.73,1.54-2.53,1.79-7.3,6c-1.84,1.52-3.76,3-5.49,4.62l-0.77.73-0.33.38a29.65,29.65,0,0,0-.5,5.69l-1,.15h-1.2a5,5,0,0,1-.6,3.39,18.44,18.44,0,0,1-1.54,2.11l0,0a5.08,5.08,0,0,1-1.43,1.91l-1.48,2a5.11,5.11,0,0,1,.16,1.24,5,5,0,0,1-.68,2.52,19.26,19.26,0,0,1-3.08,4.39l-1.29,2c-1,1.58-2.07,3.16-3,4.78q-3.39,5.6-6.75,11.21c-1.87,3.13-3.78,6.25-5.74,9.32-1.5,2.36-3,4.73-4.57,7s-3.2,4.5-4.94,6.64a19.33,19.33,0,0,1-2.26,2.39c-1,2-2,4-3,6-2.32,4.84-4.54,9.72-6.74,14.62-1.08,2.4-2.13,4.82-3.27,7.21l-2.46,5.17c-0.48,1-.93,2-1.45,3l-4.19,8.06a62.06,62.06,0,0,1-3.82,6.49c-1.48,2.15-2.93,4.75-5.34,5.88l-0.3.49c-0.6,1-1.27,1.93-1.84,2.92a24.31,24.31,0,0,1-1.59,2.48,8.36,8.36,0,0,1-1.25,1.5c-0.5.41-1,.79-1.54,1.15a4.38,4.38,0,0,1-1.85.66l-2.92,5.76q-0.63,1.24-1.27,2.47-1.29,5.2-2.59,10.39c0.07,0.45.13,0.89,0.19,1.35q0.15,1.1.19,2.2l0.34,0c0.52-3.62,1.09-7.23,1.8-10.83a5,5,0,0,1,8.73-1.79l0.69-.89,0.28-.36c1.66-2.12,3.54-4.53,5.32-6.93a93.15,93.15,0,0,0,6.18-10l0.05-.1,0.71-1.26c2-3.55,3.87-7.3,5.66-10.93l0.11-.22c0.83-1.68,1.73-3.4,2.53-4.91l0.07-.14q0.73-1.14,1.44-2.29a150.46,150.46,0,0,0,10-18.92c0.59-1.37,1.16-2.75,1.72-4.14l0.12-.13a13.16,13.16,0,0,0,1.24-1.8l0.07-.11c0.45-.73.86-1.48,1.28-2.24l0.05-.09c0.71-1.28,1.39-2.61,2-3.78l0.07-.14,0.38-.74c0.64-1.25,1.21-2.55,1.77-3.81l0.06-.14,0.11-.25,0.29-.66c0.8-1.83,1.53-3.67,2.15-5.46,0.52-1.52,1.11-3.25,1.64-5,0.16-.54.32-1.07,0.48-1.61l0-.16c0.29-1,.62-2.13,1-3.21,0.57-1.73,1.14-3.36,1.75-5l0.43-1.17c0.28-.26.57-0.51,0.87-0.74s0.34-.59.53-0.9c0.88-1,1.86-2,2.8-2.94l0.17-.17c0.51-.51,1-1,1.52-1.55l0.74-.78c1.48-1.55,3-3.11,4.41-4.69,4.06-4.41,7.55-8.45,10.68-12.36l2.8-3.5,0.21-.25q3.24-4,6.48-8.12l3-3.77c2.69-3.37,5.11-6.41,7.45-9.51l1.21-1.61,0.43-.57a25.77,25.77,0,0,1,2.25-2.56l0.4-.25a25,25,0,0,0,8.1-2.5l0.43-.19,3-1.34,0.3-.13,0.43-.19,2.34-1c3.95-1.62,8.07-3.07,12.05-4.46l1.71-.61c2.17-.77,4.38-1.62,6.34-2.37l0.26-.1,1.25-.48,0.67-.26c2.25-.86,4.29-1.63,6.32-2.48l0.1,0,0.15-.06c2.76-1.16,5.61-2.37,8.31-3.83,2.36-1.28,4.84-2.71,7.59-4.37,2.22-1.35,4.34-2.74,6.21-4l0.75-.49,0.28-.18,0.09-.06c1.82-1.2,3.71-2.44,5.5-3.74,4.37-3.18,8.91-6.68,13.89-10.68a66.7,66.7,0,0,0,5.61-5.18l0.86-.86,0.09-.09,0.09-.09c1.45-1.46,3-3,4.32-4.55,2.19-2.5,4.13-4.94,5.95-7.46,1.33-1.86,2.68-4,4.27-6.6a59.42,59.42,0,0,0,6.26-15.55c0.39-1.52.73-3.19,1-5-1.66-.06-3.31-0.14-5-0.24h-0.12a3.47,3.47,0,0,1-.64,0c-0.88.55-2,1.39-3.1,2.24h0Z" transform="translate(-1149.57 -386.53)"/><path class="cls-2" d="M1676.26,633.8h0a5.44,5.44,0,0,1-1,.53l-0.12.05a8.8,8.8,0,0,1-1.91,2.43,8.55,8.55,0,0,1-1.4,1l-0.11.06a37.05,37.05,0,0,1-4.31,1.93l-1,.4-1.31.53-0.39.16-1.49.59-1.14.45-0.73.25,0,0,0.15-.05-0.15.06-0.14,0-0.11,0,0.38-.06,0.89-.14h0.09l0.17,0h0c-1.54.89-3.06,1.82-4.58,2.74a3.36,3.36,0,0,0-1.5,3.6,42.32,42.32,0,0,0-5.43,4.61,41.53,41.53,0,0,0-4.21,5.38l-0.3.43c-0.45.66-.89,1.36-1.25,2l-0.16.25-0.2.34c-0.34.56-.73,1.2-1,1.83a30.57,30.57,0,0,0-3,8.66,37.81,37.81,0,0,0-.39,3.94,18,18,0,0,0,.18,3.41,24.34,24.34,0,0,0,.74,3.73,41,41,0,0,0,2.34,6,23.78,23.78,0,0,0,4.34,6.08c0.34,0.36.7,0.7,1.07,1.06a38.74,38.74,0,0,1-.55-7.07q0.07-2.24.27-4.47a16.82,16.82,0,0,1-3.75-9,20,20,0,0,1,2.55-11.07,26.84,26.84,0,0,1,3.07-4.68,11.45,11.45,0,0,1,1.69-1.81,15.33,15.33,0,0,1,2.27-1.72l0.53-.27c0.92-2.64,1.69-5.5,3.71-7.51a32.43,32.43,0,0,1,4.84-3.86c1-.67,2-1.36,3.07-1.93s2-1,3-1.43a13.82,13.82,0,0,1,1.82-.72c0.58-.1,1.17-0.17,1.76-0.21h0.3a4.77,4.77,0,0,1,3.62,1.93l0.48-.14,0.48-.11a7.73,7.73,0,0,1,1.5-.7q-0.68-3.16-1.51-6.27a6.34,6.34,0,0,1-2.26-1.42l0.12,0.12h0Z" transform="translate(-1149.57 -386.53)"/><path class="cls-2" d="M1613.41,700.19a3,3,0,0,0,1,2.18l0,0,0.19,0.15h0a2.27,2.27,0,0,0-1.31,1.12,23,23,0,0,0-2.87,1.23,15.06,15.06,0,0,0-4.56,3.82,32.1,32.1,0,0,0-3.25,4.91c-0.55,1-1,2.09-1.47,3l-0.34.76c-0.23.52-.44,1-0.65,1.57l-0.06.15-0.27.68a19.4,19.4,0,0,0-.67,1.89c-0.06.23-.12,0.46-0.2,0.72-0.13.45-.25,0.9-0.34,1.35q-0.23,1.17-.46,2.35c-0.3,1.51-.47,3.12-0.62,4.53l-0.05.5a39.76,39.76,0,0,0-.2,4.43,27.45,27.45,0,0,0,.84,7.08,20.3,20.3,0,0,0,6.58,10.18,41.76,41.76,0,0,0,6.42,4.34,36.65,36.65,0,0,0,3.76,1.77l0.62,0.26a42.65,42.65,0,0,0,4.51,1.61c3,0.87,6.23,1.62,9.09,2.29,1.34,0.3,2.69.61,4,.88,1.52,0.3,3,.54,4.53.77,1.81,0.28,3.62.44,5.15,0.56s3,0.24,4.31.28c2.39,0.09,4.85.14,7.32,0.14H1656l5.14-.06,2.14,0,2.14,0h0.71c2.2,0,4.46.09,6.64,0.18H1673l1,0.06h0.09c0.11-1.32.24-2.63,0.43-3.94l-0.53,0a123.59,123.59,0,0,1-28.62-2.69,106.06,106.06,0,0,1-10.66-2.77c-1.15-.24-2.3-0.5-3.45-0.79l-0.53-.13-1.18-.28a57.22,57.22,0,0,1-9.9-3.27,11.38,11.38,0,0,1-2-1.05c-0.37-.27-0.77-0.52-1.16-0.81l-0.21.09a10.93,10.93,0,0,1-2.5.24,6.94,6.94,0,0,1-3.08-.83,11.56,11.56,0,0,1-3.82-4,20,20,0,0,1-2.21-4.92,26.85,26.85,0,0,1-.64-3.07l-0.16-.16a9.64,9.64,0,0,1-1.37-1.83,8.61,8.61,0,0,1-.88-2.3,15.6,15.6,0,0,1-.25-3.43,13.56,13.56,0,0,1,.51-2.92,45.52,45.52,0,0,1,1.9-4.77,46.87,46.87,0,0,1,4.95-9,23.22,23.22,0,0,1,4.18-4.67,7.39,7.39,0,0,1,2.85-1.62c0.53-.11,1.06-0.2,1.6-0.27a9,9,0,0,1,1.32-.5,10,10,0,0,1,1.32-1.77,8.14,8.14,0,0,1,3.4-1.84,21.79,21.79,0,0,1,3.54-.82c2.07-.34,4.17-0.62,6.27-0.79,1.76-.14,3.52-0.29,5.28-0.38,1.25-.07,2.51-0.18,3.75-0.19,0.57,0,1.13,0,1.7,0q1.1,0.13,2.19.31a5.85,5.85,0,0,1,2,1,6,6,0,0,1,1.66,1.63l0.79,0a7.1,7.1,0,0,1,1.28.14,6.21,6.21,0,0,1-.42-0.73,27.8,27.8,0,0,1-1.69-4.23h0l-3.05-.27-2.1-.2c-2.61-.25-5.56-0.54-8.48-0.63-2.54-.09-5.06-0.11-8.09-0.11h-2.38l-9.43-.07a2.86,2.86,0,0,0-2.81,2.83h0Z" transform="translate(-1149.57 -386.53)"/><path class="cls-2" d="M1601.24,774.78l-0.4,0h-0.3a21.3,21.3,0,0,0-3.21.3,1.51,1.51,0,0,0-1.05.72,2.16,2.16,0,0,0-.28,1.7,1.62,1.62,0,0,1,.06.23l0,0.12h0l-0.45.07a13.72,13.72,0,0,0-2.63.82,19.52,19.52,0,0,0-5.15,2.87,16.66,16.66,0,0,0-3.49,4,14.78,14.78,0,0,0-1.2,2.3,17.83,17.83,0,0,0-1,2.93c-0.23,1-.37,1.69-0.47,2.39-0.15,1-.23,1.93-0.29,2.84a29.6,29.6,0,0,0,.07,4.61,21.23,21.23,0,0,0,.73,4.4c0.24,0.84.5,1.67,0.79,2.5a17.26,17.26,0,0,0,2.24,4.48,23.61,23.61,0,0,0,4.9,5l0.68,0.53,1.22,0.95c0.4,0.31.82,0.59,1.24,0.87l0.1,0.07,0.61,0.41c1.26,0.86,2.58,1.64,3.59,2.23,1.18,0.67,2.45,1.38,3.79,2l0.39,0.18,0.23,0.13,0.09,0,0,0c1.76-.55,3.52-1.08,5.29-1.57q-1-.45-1.89-1a39.92,39.92,0,0,1-8.92-6.87,48.51,48.51,0,0,1-6.25-7.85c-0.46-.45-0.91-0.9-1.34-1.37a24.42,24.42,0,0,1-3.23-4.18,12.25,12.25,0,0,1-1.95-5.59,14.44,14.44,0,0,1,.26-2.75l0.77-1.81,0.78-1a12.87,12.87,0,0,1,1.42-1.14l0.47-.21a7,7,0,0,1,2.23-2.23,5.68,5.68,0,0,1,1.09-.5,4.21,4.21,0,0,1,.34-0.36,9.85,9.85,0,0,1,2-1.7,6.64,6.64,0,0,1,3.13-.89,6.41,6.41,0,0,1,1.35.15l0-.07a4.86,4.86,0,0,1,3-2.3,25.93,25.93,0,0,1,5.23-.86,33.89,33.89,0,0,1,4.95.43c3.38,0.52,6.76,1.19,10.09,2,2.48,0.58,5,1.18,7.43,1.8a5.14,5.14,0,0,1,1.53-.72,5,5,0,0,1,2.66,0c5.4,0.93,10.8,1.91,16.13,3.22,2.16,0.53,4.37,1,6.51,1.6l6.64,1.91c3.72,1.07,7.38,2.39,11,3.69,0.1-2.44.19-4.88,0.28-7.32l0,0.57-0.07,0h0l-0.12,0c-0.35,0-.7,0-1-0.09l-0.75-.09-0.39,0a26.37,26.37,0,0,1-3.69-.55,14.58,14.58,0,0,1-3.71-1.35,4.08,4.08,0,0,1-.35-0.21l-3.71-.61-3.39-.55c-5.8-1-11.69-2.07-17.37-3.12l-0.52-.09-0.27-.05-1.26-.23c-3.3-.61-6.61-1.22-9.9-1.8-2.57-.46-5.22-0.88-7.71-1.27l-1.67-.27-1.93-.3-3.75-.62-2.29-.38-4.27-.7a2.4,2.4,0,0,0-.79-0.76,2.35,2.35,0,0,0-1.17-.31,2.51,2.51,0,0,0-1.74.73h0Z" transform="translate(-1149.57 -386.53)"/><path class="cls-2" d="M1682.26,664.8l0.18,0,0.64,0.13,0.06,0q-0.07-1-.15-2l-0.72,1.85h0Z" transform="translate(-1149.57 -386.53)"/><path class="cls-2" d="M1676.47,704.13a12.88,12.88,0,0,1-1.27.35l-0.52.55c-0.24.26-.49,0.51-0.74,0.76,0.42-.24.85-0.48,1.28-0.71a5.33,5.33,0,0,1,4-.43q0.25-.92.47-1.84a27.88,27.88,0,0,1-3.21,1.31h0Z" transform="translate(-1149.57 -386.53)"/><path class="cls-2" d="M1630.55,737.85l-0.29.39,0.16-.17a7.15,7.15,0,0,1,2-1.87,8.08,8.08,0,0,1,2.75-.92,5.32,5.32,0,0,1-.77-1.55h0a41.21,41.21,0,0,0-3.86,4.14h0Z" transform="translate(-1149.57 -386.53)"/><path class="cls-2" d="M1617.3,824.18c0.72,0.13,1.44.23,2.16,0.32l-1.56-.48a4.69,4.69,0,0,1-.61.16h0Z" transform="translate(-1149.57 -386.53)"/><path class="cls-2" d="M1415.24,563.34q-0.18.73-.33,1.47l1.61-2.4c-0.42.32-.84,0.63-1.28,0.93h0Z" transform="translate(-1149.57 -386.53)"/><path class="cls-2" d="M1477.44,831l-0.29-.12,0.29,0.12h0Z" transform="translate(-1149.57 -386.53)"/><path class="cls-2" d="M1690.64,603.59c0.22-.93.41-1.87,0.59-2.81a4.94,4.94,0,0,1-.68-0.57l-0.11-.12c0.07,1.16.13,2.33,0.2,3.49h0Z" transform="translate(-1149.57 -386.53)"/><path class="cls-2" d="M1441.11,431.49l-2.19,1.45c-4.13,2.74-8.3,5.59-12.76,8.7-3.94,2.77-8,5.8-13.05,9.85l-1.65,1.29c-2.32,1.73-4.43,3.2-6.46,4.5s-3.91,2.31-5.87,3.37l-1.07.58c-4.37,2.39-8.74,5-12.59,7.29l-0.14.08-0.64.38-0.11.07-0.08,0h0l0,0h0l0,3.4c0,1.36-.06,2.74,0,4.11,0,0.14,0,.28,0,0.42,0.95,0.44,1.92.83,2.9,1.19,3.71-2.15,7.39-4.34,11.07-6.54,4.92-2.93,9.89-5.8,14.84-8.68,3-1.74,6-3.41,9-5.09a6,6,0,0,1,1.92-2c4-2.84,7.87-5.79,11.78-8.72l1.56-1.17a5,5,0,0,1,.6-1.63,5.05,5.05,0,0,1,1.79-1.79,37.72,37.72,0,0,1,4.09-2.39l0.54-.29c0.62-.43,1.25-0.85,1.85-1.29l0.39-.29a26.9,26.9,0,0,0,.57-5.42,28.2,28.2,0,0,0-.5-5.14c-1.92,1.23-3.83,2.5-5.73,3.76h0Z" transform="translate(-1149.57 -386.53)"/><path class="cls-1" d="M1581.65,398.21a36.21,36.21,0,0,0-5.05,1,56.34,56.34,0,0,0-7,2.66,54.55,54.55,0,0,1-9.34,3c-3.68.79-7.35,1.56-11,2.46-7,1.71-13.87,3.64-20.95,4.9-4.74.53-9.52,0.78-14.28,1.17-5.12.42-10.25,0.66-15.39,0.62s-10.31-.23-15.46-0.14c-3.15.05-6.39,0.06-9.38,1.15-2.32.84-4.59,1.86-6.88,2.78-2.55,1-5.07,2.12-7.59,3.21a66.88,66.88,0,0,0-6.8,3.25c-1.94,1.12-3.83,2.3-5.72,3.5v0c-1.93,1.23-3.83,2.5-5.74,3.77l-2.19,1.45c-4.13,2.74-8.3,5.59-12.76,8.7-3.94,2.77-8,5.8-13.05,9.85l-1.65,1.29c-2.32,1.73-4.43,3.2-6.46,4.5s-3.91,2.31-5.87,3.37l-1.07.58c-4.37,2.39-8.74,5-12.59,7.29l-0.14.08-0.64.38-0.11.07-0.08,0h0c-9.18,5.47-18.51,10.7-27.67,16.21-4.43,2.67-8.79,5.47-13.14,8.27-4.7,3-9.33,6.12-13.82,9.45a101.79,101.79,0,0,0-12.41,11.15c-2,2.05-3.86,4.15-5.65,6.38s-3.64,4.82-5.43,7.25c-6.33,8.6-12.73,17.16-18.92,25.86a136.81,136.81,0,0,0-8.26,13.44c-2.43,4.41-4.77,8.87-7.39,13.18-2.81,4.63-5.68,9.21-8.44,13.87s-5.34,9.32-8.07,13.95a310.18,310.18,0,0,1-17.53,25.77c-3.24,4.4-6.5,8.79-9.62,13.28s-5.82,9.13-8.81,13.64c-6,9.09-12.66,17.8-19.26,26.48-0.57.76-1.15,1.51-1.73,2.26-3.19,4-6.52,7.89-10.07,11.61a107.61,107.61,0,0,1-11.05,9.64c-2,1.63-4.06,3.29-5.94,5.1s-3.89,3.85-5.82,5.79c-3.78,3.78-7.61,7.5-11.37,11.3l-2.57,2.62a6.6,6.6,0,0,0,9.34,9.34q5.44-5.55,11.16-10.81c3.3-3,6.54-6.13,10-8.94,1.95-1.41,3.92-2.76,5.91-4.1,2.53-1.7,5-3.5,7.32-5.42a73.3,73.3,0,0,0,5.75-5.38c1.68-1.68,3.29-3.45,4.84-5.25,4-4.66,7.65-9.56,11.33-14.46,3.25-4.32,6.4-8.72,9.5-13.16s6.07-9,8.89-13.59c2.68-4.42,5.28-8.9,8.16-13.2,6-8.92,12.22-17.64,17.91-26.75s10.43-18.65,15.62-28c2.44-4.39,5-8.68,7.43-13.1,2.56-4.75,5-9.57,7.64-14.27,2.11-3.76,4.54-7.34,7-10.87s5.16-7.3,7.76-10.95c2.39-3.35,4.79-6.68,7.16-10.05s4.78-6.92,7.29-10.29a120.39,120.39,0,0,1,14.65-14.55c4.2-3.13,8.53-6,12.92-8.89s8.7-5.62,13.1-8.34c9.15-5.68,18.41-11.18,27.54-16.91,3.09-1.94,6.15-3.93,9.26-5.85,3.34-2.07,6.72-4.07,10-6.23,6.18-4.07,11.49-9.25,17.27-13.82,5.33-4,10.86-7.61,16.44-11.19a141.62,141.62,0,0,1,16.59-9.6c2.92-1.21,5.87-2.36,8.89-3.32a69.82,69.82,0,0,1,8.93-2.4c2.75-.19,5.55,0,8.31.07l7.59,0.23c5.07,0.15,10.18.29,15.25,0,5.34-.32,10.66-0.83,16-1.38a77.63,77.63,0,0,0,15.77-3.36c3.81-1.23,7.58-2.57,11.41-3.76s7.58-2.18,11.39-3.19a80.27,80.27,0,0,0,10.63-3.8,41.8,41.8,0,0,1,4.55-1.63,33.89,33.89,0,0,1,4.29-.93,23.72,23.72,0,0,1,1,3.67,27.18,27.18,0,0,1,0,4.88,54.37,54.37,0,0,1-1.21,5.52c-0.54,1.92-1.21,3.77-1.91,5.63-0.55,1.24-1.12,2.47-1.73,3.69-0.73,1.49-1.62,2.91-2.48,4.34a83.61,83.61,0,0,1-5.27,7.51c-1.23,1.49-2.49,2.93-3.8,4.37s-2.83,2.88-4.26,4.3-2.72,2.73-4.17,4c-1.64,1.4-3.29,2.76-5,4.1-2.35,1.81-4.69,3.64-7.11,5.34-2.93,2.06-5.91,4-9,5.84a166.43,166.43,0,0,1-18.25,9.7c-4.66,1.86-9.37,3.62-14.05,5.43-5,1.93-10.05,3.62-15,5.68s-9.77,4.47-14.51,7c-0.6.32-1.19,0.64-1.79,0.95a19.86,19.86,0,0,0-3.43,2.55,26.71,26.71,0,0,0-3.34,3.68c-1.62,2-3.17,4-4.76,6-6.05,7.61-11.87,15.39-17.71,23.15q-3.24,4.08-6.62,8c-2.25,2.64-4.59,5.19-6.82,7.84-1.21,1.45-2.41,2.93-3.52,4.46a20,20,0,0,0-1.37,2.13,27,27,0,0,0-1.73,4.27,55.48,55.48,0,0,0-2.56,10.83,4.26,4.26,0,0,1-.34,1,3.6,3.6,0,0,0,1.66,4.08,3.67,3.67,0,0,0,4-.25,11.24,11.24,0,0,1,0-5.15,14.56,14.56,0,0,1,3.44-6.58,16.41,16.41,0,0,1,1.42-1.48l0-.07c0.28-.26.57-0.51,0.87-0.74s0.34-.59.53-0.9c0.88-1,1.86-2,2.8-2.94l0.17-.17c0.51-.51,1-1,1.52-1.55l0.74-.78c1.48-1.55,3-3.11,4.41-4.69,4.06-4.41,7.55-8.45,10.68-12.36l2.8-3.5,0.21-.25q3.24-4,6.48-8.12l3-3.77c2.69-3.37,5.11-6.41,7.45-9.51l1.21-1.61,0.43-.57a25.77,25.77,0,0,1,2.25-2.56l0.4-.25a25,25,0,0,0,8.1-2.5l0.43-.19,3-1.34,0.3-.13,0.43-.19,2.34-1c3.95-1.62,8.07-3.07,12.05-4.46l1.71-.61c2.17-.77,4.38-1.62,6.34-2.37l0.26-.1,1.25-.48,0.67-.26c2.25-.86,4.29-1.63,6.32-2.48l0.1,0,0.15-.06c2.76-1.16,5.61-2.37,8.31-3.83,2.36-1.28,4.84-2.71,7.59-4.37,2.22-1.35,4.34-2.74,6.21-4l0.75-.49,0.28-.18,0.09-.06c1.82-1.2,3.71-2.44,5.5-3.74,4.37-3.18,8.91-6.68,13.89-10.68a66.7,66.7,0,0,0,5.61-5.18l0.86-.86,0.09-.09,0.09-.09c1.45-1.46,3-3,4.32-4.55,2.19-2.5,4.13-4.94,5.95-7.46,1.33-1.86,2.68-4,4.27-6.6a59.42,59.42,0,0,0,6.26-15.55c0.39-1.53.73-3.21,1-5h0c0.22-1.55.37-3.1,0.47-4.63a26.54,26.54,0,0,0-1.11-9.25,22.49,22.49,0,0,0-1-2.61l-0.36-.82a11.91,11.91,0,0,0-2-2.89,7.4,7.4,0,0,0-5.67-2.31,9.38,9.38,0,0,0-1.25.08h0Zm0.1,8.69L1582,407h0l-0.25-.11h0Zm1.89,0.37-0.43.06,0.43-.06h0Zm-1.24.18h0l0,0,0,0h0Zm0,0.25c0.05,0.11.1,0.22,0.14,0.34l-0.14-.34h0ZM1478.19,509.53a3.54,3.54,0,0,1,.64-0.07l-0.67.09,0,0h0Zm-0.47.15-0.16.06,0.16-.06h0Zm-55.8,62.16a2.94,2.94,0,0,1,0,.32c0-.11,0-0.21,0-0.32h0Z" transform="translate(-1149.57 -386.53)"/><path class="cls-1" d="M1696.85,557.74l-1.24.15s0,0.07,0,.1c-0.27,2.35-.61,4.69-1,7,0,0.32.08,0.65,0.11,1l-0.08.59,0.35-.13c0.73-.27,1.47-0.54,2.18-0.87l0.74-.35a7.13,7.13,0,0,0,1.41-1,3.48,3.48,0,0,0-.93-6.29,9.87,9.87,0,0,0-1.44-.23h-0.11Z" transform="translate(-1149.57 -386.53)"/><path class="cls-1" d="M1720.69,547.26c-2,.23-4,0.52-6,0.8-1.34.19-2.66,0.5-4,.79a27.12,27.12,0,0,0-12.87,7.3,27.73,27.73,0,0,0-2.25,2.44c-0.26,2.14-.58,4.28-0.91,6.41,0,0.32.08,0.65,0.11,1l-0.33,2.46c-0.06.34-.13,0.68-0.2,1-0.24,1.82-.48,3.63-0.76,5.45s-0.55,3.93-1,5.87l-0.13,2.62q-0.19,3.84-.35,7.68c-0.11,2.68-.18,5.37-0.29,8.07,0.77,1.08,1.58,2.13,2.41,3.17a17.14,17.14,0,0,0,7.24,5.35l0.91,0.33a5.43,5.43,0,0,0,6.14-2.5,5.49,5.49,0,0,0-1.95-7.44c-1.05-.59-2.05-1.26-3-1.95a28.59,28.59,0,0,1-3.15-3.27c-0.76-1.05-1.48-2.12-2.14-3.23a35.84,35.84,0,0,1-1.74-3.38,19.94,19.94,0,0,1-.84-3,23.5,23.5,0,0,1,.12-4.06,36.06,36.06,0,0,1,1.64-6.27c0.73-1.64,1.52-3.24,2.36-4.83a32.24,32.24,0,0,1,2.82-4.34,35.22,35.22,0,0,1,3.75-3.73,24.52,24.52,0,0,1,3.59-2.14,43.72,43.72,0,0,1,9.51-2.12l1.34-.15a4.55,4.55,0,0,0,3-1.23,4.22,4.22,0,0,0-2.71-7.17l-0.25,0h0Z" transform="translate(-1149.57 -386.53)"/><path class="cls-1" d="M1720.32,551.83a4.74,4.74,0,0,0-.48,3.64,4.91,4.91,0,0,0,2.17,2.82c1.61,1.07,3.18,2.19,4.76,3.31a60,60,0,0,1,5.43,4.81c1.81,1.88,3.47,3.87,5.08,5.9a54.28,54.28,0,0,1,6.11,9.59,15.57,15.57,0,0,1,.53,1.65,13.45,13.45,0,0,1,0,1.46c-0.75,4.19-2.44,8.16-3.41,12.3s-1.61,8.4-2.17,12.65a22.18,22.18,0,0,1-.51,2.77l-0.12.11a49,49,0,0,1-8,4.37q-6.54,2.67-13.26,4.78-3.4,1.07-6.83,2c-1.11.3-2.23,0.59-3.36,0.86a26.65,26.65,0,0,0-3.88,1.26,4.5,4.5,0,0,0-3.3,4.33,4.52,4.52,0,0,0,4.49,4.49,27.25,27.25,0,0,0,4.7-.58c1.26-.27,2.51-0.65,3.75-1,2.34-.64,4.66-1.35,7-2.07,4.92-1.55,9.82-3.25,14.59-5.21,2.68-1.1,5.27-2.3,7.84-3.64a22.28,22.28,0,0,0,4.69-3.13,10,10,0,0,0,2.41-4.15c0.21-.61.39-1.22,0.55-1.84,0.61-2.38.93-4.85,1.39-7.27s1-5,1.63-7.42c0.52-2,1.13-4,1.67-6,1-3.56,1.79-7.27,1.11-11a17.57,17.57,0,0,0-2-5.14c-0.44-.8-0.92-1.57-1.42-2.33a57.8,57.8,0,0,0-4.37-5.68c-2.75-3.27-5.56-6.46-8.63-9.45-1.51-1.47-3.2-2.77-4.85-4.09-2.19-1.75-4.5-3.36-6.84-4.9a4.08,4.08,0,0,0-2.27-.67,5,5,0,0,0-4.19,2.36h0ZM1737.69,613a4.65,4.65,0,0,1-.29.38l0.29-.38h0Zm-0.33.14-0.26.2,0.26-.2h0Z" transform="translate(-1149.57 -386.53)"/><path class="cls-1" d="M1723.4,562.19a2.65,2.65,0,0,0-.81,1.95c0.17,1.68.31,3.36,0.44,5,0.07,1,.19,2,0.2,3.05a62.35,62.35,0,0,1-.18,8.25,19.3,19.3,0,0,1-1,3.85,19.78,19.78,0,0,1-2.13,3.49,6.53,6.53,0,0,0-1.41,2.59c0,0.24-.07.49-0.1,0.73s0.08,0.64.14,1a4.07,4.07,0,0,0,.57,1.17,10.39,10.39,0,0,1,.46.94,32.06,32.06,0,0,0,1.55,3.19c1.16,1.93,2.79,4.14,5.25,4.24a5.16,5.16,0,0,0,2.24-.39,6.08,6.08,0,0,0,1.16-.59,10.62,10.62,0,0,0,1-.8,19.49,19.49,0,0,0,2.84-3.38c0.73-1,1.44-2,2.08-3.11a45.37,45.37,0,0,0,3.7-7.33,24.68,24.68,0,0,0,.89-3.07,1.84,1.84,0,0,0-3.54-1c-0.11.32-.23,0.64-0.35,1a55.63,55.63,0,0,1-6,9.91,25,25,0,0,1-3,3.29l-0.41.25h0c-0.16-.16-0.32-0.33-0.47-0.5a21.4,21.4,0,0,1-2.26-4l0.1-.11c0.45-.5.86-1,1.27-1.57a11.86,11.86,0,0,0,1.41-2.5,19.65,19.65,0,0,0,1.13-3.35,29.39,29.39,0,0,0,.61-4.29c0.11-1.24.09-2.49,0.11-3.73,0-.82,0-1.63-0.05-2.45s0-1.48-.07-2.21c-0.2-2.5-.38-5-0.64-7.5a3,3,0,0,0-.81-1.95,2.76,2.76,0,0,0-3.9,0h0Zm0.85,29.67,0.16,0.38-0.16-.38h0Zm2.93,4.71,0.23,0.1-0.23-.1h0Z" transform="translate(-1149.57 -386.53)"/><path class="cls-1" d="M1715.4,628.95c-4.44,0-8.89.5-13.3,1s-9,1.29-13.43,2.14c-3,.58-5.92,1.48-8.84,2.32-1.51.44-3,1-4.46,1.58-0.69.26-1.37,0.54-2,.82l-0.07.06a8.55,8.55,0,0,1-1.4,1l-0.11.06a37.05,37.05,0,0,1-4.31,1.93l-1,.4-1.31.53-0.39.16-0.23.09-1.9,1.08h0c-1.54.89-3.06,1.82-4.58,2.74a3.36,3.36,0,0,0-1.5,3.6h0a3.16,3.16,0,0,0,.33.81,3.28,3.28,0,0,0,4.45,1.17,109,109,0,0,1,13.29-7.11,74.36,74.36,0,0,1,9.18-3.07c1.7-.45,3.38-0.84,5.1-1.21,3.05-.65,6.13-1.11,9.21-1.53a139.84,139.84,0,0,1,18.07-1c2.89,0.07,5.77.24,8.65,0.41s5.44,0.39,8.15.73c1.05,0.16,2.11.31,3.16,0.49a26.4,26.4,0,0,1,4,.86c0.27,0.15.53,0.3,0.79,0.48a11.25,11.25,0,0,1,.93.9,17.57,17.57,0,0,1,1.43,2.5,59.31,59.31,0,0,1,2.91,12,123.37,123.37,0,0,1,.81,13.1c0,2.34,0,4.67-.16,7-0.14,2.1-.37,4.18-0.61,6.27a28,28,0,0,1-1.15,5.16,14.07,14.07,0,0,1-.9,1.49,22.13,22.13,0,0,1-2.79,2.79,29.3,29.3,0,0,1-4.31,2.38,91.4,91.4,0,0,1-9.88,3.11,98.75,98.75,0,0,1-10.46,2.22c-1.65.19-3.3,0.31-5,.41l-3,.16c-1,.05-2,0.19-3,0.34a14.71,14.71,0,0,1-2.62.09c-0.24,0-.48-0.05-0.72-0.07a4.66,4.66,0,0,0-4,7,4.48,4.48,0,0,0,2.79,2.14,14.77,14.77,0,0,0,2.23.22l1.29,0c1,0,1.93.1,2.89,0.09s1.92-.15,2.87-0.25l3-.32a77.12,77.12,0,0,0,12.71-2.41,79,79,0,0,0,12.41-4.34,45.8,45.8,0,0,0,5.29-2.88,28.16,28.16,0,0,0,4.34-3.47c0.35-.34.67-0.71,1-1.07A16.22,16.22,0,0,0,1752,690a25.41,25.41,0,0,0,1.81-7.24c0.32-2.26.63-4.55,0.8-6.83a102.3,102.3,0,0,0,.2-12.62,105.24,105.24,0,0,0-1.55-14.22,59.13,59.13,0,0,0-1.55-6.53,32.42,32.42,0,0,0-1.6-4.05,18.27,18.27,0,0,0-2.37-3.59,12.92,12.92,0,0,0-2.8-2.39,11.18,11.18,0,0,0-3.42-1.48,26.16,26.16,0,0,0-2.91-.57c-1.34-.22-2.69-0.41-4-0.58-2.07-.27-4.14-0.45-6.23-0.58s-4-.14-6.05-0.2-4.12-.12-6.19-0.12h-0.69Z" transform="translate(-1149.57 -386.53)"/><path class="cls-1" d="M1658.47,647c-0.65.45-1.3,0.91-1.94,1.38v0a42.32,42.32,0,0,0-5.43,4.61,41.53,41.53,0,0,0-4.21,5.38l-0.3.43c-0.45.66-.89,1.36-1.25,2l-0.16.25-0.2.34c-0.34.56-.73,1.2-1,1.83a30.57,30.57,0,0,0-3,8.66,37.81,37.81,0,0,0-.39,3.94,18,18,0,0,0,.18,3.41,24.34,24.34,0,0,0,.74,3.73,41,41,0,0,0,2.34,6,23.78,23.78,0,0,0,4.34,6.08c0.36,0.37.72,0.73,1.11,1.09v0a28.32,28.32,0,0,0,3.72,2.86,4.42,4.42,0,0,0,4.46-7.64c-1-.65-2-1.34-3-2.06A26.92,26.92,0,0,1,1651,686a30.83,30.83,0,0,1-2.47-4.21,24.69,24.69,0,0,1-1.45-4.81,26.1,26.1,0,0,1,0-5.38,31.74,31.74,0,0,1,1.72-6,45.43,45.43,0,0,1,4.77-8,29.67,29.67,0,0,1,4.17-4.14c1-.78,2.06-1.56,3.13-2.3a2.43,2.43,0,0,0,.86-3.25,2.54,2.54,0,0,0-2.12-1.2,1.94,1.94,0,0,0-1.13.34h0Z" transform="translate(-1149.57 -386.53)"/><path class="cls-1" d="M1670.3,655.93a2.24,2.24,0,0,0-1.55,2.73q0.88,2.58,1.7,5.18l0.77,2.45c0.1,0.33.21,0.66,0.29,1l1,4.45c0.11,0.48.16,1,.23,1.48s0.17,1.11.25,1.66a46.17,46.17,0,0,1,.23,5c-0.05,1.76-.15,3.5-0.35,5.24-0.11.7-.22,1.4-0.29,2.1,0,0.2-.05.4-0.07,0.6a2.33,2.33,0,0,0,1.72,2.26,2.39,2.39,0,0,0,2.65-1.07c0.89-1.35.9-3.11,1-4.68,0.06-1.08.06-2.16,0-3.24a49,49,0,0,0-.55-7.37c-0.19-1.14-.33-2.29-0.6-3.42l-1-4.32c-0.07-.29-0.17-0.56-0.26-0.84l-0.77-2.45c-0.54-1.73-1.11-3.45-1.7-5.17a2.31,2.31,0,0,0-2.14-1.64,2.23,2.23,0,0,0-.59.08h0Z" transform="translate(-1149.57 -386.53)"/><path class="cls-1" d="M1698.51,651.85a83.67,83.67,0,0,0-8.78.76c-2.8.34-5.59,0.84-8.36,1.37-2,.37-3.9.75-5.84,1.16a2,2,0,0,0-1.37,2.41,2,2,0,0,0,2.42,1.37c2.65-.55,5.31-1,8-1.55,1.68-.32,3.39-0.53,5.08-0.78,1.93-.22,3.84-0.41,5.78-0.56a30.5,30.5,0,0,1,5.36,0,10.44,10.44,0,0,1,1.32.32l0,0,0.2,0.2a7.84,7.84,0,0,1,.5.9,31.63,31.63,0,0,1,1.28,5.82c0.33,2.89.55,5.78,0.69,8.68a52.83,52.83,0,0,1-.19,8.25,9.61,9.61,0,0,1-1.94,4.64,15.93,15.93,0,0,1-1.95,1.93,16.56,16.56,0,0,1-2.52,1.41l-0.81.33a15.8,15.8,0,0,1-3.51.9,34.39,34.39,0,0,1-7.72-.19c-2.22-.27-4.45-0.48-6.68-0.66a3.17,3.17,0,0,0-2.3,1,3.26,3.26,0,0,0,0,4.61l0.66,0.51a3.2,3.2,0,0,0,1.64.45c2.86,0.33,5.73.81,8.61,0.91,0.73,0,1.45.05,2.18,0a38.63,38.63,0,0,0,4.79-.45,19.31,19.31,0,0,0,4.88-1.5,24.81,24.81,0,0,0,3.37-1.75,15.73,15.73,0,0,0,4-3.82,15.92,15.92,0,0,0,2.38-4.72,18.38,18.38,0,0,0,.67-4c0.07-.67.11-1.34,0.12-2a66.26,66.26,0,0,0-.41-8.3c-0.36-3.11-.82-6.18-1.49-9.23-0.14-.64-0.35-1.27-0.53-1.91a16.41,16.41,0,0,0-.67-1.89,9.92,9.92,0,0,0-1.7-2.75l-0.26-.25-0.8-.62a7.76,7.76,0,0,0-1.26-.56,7.17,7.17,0,0,0-1.22-.25c-0.52-.08-1-0.14-1.56-0.18s-0.84,0-1.26,0h-0.79Zm3.21,4.33,0.24,0.1-0.24-.1h0Zm0.49,0.25,0,0h0l0,0h0Zm0,0,0.17,0.14-0.17-.13h0Zm0.23,0.3,0.07,0.09-0.07-.09h0Z" transform="translate(-1149.57 -386.53)"/><path class="cls-1" d="M1613.41,700.19a3,3,0,0,0,.92,2.11l0.11,0.1a2.91,2.91,0,0,0,1.81.66l13,0.11c1.86,0,3.71,0,5.57.09l3.27,0.13c0.9,0,1.81.16,2.71,0.24,3.46,0.31,6.89.8,10.35,1.12l11.11,1c7.34,0.7,14.69,1.26,22,1.75,3.48,0.23,7,.37,10.43.61,3.65,0.25,7.3.53,10.95,0.89,2,0.2,4,.45,6.09.5a3.58,3.58,0,0,0,3.46-4.54,3.42,3.42,0,0,0-1.65-2.14,21.79,21.79,0,0,0-2.32-.9,12.34,12.34,0,0,0-2.07-.34q-1.37-.17-2.75-0.3c-1.77-.16-3.54-0.27-5.31-0.36q-5.53-.32-11.06-0.42c-3.46-.06-6.91-0.09-10.37-0.23q-5.68-.21-11.35-0.46c-3.5-.16-7-0.41-10.51-0.64q-4.07-.26-8.12-0.6h0l-3.05-.27-2.1-.2c-2.61-.25-5.56-0.54-8.48-0.63-2.54-.09-5.06-0.11-8.09-0.11h-2.38l-9.43-.07a2.86,2.86,0,0,0-2.81,2.83h0Z" transform="translate(-1149.57 -386.53)"/><path class="cls-1" d="M1616,702.81c-0.89.25-1.77,0.52-2.64,0.83l0,0a23,23,0,0,0-2.87,1.23,15.06,15.06,0,0,0-4.56,3.82,32.1,32.1,0,0,0-3.25,4.91c-0.55,1-1,2.09-1.47,3l-0.34.76c-0.23.52-.44,1-0.65,1.57l-0.06.15-0.27.68a19.4,19.4,0,0,0-.67,1.89c-0.06.23-.12,0.46-0.2,0.72-0.13.45-.25,0.9-0.34,1.35q-0.23,1.17-.46,2.35c-0.3,1.51-.47,3.12-0.62,4.53l-0.05.5a39.76,39.76,0,0,0-.2,4.43,27.45,27.45,0,0,0,.84,7.08,20.3,20.3,0,0,0,6.58,10.18,41.76,41.76,0,0,0,6.42,4.34,36.65,36.65,0,0,0,3.76,1.77l0.62,0.26a42.65,42.65,0,0,0,4.51,1.61c3,0.87,6.23,1.62,9.09,2.29,1.34,0.3,2.69.61,4,.88,1.52,0.3,3,.54,4.53.77,1.81,0.28,3.62.44,5.15,0.56s3,0.24,4.31.28c2.39,0.09,4.85.14,7.32,0.14H1656l5.14-.06,2.14,0,2.14,0h0.71c2.2,0,4.46.09,6.64,0.18H1673l1,0.06,0.11,0h0.2c3.11,0.13,6.23.2,9.34,0.19a52.84,52.84,0,0,0,11-.86,3.12,3.12,0,0,0,1.38-5.21,3.22,3.22,0,0,0-2.2-.91c-1.61-.09-3.21-0.18-4.83-0.18l-4.51,0c-2.89,0-5.79,0-8.68-.07-3.06-.08-6.12-0.24-9.18-0.32s-5.9,0-8.85,0c-3.13,0-6.27,0-9.4-.09s-6.49-.35-9.73-0.67c-1.58-.21-3.15-0.44-4.71-0.76-2.08-.42-4.16-0.86-6.23-1.32s-4.11-.95-6.14-1.5a48,48,0,0,1-5.07-1.77c-0.89-.41-1.78-0.82-2.64-1.28a41.91,41.91,0,0,1-4.94-3,20.93,20.93,0,0,1-3-2.92,19,19,0,0,1-1.84-3.18,20.94,20.94,0,0,1-1.09-4.08c-0.09-.7-0.18-1.4-0.21-2.1-0.05-1.14-.09-2.25-0.08-3.39,0-1.89.17-3.76,0.34-5.64l0,0.16s0,0,0,0,0,0,0,0v0.08l0.06-.44c0.07-.5.13-1,0.2-1.49a37.29,37.29,0,0,1,2.24-7.81c0.38-.86.75-1.7,1.18-2.54a26.53,26.53,0,0,1,2.17-3.53,14.68,14.68,0,0,1,2.07-2.11,14.42,14.42,0,0,1,2.52-1.45,35,35,0,0,1,3.5-1.16,1.94,1.94,0,0,0-.53-3.81,1.85,1.85,0,0,0-.5.07h0Z" transform="translate(-1149.57 -386.53)"/><path class="cls-1" d="M1721.9,706a3.62,3.62,0,0,0-1.64,2.14,3.81,3.81,0,0,0,.36,2.76q1.68,3.66,3.34,7.33c1.14,2.75,2.23,5.51,3.2,8.34a48.7,48.7,0,0,1,1.88,8.27c0.19,1.63.34,3.25,0.41,4.88a43.67,43.67,0,0,1-.14,4.9,50,50,0,0,1-1.2,6,53.77,53.77,0,0,1-1.93,5.58,23.64,23.64,0,0,1-1.87,3.46,18.73,18.73,0,0,1-2,1.89,75.91,75.91,0,0,1-7.9,4.79c-2.63,1.45-5.26,2.83-8,4l-0.48.18a0.63,0.63,0,0,1,0,.09,5.08,5.08,0,0,1-3.67,4.82l-0.52.16a5,5,0,0,1-3.09,2.5l-0.3,0a5.06,5.06,0,0,1-1.89.37l-0.58,0a4.13,4.13,0,0,1-1.29.57,17.42,17.42,0,0,1-2,.34l-0.46.08a6.29,6.29,0,0,1-.13,2.27,6.93,6.93,0,0,1-.57,1.53l0.53-.1a113.33,113.33,0,0,0,12.5-3.45,65.48,65.48,0,0,0,12.42-5.64q2.81-1.62,5.59-3.3a28.15,28.15,0,0,0,7.5-6,18.82,18.82,0,0,0,2.55-4.39c0.51-1.16,1-2.32,1.43-3.51a46.51,46.51,0,0,0,2.83-13.8,44,44,0,0,0-.24-6.46,54.22,54.22,0,0,0-2.79-13.15c-1.94-5.56-4.46-10.9-6.93-16.24a3.44,3.44,0,0,0-2.14-1.64,3.54,3.54,0,0,0-.95-0.13,3.61,3.61,0,0,0-1.81.49h0Z" transform="translate(-1149.57 -386.53)"/><path class="cls-1" d="M1614.69,702.51l-0.09,0h0a2.27,2.27,0,0,0-1.31,1.12h0a2.25,2.25,0,0,0-.16,1.59q0.77,2.83,1.48,5.67c0.35,1.37.74,2.73,1,4.11l1.07,4.9c0.25,1.16.44,2.35,0.65,3.52s0.26,2.25.3,3.39a31.26,31.26,0,0,1-.07,3.63,14.58,14.58,0,0,1-.3,1.52,9.28,9.28,0,0,0-.45,2.2,3.09,3.09,0,0,0,1.36,2.83,8.17,8.17,0,0,0,2.66.73l2.53,0.43c3.17,0.52,6.36,1,9.55,1.33,6.27,0.68,12.58.89,18.87,1.45,1.35,0.12,2.71.24,4.05,0.38l2.14,0.22a9.63,9.63,0,0,0,4.2-.2,8.87,8.87,0,0,0,4.44-4.11,20.9,20.9,0,0,0,1.4-3,17.27,17.27,0,0,0,.66-1.86,34.67,34.67,0,0,0,1-4.35,36.72,36.72,0,0,0,.52-4.71c0-1.5,0-3,0-4.47s-0.24-3-.4-4.44c-0.09-.86-0.23-1.72-0.35-2.57-0.09-.61-0.2-1.21-0.32-1.82a11.76,11.76,0,0,0-1-2.65,2.8,2.8,0,0,0-3.17-1.29,2.84,2.84,0,0,0-2,3.45c0.09,0.33.16,0.66,0.22,1,0.23,2.24.29,4.52,0.33,6.77,0,1.13,0,2.25,0,3.39,0,0.95-.1,1.89-0.18,2.84a30.15,30.15,0,0,1-.62,3.28,47.31,47.31,0,0,1-1.59,5.1,18.7,18.7,0,0,1-1.54,2.83l-0.22.23-0.12,0c-1.55.09-3.14-.05-4.69-0.1s-3.06-.07-4.59-0.11q-4.62-.11-9.23-0.26c-3.12-.11-6.25-0.23-9.37-0.52s-6.27-.65-9.39-1h-0.1c0-.12.05-0.24,0.08-0.36a15.54,15.54,0,0,0,.29-2,26.69,26.69,0,0,0,0-3.21c-0.08-1.29-.21-2.54-0.37-3.81s-0.45-2.69-.71-4c-1-5.2-2.39-10.34-3.78-15.45a2.27,2.27,0,0,0-2.19-1.65,2.15,2.15,0,0,0-.58.08h0Zm45.15,32.18-0.24.19,0.24-.19h0Z" transform="translate(-1149.57 -386.53)"/><path class="cls-1" d="M1601.24,774.78l-0.4,0h-0.3a21.3,21.3,0,0,0-3.21.3,1.51,1.51,0,0,0-1.05.72,2.16,2.16,0,0,0-.28,1.7,1.59,1.59,0,0,1,.06.24l0,0.08a2.07,2.07,0,0,0,2.28,1l0.3,0c0.73-.06,1.46-0.1,2.19-0.11a18.9,18.9,0,0,1,2.65.19c5.46,0.8,10.91,1.8,16.34,2.77,5.16,0.92,10.29,1.93,15.41,3,9.43,2,18.88,4,28.3,6,1.18,0.26,2.38.53,3.54,0.89l2,0.65a13.54,13.54,0,0,1,1.41.55l-0.06,0c3.21,1.55,6.28,3.38,9.5,4.92,1.57,0.75,3.21,1.38,4.73,2.22a40.12,40.12,0,0,1,4.43,2.87,24.17,24.17,0,0,1,3.34,3.11l0.16,0.23a5,5,0,0,1,1.89.64,5.71,5.71,0,0,1,1.16.8c0.86,0.42,1.71.87,2.54,1.33,0.63,0.35,1.25.69,1.86,1.07a21.86,21.86,0,0,1,2.2,1.54,5.61,5.61,0,0,1,.45.41c-0.19-.86-0.39-1.71-0.6-2.57a24.92,24.92,0,0,0-1.32-3.79,14.08,14.08,0,0,0-1.75-3.17c-0.5-.64-1-1.27-1.56-1.86a21.71,21.71,0,0,0-3.1-2.54,45.15,45.15,0,0,0-5.3-3.33,54.06,54.06,0,0,0-5.74-2.46,6.1,6.1,0,0,1-1,0,11.55,11.55,0,0,1-7.35-2.71,8.3,8.3,0,0,1-1-1.09c-0.23-.29-0.41-0.53-0.58-0.76l-0.34-.13-0.05,0h0l-0.12,0c-0.35,0-.7,0-1-0.09l-0.75-.09-0.39,0a26.37,26.37,0,0,1-3.69-.55,14.58,14.58,0,0,1-3.71-1.35,4.08,4.08,0,0,1-.35-0.21l-3.71-.61-3.39-.55c-5.8-1-11.69-2.07-17.37-3.12l-0.52-.09-0.27-.05-1.26-.23c-3.3-.61-6.61-1.22-9.9-1.8-2.57-.46-5.22-0.88-7.71-1.27l-1.67-.27-1.93-.3-3.75-.62-2.29-.38-4.27-.7h0l-0.42-.06a32,32,0,0,0-3.22-.3l0,0h0Zm2.32,4.07,0.42,0.05-0.42-.05h0Z" transform="translate(-1149.57 -386.53)"/><path class="cls-1" d="M1701.05,854a5.62,5.62,0,0,1-1.46,2.21l-0.1.09c0.24,0.08.47,0.16,0.71,0.26q0.35-.8.68-1.59,0.25-.61.49-1.22l-0.31.24h0Z" transform="translate(-1149.57 -386.53)"/><path class="cls-1" d="M1415.13,907c-2.39.41-4.77,0.94-7.14,1.46-2,.43-4,0.79-6,1.13-2.64.32-5.27,0.57-7.93,0.72-2.82.17-5.64,0.23-8.47,0.28-6.32.1-12.71-.19-19,0.66L1368,911c-2.8.38-5.62,0.66-8.4,1.15l-6.83,1.21-6.87,1.22c-1.75.31-3.52,0.54-5.29,0.8-3.68.39-7.35,0.77-11.05,0.89s-7.55.14-11.33,0c-1.87-.06-3.72,0-5.59.09-2.1.13-4.21,0.48-6.29,0.8-3.49.52-6.95,1.25-10.43,1.8-1.09.13-2.16,0.23-3.26,0.3-1.45.1-2.95,0-4.4,0-2.79-.07-5.57-0.34-8.36-0.28-6,.13-11.8,1.53-17.68,2.43-1.61.21-3.23,0.41-4.85,0.6a33.23,33.23,0,0,0-5.08.78l-1.61.68a13,13,0,0,0-1.94,1.29,12.75,12.75,0,0,0-2.32,2.5,3.47,3.47,0,0,0,4.75,4.75,8.47,8.47,0,0,1,3.33-1.37c1.78-.11,3.56-0.08,5.33-0.18s3.3-.24,4.94-0.43c3.06-.34,6.11-0.82,9.16-1.25,1.46-.14,2.89-0.25,4.36-0.3a35,35,0,0,1,4.09.15c3.18,0.26,6.36.59,9.55,0.65a55,55,0,0,0,9.94-1.08c2.67-.45,5.33-0.93,8-1.34,1.93-.21,3.85-0.33,5.8-0.35s4.12,0.17,6.17.23,4.09,0.09,6.13.05c2.45,0,4.89-.16,7.34-0.3,0.89-.05,1.77-0.16,2.65-0.25,1.52-.16,3-0.29,4.56-0.51,2.15-.31,4.31-0.57,6.45-0.94l13.82-2.4,2.23-.29c1.09-.14,2.19-0.35,3.29-0.42l4.47-.28c1.2-.07,2.4-0.06,3.6-0.07,4.53-.07,9.06,0,13.58-0.24a117.31,117.31,0,0,0,15.34-1.47c4.93-.88,9.79-2.11,14.71-3,2.26-.43,4.54-0.72,6.79-1.14,2.49-.47,5-1,7.41-1.6,4.55-1.15,9.08-2.49,13.56-3.87,1.57-.49,3.13-1,4.69-1.51q-3.93,0-7.85-.08c-5.78-.1-11.59-0.11-17.35-0.52-2.68-.19-5.36-0.36-8-0.62l-3.65-.38-0.48.08h0Z" transform="translate(-1149.57 -386.53)"/><path class="cls-1" d="M1598.54,777.63c-0.83,0-1.63.09-2.45,0.2h0l-0.45.07a13.72,13.72,0,0,0-2.63.82,19.52,19.52,0,0,0-5.15,2.87,16.66,16.66,0,0,0-3.49,4,14.78,14.78,0,0,0-1.2,2.3,17.83,17.83,0,0,0-1,2.93c-0.23,1-.37,1.69-0.47,2.39-0.15,1-.23,1.93-0.29,2.84a29.6,29.6,0,0,0,.07,4.61,21.23,21.23,0,0,0,.73,4.4c0.24,0.84.5,1.67,0.79,2.5a17.26,17.26,0,0,0,2.24,4.48,23.61,23.61,0,0,0,4.9,5l0.68,0.53,1.22,0.95c0.4,0.31.82,0.59,1.24,0.87l0.1,0.07,0.61,0.41c1.26,0.86,2.58,1.64,3.59,2.23,1.18,0.67,2.45,1.38,3.79,2l0.39,0.18,0.23,0.13,0.1,0.05,0,0a43.72,43.72,0,0,0,4.13,1.7c3,1,6,1.88,9,2.72,5.77,1.61,11.67,2.68,17.52,3.95,2.71,0.59,5.4,1.21,8.08,1.92l4.12,1.09c0.65,0.17,1.3.3,2,.43a14.63,14.63,0,0,0,1.79.2,9.56,9.56,0,0,0,2.33-.26,3.42,3.42,0,0,0,1.51-5.71l-0.69-.54a3.39,3.39,0,0,0-1.6-.46c-0.68-.13-1.35-0.31-2-0.47l-2.29-.54-4.31-1.05c-2.89-.69-5.8-1.29-8.72-1.86-3.12-.62-6.25-1.21-9.37-1.86-2.78-.57-5.53-1.31-8.25-2.1-1.62-.47-3.27-0.91-4.87-1.45-1.45-.48-2.87-1-4.29-1.54a62.6,62.6,0,0,1-6.2-3.12,76.28,76.28,0,0,1-6.54-4.21,22.8,22.8,0,0,1-3.29-3.14,15.86,15.86,0,0,1-1.5-2.62c-0.17-.41-0.34-0.81-0.48-1.23a24.62,24.62,0,0,1-1.09-4c-0.13-1.07-.23-2.13-0.26-3.21a32.31,32.31,0,0,1,.12-3.84,23.18,23.18,0,0,1,1.14-4.4,17.26,17.26,0,0,1,1.79-3,12.78,12.78,0,0,1,1.7-1.65,16.62,16.62,0,0,1,2.91-1.66,14.62,14.62,0,0,1,2.54-.77c0.52,0,1-.06,1.57-0.09a2,2,0,0,0,.08-4h-0.08Z" transform="translate(-1149.57 -386.53)"/><path class="cls-1" d="M1601.24,774.78h0a2.44,2.44,0,0,0-.33.42,42.14,42.14,0,0,0-3,5.52,37.78,37.78,0,0,0-1.46,4.24,30.27,30.27,0,0,0-1.07,5.36c-0.05.5-.09,1-0.09,1.5a9.48,9.48,0,0,0,.18,1.59,6,6,0,0,0,.66,1.62,6.91,6.91,0,0,0,.89,1.25,16.59,16.59,0,0,0,4.36,3.65c1.45,0.87,2.91,1.7,4.43,2.43a50.64,50.64,0,0,0,4.83,2.08c1.69,0.61,3.37,1.18,5.08,1.71a69.89,69.89,0,0,0,9.22,2.2,47.5,47.5,0,0,0,6.56.76c1,0,2,0,3,0a27.7,27.7,0,0,0,2.95-.34,9.37,9.37,0,0,0,2.3-.77,9.28,9.28,0,0,0,2.05-1.31,10.6,10.6,0,0,0,2.71-3.38,26,26,0,0,0,1.65-3.94c0.36-1.09.72-2.18,1-3.28a34.9,34.9,0,0,0,1.22-7,3.19,3.19,0,0,0-2.35-3.09,3.23,3.23,0,0,0-2.47.32,3.33,3.33,0,0,0-1.47,1.91c-0.56,1.68-1.18,3.34-1.74,5s-1.21,3.61-1.91,5.38a14.94,14.94,0,0,1-1.13,2.13c-0.15.17-.31,0.32-0.48,0.48l-0.44.27a10.36,10.36,0,0,1-1.1.29,40.85,40.85,0,0,1-8.49-.16,83,83,0,0,1-9.42-1.82c-1.82-.48-3.61-1-5.41-1.54-1.51-.46-3-1.07-4.45-1.66a33,33,0,0,1-5.71-3.05,11.57,11.57,0,0,1-1.2-1.15c-0.08-.12-0.16-0.25-0.23-0.39l0-.14a14.81,14.81,0,0,1,.11-2.7,34.12,34.12,0,0,1,1.7-6.42,42.4,42.4,0,0,1,2.85-5.11,2.38,2.38,0,0,0-.05-2.49h0a2.4,2.4,0,0,0-.79-0.76,2.35,2.35,0,0,0-1.17-.31,2.51,2.51,0,0,0-1.74.73h0Zm-0.77,17.39,0-.12,0.06,0.14,0,0h0Zm0,0,0,0,0.13,0.31a2.65,2.65,0,0,1-.15-0.34h0Z" transform="translate(-1149.57 -386.53)"/><path class="cls-1" d="M1574.52,406.07c-0.53.48-1.07,0.94-1.63,1.38-1.91,1.43-3.91,2.78-5.89,4.11-2.27,1.51-4.56,3-6.86,4.43s-4.87,3.11-7.36,4.59a75.51,75.51,0,0,1-7.35,3.8,48.71,48.71,0,0,1-10.8,3.11,15.62,15.62,0,0,1-2.65,0,9.9,9.9,0,0,1-1.54-.4,12.56,12.56,0,0,1-1.21-.71,9.71,9.71,0,0,1-1.09-1.11,15.9,15.9,0,0,1-1.45-2.61l-0.62-1.45-0.24-.58a2.67,2.67,0,0,0-1.13-1.47,2.46,2.46,0,0,0-1.9-.25,2.5,2.5,0,0,0-1.47,1.13,2.35,2.35,0,0,0-.25,1.9c0.28,0.68.56,1.35,0.84,2a22.42,22.42,0,0,0,1.69,3.46,11.52,11.52,0,0,0,2.41,2.75,12.41,12.41,0,0,0,3.29,1.86,12.55,12.55,0,0,0,4.19.65,20.26,20.26,0,0,0,3.88-.4c1.31-.21,2.61-0.48,3.9-0.78,0.9-.21,1.82-0.4,2.71-0.65a94.29,94.29,0,0,0,11.36-4.08c3.49-1.49,6.88-3.21,10.29-4.87s6.64-3.37,9.93-5.12c2-1.09,4.29-2,5.94-3.73a4.94,4.94,0,0,0-3.49-8.43,5.09,5.09,0,0,0-3.49,1.45h0ZM1521.94,424l0.22,0.51-0.22-.51h0Z" transform="translate(-1149.57 -386.53)"/><path class="cls-1" d="M1714.57,624.18a18.83,18.83,0,0,0-4.65.83c-1.42.39-2.85,0.78-4.27,1.19-2.79.82-5.59,1.64-8.37,2.51-3,.95-6,1.85-9.09,2.5s-6,1.11-8.95,1.61l-2.14.34a9.85,9.85,0,0,1-.86.64h0a5.44,5.44,0,0,1-1,.53l-0.12.05a8.8,8.8,0,0,1-1.91,2.43,8.55,8.55,0,0,1-1.4,1l-0.11.06a37.05,37.05,0,0,1-4.31,1.93l-1,.4-1.31.53-0.39.16-1.49.59-1.14.45-0.7.24-0.06,0,0.13,0-0.15.06-0.13,0-0.11,0,0.37-.06,0.89-.14h0.08l1.74-.32c3.15-.61,6.3-1.22,9.46-1.76,2.88-.49,5.75-1,8.61-1.56s6-1.19,9-1.9,6-1.64,9-2.52c2.6-.77,5.22-1.48,7.84-2.2,1.28-.35,2.56-0.69,3.82-1.11a30.86,30.86,0,0,0,4-1.77,2.57,2.57,0,0,0-1.25-4.79h0Z" transform="translate(-1149.57 -386.53)"/><path class="cls-1" d="M1425.49,558.37c-1.83,4-3.55,8.05-5.2,12.14-1.32,3.28-2.6,6.57-4,9.84-0.95,2.06-1.92,4.11-2.93,6.14-0.92,1.86-1.92,3.67-2.87,5.51-1.95,3.75-3.53,7.68-5.28,11.52s-3.35,7.53-5.2,11.21c-1,1.95-2.1,3.84-3.18,5.74s-2.09,3.77-3.1,5.68a159.76,159.76,0,0,1-12.74,21c-2.48,3.09-5.08,6.07-7.64,9.11-2.76,3.27-5.44,6.59-8.39,9.7s-6.23,6.09-9.43,9.05q-4.55,4.21-9.23,8.25c-2.66,2.29-5.29,4.62-8,6.8-2,1.49-4.2,2.81-6.29,4.26-0.87.6-1.76,1.18-2.64,1.77a21.66,21.66,0,0,0-1.91,1.46c-0.15.13-.29,0.27-0.43,0.4a7.48,7.48,0,0,0-1.65,2.81,5.4,5.4,0,0,0,0,2.84,5.32,5.32,0,0,0,1.38,2.36,5,5,0,0,0,2.63,1.51,5.18,5.18,0,0,0,4.95-1.31l0.23-.25,0.32-.27c1.06-.72,2.19-1.36,3.27-2,1.72-1.08,3.49-2.09,5.18-3.23a61.67,61.67,0,0,0,5.59-4.38c1.5-1.28,3-2.61,4.41-3.94q4.61-4.24,9-8.68c3-3,6-6,8.91-9.15,3.18-3.45,6-7.16,8.89-10.87l0.48-.62-0.08.1,0.52-.68-0.28.36,0.3-.39h0l0,0,0,0h0l0.09-.12,1.16-1.48,0,0,0.7-.89,0.28-.36c1.66-2.12,3.54-4.53,5.32-6.93a93.15,93.15,0,0,0,6.18-10l0.05-.1,0.71-1.26c2-3.55,3.87-7.3,5.66-10.93l0.11-.22c0.83-1.68,1.73-3.4,2.53-4.91l0.07-.14,0.17-.27c1.14-2.16,2.27-4.32,3.3-6.53,1.88-4,3.37-8.25,4.95-12.41,1.5-4,2.88-8,4.48-11.89l-0.33.77c1.89-4.48,3.91-8.93,5.57-13.52s3.21-8.91,4.93-13.32c1-2.2,1.91-4.39,2.9-6.57a2.78,2.78,0,0,0,.26-2,2.54,2.54,0,0,0-2.52-1.89,2.38,2.38,0,0,0-2.23,1.27h0Z" transform="translate(-1149.57 -386.53)"/><path class="cls-1" d="M1427.78,558.05a11.63,11.63,0,0,0-1.33,2l-0.44.86a4.49,4.49,0,0,0-.38.69l0-.09c-1.54,3.44-3.38,6.72-5.18,10-0.91,1.67-1.78,3.34-2.54,5.09-0.45,1-.89,2.1-1.29,3.16l-0.23.63q-1.78,3.84-3.5,7.7c-1.39,3.12-2.7,6.27-4.15,9.36a187.23,187.23,0,0,1-10.07,18.68c-1.9,3.09-3.91,6.12-5.84,9.2s-3.61,6-5.3,9.07c-0.39.72-.77,1.46-1.14,2.19a4.14,4.14,0,0,0-.41,3.08,4,4,0,0,0,4.93,2.8,4.28,4.28,0,0,0,2.39-1.84c2.17-3,4.23-6.13,6.29-9.25,1.41-2.13,2.84-4.24,4.23-6.39l0.09-.17,0.07-.14q0.73-1.14,1.44-2.29a150.46,150.46,0,0,0,10-18.92c0.59-1.37,1.16-2.75,1.72-4.14l0.12-.13a13.16,13.16,0,0,0,1.24-1.8l0.07-.11c0.45-.73.86-1.48,1.28-2.24l0.05-.09c0.71-1.28,1.39-2.61,2-3.78l0.07-.14,0.38-.74c0.64-1.25,1.21-2.55,1.77-3.81l0.06-.14,0.11-.25,0.29-.66c0.8-1.83,1.53-3.67,2.15-5.46,0.52-1.52,1.11-3.25,1.64-5,0.16-.54.32-1.07,0.48-1.61l0-.16c0.29-1,.62-2.13,1-3.21,0.57-1.73,1.14-3.36,1.75-5l0.43-1.17,0,0,0.36-1,0.38-1c0.09-.23.16-0.45,0.23-0.68a3.22,3.22,0,0,0-.35-2.48,3.13,3.13,0,0,0-2.73-1.56,2.86,2.86,0,0,0-2.23.92h0Z" transform="translate(-1149.57 -386.53)"/><path class="cls-1" d="M1691.24,849.17a4,4,0,0,0-3.52,2.06,4.12,4.12,0,0,0-.47,1.21c-0.08.57-.16,1.11-0.2,1.68s-0.07,1.09-.08,1.64,0,1.18,0,1.77a12.64,12.64,0,0,0,.13,1.95,6.47,6.47,0,0,0,.28,1.66,4.48,4.48,0,0,0,2.52,2.81l0,0.54a4.18,4.18,0,0,0,3,4,4.06,4.06,0,0,0,2.18,0,3.94,3.94,0,0,0,2.46-1.89,4.74,4.74,0,0,0,.55-2.57c0-.07,0-0.14,0-0.21l0-.49c0-.18,0-0.36,0-0.54l0-.68c-0.1-3.19-.14-6.39-0.22-9.59a4.17,4.17,0,0,0-4.12-4.12,4.12,4.12,0,0,0-2.45.83h0Z" transform="translate(-1149.57 -386.53)"/><path class="cls-3" d="M1672.11,418.21a47.54,47.54,0,0,1-7.27.85l-2,.13-2.66.18-0.54,0-8.91.56c-10.77.68-21.74,0.81-32.36,0.93h-0.47q-3,0-5.9,0c-2.81,0-5.62,0-8.43,0l-2.08,0c-1.73,0-3.49-.07-5.19-0.12h-0.33l-0.78,0-1.59-.05-1,0c-0.27,1.79-.61,3.46-1,5a59.42,59.42,0,0,1-6.26,15.55c-1.59,2.64-2.94,4.74-4.27,6.6-1.82,2.52-3.76,5-5.95,7.46-1.37,1.58-2.87,3.09-4.32,4.55l-0.09.09-0.09.09-0.86.86a66.7,66.7,0,0,1-5.61,5.18c-5,4-9.52,7.5-13.89,10.68-1.79,1.3-3.67,2.54-5.5,3.74l-0.09.06-0.28.18-0.75.49c-1.87,1.23-4,2.61-6.21,4-2.75,1.66-5.23,3.09-7.59,4.37-2.7,1.46-5.55,2.67-8.31,3.83l-0.15.06-0.1,0c-2,.85-4.07,1.63-6.32,2.48l-0.67.26-1.25.48-0.26.1c-2,.75-4.17,1.6-6.34,2.37l-1.71.61c-4,1.4-8.1,2.85-12.05,4.46l-2.34,1-0.43.19-0.3.13-3,1.34-0.43.19a25,25,0,0,1-8.1,2.5l-0.4.25a25.77,25.77,0,0,0-2.25,2.56l-0.43.57-1.21,1.61c-2.34,3.1-4.76,6.14-7.45,9.51l-3,3.77q-3.23,4.07-6.48,8.12l-0.21.25-2.8,3.5c-3.12,3.91-6.62,7.95-10.68,12.36-1.45,1.58-2.93,3.14-4.41,4.69l-0.74.78c-0.5.52-1,1-1.52,1.55l-0.17.17c-0.95.95-1.93,1.92-2.8,2.94-0.19.3-.36,0.6-0.53,0.9s-0.59.48-.87,0.74l-0.43,1.17c-0.6,1.62-1.17,3.25-1.75,5-0.37,1.09-.7,2.22-1,3.21l0,0.16c-0.16.54-.32,1.08-0.48,1.61-0.54,1.77-1.12,3.49-1.64,5-0.62,1.79-1.35,3.63-2.15,5.46l-0.29.66-0.11.25-0.06.14c-0.56,1.26-1.13,2.57-1.77,3.81l-0.38.74-0.07.14c-0.6,1.17-1.28,2.5-2,3.78l-0.05.09c-0.42.75-.84,1.5-1.28,2.24l-0.07.11a13.16,13.16,0,0,1-1.24,1.8l-0.12.13c-0.56,1.39-1.13,2.77-1.72,4.14a150.46,150.46,0,0,1-10,18.92q-0.71,1.15-1.44,2.29l-0.07.14c-0.8,1.51-1.7,3.23-2.53,4.91l-0.11.22c-1.8,3.63-3.66,7.38-5.66,10.93l-0.71,1.26-0.05.1a93.15,93.15,0,0,1-6.18,10c-1.78,2.4-3.66,4.81-5.32,6.93l-0.28.36-0.7.89c0.14,0.21.27,0.4,0.39,0.6l0.21,0.36,0.21,0.36c0.28,0.64.56,1.29,0.82,1.93a18.45,18.45,0,0,1,.33,2.16,17.9,17.9,0,0,1,.21,2.58,50.73,50.73,0,0,1-.34,5.33c-0.18,1.84-.32,3.52-0.42,5.14l-0.27,4.85-0.28,4.92-0.19,3.24c-0.19,3.21-.43,7.21-0.55,11l-0.32,10.54L1381.86,724q0.08,3.82.14,7.63l0.12,7.89,0.12,7.89c0,0.64,0,1.27,0,1.91,0.16,7.51.37,16.37,0.67,25.12q0.26,7.44.54,14.86c0.54,6.15,1,11.23,1.58,16a4.28,4.28,0,0,1-.82,2.77l0,1.19,0,1.18c0.24,5.3.44,9.3,0.66,13a68.74,68.74,0,0,0,4.55,6.18l1,1.25,3.77,2.91,2.09,1.62,0.15,0.08,0.22,0.13c0.67-.26,1.21-0.44,1.72-0.58a35,35,0,0,1,4.29-.81,79.21,79.21,0,0,1,8.54-.73c4.32-.17,9.42-0.34,14.57-0.34,1.1,0,2.21,0,3.31,0,3.56,0,7.4.12,11.41,0.33l0.75,0,0.76,0c2-.27,3.59-0.45,5.13-0.55,2.66-.2,5.52-0.34,9.29-0.45,1.9-.07,3.77-0.09,5.67-0.11H1463c0.61-.75,1.18-1.5,1.75-2.26a21.11,21.11,0,0,0,.19,2.2h3l3,0a5.79,5.79,0,0,1,.79-1,5,5,0,0,1,2.2-1.29l1.32-.17c2.41-.31,4.89-0.45,7.09-0.56l1-.05c2.49-.14,4.94-0.24,7-0.31,3.81-.14,7.71-0.21,11.59-0.21h2.11c8.86,0.05,18,.14,28.66.28l5,0.06h1.21c7.29,0.09,14.82.18,22.22,0.18h3.47l3.94,0,7.89,0c4-.11,8.05-0.2,12.08-0.27l2.61-.87,0.89-.29,3.66-1.21c2.12-.7,4.26-1.4,6.4-2.07h0a0.28,0.28,0,0,0-.13-0.08l-0.23-.12-0.39-.18c-1.34-.62-2.61-1.32-3.79-2-1-.59-2.34-1.37-3.59-2.23l-0.61-.41-0.1-.07c-0.42-.28-0.84-0.56-1.24-0.87l-1.22-.95-0.68-.53a23.61,23.61,0,0,1-4.9-5,17.26,17.26,0,0,1-2.24-4.48c-0.28-.83-0.54-1.66-0.79-2.5a21.23,21.23,0,0,1-.73-4.4,29.6,29.6,0,0,1-.07-4.61c0.07-.9.14-1.87,0.29-2.84,0.1-.7.24-1.41,0.47-2.39a17.83,17.83,0,0,1,1-2.93,14.78,14.78,0,0,1,1.2-2.3,16.66,16.66,0,0,1,3.49-4,19.52,19.52,0,0,1,5.15-2.87,13.72,13.72,0,0,1,2.63-.82l0.45-.07a1.31,1.31,0,0,0-.08-0.38,2.16,2.16,0,0,1,.28-1.7,1.51,1.51,0,0,1,1.05-.72,21.3,21.3,0,0,1,3.21-.3h0.3l0.4,0a2.51,2.51,0,0,1,1.74-.73,2.35,2.35,0,0,1,1.17.31,2.4,2.4,0,0,1,.79.76l4.27,0.7,2.29,0.38,3.75,0.62,1.93,0.3,1.67,0.27c2.5,0.39,5.15.8,7.71,1.27,3.3,0.58,6.6,1.2,9.9,1.8l1.26,0.23,0.27,0.05,0.52,0.09c5.69,1.05,11.57,2.14,17.38,3.12l3.39,0.55,3.71,0.61a4.08,4.08,0,0,0,.35.21,14.58,14.58,0,0,0,3.71,1.35,26.37,26.37,0,0,0,3.69.55l0.39,0,0.75,0.09c0.35,0,.7.07,1,0.09l0.13,0,0-.11v0a12.4,12.4,0,0,0,.13-1.58c0-.71.07-1.42,0.11-2.12l0-.25,0.18-4.36,0.19-4.36,0.07-1.64c0.1-2.53.19-4.81,0.38-7.12l-0.12,0-1-.06h-0.22c-2.18-.09-4.45-0.18-6.64-0.18h-0.71l-2.14,0-2.14,0-5.14.06h-1.56c-2.47,0-4.94,0-7.32-.14-1.27,0-2.68-.14-4.31-0.28s-3.34-.29-5.15-0.56c-1.52-.23-3-0.46-4.53-0.77-1.35-.27-2.7-0.57-4-0.87-2.86-.67-6.06-1.42-9.09-2.29a42.65,42.65,0,0,1-4.51-1.61l-0.62-.26a36.65,36.65,0,0,1-3.76-1.77,41.76,41.76,0,0,1-6.42-4.34,20.3,20.3,0,0,1-6.58-10.18,27.45,27.45,0,0,1-.84-7.08,39.76,39.76,0,0,1,.2-4.43l0.05-.5c0.15-1.41.32-3,.62-4.53q0.23-1.18.46-2.35c0.09-.45.21-0.9,0.34-1.35,0.08-.26.14-0.49,0.2-0.72a19.4,19.4,0,0,1,.67-1.89l0.27-.68,0.06-.15c0.21-.53.41-1.05,0.65-1.57l0.34-.76c0.43-1,.91-2.06,1.47-3a32.1,32.1,0,0,1,3.25-4.91,15.06,15.06,0,0,1,4.56-3.82,23,23,0,0,1,2.88-1.23,2.27,2.27,0,0,1,1.31-1.12,3,3,0,0,1-1.21-2.37,2.86,2.86,0,0,1,2.81-2.83l9.43,0.07H1628c3,0,5.55,0,8.09.11,2.92,0.09,5.87.38,8.48,0.63l2.1,0.2,3.05,0.27v0h0a1.27,1.27,0,0,0,0-.23c-0.19-.77-0.31-1.34-0.38-1.84l-0.06-.39c-0.39-.37-0.75-0.72-1.11-1.09a23.78,23.78,0,0,1-4.34-6.08,41,41,0,0,1-2.34-6,24.34,24.34,0,0,1-.74-3.73,18,18,0,0,1-.18-3.41,37.81,37.81,0,0,1,.39-3.94,30.57,30.57,0,0,1,3-8.66c0.32-.64.7-1.27,1-1.83l0.2-.34,0.16-.25c0.37-.61.8-1.31,1.25-2l0.3-.43a41.53,41.53,0,0,1,4.21-5.38,42.32,42.32,0,0,1,5.43-4.61,3.36,3.36,0,0,1,1.5-3.6c1.52-.93,3-1.85,4.58-2.74h-0.27l-0.89.14-0.43.07,0.3-.09,0.15-.06-0.51.17,1.14-.39,1.14-.45,1.49-.59,0.39-.16,1.31-.53,1-.4a37.05,37.05,0,0,0,4.31-1.93l0.11-.06a8.55,8.55,0,0,0,1.4-1,8.8,8.8,0,0,0,1.91-2.43l0.12-.05a5.44,5.44,0,0,0,1-.53,6.11,6.11,0,0,1-1.86-4.26c0-1.26-.06-2.52-0.05-3.79s0-2.56.07-3.84l0-.33,0-.33,0-.7,0-.7c-0.05-.93-0.1-1.86-0.14-2.79-0.17-3.72-.27-7.23-0.32-9.87-0.12-4.48-.1-9-0.09-13.42v-0.36c0-1.48,0-2.91,0-4.34,0-12.73.06-22.29,0.2-31q0-1.63,0-3.28l0-1.65V552.5c0-3.7.09-7.53,0.2-11.29l0.13-4.93,0.14-5-0.08-1.39c-0.12-2.14-.23-4.32-0.25-6.47l0-3c0-3.87-.09-8.25,0-12.5q-0.39-7.71-.73-15.41l-0.18-3.84c-0.05-1-.06-2.1-0.07-3.14v-0.71l-0.09-11.21,0-2.57v-0.19c0-3.63-.08-7.39,0-11.14s0.2-7.69.3-11.53c0-.75,0-1.5,0-2.25,0-1.49.05-2.95,0.13-4.36l0.18-3.33v-0.5c0.29-5.51.59-11.2,1.05-16.79a6,6,0,0,1,.68-2.5l-1.72-.15-1.64-.1h0Zm-75.27,210.16,2.09-4.08,0.07-.13,0.46,0.23,0.4,0.18a14.42,14.42,0,0,0-2.9,4l-0.12-.18h0Zm52.91,70.25h0Z" transform="translate(-1149.57 -386.53)"/><path class="cls-3" d="M1387.56,421.19l-1.2.15-1.24.19-1.08.16c0,7.18.08,14.45,0.17,21.48v0.33l0,2.51c0,1.08,0,2.16.06,3.24l0,1.08,0,1.09v0.16c0.07,3.29.14,7,.11,10.67l-0.05,6.86,0.14,0,0.11-.07,0.64-.38,0.14-.08c3.86-2.3,8.23-4.91,12.59-7.29l1.07-.58c2-1.06,4-2.15,5.88-3.37s4.15-2.77,6.46-4.5l1.65-1.29c5.09-4,9.11-7.08,13.05-9.85,4.45-3.12,8.63-6,12.76-8.7l2.19-1.45c1.91-1.27,3.81-2.54,5.74-3.77a27.18,27.18,0,0,0-1.28-4.73c-2.12-.3-4-0.54-5.77-0.73q-2.19-.24-4.37-0.45a4.6,4.6,0,0,1-3,2.27,8.53,8.53,0,0,1-1.32.17c-0.34,0-.63,0-0.93,0a30.35,30.35,0,0,1-3.13-.21l-0.84-.09-0.44,0-0.8-.08-0.46,0c-1.7-.11-3.32-0.22-5-0.35l-3.5-.27c-2.77-.21-5.54-0.43-8.31-0.68l-3.91-.36-0.34,0-3.9.12-0.71,0c-1,0-1.91.06-2.87,0.06h-1.77a12.23,12.23,0,0,1-3.89-.49,7,7,0,0,1-1.63-.82h0l-1.2.15h0Z" transform="translate(-1149.57 -386.53)"/></svg>