<svg xmlns="http://www.w3.org/2000/svg" width="101" height="101" viewBox="0 0 101 101">
  <g fill="none" fill-rule="evenodd" transform="translate(-2 19)">
    <polygon points="0 0 64 0 64 64 0 64"/>
    <path fill="#000" fill-rule="nonzero" d="M13.7272727,5.68181818 C13.7272727,4.20681818 12.5204545,3 11.0454545,3 C9.57045455,3 8.36363636,4.20681818 8.36363636,5.68181818 L8.36363636,16.4090909 L3,16.4090909 L3,32.5 L19.0909091,32.5 L19.0909091,16.4090909 L13.7272727,16.4090909 L13.7272727,5.68181818 Z M24.4545455,43.2272727 C24.4545455,46.7136364 26.7072727,49.6636364 29.8181818,50.79 L29.8181818,62 L35.1818182,62 L35.1818182,50.79 C38.2927273,49.6904545 40.5454545,46.7404545 40.5454545,43.2272727 L40.5454545,37.8636364 L24.4545455,37.8636364 L24.4545455,43.2272727 Z M3,43.2272727 C3,46.7136364 5.25272727,49.6636364 8.36363636,50.79 L8.36363636,62 L13.7272727,62 L13.7272727,50.79 C16.8381818,49.6636364 19.0909091,46.7136364 19.0909091,43.2272727 L19.0909091,37.8636364 L3,37.8636364 L3,43.2272727 Z M56.6363636,16.4090909 L56.6363636,5.68181818 C56.6363636,4.20681818 55.4295455,3 53.9545455,3 C52.4795455,3 51.2727273,4.20681818 51.2727273,5.68181818 L51.2727273,16.4090909 L45.9090909,16.4090909 L45.9090909,32.5 L62,32.5 L62,16.4090909 L56.6363636,16.4090909 Z M35.1818182,5.68181818 C35.1818182,4.20681818 33.975,3 32.5,3 C31.025,3 29.8181818,4.20681818 29.8181818,5.68181818 L29.8181818,16.4090909 L24.4545455,16.4090909 L24.4545455,32.5 L40.5454545,32.5 L40.5454545,16.4090909 L35.1818182,16.4090909 L35.1818182,5.68181818 Z M45.9090909,43.2272727 C45.9090909,46.7136364 48.1618182,49.6636364 51.2727273,50.79 L51.2727273,62 L56.6363636,62 L56.6363636,50.79 C59.7472727,49.6904545 62,46.7404545 62,43.2272727 L62,37.8636364 L45.9090909,37.8636364 L45.9090909,43.2272727 Z"/>
  </g>
</svg>
