<svg xmlns="http://www.w3.org/2000/svg" width="101" height="101" viewBox="0 0 101 101">
  <g fill="none" fill-rule="evenodd" transform="translate(-20 13)">
    <path fill="#000" fill-rule="nonzero" d="M38.7642436,34.4555556 C31.4056974,32.5544444 29.0392927,30.5888889 29.0392927,27.5277778 C29.0392927,24.0155556 32.3133595,21.5666667 37.7917485,21.5666667 C43.5618861,21.5666667 45.7013752,24.3055556 45.8958743,28.3333333 L53.0599214,28.3333333 C52.8330059,22.7911111 49.4292731,17.7 42.654224,16.0566667 L42.654224,9 L32.9292731,9 L32.9292731,15.96 C26.6404715,17.3133333 21.5834971,21.3733333 21.5834971,27.5922222 C21.5834971,35.0355556 27.7750491,38.7411111 36.8192534,40.9 C44.9233792,42.8333333 46.5442043,45.6688889 46.5442043,48.6655556 C46.5442043,50.8888889 44.9557957,54.4333333 37.7917485,54.4333333 C31.1139489,54.4333333 28.4882122,51.4688889 28.1316306,47.6666667 L21,47.6666667 C21.388998,54.7233333 26.7053045,58.6866667 32.9292731,60.0077778 L32.9292731,67 L42.654224,67 L42.654224,60.0722222 C48.975442,58.88 54,55.2388889 54,48.6333333 C54,39.4822222 46.1227898,36.3566667 38.7642436,34.4555556 Z"/>
    <polygon points="0 0 78 0 78 78 0 78"/>
  </g>
</svg>
