<svg xmlns="http://www.w3.org/2000/svg" width="101" height="101" viewBox="0 0 101 101">
  <g fill="none" fill-rule="evenodd" transform="translate(-9 23)">
    <polygon points="0 0 60 0 60 60 0 60"/>
    <path fill="#000" fill-rule="nonzero" d="M36.3434084,22.3043478 L21.6810289,22.3043478 C20.3369775,22.3043478 19.237299,23.4195652 19.237299,24.7826087 L19.237299,54.5217391 C19.237299,55.8847826 20.3369775,57 21.6810289,57 L36.3434084,57 C37.6874598,57 38.7871383,55.8847826 38.7871383,54.5217391 L38.7871383,24.7826087 C38.7871383,23.4195652 37.6874598,22.3043478 36.3434084,22.3043478 Z M29.0122186,37.173913 C26.3241158,37.173913 24.1247588,34.9434783 24.1247588,32.2173913 C24.1247588,29.4913043 26.3241158,27.2608696 29.0122186,27.2608696 C31.7003215,27.2608696 33.8996785,29.4913043 33.8996785,32.2173913 C33.8996785,34.9434783 31.7003215,37.173913 29.0122186,37.173913 Z M16.9157556,14.9934783 L20.3614148,18.4878261 C22.585209,16.2573913 25.6398714,14.8695652 29.0122186,14.8695652 C32.3845659,14.8695652 35.4392283,16.2573913 37.6630225,18.4878261 L41.1086817,14.9934783 C38.0051447,11.846087 33.7286174,9.91304348 29.0122186,9.91304348 C24.2958199,9.91304348 20.0192926,11.846087 16.9157556,14.9934783 Z M29.0122186,0 C21.5832797,0 14.8630225,3.04826087 10,7.98 L13.4456592,11.4743478 C17.4289389,7.45956522 22.9273312,4.95652174 29.0122186,4.95652174 C35.0971061,4.95652174 40.5954984,7.45956522 44.5543408,11.4991304 L48,8.00478261 C43.1614148,3.04826087 36.4411576,0 29.0122186,0 Z"/>
  </g>
</svg>
