<svg xmlns="http://www.w3.org/2000/svg" width="101" height="101" viewBox="0 0 101 101">
  <g fill="none" fill-rule="evenodd" transform="translate(-5 15)">
    <path fill="#000" fill-rule="nonzero" d="M12,12 L33,12 L33,6 L12,6 C8.7,6 6,8.7 6,12 L6,33 L12,33 L12,12 Z M30,39 L18,54 L54,54 L45,42 L38.91,50.13 L30,39 Z M51,25.5 C51,23.01 48.99,21 46.5,21 C44.01,21 42,23.01 42,25.5 C42,27.99 44.01,30 46.5,30 C48.99,30 51,27.99 51,25.5 Z M60,6 L39,6 L39,12 L60,12 L60,33 L66,33 L66,12 C66,8.7 63.3,6 60,6 Z M60,60 L39,60 L39,66 L60,66 C63.3,66 66,63.3 66,60 L66,39 L60,39 L60,60 Z M12,39 L6,39 L6,60 C6,63.3 8.7,66 12,66 L33,66 L33,60 L12,60 L12,39 Z"/>
    <polygon points="0 0 71 0 71 71 0 71"/>
  </g>
</svg>
