<?xml version="1.0" encoding="UTF-8"?>
<svg width="101px" height="101px" viewBox="0 0 101 101" version="1.1" xmlns="http://www.w3.org/2000/svg" xmlns:xlink="http://www.w3.org/1999/xlink">
    <!-- Generator: Sketch 45.2 (43514) - http://www.bohemiancoding.com/sketch -->
    <title>socialBond</title>
    <desc>Created with Sketch.</desc>
    <defs></defs>
    <g id="Page-1" stroke="none" stroke-width="1" fill="none" fill-rule="evenodd">
        <g id="socialBond" stroke="#000000" stroke-width="3">
            <g id="Group" transform="translate(39.000000, 51.000000) rotate(-90.000000) translate(-39.000000, -51.000000) translate(18.000000, 15.000000)">
                <path d="M20.7720182,41.5440363 C27.88254,41.5440363 34.1586063,37.9713076 37.9030036,32.5230638 C40.199792,29.1811471 41.5440363,25.1335652 41.5440363,20.7720182 C41.5440363,9.29994931 32.244087,0 20.7720182,0 C9.29994931,0 0,9.29994931 0,20.7720182 C0,26.3431977 2.19326647,31.4021124 5.76345476,35.1324176" id="Oval-8"></path>
                <path d="M20.7795943,71.1016144 C26.9446399,71.1016144 32.3861865,68.0039464 35.6326964,63.280148 C37.6240841,60.3826013 38.7895861,56.8732207 38.7895861,53.0916225 C38.7895861,43.1449787 30.7262381,35.0816307 20.7795943,35.0816307 C10.8329504,35.0816307 2.76960242,43.1449787 2.76960242,53.0916225 C2.76960242,57.9220101 4.6712333,62.3082479 7.76669864,65.5425397" id="Oval-8" transform="translate(20.779594, 53.091623) rotate(180.000000) translate(-20.779594, -53.091623) "></path>
            </g>
        </g>
    </g>
</svg>