<svg xmlns="http://www.w3.org/2000/svg" width="101" height="101" viewBox="0 0 101 101">
  <g fill="none" fill-rule="evenodd" transform="translate(-2 18)">
    <polygon points="0 0 53 0 53 61 0 61"/>
    <path fill="#000" fill-rule="nonzero" d="M42.5555556,7.1 L33.2666667,7.1 C32.3333333,4.142 29.8888889,2 27,2 C24.1111111,2 21.6666667,4.142 20.7333333,7.1 L11.4444444,7.1 C9,7.1 7,9.395 7,12.2 L7,47.9 C7,50.705 9,53 11.4444444,53 L42.5555556,53 C45,53 47,50.705 47,47.9 L47,12.2 C47,9.395 45,7.1 42.5555556,7.1 Z M27,7.1 C28.2222222,7.1 29.2222222,8.2475 29.2222222,9.65 C29.2222222,11.0525 28.2222222,12.2 27,12.2 C25.7777778,12.2 24.7777778,11.0525 24.7777778,9.65 C24.7777778,8.2475 25.7777778,7.1 27,7.1 Z M31.4444444,42.8 L15.8888889,42.8 L15.8888889,37.7 L31.4444444,37.7 L31.4444444,42.8 Z M38.1111111,32.6 L15.8888889,32.6 L15.8888889,27.5 L38.1111111,27.5 L38.1111111,32.6 Z M38.1111111,22.4 L15.8888889,22.4 L15.8888889,17.3 L38.1111111,17.3 L38.1111111,22.4 Z"/>
  </g>
</svg>
