<svg xmlns="http://www.w3.org/2000/svg" width="101" height="101" viewBox="0 0 101 101">
  <g fill="none" fill-rule="evenodd" transform="translate(2 22)">
    <polygon points="0 0 53 0 53 53 0 53"/>
    <path fill="#000" fill-rule="nonzero" d="M8.83333333,12.375 L48.5833333,12.375 L48.5833333,8 L8.83333333,8 C6.40416667,8 4.41666667,9.96875 4.41666667,12.375 L4.41666667,36.4375 L0,36.4375 L0,43 L30.9166667,43 L30.9166667,36.4375 L8.83333333,36.4375 L8.83333333,12.375 Z M50.7916667,16.75 L37.5416667,16.75 C36.3270833,16.75 35.3333333,17.734375 35.3333333,18.9375 L35.3333333,40.8125 C35.3333333,42.015625 36.3270833,43 37.5416667,43 L50.7916667,43 C52.00625,43 53,42.015625 53,40.8125 L53,18.9375 C53,17.734375 52.00625,16.75 50.7916667,16.75 Z M48.5833333,36.4375 L39.75,36.4375 L39.75,21.125 L48.5833333,21.125 L48.5833333,36.4375 Z"/>
  </g>
</svg>
