<svg xmlns="http://www.w3.org/2000/svg" width="101" height="101" viewBox="0 0 101 101">
  <g fill="none" fill-rule="evenodd" transform="translate(-9 22)">
    <path fill="#000" fill-rule="nonzero" d="M28.5,5 C19.3778571,5 12,12.512 12,21.8 C12,34.4 28.5,53 28.5,53 C28.5,53 45,34.4 45,21.8 C45,12.512 37.6221429,5 28.5,5 Z M28.5,27.8 C25.2471429,27.8 22.6071429,25.112 22.6071429,21.8 C22.6071429,18.488 25.2471429,15.8 28.5,15.8 C31.7528571,15.8 34.3928571,18.488 34.3928571,21.8 C34.3928571,25.112 31.7528571,27.8 28.5,27.8 Z"/>
    <polygon points="0 0 57 0 57 57 0 57"/>
  </g>
</svg>
