<svg xmlns="http://www.w3.org/2000/svg" width="101" height="101" viewBox="0 0 101 101">
  <g fill="none" fill-rule="evenodd" transform="translate(-7 24)">
    <path fill="#000" fill-rule="nonzero" d="M31.8076923,2 L15.1923077,2 C12.3261538,2 10,4.34181818 10,7.22727273 L10,42.7727273 C10,45.6581818 12.3261538,48 15.1923077,48 L31.8076923,48 C34.6738462,48 37,45.6581818 37,42.7727273 L37,7.22727273 C37,4.34181818 34.6738462,2 31.8076923,2 Z M23.5,45.9090909 C21.7761538,45.9090909 20.3846154,44.5081818 20.3846154,42.7727273 C20.3846154,41.0372727 21.7761538,39.6363636 23.5,39.6363636 C25.2238462,39.6363636 26.6153846,41.0372727 26.6153846,42.7727273 C26.6153846,44.5081818 25.2238462,45.9090909 23.5,45.9090909 Z M32.8461538,37.5454545 L14.1538462,37.5454545 L14.1538462,8.27272727 L32.8461538,8.27272727 L32.8461538,37.5454545 Z"/>
    <polygon points="0 0 49 0 49 49 0 49"/>
  </g>
</svg>
