<svg xmlns="http://www.w3.org/2000/svg" width="101" height="101" viewBox="0 0 101 101">
  <g fill="none" fill-rule="evenodd" transform="translate(-13 12)">
    <path fill="#000" fill-rule="nonzero" d="M37.5,47.2631579 C42.5985714,47.2631579 46.6835714,43.1021053 46.6835714,37.9473684 L46.7142857,19.3157895 C46.7142857,14.1610526 42.5985714,10 37.5,10 C32.4014286,10 28.2857143,14.1610526 28.2857143,19.3157895 L28.2857143,37.9473684 C28.2857143,43.1021053 32.4014286,47.2631579 37.5,47.2631579 Z M53.7785714,37.9473684 C53.7785714,47.2631579 45.9771429,53.7842105 37.5,53.7842105 C29.0228571,53.7842105 21.2214286,47.2631579 21.2214286,37.9473684 L16,37.9473684 C16,48.5673684 24.3542857,57.2931579 34.4285714,58.8147368 L34.4285714,69 L40.5714286,69 L40.5714286,58.8147368 C50.6457143,57.3242105 59,48.5673684 59,37.9473684 L53.7785714,37.9473684 Z"/>
    <polygon points="0 0 75 0 75 75 0 75"/>
  </g>
</svg>
