<?xml version="1.0" encoding="UTF-8"?>
<svg width="101px" height="101px" viewBox="0 0 101 101" version="1.1" xmlns="http://www.w3.org/2000/svg" xmlns:xlink="http://www.w3.org/1999/xlink">
    <title>callEnd</title>
    <g id="callEnd" stroke="none" stroke-width="1" fill="none" fill-rule="evenodd">
        <path d="M37.2413793,29.5 C51.8135732,29.5 64.5408167,37.3979566 71.3771658,49.1461771 C72.5490295,50.0663366 72.9827586,50.7755601 72.9827586,51.5862069 L72.9827586,51.5862069 L72.9827586,60.2758621 C72.9827586,60.8900408 72.7338135,61.4460753 72.3313237,61.8485651 C71.9288339,62.2510549 71.3727994,62.5 70.7586207,62.5 L70.7586207,62.5 L50.8965517,62.5 C50.282373,62.5 49.7263385,62.2510549 49.3238487,61.8485651 C48.9213589,61.4460753 48.6724138,60.8900408 48.6724138,60.2758621 L48.6724138,60.2758621 L48.6724138,51.5862069 C48.6724138,50.7991576 49.0813926,50.1079085 49.6977719,49.7122386 L49.6977719,49.7122386 L51.7850224,48.3723784 L49.6290847,47.1460945 C45.9747375,45.0675246 41.7468588,43.8793103 37.2413793,43.8793103 C32.7358586,43.8793103 28.5079431,45.0675404 24.8532632,47.1467771 L24.8532632,47.1467771 L22.6963654,48.373889 L24.7853899,49.7132876 C25.4017123,50.1084488 25.8103448,50.7995147 25.8103448,51.5862069 L25.8103448,51.5862069 L25.8103448,60.2758621 C25.8103448,60.8900408 25.5613997,61.4460753 25.1589099,61.8485651 C24.7564201,62.2510549 24.2003856,62.5 23.5862069,62.5 L23.5862069,62.5 L3.72413793,62.5 C3.1099592,62.5 2.55392472,62.2510549 2.15143492,61.8485651 C1.74894512,61.4460753 1.5,60.8900408 1.5,60.2758621 L1.5,60.2758621 L1.5,51.5862069 C1.5,50.7752455 1.93416742,50.0659752 2.58211183,49.676998 C9.94198684,37.3979089 22.6692222,29.5 37.2413793,29.5 L37.2413793,29.5 Z" id="Path" stroke="#000000" stroke-width="3"></path>
    </g>
</svg>