<svg xmlns="http://www.w3.org/2000/svg" xmlns:xlink="http://www.w3.org/1999/xlink" width="103" height="103" viewBox="0 0 103 103">
  <defs>
    <ellipse id="community-a" cx="16.5" cy="10" rx="10.5" ry="10"/>
    <path id="community-b" d="M32,33.4174558 C28.9058417,26.611722 22.9241428,22 16.0524899,22 C9.10228203,22 3.06249198,26.7177647 3.41936868e-14,33.6517165 C1.31509561e-14,36.7908825 1.75306047e-15,39.5736437 0,42 L32,42 C31.952258,40.0777697 31.952258,37.2169216 32,33.4174558 Z"/>
    <ellipse id="community-c" cx="21.04" cy="13.009" rx="13.665" ry="13.009"/>
    <path id="community-d" d="M41.8683386,43.8721298 C37.8199864,35.0071289 29.9936179,29 21.0028463,29 C11.9092945,29 4.00692034,35.1452578 4.47385268e-14,44.1772727 C1.72065213e-14,48.2662822 2.29367904e-15,51.8910465 0,55.0515655 L41.8683386,55.0515655 C41.8058737,52.54771 41.8058737,48.8212315 41.8683386,43.8721298 Z"/>
  </defs>
  <g fill="none" fill-rule="evenodd" transform="translate(9 24)">
    <g transform="translate(21 7)">
      <use fill="#000" xlink:href="#community-a"/>
      <ellipse cx="16.5" cy="10" stroke="#FFF" stroke-width="2" rx="11.5" ry="11"/>
      <g>
        <use fill="#000" xlink:href="#community-b"/>
        <path stroke="#FFF" stroke-width="2" d="M32.9999211,33.4300202 C32.9523226,37.218068 32.9523226,40.0679517 32.9996917,41.9751709 L33.0251451,43 L-1,43 L-1,33.4407152 L-0.914752294,33.2477013 C2.37879851,25.7905969 8.84419634,21 16.0524899,21 C23.17766,21 29.5809723,25.6805077 32.9103341,33.0035816 L33.0027259,33.2068014 L32.9999211,33.4300202 Z"/>
      </g>
    </g>
    <use fill="#000" xlink:href="#community-c"/>
    <ellipse cx="21.04" cy="13.009" stroke="#FFF" stroke-width="2" rx="14.665" ry="14.009"/>
    <g>
      <use fill="#000" xlink:href="#community-d"/>
      <path stroke="#FFF" stroke-width="2" d="M42.8682589,43.8847503 C42.8059388,48.822383 42.8059388,52.5378483 42.8680275,55.0266257 L42.8935972,56.0515655 L-1,56.0515655 L-1,43.9654114 L-0.914085852,43.771752 C3.34893476,34.1624605 11.7028812,28 21.0028463,28 C30.1954356,28 38.4688024,34.0205843 42.7779767,43.4567283 L42.8710878,43.660621 L42.8682589,43.8847503 Z"/>
    </g>
  </g>
</svg>
