<svg width="82" height="82" viewBox="0 0 82 82" fill="none" xmlns="http://www.w3.org/2000/svg">
<g id="locations_icon_MultiUser">
<g id="Group 48">
<g id="Group 18">
<circle id="Oval" cx="14.2124" cy="27.2866" r="9.78657" stroke="black" stroke-width="3"/>
<g id="Combined Shape">
<mask id="path-2-inside-1_27_5412" fill="white">
<path fill-rule="evenodd" clip-rule="evenodd" d="M27.9567 66.9984C27.9903 66.324 28.0074 65.6417 28.0074 64.9525C28.0074 51.7689 21.7377 41.0815 14.0037 41.0815C6.26967 41.0815 0 51.7689 0 64.9525C0 65.6417 0.0171329 66.324 0.0507124 66.9984H27.9567Z"/>
</mask>
<path d="M27.9567 66.9984V69.9984H30.811L30.953 67.1476L27.9567 66.9984ZM0.0507124 66.9984L-2.94558 67.1476L-2.80362 69.9984H0.0507124V66.9984ZM25.0074 64.9525C25.0074 65.592 24.9915 66.2246 24.9604 66.8492L30.953 67.1476C30.989 66.4235 31.0074 65.6914 31.0074 64.9525H25.0074ZM14.0037 44.0815C16.3693 44.0815 19.057 45.7366 21.3182 49.5912C23.538 53.375 25.0074 58.7993 25.0074 64.9525H31.0074C31.0074 57.9222 29.342 51.4109 26.4934 46.5552C23.6863 41.7702 19.3722 38.0815 14.0037 38.0815V44.0815ZM3 64.9525C3 58.7993 4.46943 53.375 6.68919 49.5912C8.95045 45.7366 11.6382 44.0815 14.0037 44.0815V38.0815C8.63523 38.0815 4.32108 41.7702 1.51399 46.5552C-1.33459 51.4109 -3 57.9222 -3 64.9525H3ZM3.047 66.8492C3.0159 66.2246 3 65.592 3 64.9525H-3C-3 65.6914 -2.98163 66.4235 -2.94558 67.1476L3.047 66.8492ZM0.0507124 69.9984H27.9567V63.9984H0.0507124V69.9984Z" fill="black" mask="url(#path-2-inside-1_27_5412)"/>
</g>
</g>
<g id="Group 47">
<path id="Line 11" d="M8 55H19.9999" stroke="black" stroke-width="3" stroke-linecap="round"/>
<path id="Line 12" d="M14 49V61" stroke="black" stroke-width="3" stroke-linecap="round"/>
</g>
</g>
</g>
</svg>
