<svg xmlns="http://www.w3.org/2000/svg" xmlns:xlink="http://www.w3.org/1999/xlink" width="1006" height="469" viewBox="0 0 1006 469">
  <defs>
    <rect id="mmd_userflow1-a" width="124" height="78" rx="2"/>
  </defs>
  <g fill="none" fill-rule="evenodd">
    <rect width="1006" height="469" fill="#FFF"/>
    <g transform="translate(57 49)">
      <path fill="#F7F7F7" d="M45.016,38.824 C46.8880094,40.7440096 49.2639856,41.704 52.144,41.704 C54.9760142,41.704 57.2679912,40.7560095 59.02,38.86 C60.7720088,36.9639905 61.648,34.4080161 61.648,31.192 L61.648,1.528 L74.824,1.528 L74.824,31.192 C74.824,35.5600218 73.9000092,39.3879836 72.052,42.676 C70.2039908,45.9640164 67.5640172,48.4959911 64.132,50.272 C60.6999828,52.0480089 56.680023,52.936 52.072,52.936 C47.463977,52.936 43.4200174,52.0480089 39.94,50.272 C36.4599826,48.4959911 33.7720095,45.9640164 31.876,42.676 C29.9799905,39.3879836 29.032,35.5600218 29.032,31.192 L29.032,1.528 L42.208,1.528 L42.208,31.192 C42.208,34.3600158 43.1439906,36.9039904 45.016,38.824 Z M109.996,12.832 C106.947985,11.823995 104.39201,11.32 102.328,11.32 C100.695992,11.32 99.4120047,11.619997 98.476,12.22 C97.5399953,12.820003 97.072,13.6959942 97.072,14.848 C97.072,15.9520055 97.4799959,16.8759963 98.296,17.62 C99.1120041,18.3640037 100.119994,18.9639977 101.32,19.42 C102.520006,19.8760023 104.295988,20.4639964 106.648,21.184 C110.152018,22.192005 113.043989,23.199995 115.324,24.208 C117.604011,25.216005 119.559992,26.7639896 121.192,28.852 C122.824008,30.9400104 123.64,33.6639832 123.64,37.024 C123.64,40.3840168 122.752009,43.2519881 120.976,45.628 C119.199991,48.0040119 116.764015,49.791994 113.668,50.992 C110.571985,52.192006 107.128019,52.792 103.336,52.792 C99.1599791,52.792 94.9960208,52.0600073 90.844,50.596 C86.6919792,49.1319927 83.1040151,47.1280127 80.08,44.584 L85.192,34.288 C87.7360127,36.5440113 90.7479826,38.3919928 94.228,39.832 C97.7080174,41.2720072 100.791987,41.992 103.48,41.992 C105.44801,41.992 106.995994,41.6320036 108.124,40.912 C109.252006,40.1919964 109.816,39.136007 109.816,37.744 C109.816,36.5919942 109.396004,35.6320038 108.556,34.864 C107.715996,34.0959962 106.660006,33.4840023 105.388,33.028 C104.115994,32.5719977 102.328012,32.0320031 100.024,31.408 C96.5679827,30.4479952 93.7120113,29.4760049 91.456,28.492 C89.1999887,27.5079951 87.268008,26.02001 85.66,24.028 C84.051992,22.03599 83.248,19.3840166 83.248,16.072 C83.248,12.9519844 84.0759917,10.2160118 85.732,7.864 C87.3880083,5.51198824 89.7399848,3.70000636 92.788,2.428 C95.8360152,1.15599364 99.3759798,0.52 103.408,0.52 C107.056018,0.52 110.655982,1.03599484 114.208,2.068 C117.760018,3.10000516 120.879987,4.47999136 123.568,6.208 L118.6,16.72 C115.911987,15.1359921 113.044015,13.840005 109.996,12.832 Z M130.336,1.528 L170.152,1.528 L170.152,12.04 L143.512,12.04 L143.512,21.472 L167.56,21.472 L167.56,31.912 L143.512,31.984 L143.512,41.488 L170.872,41.488 L170.872,52 L130.336,52 L130.336,1.528 Z M209.248,52 L201.904,38.032 L192.112,38.032 L192.112,52 L178.936,52 L178.936,1.528 L201.616,1.528 C208.288033,1.528 213.459982,3.07598452 217.132,6.172 C220.804018,9.26801548 222.64,13.6239719 222.64,19.24 C222.64,23.032019 221.872008,26.3079862 220.336,29.068 C218.799992,31.8280138 216.568015,33.9759923 213.64,35.512 L224.152,52 L209.248,52 Z M192.112,27.52 L201.688,27.52 C204.376013,27.52 206.451993,26.8480067 207.916,25.504 C209.380007,24.1599933 210.112,22.2160127 210.112,19.672 C210.112,17.2239878 209.380007,15.3400066 207.916,14.02 C206.451993,12.6999934 204.376013,12.04 201.688,12.04 L192.112,12.04 L192.112,27.52 Z M247.048,1.528 L284.776,1.528 L284.704,12.04 L260.224,12.04 L260.224,23.272 L282.832,23.272 L282.832,33.784 L260.224,33.784 L260.224,52 L247.048,52 L247.048,1.528 Z M290.752,1.528 L303.928,1.528 L303.928,40.768 L325.312,40.768 L325.312,52 L290.752,52 L290.752,1.528 Z M369.268,4.12 C373.420021,6.37601128 376.683988,9.47198032 379.06,13.408 C381.436012,17.3440197 382.624,21.7599755 382.624,26.656 C382.624,31.6000247 381.436012,36.0639801 379.06,40.048 C376.683988,44.0320199 373.420021,47.1759885 369.268,49.48 C365.115979,51.7840115 360.472026,52.936 355.336,52.936 C350.199974,52.936 345.556021,51.7960114 341.404,49.516 C337.251979,47.2359886 333.988012,44.09202 331.612,40.084 C329.235988,36.07598 328.048,31.6000247 328.048,26.656 C328.048,21.7599755 329.235988,17.3440197 331.612,13.408 C333.988012,9.47198032 337.251979,6.37601128 341.404,4.12 C345.556021,1.86398872 350.199974,0.736 355.336,0.736 C360.472026,0.736 365.115979,1.86398872 369.268,4.12 Z M348.532,13.84 C346.395989,15.1360065 344.704006,16.9239886 343.456,19.204 C342.207994,21.4840114 341.584,23.9919863 341.584,26.728 C341.584,29.5120139 342.219994,32.0439886 343.492,34.324 C344.764006,36.6040114 346.455989,38.4039934 348.568,39.724 C350.680011,41.0440066 352.983988,41.704 355.48,41.704 C357.976012,41.704 360.26799,41.0440066 362.356,39.724 C364.44401,38.4039934 366.087994,36.6040114 367.288,34.324 C368.488006,32.0439886 369.088,29.5120139 369.088,26.728 C369.088,23.9919863 368.488006,21.4840114 367.288,19.204 C366.087994,16.9239886 364.44401,15.1360065 362.356,13.84 C360.26799,12.5439935 357.976012,11.896 355.48,11.896 C352.983988,11.896 350.668011,12.5439935 348.532,13.84 Z M450.304,1.528 L463.84,1.528 L446.776,52 L433.24,52 L423.664,17.656 L413.944,52 L400.408,52 L383.416,1.528 L397.6,1.528 L407.536,38.392 L417.472,1.528 L430.36,1.528 L440.44,38.392 L450.304,1.528 Z"/>
      <path fill="#000" d="M39.008,44.412 C39.9440047,45.3720048 41.1319928,45.852 42.572,45.852 C43.9880071,45.852 45.1339956,45.3780047 46.01,44.43 C46.8860044,43.4819953 47.324,42.204008 47.324,40.596 L47.324,25.764 L53.912,25.764 L53.912,40.596 C53.912,42.7800109 53.4500046,44.6939918 52.526,46.338 C51.6019954,47.9820082 50.2820086,49.2479956 48.566,50.136 C46.8499914,51.0240044 44.8400115,51.468 42.536,51.468 C40.2319885,51.468 38.2100087,51.0240044 36.47,50.136 C34.7299913,49.2479956 33.3860047,47.9820082 32.438,46.338 C31.4899953,44.6939918 31.016,42.7800109 31.016,40.596 L31.016,25.764 L37.604,25.764 L37.604,40.596 C37.604,42.1800079 38.0719953,43.4519952 39.008,44.412 Z M71.498,31.416 C69.9739924,30.9119975 68.6960052,30.66 67.664,30.66 C66.8479959,30.66 66.2060023,30.8099985 65.738,31.11 C65.2699977,31.4100015 65.036,31.8479971 65.036,32.424 C65.036,32.9760028 65.239998,33.4379981 65.648,33.81 C66.056002,34.1820019 66.559997,34.4819989 67.16,34.71 C67.760003,34.9380011 68.6479941,35.2319982 69.824,35.592 C71.5760088,36.0960025 73.0219943,36.5999975 74.162,37.104 C75.3020057,37.6080025 76.2799959,38.3819948 77.096,39.426 C77.9120041,40.4700052 78.32,41.8319916 78.32,43.512 C78.32,45.1920084 77.8760044,46.6259941 76.988,47.814 C76.0999956,49.0020059 74.8820077,49.895997 73.334,50.496 C71.7859923,51.096003 70.0640095,51.396 68.168,51.396 C66.0799896,51.396 63.9980104,51.0300037 61.922,50.298 C59.8459896,49.5659963 58.0520076,48.5640064 56.54,47.292 L59.096,42.144 C60.3680064,43.2720056 61.8739913,44.1959964 63.614,44.916 C65.3540087,45.6360036 66.8959933,45.996 68.24,45.996 C69.2240049,45.996 69.9979972,45.8160018 70.562,45.456 C71.1260028,45.0959982 71.408,44.5680035 71.408,43.872 C71.408,43.2959971 71.1980021,42.8160019 70.778,42.432 C70.3579979,42.0479981 69.8300032,41.7420011 69.194,41.514 C68.5579968,41.2859989 67.6640058,41.0160016 66.512,40.704 C64.7839914,40.2239976 63.3560056,39.7380025 62.228,39.246 C61.0999944,38.7539975 60.134004,38.010005 59.33,37.014 C58.525996,36.017995 58.124,34.6920083 58.124,33.036 C58.124,31.4759922 58.5379959,30.1080059 59.366,28.932 C60.1940041,27.7559941 61.3699924,26.8500032 62.894,26.214 C64.4180076,25.5779968 66.1879899,25.26 68.204,25.26 C70.0280091,25.26 71.8279911,25.5179974 73.604,26.034 C75.3800089,26.5500026 76.9399933,27.2399957 78.284,28.104 L75.8,33.36 C74.4559933,32.567996 73.0220076,31.9200025 71.498,31.416 Z M81.668,25.764 L101.576,25.764 L101.576,31.02 L88.256,31.02 L88.256,35.736 L100.28,35.736 L100.28,40.956 L88.256,40.992 L88.256,45.744 L101.936,45.744 L101.936,51 L81.668,51 L81.668,25.764 Z M121.124,51 L117.452,44.016 L112.556,44.016 L112.556,51 L105.968,51 L105.968,25.764 L117.308,25.764 C120.644017,25.764 123.229991,26.5379923 125.066,28.086 C126.902009,29.6340077 127.82,31.811986 127.82,34.62 C127.82,36.5160095 127.436004,38.1539931 126.668,39.534 C125.899996,40.9140069 124.784007,41.9879962 123.32,42.756 L128.576,51 L121.124,51 Z M112.556,38.76 L117.344,38.76 C118.688007,38.76 119.725996,38.4240034 120.458,37.752 C121.190004,37.0799966 121.556,36.1080064 121.556,34.836 C121.556,33.6119939 121.190004,32.6700033 120.458,32.01 C119.725996,31.3499967 118.688007,31.02 117.344,31.02 L112.556,31.02 L112.556,38.76 Z M140.024,25.764 L158.888,25.764 L158.852,31.02 L146.612,31.02 L146.612,36.636 L157.916,36.636 L157.916,41.892 L146.612,41.892 L146.612,51 L140.024,51 L140.024,25.764 Z M161.876,25.764 L168.464,25.764 L168.464,45.384 L179.156,45.384 L179.156,51 L161.876,51 L161.876,25.764 Z M201.134,27.06 C203.21001,28.1880056 204.841994,29.7359902 206.03,31.704 C207.218006,33.6720098 207.812,35.8799878 207.812,38.328 C207.812,40.8000124 207.218006,43.03199 206.03,45.024 C204.841994,47.01601 203.21001,48.5879942 201.134,49.74 C199.05799,50.8920058 196.736013,51.468 194.168,51.468 C191.599987,51.468 189.27801,50.8980057 187.202,49.758 C185.12599,48.6179943 183.494006,47.04601 182.306,45.042 C181.117994,43.03799 180.524,40.8000124 180.524,38.328 C180.524,35.8799878 181.117994,33.6720098 182.306,31.704 C183.494006,29.7359902 185.12599,28.1880056 187.202,27.06 C189.27801,25.9319944 191.599987,25.368 194.168,25.368 C196.736013,25.368 199.05799,25.9319944 201.134,27.06 Z M190.766,31.92 C189.697995,32.5680032 188.852003,33.4619943 188.228,34.602 C187.603997,35.7420057 187.292,36.9959932 187.292,38.364 C187.292,39.756007 187.609997,41.0219943 188.246,42.162 C188.882003,43.3020057 189.727995,44.2019967 190.784,44.862 C191.840005,45.5220033 192.991994,45.852 194.24,45.852 C195.488006,45.852 196.633995,45.5220033 197.678,44.862 C198.722005,44.2019967 199.543997,43.3020057 200.144,42.162 C200.744003,41.0219943 201.044,39.756007 201.044,38.364 C201.044,36.9959932 200.744003,35.7420057 200.144,34.602 C199.543997,33.4619943 198.722005,32.5680032 197.678,31.92 C196.633995,31.2719968 195.488006,30.948 194.24,30.948 C192.991994,30.948 191.834005,31.2719968 190.766,31.92 Z M241.652,25.764 L248.42,25.764 L239.888,51 L233.12,51 L228.332,33.828 L223.472,51 L216.704,51 L208.208,25.764 L215.3,25.764 L220.268,44.196 L225.236,25.764 L231.68,25.764 L236.72,44.196 L241.652,25.764 Z"/>
      <rect width="37" height="12" x="315" y="118" fill="#9B9B9B" rx="2"/>
      <rect width="124" height="7" x="315" y="227" fill="#D8D8D8" opacity=".2" rx="2"/>
      <g transform="translate(569 116)">
        <circle cx="26.5" cy="26.5" r="26.5" fill="#D8D8D8"/>
        <g fill="#9B9B9B" transform="translate(12.347 12.648)">
          <ellipse cx="14.003" cy="7.227" rx="7.077" ry="7.227"/>
          <path d="M28.6079545,24.523658 C25.8417814,19.5986575 20.4941511,16.2613636 14.3509032,16.2613636 C8.1374272,16.2613636 2.73786348,19.6753958 0,24.6931818 C3.87415797,24.523658 24.1094877,24.6931818 28.6079545,24.523658 Z"/>
        </g>
      </g>
      <g transform="translate(29 116)">
        <rect width="161" height="218" fill="#EAEAEA" rx="5"/>
        <path fill="#4A4A4A" d="M67.445,17.9527473 L69.265,17.9527473 L69.265,27.7527473 L67.487,27.7527473 L62.447,21.0047473 L62.447,27.7527473 L60.613,27.7527473 L60.613,17.9527473 L62.391,17.9527473 L67.445,24.7147473 L67.445,17.9527473 Z M76.027,27.7527473 L76.027,26.8427473 C75.7656654,27.1694156 75.4296687,27.4167464 75.019,27.5847473 C74.6083313,27.7527481 74.1370027,27.8367473 73.605,27.8367473 C73.0823307,27.8367473 72.6226686,27.7364149 72.226,27.5357473 C71.8293314,27.3350796 71.5236677,27.0574157 71.309,26.7027473 C71.0943323,26.3480788 70.987,25.9514161 70.987,25.5127473 C70.987,24.8127438 71.2343309,24.2644159 71.729,23.8677473 C72.2236691,23.4710786 72.9236621,23.2680806 73.829,23.2587473 L76.013,23.2587473 L76.013,23.0627473 C76.013,22.6240784 75.8683348,22.2834151 75.579,22.0407473 C75.2896652,21.7980794 74.8696694,21.6767473 74.319,21.6767473 C73.6096631,21.6767473 72.8676705,21.9100783 72.093,22.3767473 L71.435,21.1167473 C72.0230029,20.790079 72.5573309,20.5544146 73.038,20.4097473 C73.5186691,20.2650799 74.0809968,20.1927473 74.725,20.1927473 C75.6956715,20.1927473 76.4493306,20.4260783 76.986,20.8927473 C77.5226694,21.3594163 77.7956666,22.0127431 77.805,22.8527473 L77.819,27.7527473 L76.027,27.7527473 Z M75.383,26.0657473 C75.7563352,25.8184127 75.9663331,25.5127491 76.013,25.1487473 L76.013,24.4767473 L74.123,24.4767473 C73.6376642,24.4767473 73.2806678,24.5490799 73.052,24.6937473 C72.8233322,24.8384146 72.709,25.074079 72.709,25.4007473 C72.709,25.7180822 72.8279988,25.9700797 73.066,26.1567473 C73.3040012,26.3434149 73.6283313,26.4367473 74.039,26.4367473 C74.5616693,26.4367473 75.0096648,26.3130818 75.383,26.0657473 Z M91.679,20.9697473 C92.1643358,21.4877498 92.407,22.1900762 92.407,23.0767473 L92.407,27.7527473 L90.573,27.7527473 L90.573,23.6087473 C90.573,23.0767446 90.4260015,22.6590821 90.132,22.3557473 C89.8379985,22.0524124 89.4390025,21.9007473 88.935,21.9007473 C88.3563304,21.919414 87.8966684,22.1294119 87.556,22.5307473 C87.2153316,22.9320826 87.045,23.4407442 87.045,24.0567473 L87.045,27.7527473 L85.211,27.7527473 L85.211,23.6087473 C85.211,23.0767446 85.0663348,22.6590821 84.777,22.3557473 C84.4876652,22.0524124 84.0910025,21.9007473 83.587,21.9007473 C82.9989971,21.919414 82.5346684,22.1294119 82.194,22.5307473 C81.8533316,22.9320826 81.683,23.4407442 81.683,24.0567473 L81.683,27.7527473 L79.863,27.7527473 L79.863,20.2627473 L81.683,20.2627473 L81.683,21.6487473 C82.1776691,20.6967425 83.0549937,20.211414 84.315,20.1927473 C84.9683366,20.1927473 85.5166645,20.349079 85.96,20.6617473 C86.4033355,20.9744155 86.7136658,21.4154111 86.891,21.9847473 C87.3670024,20.8087414 88.2956598,20.211414 89.677,20.1927473 C90.5263376,20.1927473 91.1936642,20.4517447 91.679,20.9697473 Z M100.254,21.2287473 C100.856003,21.910084 101.157,22.8667411 101.157,24.0987473 C101.157,24.3414151 101.152333,24.5234133 101.143,24.6447473 L95.613,24.6447473 C95.7343339,25.1767499 95.9839981,25.5944124 96.362,25.8977473 C96.7400019,26.2010821 97.2043306,26.3527473 97.755,26.3527473 C98.1376686,26.3527473 98.5039982,26.2804146 98.854,26.1357473 C99.2040018,25.9910799 99.5096654,25.7834153 99.771,25.5127473 L100.751,26.5347473 C100.377665,26.945416 99.9226694,27.2627461 99.386,27.4867473 C98.8493307,27.7107484 98.2543366,27.8227473 97.601,27.8227473 C96.8356628,27.8227473 96.1613363,27.6640822 95.578,27.3467473 C94.9946638,27.0294123 94.5443349,26.5837501 94.227,26.0097473 C93.9096651,25.4357444 93.751,24.7754177 93.751,24.0287473 C93.751,23.2820769 93.9119984,22.6194168 94.234,22.0407473 C94.5560016,21.4620777 95.0063304,21.0117489 95.585,20.6897473 C96.1636696,20.3677456 96.821663,20.2067473 97.559,20.2067473 C98.7536726,20.2067473 99.651997,20.5474105 100.254,21.2287473 Z M99.491,23.4267473 C99.4723332,22.8760778 99.2903351,22.4374156 98.945,22.1107473 C98.5996649,21.784079 98.1423362,21.6207473 97.573,21.6207473 C97.0409973,21.6207473 96.5953351,21.7817456 96.236,22.1037473 C95.8766649,22.4257489 95.6550004,22.8667445 95.571,23.4267473 L99.491,23.4267473 Z"/>
      </g>
      <g transform="translate(0 343)">
        <path fill="#4A4A4A" d="M45.07,6.09 C44.5986643,5.86599888 44.1203358,5.754 43.635,5.754 C43.0283303,5.754 42.4730025,5.89866522 41.969,6.188 C41.4649975,6.47733478 41.0683348,6.87633079 40.779,7.385 C40.4896652,7.89366921 40.345,8.4513303 40.345,9.058 C40.345,9.6646697 40.4896652,10.2223308 40.779,10.731 C41.0683348,11.2396692 41.4649975,11.6409985 41.969,11.935 C42.4730025,12.2290015 43.0283303,12.376 43.635,12.376 C44.101669,12.376 44.5706643,12.2733344 45.042,12.068 C45.5133357,11.8626656 45.9309982,11.5780018 46.295,11.214 L47.401,12.446 C46.8876641,12.9686693 46.2903367,13.3816651 45.609,13.685 C44.9276633,13.9883348 44.2370035,14.14 43.537,14.14 C42.5943286,14.14 41.7310039,13.9160022 40.947,13.468 C40.1629961,13.0199978 39.5470022,12.4110039 39.099,11.641 C38.6509978,10.8709961 38.427,10.019338 38.427,9.086 C38.427,8.152662 38.6556644,7.30333716 39.113,6.538 C39.5703356,5.77266284 40.1933294,5.17066886 40.982,4.732 C41.7706706,4.29333114 42.6456619,4.074 43.607,4.074 C44.3070035,4.074 44.9929966,4.2139986 45.665,4.494 C46.3370034,4.7740014 46.9109976,5.16133086 47.387,5.656 L46.295,7.028 C45.9496649,6.62666466 45.5413357,6.31400112 45.07,6.09 Z M54.002,6.93 C54.5946696,7.24733492 55.056665,7.69299713 55.388,8.267 C55.719335,8.84100287 55.885,9.5013296 55.885,10.248 C55.885,11.0040038 55.719335,11.6713304 55.388,12.25 C55.056665,12.8286696 54.5946696,13.2766651 54.002,13.594 C53.4093304,13.9113349 52.7256705,14.07 51.951,14.07 C51.1669961,14.07 50.4763363,13.9113349 49.879,13.594 C49.2816637,13.2766651 48.817335,12.8286696 48.486,12.25 C48.154665,11.6713304 47.989,11.0040038 47.989,10.248 C47.989,9.5013296 48.154665,8.84100287 48.486,8.267 C48.817335,7.69299713 49.2816637,7.24733492 49.879,6.93 C50.4763363,6.61266508 51.1669961,6.454 51.951,6.454 C52.7256705,6.454 53.4093304,6.61266508 54.002,6.93 Z M50.411,8.638 C50.018998,9.0580021 49.823,9.60399664 49.823,10.276 C49.823,10.9480034 50.018998,11.4939979 50.411,11.914 C50.803002,12.3340021 51.3163302,12.544 51.951,12.544 C52.5670031,12.544 53.070998,12.3340021 53.463,11.914 C53.855002,11.4939979 54.051,10.9480034 54.051,10.276 C54.051,9.60399664 53.855002,9.0580021 53.463,8.638 C53.070998,8.2179979 52.5670031,8.008 51.951,8.008 C51.3163302,8.008 50.803002,8.2179979 50.411,8.638 Z M64.005,7.217 C64.4996691,7.73500259 64.747,8.4373289 64.747,9.324 L64.747,14 L62.913,14 L62.913,9.856 C62.913,9.33333072 62.7636682,8.92033485 62.465,8.617 C62.1663318,8.31366515 61.7603359,8.162 61.247,8.162 C60.6403303,8.17133338 60.1620018,8.37666466 59.812,8.778 C59.4619982,9.17933534 59.287,9.69266354 59.287,10.318 L59.287,14 L57.467,14 L57.467,6.51 L59.287,6.51 L59.287,7.91 C59.8003359,6.94866186 60.6963269,6.45866676 61.975,6.44 C62.833671,6.44 63.5103309,6.69899741 64.005,7.217 Z M71.173,13.538 C70.5756637,13.9020018 69.9503366,14.084 69.297,14.084 C68.6529968,14.084 68.1256687,13.8950019 67.715,13.517 C67.3043313,13.1389981 67.099,12.581337 67.099,11.844 L67.099,8.148 L66.049,8.148 L66.035,6.818 L67.099,6.818 L67.099,4.76 L68.905,4.76 L68.905,6.818 L71.047,6.818 L71.047,8.148 L68.905,8.148 L68.905,11.522 C68.905,11.8673351 68.9703327,12.1123326 69.101,12.257 C69.2316673,12.4016674 69.4276654,12.474 69.689,12.474 C69.9690014,12.474 70.3236645,12.3713344 70.753,12.166 L71.173,13.538 Z M77.025,14 L77.025,13.09 C76.7636654,13.4166683 76.4276687,13.6639992 76.017,13.832 C75.6063313,14.0000008 75.1350027,14.084 74.603,14.084 C74.0803307,14.084 73.6206686,13.9836677 73.224,13.783 C72.8273314,13.5823323 72.5216677,13.3046684 72.307,12.95 C72.0923323,12.5953316 71.985,12.1986689 71.985,11.76 C71.985,11.0599965 72.2323309,10.5116687 72.727,10.115 C73.2216691,9.71833135 73.9216621,9.51533338 74.827,9.506 L77.011,9.506 L77.011,9.31 C77.011,8.87133114 76.8663348,8.53066788 76.577,8.288 C76.2876652,8.04533212 75.8676694,7.924 75.317,7.924 C74.6076631,7.924 73.8656705,8.157331 73.091,8.624 L72.433,7.364 C73.0210029,7.0373317 73.5553309,6.80166739 74.036,6.657 C74.5166691,6.51233261 75.0789968,6.44 75.723,6.44 C76.6936715,6.44 77.4473306,6.673331 77.984,7.14 C78.5206693,7.606669 78.7936666,8.2599958 78.803,9.1 L78.817,14 L77.025,14 Z M76.381,12.313 C76.7543352,12.0656654 76.9643331,11.7600018 77.011,11.396 L77.011,10.724 L75.121,10.724 C74.6356642,10.724 74.2786678,10.7963326 74.05,10.941 C73.8213322,11.0856674 73.707,11.3213317 73.707,11.648 C73.707,11.9653349 73.8259988,12.2173324 74.064,12.404 C74.3020012,12.5906676 74.6263313,12.684 75.037,12.684 C75.5596693,12.684 76.0076648,12.5603346 76.381,12.313 Z M80.861,6.51 L82.681,6.51 L82.681,14 L80.861,14 L80.861,6.51 Z M82.499,3.598 C82.695001,3.80333436 82.793,4.06466508 82.793,4.382 C82.793,4.69000154 82.695001,4.94666564 82.499,5.152 C82.302999,5.35733436 82.0556682,5.46 81.757,5.46 C81.4583318,5.46 81.211001,5.35733436 81.015,5.152 C80.818999,4.94666564 80.721,4.69000154 80.721,4.382 C80.721,4.06466508 80.818999,3.80333436 81.015,3.598 C81.211001,3.39266564 81.4583318,3.29 81.757,3.29 C82.0556682,3.29 82.302999,3.39266564 82.499,3.598 Z M91.473,7.217 C91.9676691,7.73500259 92.215,8.4373289 92.215,9.324 L92.215,14 L90.381,14 L90.381,9.856 C90.381,9.33333072 90.2316682,8.92033485 89.933,8.617 C89.6343318,8.31366515 89.2283359,8.162 88.715,8.162 C88.1083303,8.17133338 87.6300018,8.37666466 87.28,8.778 C86.9299982,9.17933534 86.755,9.69266354 86.755,10.318 L86.755,14 L84.935,14 L84.935,6.51 L86.755,6.51 L86.755,7.91 C87.2683359,6.94866186 88.1643269,6.45866676 89.443,6.44 C90.301671,6.44 90.9783309,6.69899741 91.473,7.217 Z M100.076,7.476 C100.678003,8.15733674 100.979,9.11399384 100.979,10.346 C100.979,10.5886679 100.974333,10.7706661 100.965,10.892 L95.435,10.892 C95.5563339,11.4240027 95.8059981,11.8416652 96.184,12.145 C96.5620019,12.4483349 97.0263306,12.6 97.577,12.6 C97.9596686,12.6 98.3259982,12.5276674 98.676,12.383 C99.0260018,12.2383326 99.3316654,12.030668 99.593,11.76 L100.573,12.782 C100.199665,13.1926687 99.7446694,13.5099989 99.208,13.734 C98.6713307,13.9580011 98.0763366,14.07 97.423,14.07 C96.6576628,14.07 95.9833363,13.9113349 95.4,13.594 C94.8166638,13.2766651 94.3663349,12.8310029 94.049,12.257 C93.7316651,11.6829971 93.573,11.0226704 93.573,10.276 C93.573,9.5293296 93.7339984,8.86666956 94.056,8.288 C94.3780016,7.70933044 94.8283304,7.25900161 95.407,6.937 C95.9856696,6.61499839 96.643663,6.454 97.381,6.454 C98.5756726,6.454 99.473997,6.79466326 100.076,7.476 Z M99.313,9.674 C99.2943332,9.12333058 99.1123351,8.6846683 98.767,8.358 C98.4216649,8.0313317 97.9643362,7.868 97.395,7.868 C96.8629973,7.868 96.4173351,8.02899839 96.058,8.351 C95.6986649,8.67300161 95.4770004,9.1139972 95.393,9.674 L99.313,9.674 Z M105.396,6.839 C105.830002,6.58233205 106.33633,6.44933338 106.915,6.44 L106.915,8.204 C106.140329,8.1573331 105.522002,8.33699797 105.06,8.743 C104.597998,9.14900203 104.367,9.69732988 104.367,10.388 L104.367,14 L102.547,14 L102.547,6.51 L104.367,6.51 L104.367,7.952 C104.619001,7.46666424 104.961998,7.09566795 105.396,6.839 Z M116.043,14 L116.043,13.09 C115.781665,13.4166683 115.445669,13.6639992 115.035,13.832 C114.624331,14.0000008 114.153003,14.084 113.621,14.084 C113.098331,14.084 112.638669,13.9836677 112.242,13.783 C111.845331,13.5823323 111.539668,13.3046684 111.325,12.95 C111.110332,12.5953316 111.003,12.1986689 111.003,11.76 C111.003,11.0599965 111.250331,10.5116687 111.745,10.115 C112.239669,9.71833135 112.939662,9.51533338 113.845,9.506 L116.029,9.506 L116.029,9.31 C116.029,8.87133114 115.884335,8.53066788 115.595,8.288 C115.305665,8.04533212 114.885669,7.924 114.335,7.924 C113.625663,7.924 112.883671,8.157331 112.109,8.624 L111.451,7.364 C112.039003,7.0373317 112.573331,6.80166739 113.054,6.657 C113.534669,6.51233261 114.096997,6.44 114.741,6.44 C115.711672,6.44 116.465331,6.673331 117.002,7.14 C117.538669,7.606669 117.811667,8.2599958 117.821,9.1 L117.835,14 L116.043,14 Z M115.399,12.313 C115.772335,12.0656654 115.982333,11.7600018 116.029,11.396 L116.029,10.724 L114.139,10.724 C113.653664,10.724 113.296668,10.7963326 113.068,10.941 C112.839332,11.0856674 112.725,11.3213317 112.725,11.648 C112.725,11.9653349 112.843999,12.2173324 113.082,12.404 C113.320001,12.5906676 113.644331,12.684 114.055,12.684 C114.577669,12.684 115.025665,12.5603346 115.399,12.313 Z M126.417,7.217 C126.911669,7.73500259 127.159,8.4373289 127.159,9.324 L127.159,14 L125.325,14 L125.325,9.856 C125.325,9.33333072 125.175668,8.92033485 124.877,8.617 C124.578332,8.31366515 124.172336,8.162 123.659,8.162 C123.05233,8.17133338 122.574002,8.37666466 122.224,8.778 C121.873998,9.17933534 121.699,9.69266354 121.699,10.318 L121.699,14 L119.879,14 L119.879,6.51 L121.699,6.51 L121.699,7.91 C122.212336,6.94866186 123.108327,6.45866676 124.387,6.44 C125.245671,6.44 125.922331,6.69899741 126.417,7.217 Z M136.427,3.612 L136.427,14 L134.607,14 L134.607,12.796 C134.336332,13.2160021 133.988669,13.5356656 133.564,13.755 C133.139331,13.9743344 132.647003,14.084 132.087,14.084 C131.377663,14.084 130.754669,13.9230016 130.218,13.601 C129.681331,13.2789984 129.263668,12.8263363 128.965,12.243 C128.666332,11.6596637 128.517,10.9900038 128.517,10.234 C128.517,9.4873296 128.663999,8.82700287 128.958,8.253 C129.252001,7.67899713 129.667331,7.23333492 130.204,6.916 C130.740669,6.59866508 131.35433,6.44 132.045,6.44 C132.614336,6.44 133.113665,6.55199888 133.543,6.776 C133.972335,7.00000112 134.326999,7.3219979 134.607,7.742 L134.607,3.612 L136.427,3.612 Z M134.012,11.921 C134.408669,11.4963312 134.607,10.9480034 134.607,10.276 C134.607,9.60399664 134.408669,9.05566879 134.012,8.631 C133.615331,8.20633121 133.104336,7.994 132.479,7.994 C131.853664,7.994 131.345002,8.20633121 130.953,8.631 C130.560998,9.05566879 130.360333,9.60399664 130.351,10.276 C130.360333,10.9480034 130.560998,11.4963312 130.953,11.921 C131.345002,12.3456688 131.853664,12.558 132.479,12.558 C133.104336,12.558 133.615331,12.3456688 134.012,11.921 Z M148.733,7.217 C149.227669,7.73500259 149.475,8.4373289 149.475,9.324 L149.475,14 L147.641,14 L147.641,9.856 C147.641,9.33333072 147.491668,8.92033485 147.193,8.617 C146.894332,8.31366515 146.488336,8.162 145.975,8.162 C145.36833,8.17133338 144.890002,8.37666466 144.54,8.778 C144.189998,9.17933534 144.015,9.69266354 144.015,10.318 L144.015,14 L142.195,14 L142.195,6.51 L144.015,6.51 L144.015,7.91 C144.528336,6.94866186 145.424327,6.45866676 146.703,6.44 C147.561671,6.44 148.238331,6.69899741 148.733,7.217 Z M155.943,14 L155.943,13.09 C155.681665,13.4166683 155.345669,13.6639992 154.935,13.832 C154.524331,14.0000008 154.053003,14.084 153.521,14.084 C152.998331,14.084 152.538669,13.9836677 152.142,13.783 C151.745331,13.5823323 151.439668,13.3046684 151.225,12.95 C151.010332,12.5953316 150.903,12.1986689 150.903,11.76 C150.903,11.0599965 151.150331,10.5116687 151.645,10.115 C152.139669,9.71833135 152.839662,9.51533338 153.745,9.506 L155.929,9.506 L155.929,9.31 C155.929,8.87133114 155.784335,8.53066788 155.495,8.288 C155.205665,8.04533212 154.785669,7.924 154.235,7.924 C153.525663,7.924 152.783671,8.157331 152.009,8.624 L151.351,7.364 C151.939003,7.0373317 152.473331,6.80166739 152.954,6.657 C153.434669,6.51233261 153.996997,6.44 154.641,6.44 C155.611672,6.44 156.365331,6.673331 156.902,7.14 C157.438669,7.606669 157.711667,8.2599958 157.721,9.1 L157.735,14 L155.943,14 Z M155.299,12.313 C155.672335,12.0656654 155.882333,11.7600018 155.929,11.396 L155.929,10.724 L154.039,10.724 C153.553664,10.724 153.196668,10.7963326 152.968,10.941 C152.739332,11.0856674 152.625,11.3213317 152.625,11.648 C152.625,11.9653349 152.743999,12.2173324 152.982,12.404 C153.220001,12.5906676 153.544331,12.684 153.955,12.684 C154.477669,12.684 154.925665,12.5603346 155.299,12.313 Z M171.595,7.217 C172.080336,7.73500259 172.323,8.4373289 172.323,9.324 L172.323,14 L170.489,14 L170.489,9.856 C170.489,9.32399734 170.342001,8.90633485 170.048,8.603 C169.753999,8.29966515 169.355003,8.148 168.851,8.148 C168.27233,8.16666676 167.812668,8.37666466 167.472,8.778 C167.131332,9.17933534 166.961,9.68799692 166.961,10.304 L166.961,14 L165.127,14 L165.127,9.856 C165.127,9.32399734 164.982335,8.90633485 164.693,8.603 C164.403665,8.29966515 164.007003,8.148 163.503,8.148 C162.914997,8.16666676 162.450668,8.37666466 162.11,8.778 C161.769332,9.17933534 161.599,9.68799692 161.599,10.304 L161.599,14 L159.779,14 L159.779,6.51 L161.599,6.51 L161.599,7.896 C162.093669,6.94399524 162.970994,6.45866676 164.231,6.44 C164.884337,6.44 165.432664,6.59633177 165.876,6.909 C166.319336,7.22166823 166.629666,7.66266382 166.807,8.232 C167.283002,7.05599412 168.21166,6.45866676 169.593,6.44 C170.442338,6.44 171.109664,6.69899741 171.595,7.217 Z M180.17,7.476 C180.772003,8.15733674 181.073,9.11399384 181.073,10.346 C181.073,10.5886679 181.068333,10.7706661 181.059,10.892 L175.529,10.892 C175.650334,11.4240027 175.899998,11.8416652 176.278,12.145 C176.656002,12.4483349 177.120331,12.6 177.671,12.6 C178.053669,12.6 178.419998,12.5276674 178.77,12.383 C179.120002,12.2383326 179.425665,12.030668 179.687,11.76 L180.667,12.782 C180.293665,13.1926687 179.838669,13.5099989 179.302,13.734 C178.765331,13.9580011 178.170337,14.07 177.517,14.07 C176.751663,14.07 176.077336,13.9113349 175.494,13.594 C174.910664,13.2766651 174.460335,12.8310029 174.143,12.257 C173.825665,11.6829971 173.667,11.0226704 173.667,10.276 C173.667,9.5293296 173.827998,8.86666956 174.15,8.288 C174.472002,7.70933044 174.92233,7.25900161 175.501,6.937 C176.07967,6.61499839 176.737663,6.454 177.475,6.454 C178.669673,6.454 179.567997,6.79466326 180.17,7.476 Z M179.407,9.674 C179.388333,9.12333058 179.206335,8.6846683 178.861,8.358 C178.515665,8.0313317 178.058336,7.868 177.489,7.868 C176.956997,7.868 176.511335,8.02899839 176.152,8.351 C175.792665,8.67300161 175.571,9.1139972 175.487,9.674 L179.407,9.674 Z"/>
        <path fill="#EAEAEA" d="M109.038,31.994 L107.078,31.994 L106.798,34.29 L108.716,34.29 L108.576,35.662 L106.63,35.662 L106.336,38 L104.992,38 L105.286,35.662 L102.948,35.662 L102.654,38 L101.31,38 L101.604,35.662 L99.672,35.662 L99.812,34.29 L101.772,34.29 L102.052,31.994 L100.134,31.994 L100.26,30.636 L102.22,30.636 L102.528,28.2 L103.858,28.2 L103.564,30.636 L105.902,30.636 L106.21,28.2 L107.54,28.2 L107.246,30.636 L109.178,30.636 L109.038,31.994 Z M105.454,34.29 L105.734,31.994 L103.396,31.994 L103.116,34.29 L105.454,34.29 Z M110.732,28.2 L117.914,28.2 L117.914,29.838 L112.608,29.838 L112.608,32.26 L117.368,32.26 L117.368,33.898 L112.608,33.898 L112.608,36.362 L118.082,36.362 L118.082,38 L110.732,38 L110.732,28.2 Z M127.238,38 L126.37,35.928 L121.582,35.928 L120.714,38 L118.768,38 L123.066,28.2 L125.012,28.2 L129.254,38 L127.238,38 Z M122.254,34.318 L125.698,34.318 L123.99,30.202 L122.254,34.318 Z M130.444,28.2 L137.626,28.2 L137.626,29.838 L132.32,29.838 L132.32,32.26 L137.08,32.26 L137.08,33.898 L132.32,33.898 L132.32,36.362 L137.794,36.362 L137.794,38 L130.444,38 L130.444,28.2 Z M146.95,38 L146.082,35.928 L141.294,35.928 L140.426,38 L138.48,38 L142.778,28.2 L144.724,28.2 L148.966,38 L146.95,38 Z M141.966,34.318 L145.41,34.318 L143.702,30.202 L141.966,34.318 Z M150.156,28.2 L157.338,28.2 L157.338,29.838 L152.032,29.838 L152.032,32.26 L156.792,32.26 L156.792,33.898 L152.032,33.898 L152.032,36.362 L157.506,36.362 L157.506,38 L150.156,38 L150.156,28.2 Z M166.662,38 L165.794,35.928 L161.006,35.928 L160.138,38 L158.192,38 L162.49,28.2 L164.436,28.2 L168.678,38 L166.662,38 Z M161.678,34.318 L165.122,34.318 L163.414,30.202 L161.678,34.318 Z"/>
        <circle cx="68" cy="34" r="11" fill="#EAEAEA"/>
      </g>
      <path fill="#4A4A4A" d="M323.029,139.858 C323.631003,140.296669 323.932,140.893996 323.932,141.65 C323.932,142.191336 323.780335,142.655665 323.477,143.043 C323.173665,143.430335 322.756003,143.689333 322.224,143.82 C322.877337,143.941334 323.388331,144.221331 323.757,144.66 C324.125669,145.098669 324.31,145.644663 324.31,146.298 C324.31,147.138004 323.98567,147.798331 323.337,148.279 C322.68833,148.759669 321.804006,149 320.684,149 L316.204,149 L316.204,139.2 L320.558,139.2 C321.603339,139.2 322.426997,139.419331 323.029,139.858 Z M321.601,142.882 C321.876335,142.667332 322.014,142.368669 322.014,141.986 C322.014,141.612665 321.876335,141.323334 321.601,141.118 C321.325665,140.912666 320.945336,140.814667 320.46,140.824 L318.08,140.824 L318.08,143.204 L320.46,143.204 C320.945336,143.204 321.325665,143.096668 321.601,142.882 Z M321.86,147.04 C322.196002,146.806666 322.364,146.480002 322.364,146.06 C322.364,145.658665 322.196002,145.343668 321.86,145.115 C321.523998,144.886332 321.057336,144.776667 320.46,144.786 L318.08,144.786 L318.08,147.376 L320.46,147.376 C321.057336,147.385333 321.523998,147.273335 321.86,147.04 Z M332.976,141.51 L332.976,149 L331.142,149 L331.142,147.614 C330.637997,148.584672 329.770006,149.07 328.538,149.07 C327.697996,149.07 327.035336,148.813336 326.55,148.3 C326.064664,147.786664 325.822,147.086671 325.822,146.2 L325.822,141.51 L327.656,141.51 L327.656,145.668 C327.656,146.190669 327.798332,146.601332 328.083,146.9 C328.367668,147.198668 328.761997,147.348 329.266,147.348 C329.84467,147.338667 330.301998,147.133335 330.638,146.732 C330.974002,146.330665 331.142,145.822003 331.142,145.206 L331.142,141.51 L332.976,141.51 Z M339.626,148.538 C339.028664,148.902002 338.403337,149.084 337.75,149.084 C337.105997,149.084 336.578669,148.895002 336.168,148.517 C335.757331,148.138998 335.552,147.581337 335.552,146.844 L335.552,143.148 L334.502,143.148 L334.488,141.818 L335.552,141.818 L335.552,139.76 L337.358,139.76 L337.358,141.818 L339.5,141.818 L339.5,143.148 L337.358,143.148 L337.358,146.522 C337.358,146.867335 337.423333,147.112333 337.554,147.257 C337.684667,147.401667 337.880665,147.474 338.142,147.474 C338.422001,147.474 338.776665,147.371334 339.206,147.166 L339.626,148.538 Z M345.436,148.538 C344.838664,148.902002 344.213337,149.084 343.56,149.084 C342.915997,149.084 342.388669,148.895002 341.978,148.517 C341.567331,148.138998 341.362,147.581337 341.362,146.844 L341.362,143.148 L340.312,143.148 L340.298,141.818 L341.362,141.818 L341.362,139.76 L343.168,139.76 L343.168,141.818 L345.31,141.818 L345.31,143.148 L343.168,143.148 L343.168,146.522 C343.168,146.867335 343.233333,147.112333 343.364,147.257 C343.494667,147.401667 343.690665,147.474 343.952,147.474 C344.232001,147.474 344.586665,147.371334 345.016,147.166 L345.436,148.538 Z M352.121,141.93 C352.71367,142.247335 353.175665,142.692997 353.507,143.267 C353.838335,143.841003 354.004,144.50133 354.004,145.248 C354.004,146.004004 353.838335,146.67133 353.507,147.25 C353.175665,147.82867 352.71367,148.276665 352.121,148.594 C351.52833,148.911335 350.844671,149.07 350.07,149.07 C349.285996,149.07 348.595336,148.911335 347.998,148.594 C347.400664,148.276665 346.936335,147.82867 346.605,147.25 C346.273665,146.67133 346.108,146.004004 346.108,145.248 C346.108,144.50133 346.273665,143.841003 346.605,143.267 C346.936335,142.692997 347.400664,142.247335 347.998,141.93 C348.595336,141.612665 349.285996,141.454 350.07,141.454 C350.844671,141.454 351.52833,141.612665 352.121,141.93 Z M348.53,143.638 C348.137998,144.058002 347.942,144.603997 347.942,145.276 C347.942,145.948003 348.137998,146.493998 348.53,146.914 C348.922002,147.334002 349.43533,147.544 350.07,147.544 C350.686003,147.544 351.189998,147.334002 351.582,146.914 C351.974002,146.493998 352.17,145.948003 352.17,145.276 C352.17,144.603997 351.974002,144.058002 351.582,143.638 C351.189998,143.217998 350.686003,143.008 350.07,143.008 C349.43533,143.008 348.922002,143.217998 348.53,143.638 Z M362.124,142.217 C362.618669,142.735003 362.866,143.437329 362.866,144.324 L362.866,149 L361.032,149 L361.032,144.856 C361.032,144.333331 360.882668,143.920335 360.584,143.617 C360.285332,143.313665 359.879336,143.162 359.366,143.162 C358.75933,143.171333 358.281002,143.376665 357.931,143.778 C357.580998,144.179335 357.406,144.692664 357.406,145.318 L357.406,149 L355.586,149 L355.586,141.51 L357.406,141.51 L357.406,142.91 C357.919336,141.948662 358.815327,141.458667 360.094,141.44 C360.952671,141.44 361.629331,141.698997 362.124,142.217 Z"/>
      <path fill="#EAEAEA" d="M368.466,166.994 L366.506,166.994 L366.226,169.29 L368.144,169.29 L368.004,170.662 L366.058,170.662 L365.764,173 L364.42,173 L364.714,170.662 L362.376,170.662 L362.082,173 L360.738,173 L361.032,170.662 L359.1,170.662 L359.24,169.29 L361.2,169.29 L361.48,166.994 L359.562,166.994 L359.688,165.636 L361.648,165.636 L361.956,163.2 L363.286,163.2 L362.992,165.636 L365.33,165.636 L365.638,163.2 L366.968,163.2 L366.674,165.636 L368.606,165.636 L368.466,166.994 Z M364.882,169.29 L365.162,166.994 L362.824,166.994 L362.544,169.29 L364.882,169.29 Z M371.532,171.383 C371.905335,171.490334 372.278665,171.544 372.652,171.544 C373.529338,171.544 374.187331,171.252336 374.626,170.669 C375.064669,170.085664 375.274667,169.285338 375.256,168.268 C375.003999,168.688002 374.658669,169.009999 374.22,169.234 C373.781331,169.458001 373.268003,169.57 372.68,169.57 C371.718662,169.57 370.958003,169.285336 370.398,168.716 C369.837997,168.146664 369.558,167.381338 369.558,166.42 C369.558,165.747997 369.700332,165.164669 369.985,164.67 C370.269668,164.175331 370.673331,163.792668 371.196,163.522 C371.718669,163.251332 372.329996,163.116 373.03,163.116 C373.860671,163.116 374.576997,163.307331 375.179,163.69 C375.781003,164.072669 376.242998,164.62333 376.565,165.342 C376.887002,166.06067 377.048,166.914662 377.048,167.904 C377.048,168.940005 376.873002,169.849996 376.523,170.634 C376.172998,171.418004 375.676003,172.022331 375.032,172.447 C374.387997,172.871669 373.636671,173.084 372.778,173.084 C372.283331,173.084 371.767669,173.014001 371.231,172.874 C370.694331,172.733999 370.220669,172.547335 369.81,172.314 L370.538,170.928 C370.827335,171.124001 371.158665,171.275666 371.532,171.383 Z M371.784,165.16 C371.447998,165.468002 371.28,165.892664 371.28,166.434 C371.28,166.956669 371.438665,167.367332 371.756,167.666 C372.073335,167.964668 372.507331,168.114 373.058,168.114 C373.655336,168.114 374.126665,167.948335 374.472,167.617 C374.817335,167.285665 374.985333,166.872669 374.976,166.378 C374.985333,165.929998 374.829002,165.538002 374.507,165.202 C374.184998,164.865998 373.72067,164.698 373.114,164.698 C372.563331,164.698 372.120002,164.851998 371.784,165.16 Z M385.819,163.858 C386.421003,164.296669 386.722,164.893996 386.722,165.65 C386.722,166.191336 386.570335,166.655665 386.267,167.043 C385.963665,167.430335 385.546003,167.689333 385.014,167.82 C385.667337,167.941334 386.178331,168.221331 386.547,168.66 C386.915669,169.098669 387.1,169.644663 387.1,170.298 C387.1,171.138004 386.77567,171.798331 386.127,172.279 C385.47833,172.759669 384.594006,173 383.474,173 L378.994,173 L378.994,163.2 L383.348,163.2 C384.393339,163.2 385.216997,163.419331 385.819,163.858 Z M384.391,166.882 C384.666335,166.667332 384.804,166.368669 384.804,165.986 C384.804,165.612665 384.666335,165.323334 384.391,165.118 C384.115665,164.912666 383.735336,164.814667 383.25,164.824 L380.87,164.824 L380.87,167.204 L383.25,167.204 C383.735336,167.204 384.115665,167.096668 384.391,166.882 Z M384.65,171.04 C384.986002,170.806666 385.154,170.480002 385.154,170.06 C385.154,169.658665 384.986002,169.343668 384.65,169.115 C384.313998,168.886332 383.847336,168.776667 383.25,168.786 L380.87,168.786 L380.87,171.376 L383.25,171.376 C383.847336,171.385333 384.313998,171.273335 384.65,171.04 Z M390.292,171.383 C390.665335,171.490334 391.038665,171.544 391.412,171.544 C392.289338,171.544 392.947331,171.252336 393.386,170.669 C393.824669,170.085664 394.034667,169.285338 394.016,168.268 C393.763999,168.688002 393.418669,169.009999 392.98,169.234 C392.541331,169.458001 392.028003,169.57 391.44,169.57 C390.478662,169.57 389.718003,169.285336 389.158,168.716 C388.597997,168.146664 388.318,167.381338 388.318,166.42 C388.318,165.747997 388.460332,165.164669 388.745,164.67 C389.029668,164.175331 389.433331,163.792668 389.956,163.522 C390.478669,163.251332 391.089996,163.116 391.79,163.116 C392.620671,163.116 393.336997,163.307331 393.939,163.69 C394.541003,164.072669 395.002998,164.62333 395.325,165.342 C395.647002,166.06067 395.808,166.914662 395.808,167.904 C395.808,168.940005 395.633002,169.849996 395.283,170.634 C394.932998,171.418004 394.436003,172.022331 393.792,172.447 C393.147997,172.871669 392.396671,173.084 391.538,173.084 C391.043331,173.084 390.527669,173.014001 389.991,172.874 C389.454331,172.733999 388.980669,172.547335 388.57,172.314 L389.298,170.928 C389.587335,171.124001 389.918665,171.275666 390.292,171.383 Z M390.544,165.16 C390.207998,165.468002 390.04,165.892664 390.04,166.434 C390.04,166.956669 390.198665,167.367332 390.516,167.666 C390.833335,167.964668 391.267331,168.114 391.818,168.114 C392.415336,168.114 392.886665,167.948335 393.232,167.617 C393.577335,167.285665 393.745333,166.872669 393.736,166.378 C393.745333,165.929998 393.589002,165.538002 393.267,165.202 C392.944998,164.865998 392.48067,164.698 391.874,164.698 C391.323331,164.698 390.880002,164.851998 390.544,165.16 Z M404.579,163.858 C405.181003,164.296669 405.482,164.893996 405.482,165.65 C405.482,166.191336 405.330335,166.655665 405.027,167.043 C404.723665,167.430335 404.306003,167.689333 403.774,167.82 C404.427337,167.941334 404.938331,168.221331 405.307,168.66 C405.675669,169.098669 405.86,169.644663 405.86,170.298 C405.86,171.138004 405.53567,171.798331 404.887,172.279 C404.23833,172.759669 403.354006,173 402.234,173 L397.754,173 L397.754,163.2 L402.108,163.2 C403.153339,163.2 403.976997,163.419331 404.579,163.858 Z M403.151,166.882 C403.426335,166.667332 403.564,166.368669 403.564,165.986 C403.564,165.612665 403.426335,165.323334 403.151,165.118 C402.875665,164.912666 402.495336,164.814667 402.01,164.824 L399.63,164.824 L399.63,167.204 L402.01,167.204 C402.495336,167.204 402.875665,167.096668 403.151,166.882 Z M403.41,171.04 C403.746002,170.806666 403.914,170.480002 403.914,170.06 C403.914,169.658665 403.746002,169.343668 403.41,169.115 C403.073998,168.886332 402.607336,168.776667 402.01,168.786 L399.63,168.786 L399.63,171.376 L402.01,171.376 C402.607336,171.385333 403.073998,171.273335 403.41,171.04 Z M409.052,171.383 C409.425335,171.490334 409.798665,171.544 410.172,171.544 C411.049338,171.544 411.707331,171.252336 412.146,170.669 C412.584669,170.085664 412.794667,169.285338 412.776,168.268 C412.523999,168.688002 412.178669,169.009999 411.74,169.234 C411.301331,169.458001 410.788003,169.57 410.2,169.57 C409.238662,169.57 408.478003,169.285336 407.918,168.716 C407.357997,168.146664 407.078,167.381338 407.078,166.42 C407.078,165.747997 407.220332,165.164669 407.505,164.67 C407.789668,164.175331 408.193331,163.792668 408.716,163.522 C409.238669,163.251332 409.849996,163.116 410.55,163.116 C411.380671,163.116 412.096997,163.307331 412.699,163.69 C413.301003,164.072669 413.762998,164.62333 414.085,165.342 C414.407002,166.06067 414.568,166.914662 414.568,167.904 C414.568,168.940005 414.393002,169.849996 414.043,170.634 C413.692998,171.418004 413.196003,172.022331 412.552,172.447 C411.907997,172.871669 411.156671,173.084 410.298,173.084 C409.803331,173.084 409.287669,173.014001 408.751,172.874 C408.214331,172.733999 407.740669,172.547335 407.33,172.314 L408.058,170.928 C408.347335,171.124001 408.678665,171.275666 409.052,171.383 Z M409.304,165.16 C408.967998,165.468002 408.8,165.892664 408.8,166.434 C408.8,166.956669 408.958665,167.367332 409.276,167.666 C409.593335,167.964668 410.027331,168.114 410.578,168.114 C411.175336,168.114 411.646665,167.948335 411.992,167.617 C412.337335,167.285665 412.505333,166.872669 412.496,166.378 C412.505333,165.929998 412.349002,165.538002 412.027,165.202 C411.704998,164.865998 411.24067,164.698 410.634,164.698 C410.083331,164.698 409.640002,164.851998 409.304,165.16 Z M423.339,163.858 C423.941003,164.296669 424.242,164.893996 424.242,165.65 C424.242,166.191336 424.090335,166.655665 423.787,167.043 C423.483665,167.430335 423.066003,167.689333 422.534,167.82 C423.187337,167.941334 423.698331,168.221331 424.067,168.66 C424.435669,169.098669 424.62,169.644663 424.62,170.298 C424.62,171.138004 424.29567,171.798331 423.647,172.279 C422.99833,172.759669 422.114006,173 420.994,173 L416.514,173 L416.514,163.2 L420.868,163.2 C421.913339,163.2 422.736997,163.419331 423.339,163.858 Z M421.911,166.882 C422.186335,166.667332 422.324,166.368669 422.324,165.986 C422.324,165.612665 422.186335,165.323334 421.911,165.118 C421.635665,164.912666 421.255336,164.814667 420.77,164.824 L418.39,164.824 L418.39,167.204 L420.77,167.204 C421.255336,167.204 421.635665,167.096668 421.911,166.882 Z M422.17,171.04 C422.506002,170.806666 422.674,170.480002 422.674,170.06 C422.674,169.658665 422.506002,169.343668 422.17,169.115 C421.833998,168.886332 421.367336,168.776667 420.77,168.786 L418.39,168.786 L418.39,171.376 L420.77,171.376 C421.367336,171.385333 421.833998,171.273335 422.17,171.04 Z"/>
      <circle cx="326" cy="169" r="11" fill="#9B9B9B"/>
      <path fill="#EAEAEA" d="M775.466,132.994 L773.506,132.994 L773.226,135.29 L775.144,135.29 L775.004,136.662 L773.058,136.662 L772.764,139 L771.42,139 L771.714,136.662 L769.376,136.662 L769.082,139 L767.738,139 L768.032,136.662 L766.1,136.662 L766.24,135.29 L768.2,135.29 L768.48,132.994 L766.562,132.994 L766.688,131.636 L768.648,131.636 L768.956,129.2 L770.286,129.2 L769.992,131.636 L772.33,131.636 L772.638,129.2 L773.968,129.2 L773.674,131.636 L775.606,131.636 L775.466,132.994 Z M771.882,135.29 L772.162,132.994 L769.824,132.994 L769.544,135.29 L771.882,135.29 Z M778.532,137.383 C778.905335,137.490334 779.278665,137.544 779.652,137.544 C780.529338,137.544 781.187331,137.252336 781.626,136.669 C782.064669,136.085664 782.274667,135.285338 782.256,134.268 C782.003999,134.688002 781.658669,135.009999 781.22,135.234 C780.781331,135.458001 780.268003,135.57 779.68,135.57 C778.718662,135.57 777.958003,135.285336 777.398,134.716 C776.837997,134.146664 776.558,133.381338 776.558,132.42 C776.558,131.747997 776.700332,131.164669 776.985,130.67 C777.269668,130.175331 777.673331,129.792668 778.196,129.522 C778.718669,129.251332 779.329996,129.116 780.03,129.116 C780.860671,129.116 781.576997,129.307331 782.179,129.69 C782.781003,130.072669 783.242998,130.62333 783.565,131.342 C783.887002,132.06067 784.048,132.914662 784.048,133.904 C784.048,134.940005 783.873002,135.849996 783.523,136.634 C783.172998,137.418004 782.676003,138.022331 782.032,138.447 C781.387997,138.871669 780.636671,139.084 779.778,139.084 C779.283331,139.084 778.767669,139.014001 778.231,138.874 C777.694331,138.733999 777.220669,138.547335 776.81,138.314 L777.538,136.928 C777.827335,137.124001 778.158665,137.275666 778.532,137.383 Z M778.784,131.16 C778.447998,131.468002 778.28,131.892664 778.28,132.434 C778.28,132.956669 778.438665,133.367332 778.756,133.666 C779.073335,133.964668 779.507331,134.114 780.058,134.114 C780.655336,134.114 781.126665,133.948335 781.472,133.617 C781.817335,133.285665 781.985333,132.872669 781.976,132.378 C781.985333,131.929998 781.829002,131.538002 781.507,131.202 C781.184998,130.865998 780.72067,130.698 780.114,130.698 C779.563331,130.698 779.120002,130.851998 778.784,131.16 Z M792.819,129.858 C793.421003,130.296669 793.722,130.893996 793.722,131.65 C793.722,132.191336 793.570335,132.655665 793.267,133.043 C792.963665,133.430335 792.546003,133.689333 792.014,133.82 C792.667337,133.941334 793.178331,134.221331 793.547,134.66 C793.915669,135.098669 794.1,135.644663 794.1,136.298 C794.1,137.138004 793.77567,137.798331 793.127,138.279 C792.47833,138.759669 791.594006,139 790.474,139 L785.994,139 L785.994,129.2 L790.348,129.2 C791.393339,129.2 792.216997,129.419331 792.819,129.858 Z M791.391,132.882 C791.666335,132.667332 791.804,132.368669 791.804,131.986 C791.804,131.612665 791.666335,131.323334 791.391,131.118 C791.115665,130.912666 790.735336,130.814667 790.25,130.824 L787.87,130.824 L787.87,133.204 L790.25,133.204 C790.735336,133.204 791.115665,133.096668 791.391,132.882 Z M791.65,137.04 C791.986002,136.806666 792.154,136.480002 792.154,136.06 C792.154,135.658665 791.986002,135.343668 791.65,135.115 C791.313998,134.886332 790.847336,134.776667 790.25,134.786 L787.87,134.786 L787.87,137.376 L790.25,137.376 C790.847336,137.385333 791.313998,137.273335 791.65,137.04 Z M797.292,137.383 C797.665335,137.490334 798.038665,137.544 798.412,137.544 C799.289338,137.544 799.947331,137.252336 800.386,136.669 C800.824669,136.085664 801.034667,135.285338 801.016,134.268 C800.763999,134.688002 800.418669,135.009999 799.98,135.234 C799.541331,135.458001 799.028003,135.57 798.44,135.57 C797.478662,135.57 796.718003,135.285336 796.158,134.716 C795.597997,134.146664 795.318,133.381338 795.318,132.42 C795.318,131.747997 795.460332,131.164669 795.745,130.67 C796.029668,130.175331 796.433331,129.792668 796.956,129.522 C797.478669,129.251332 798.089996,129.116 798.79,129.116 C799.620671,129.116 800.336997,129.307331 800.939,129.69 C801.541003,130.072669 802.002998,130.62333 802.325,131.342 C802.647002,132.06067 802.808,132.914662 802.808,133.904 C802.808,134.940005 802.633002,135.849996 802.283,136.634 C801.932998,137.418004 801.436003,138.022331 800.792,138.447 C800.147997,138.871669 799.396671,139.084 798.538,139.084 C798.043331,139.084 797.527669,139.014001 796.991,138.874 C796.454331,138.733999 795.980669,138.547335 795.57,138.314 L796.298,136.928 C796.587335,137.124001 796.918665,137.275666 797.292,137.383 Z M797.544,131.16 C797.207998,131.468002 797.04,131.892664 797.04,132.434 C797.04,132.956669 797.198665,133.367332 797.516,133.666 C797.833335,133.964668 798.267331,134.114 798.818,134.114 C799.415336,134.114 799.886665,133.948335 800.232,133.617 C800.577335,133.285665 800.745333,132.872669 800.736,132.378 C800.745333,131.929998 800.589002,131.538002 800.267,131.202 C799.944998,130.865998 799.48067,130.698 798.874,130.698 C798.323331,130.698 797.880002,130.851998 797.544,131.16 Z M811.579,129.858 C812.181003,130.296669 812.482,130.893996 812.482,131.65 C812.482,132.191336 812.330335,132.655665 812.027,133.043 C811.723665,133.430335 811.306003,133.689333 810.774,133.82 C811.427337,133.941334 811.938331,134.221331 812.307,134.66 C812.675669,135.098669 812.86,135.644663 812.86,136.298 C812.86,137.138004 812.53567,137.798331 811.887,138.279 C811.23833,138.759669 810.354006,139 809.234,139 L804.754,139 L804.754,129.2 L809.108,129.2 C810.153339,129.2 810.976997,129.419331 811.579,129.858 Z M810.151,132.882 C810.426335,132.667332 810.564,132.368669 810.564,131.986 C810.564,131.612665 810.426335,131.323334 810.151,131.118 C809.875665,130.912666 809.495336,130.814667 809.01,130.824 L806.63,130.824 L806.63,133.204 L809.01,133.204 C809.495336,133.204 809.875665,133.096668 810.151,132.882 Z M810.41,137.04 C810.746002,136.806666 810.914,136.480002 810.914,136.06 C810.914,135.658665 810.746002,135.343668 810.41,135.115 C810.073998,134.886332 809.607336,134.776667 809.01,134.786 L806.63,134.786 L806.63,137.376 L809.01,137.376 C809.607336,137.385333 810.073998,137.273335 810.41,137.04 Z M816.052,137.383 C816.425335,137.490334 816.798665,137.544 817.172,137.544 C818.049338,137.544 818.707331,137.252336 819.146,136.669 C819.584669,136.085664 819.794667,135.285338 819.776,134.268 C819.523999,134.688002 819.178669,135.009999 818.74,135.234 C818.301331,135.458001 817.788003,135.57 817.2,135.57 C816.238662,135.57 815.478003,135.285336 814.918,134.716 C814.357997,134.146664 814.078,133.381338 814.078,132.42 C814.078,131.747997 814.220332,131.164669 814.505,130.67 C814.789668,130.175331 815.193331,129.792668 815.716,129.522 C816.238669,129.251332 816.849996,129.116 817.55,129.116 C818.380671,129.116 819.096997,129.307331 819.699,129.69 C820.301003,130.072669 820.762998,130.62333 821.085,131.342 C821.407002,132.06067 821.568,132.914662 821.568,133.904 C821.568,134.940005 821.393002,135.849996 821.043,136.634 C820.692998,137.418004 820.196003,138.022331 819.552,138.447 C818.907997,138.871669 818.156671,139.084 817.298,139.084 C816.803331,139.084 816.287669,139.014001 815.751,138.874 C815.214331,138.733999 814.740669,138.547335 814.33,138.314 L815.058,136.928 C815.347335,137.124001 815.678665,137.275666 816.052,137.383 Z M816.304,131.16 C815.967998,131.468002 815.8,131.892664 815.8,132.434 C815.8,132.956669 815.958665,133.367332 816.276,133.666 C816.593335,133.964668 817.027331,134.114 817.578,134.114 C818.175336,134.114 818.646665,133.948335 818.992,133.617 C819.337335,133.285665 819.505333,132.872669 819.496,132.378 C819.505333,131.929998 819.349002,131.538002 819.027,131.202 C818.704998,130.865998 818.24067,130.698 817.634,130.698 C817.083331,130.698 816.640002,130.851998 816.304,131.16 Z M830.339,129.858 C830.941003,130.296669 831.242,130.893996 831.242,131.65 C831.242,132.191336 831.090335,132.655665 830.787,133.043 C830.483665,133.430335 830.066003,133.689333 829.534,133.82 C830.187337,133.941334 830.698331,134.221331 831.067,134.66 C831.435669,135.098669 831.62,135.644663 831.62,136.298 C831.62,137.138004 831.29567,137.798331 830.647,138.279 C829.99833,138.759669 829.114006,139 827.994,139 L823.514,139 L823.514,129.2 L827.868,129.2 C828.913339,129.2 829.736997,129.419331 830.339,129.858 Z M828.911,132.882 C829.186335,132.667332 829.324,132.368669 829.324,131.986 C829.324,131.612665 829.186335,131.323334 828.911,131.118 C828.635665,130.912666 828.255336,130.814667 827.77,130.824 L825.39,130.824 L825.39,133.204 L827.77,133.204 C828.255336,133.204 828.635665,133.096668 828.911,132.882 Z M829.17,137.04 C829.506002,136.806666 829.674,136.480002 829.674,136.06 C829.674,135.658665 829.506002,135.343668 829.17,135.115 C828.833998,134.886332 828.367336,134.776667 827.77,134.786 L825.39,134.786 L825.39,137.376 L827.77,137.376 C828.367336,137.385333 828.833998,137.273335 829.17,137.04 Z"/>
      <circle cx="733" cy="135" r="11" fill="#9B9B9B"/>
      <path fill="#EAEAEA" d="M773.101,166.994 L771.141,166.994 L770.861,169.29 L772.779,169.29 L772.639,170.662 L770.693,170.662 L770.399,173 L769.055,173 L769.349,170.662 L767.011,170.662 L766.717,173 L765.373,173 L765.667,170.662 L763.735,170.662 L763.875,169.29 L765.835,169.29 L766.115,166.994 L764.197,166.994 L764.323,165.636 L766.283,165.636 L766.591,163.2 L767.921,163.2 L767.627,165.636 L769.965,165.636 L770.273,163.2 L771.603,163.2 L771.309,165.636 L773.241,165.636 L773.101,166.994 Z M769.517,169.29 L769.797,166.994 L767.459,166.994 L767.179,169.29 L769.517,169.29 Z M781.501,163.823 C782.275671,164.238335 782.882331,164.81933 783.321,165.566 C783.759669,166.31267 783.979,167.157329 783.979,168.1 C783.979,169.042671 783.757336,169.884996 783.314,170.627 C782.870664,171.369004 782.257004,171.949998 781.473,172.37 C780.688996,172.790002 779.797672,173 778.799,173 L774.795,173 L774.795,163.2 L778.869,163.2 C779.849005,163.2 780.726329,163.407665 781.501,163.823 Z M780.528,170.935 C781.008669,170.659665 781.384332,170.277002 781.655,169.787 C781.925668,169.296998 782.061,168.739336 782.061,168.114 C782.061,167.488664 781.921001,166.926336 781.641,166.427 C781.360999,165.927664 780.976002,165.540335 780.486,165.265 C779.995998,164.989665 779.44767,164.852 778.841,164.852 L776.671,164.852 L776.671,171.348 L778.911,171.348 C779.508336,171.348 780.047331,171.210335 780.528,170.935 Z M791.238,163.809 C791.83067,164.271002 792.127,164.898663 792.127,165.692 C792.127,166.140002 792.005668,166.545998 791.763,166.91 C791.520332,167.274002 791.184335,167.558666 790.755,167.764 C791.33367,167.978668 791.788665,168.305331 792.12,168.744 C792.451335,169.182669 792.617,169.686664 792.617,170.256 C792.617,170.825336 792.463002,171.324665 792.155,171.754 C791.846998,172.183335 791.406003,172.512332 790.832,172.741 C790.257997,172.969668 789.588337,173.084 788.823,173.084 C788.057663,173.084 787.388003,172.969668 786.814,172.741 C786.239997,172.512332 785.799002,172.188002 785.491,171.768 C785.182998,171.347998 785.029,170.853336 785.029,170.284 C785.029,169.70533 785.201665,169.194336 785.547,168.751 C785.892335,168.307664 786.36833,167.978668 786.975,167.764 C786.517664,167.539999 786.160668,167.241335 785.904,166.868 C785.647332,166.494665 785.519,166.079336 785.519,165.622 C785.519,164.856663 785.81533,164.247669 786.408,163.795 C787.00067,163.342331 787.800995,163.116 788.809,163.116 C789.835672,163.116 790.64533,163.346998 791.238,163.809 Z M787.556,164.81 C787.252665,165.043335 787.101,165.369998 787.101,165.79 C787.101,166.210002 787.252665,166.536665 787.556,166.77 C787.859335,167.003334 788.281664,167.12 788.823,167.12 C789.364336,167.12 789.784332,167.003334 790.083,166.77 C790.381668,166.536665 790.531,166.210002 790.531,165.79 C790.531,165.369998 790.381668,165.043335 790.083,164.81 C789.784332,164.576665 789.364336,164.46 788.823,164.46 C788.281664,164.46 787.859335,164.576665 787.556,164.81 Z M787.325,168.968 C786.970332,169.229335 786.793,169.597998 786.793,170.074 C786.793,170.559336 786.970332,170.937332 787.325,171.208 C787.679668,171.478668 788.178997,171.614 788.823,171.614 C789.45767,171.614 789.954665,171.481001 790.314,171.215 C790.673335,170.948999 790.853,170.573336 790.853,170.088 C790.853,169.611998 790.673335,169.241001 790.314,168.975 C789.954665,168.708999 789.453003,168.576 788.809,168.576 C788.17433,168.576 787.679668,168.706665 787.325,168.968 Z M801.171,163.823 C801.945671,164.238335 802.552331,164.81933 802.991,165.566 C803.429669,166.31267 803.649,167.157329 803.649,168.1 C803.649,169.042671 803.427336,169.884996 802.984,170.627 C802.540664,171.369004 801.927004,171.949998 801.143,172.37 C800.358996,172.790002 799.467672,173 798.469,173 L794.465,173 L794.465,163.2 L798.539,163.2 C799.519005,163.2 800.396329,163.407665 801.171,163.823 Z M800.198,170.935 C800.678669,170.659665 801.054332,170.277002 801.325,169.787 C801.595668,169.296998 801.731,168.739336 801.731,168.114 C801.731,167.488664 801.591001,166.926336 801.311,166.427 C801.030999,165.927664 800.646002,165.540335 800.156,165.265 C799.665998,164.989665 799.11767,164.852 798.511,164.852 L796.341,164.852 L796.341,171.348 L798.581,171.348 C799.178336,171.348 799.717331,171.210335 800.198,170.935 Z M810.908,163.809 C811.50067,164.271002 811.797,164.898663 811.797,165.692 C811.797,166.140002 811.675668,166.545998 811.433,166.91 C811.190332,167.274002 810.854335,167.558666 810.425,167.764 C811.00367,167.978668 811.458665,168.305331 811.79,168.744 C812.121335,169.182669 812.287,169.686664 812.287,170.256 C812.287,170.825336 812.133002,171.324665 811.825,171.754 C811.516998,172.183335 811.076003,172.512332 810.502,172.741 C809.927997,172.969668 809.258337,173.084 808.493,173.084 C807.727663,173.084 807.058003,172.969668 806.484,172.741 C805.909997,172.512332 805.469002,172.188002 805.161,171.768 C804.852998,171.347998 804.699,170.853336 804.699,170.284 C804.699,169.70533 804.871665,169.194336 805.217,168.751 C805.562335,168.307664 806.03833,167.978668 806.645,167.764 C806.187664,167.539999 805.830668,167.241335 805.574,166.868 C805.317332,166.494665 805.189,166.079336 805.189,165.622 C805.189,164.856663 805.48533,164.247669 806.078,163.795 C806.67067,163.342331 807.470995,163.116 808.479,163.116 C809.505672,163.116 810.31533,163.346998 810.908,163.809 Z M807.226,164.81 C806.922665,165.043335 806.771,165.369998 806.771,165.79 C806.771,166.210002 806.922665,166.536665 807.226,166.77 C807.529335,167.003334 807.951664,167.12 808.493,167.12 C809.034336,167.12 809.454332,167.003334 809.753,166.77 C810.051668,166.536665 810.201,166.210002 810.201,165.79 C810.201,165.369998 810.051668,165.043335 809.753,164.81 C809.454332,164.576665 809.034336,164.46 808.493,164.46 C807.951664,164.46 807.529335,164.576665 807.226,164.81 Z M806.995,168.968 C806.640332,169.229335 806.463,169.597998 806.463,170.074 C806.463,170.559336 806.640332,170.937332 806.995,171.208 C807.349668,171.478668 807.848997,171.614 808.493,171.614 C809.12767,171.614 809.624665,171.481001 809.984,171.215 C810.343335,170.948999 810.523,170.573336 810.523,170.088 C810.523,169.611998 810.343335,169.241001 809.984,168.975 C809.624665,168.708999 809.123003,168.576 808.479,168.576 C807.84433,168.576 807.349668,168.706665 806.995,168.968 Z M820.841,163.823 C821.615671,164.238335 822.222331,164.81933 822.661,165.566 C823.099669,166.31267 823.319,167.157329 823.319,168.1 C823.319,169.042671 823.097336,169.884996 822.654,170.627 C822.210664,171.369004 821.597004,171.949998 820.813,172.37 C820.028996,172.790002 819.137672,173 818.139,173 L814.135,173 L814.135,163.2 L818.209,163.2 C819.189005,163.2 820.066329,163.407665 820.841,163.823 Z M819.868,170.935 C820.348669,170.659665 820.724332,170.277002 820.995,169.787 C821.265668,169.296998 821.401,168.739336 821.401,168.114 C821.401,167.488664 821.261001,166.926336 820.981,166.427 C820.700999,165.927664 820.316002,165.540335 819.826,165.265 C819.335998,164.989665 818.78767,164.852 818.181,164.852 L816.011,164.852 L816.011,171.348 L818.251,171.348 C818.848336,171.348 819.387331,171.210335 819.868,170.935 Z M830.578,163.809 C831.17067,164.271002 831.467,164.898663 831.467,165.692 C831.467,166.140002 831.345668,166.545998 831.103,166.91 C830.860332,167.274002 830.524335,167.558666 830.095,167.764 C830.67367,167.978668 831.128665,168.305331 831.46,168.744 C831.791335,169.182669 831.957,169.686664 831.957,170.256 C831.957,170.825336 831.803002,171.324665 831.495,171.754 C831.186998,172.183335 830.746003,172.512332 830.172,172.741 C829.597997,172.969668 828.928337,173.084 828.163,173.084 C827.397663,173.084 826.728003,172.969668 826.154,172.741 C825.579997,172.512332 825.139002,172.188002 824.831,171.768 C824.522998,171.347998 824.369,170.853336 824.369,170.284 C824.369,169.70533 824.541665,169.194336 824.887,168.751 C825.232335,168.307664 825.70833,167.978668 826.315,167.764 C825.857664,167.539999 825.500668,167.241335 825.244,166.868 C824.987332,166.494665 824.859,166.079336 824.859,165.622 C824.859,164.856663 825.15533,164.247669 825.748,163.795 C826.34067,163.342331 827.140995,163.116 828.149,163.116 C829.175672,163.116 829.98533,163.346998 830.578,163.809 Z M826.896,164.81 C826.592665,165.043335 826.441,165.369998 826.441,165.79 C826.441,166.210002 826.592665,166.536665 826.896,166.77 C827.199335,167.003334 827.621664,167.12 828.163,167.12 C828.704336,167.12 829.124332,167.003334 829.423,166.77 C829.721668,166.536665 829.871,166.210002 829.871,165.79 C829.871,165.369998 829.721668,165.043335 829.423,164.81 C829.124332,164.576665 828.704336,164.46 828.163,164.46 C827.621664,164.46 827.199335,164.576665 826.896,164.81 Z M826.665,168.968 C826.310332,169.229335 826.133,169.597998 826.133,170.074 C826.133,170.559336 826.310332,170.937332 826.665,171.208 C827.019668,171.478668 827.518997,171.614 828.163,171.614 C828.79767,171.614 829.294665,171.481001 829.654,171.215 C830.013335,170.948999 830.193,170.573336 830.193,170.088 C830.193,169.611998 830.013335,169.241001 829.654,168.975 C829.294665,168.708999 828.793003,168.576 828.149,168.576 C827.51433,168.576 827.019668,168.706665 826.665,168.968 Z"/>
      <circle cx="732" cy="169" r="11" fill="#D8D8D8"/>
      <g transform="translate(315 241)">
        <path fill="#4A4A4A" d="M0.112,4.2 L8.106,4.2 L8.106,5.866 L5.054,5.866 L5.054,14 L3.164,14 L3.164,5.866 L0.112,5.866 L0.112,4.2 Z M14.217,7.476 C14.819003,8.15733674 15.12,9.11399384 15.12,10.346 C15.12,10.5886679 15.1153334,10.7706661 15.106,10.892 L9.576,10.892 C9.69733394,11.4240027 9.94699811,11.8416652 10.325,12.145 C10.7030019,12.4483349 11.1673306,12.6 11.718,12.6 C12.1006686,12.6 12.4669982,12.5276674 12.817,12.383 C13.1670017,12.2383326 13.4726654,12.030668 13.734,11.76 L14.714,12.782 C14.3406648,13.1926687 13.8856693,13.5099989 13.349,13.734 C12.8123306,13.9580011 12.2173366,14.07 11.564,14.07 C10.7986628,14.07 10.1243362,13.9113349 9.541,13.594 C8.95766375,13.2766651 8.50733492,12.8310029 8.19,12.257 C7.87266508,11.6829971 7.714,11.0226704 7.714,10.276 C7.714,9.5293296 7.87499839,8.86666956 8.197,8.288 C8.51900161,7.70933044 8.96933044,7.25900161 9.548,6.937 C10.1266696,6.61499839 10.784663,6.454 11.522,6.454 C12.7166726,6.454 13.614997,6.79466326 14.217,7.476 Z M13.454,9.674 C13.4353332,9.12333058 13.2533351,8.6846683 12.908,8.358 C12.5626649,8.0313317 12.1053362,7.868 11.536,7.868 C11.0039973,7.868 10.5583351,8.02899839 10.199,8.351 C9.83966487,8.67300161 9.61800042,9.1139972 9.534,9.674 L13.454,9.674 Z M15.47,6.51 L17.57,6.51 L19.124,8.946 L20.72,6.51 L22.722,6.51 L20.342,10.164 L22.89,14 L20.79,14 L19.124,11.382 L17.318,14 L15.288,14 L17.906,10.164 L15.47,6.51 Z M28.602,13.538 C28.0046637,13.9020018 27.3793366,14.084 26.726,14.084 C26.0819968,14.084 25.5546687,13.8950019 25.144,13.517 C24.7333313,13.1389981 24.528,12.581337 24.528,11.844 L24.528,8.148 L23.478,8.148 L23.464,6.818 L24.528,6.818 L24.528,4.76 L26.334,4.76 L26.334,6.818 L28.476,6.818 L28.476,8.148 L26.334,8.148 L26.334,11.522 C26.334,11.8673351 26.3993327,12.1123326 26.53,12.257 C26.6606673,12.4016674 26.8566654,12.474 27.118,12.474 C27.3980014,12.474 27.7526645,12.3713344 28.182,12.166 L28.602,13.538 Z M39.725,6.937 C40.2616693,7.25900161 40.6769985,7.70933044 40.971,8.288 C41.2650015,8.86666956 41.412,9.53399622 41.412,10.29 C41.412,11.0366704 41.2673348,11.6946638 40.978,12.264 C40.6886652,12.8333362 40.2780027,13.2766651 39.746,13.594 C39.2139973,13.9113349 38.5980035,14.07 37.898,14.07 C37.3379972,14.07 36.8433355,13.9603344 36.414,13.741 C35.9846645,13.5216656 35.6300014,13.2020021 35.35,12.782 L35.35,14 L33.53,14 L33.53,3.612 L35.35,3.612 L35.35,7.742 C35.620668,7.3219979 35.9683312,7.00233443 36.393,6.783 C36.8176688,6.56366557 37.3099972,6.454 37.87,6.454 C38.5700035,6.454 39.1883306,6.61499839 39.725,6.937 Z M38.976,11.865 C39.368002,11.4403312 39.564,10.89667 39.564,10.234 C39.564,9.57133002 39.368002,9.0300021 38.976,8.61 C38.583998,8.1899979 38.0800031,7.98 37.464,7.98 C36.8386635,7.98 36.330002,8.1899979 35.938,8.61 C35.545998,9.0300021 35.35,9.57133002 35.35,10.234 C35.35,10.9060034 35.545998,11.4519979 35.938,11.872 C36.330002,12.2920021 36.8386635,12.502 37.464,12.502 C38.0800031,12.502 38.583998,12.2896688 38.976,11.865 Z M43.064,3.612 L44.884,3.612 L44.884,14 L43.064,14 L43.064,3.612 Z M52.549,6.93 C53.1416696,7.24733492 53.603665,7.69299713 53.935,8.267 C54.266335,8.84100287 54.432,9.5013296 54.432,10.248 C54.432,11.0040038 54.266335,11.6713304 53.935,12.25 C53.603665,12.8286696 53.1416696,13.2766651 52.549,13.594 C51.9563304,13.9113349 51.2726705,14.07 50.498,14.07 C49.7139961,14.07 49.0233363,13.9113349 48.426,13.594 C47.8286637,13.2766651 47.364335,12.8286696 47.033,12.25 C46.701665,11.6713304 46.536,11.0040038 46.536,10.248 C46.536,9.5013296 46.701665,8.84100287 47.033,8.267 C47.364335,7.69299713 47.8286637,7.24733492 48.426,6.93 C49.0233363,6.61266508 49.7139961,6.454 50.498,6.454 C51.2726705,6.454 51.9563304,6.61266508 52.549,6.93 Z M48.958,8.638 C48.565998,9.0580021 48.37,9.60399664 48.37,10.276 C48.37,10.9480034 48.565998,11.4939979 48.958,11.914 C49.350002,12.3340021 49.8633302,12.544 50.498,12.544 C51.1140031,12.544 51.617998,12.3340021 52.01,11.914 C52.402002,11.4939979 52.598,10.9480034 52.598,10.276 C52.598,9.60399664 52.402002,9.0580021 52.01,8.638 C51.617998,8.2179979 51.1140031,8.008 50.498,8.008 C49.8633302,8.008 49.350002,8.2179979 48.958,8.638 Z M59.206,8.05 C58.5993303,8.05 58.1070019,8.25533128 57.729,8.666 C57.3509981,9.07666872 57.162,9.6086634 57.162,10.262 C57.162,10.9340034 57.3509981,11.4753313 57.729,11.886 C58.1070019,12.2966687 58.5993303,12.502 59.206,12.502 C60.1020045,12.502 60.7739978,12.2080029 61.222,11.62 L62.356,12.558 C62.0199983,13.0433358 61.5766694,13.4166654 61.026,13.678 C60.4753306,13.9393346 59.8360036,14.07 59.108,14.07 C58.370663,14.07 57.7150029,13.9113349 57.141,13.594 C56.5669971,13.2766651 56.1213349,12.8310029 55.804,12.257 C55.4866651,11.6829971 55.328,11.0226704 55.328,10.276 C55.328,9.51999622 55.4889984,8.85266956 55.811,8.274 C56.1330016,7.69533044 56.5809971,7.24733492 57.155,6.93 C57.7290029,6.61266508 58.3893296,6.454 59.136,6.454 C59.8173367,6.454 60.4263306,6.57299881 60.963,6.811 C61.4996693,7.04900119 61.9359983,7.38733114 62.272,7.826 L61.166,8.876 C60.6619975,8.32533058 60.0086707,8.05 59.206,8.05 Z M68.978,14 L66.948,10.724 L65.8,11.928 L65.8,14 L63.98,14 L63.98,3.612 L65.8,3.612 L65.8,9.632 L68.88,6.524 L70.98,6.524 L68.208,9.408 L71.148,14 L68.978,14 Z"/>
        <path fill="#EAEAEA" d="M52.101,31.994 L50.141,31.994 L49.861,34.29 L51.779,34.29 L51.639,35.662 L49.693,35.662 L49.399,38 L48.055,38 L48.349,35.662 L46.011,35.662 L45.717,38 L44.373,38 L44.667,35.662 L42.735,35.662 L42.875,34.29 L44.835,34.29 L45.115,31.994 L43.197,31.994 L43.323,30.636 L45.283,30.636 L45.591,28.2 L46.921,28.2 L46.627,30.636 L48.965,30.636 L49.273,28.2 L50.603,28.2 L50.309,30.636 L52.241,30.636 L52.101,31.994 Z M48.517,34.29 L48.797,31.994 L46.459,31.994 L46.179,34.29 L48.517,34.29 Z M60.501,28.823 C61.2756705,29.2383354 61.8823311,29.8193296 62.321,30.566 C62.7596689,31.3126704 62.979,32.1573286 62.979,33.1 C62.979,34.0426714 62.7573355,34.8849963 62.314,35.627 C61.8706644,36.3690037 61.2570039,36.9499979 60.473,37.37 C59.6889961,37.7900021 58.7976717,38 57.799,38 L53.795,38 L53.795,28.2 L57.869,28.2 C58.8490049,28.2 59.7263295,28.4076646 60.501,28.823 Z M59.528,35.935 C60.0086691,35.6596653 60.384332,35.2770024 60.655,34.787 C60.925668,34.2969976 61.061,33.7393365 61.061,33.114 C61.061,32.4886635 60.9210014,31.9263358 60.641,31.427 C60.3609986,30.9276642 59.9760024,30.5403347 59.486,30.265 C58.9959975,29.9896653 58.4476697,29.852 57.841,29.852 L55.671,29.852 L55.671,36.348 L57.911,36.348 C58.5083363,36.348 59.0473309,36.2103347 59.528,35.935 Z M70.238,28.809 C70.8306696,29.2710023 71.127,29.8986627 71.127,30.692 C71.127,31.1400022 71.0056679,31.5459982 70.763,31.91 C70.5203321,32.2740018 70.1843355,32.5586656 69.755,32.764 C70.3336696,32.9786677 70.788665,33.3053311 71.12,33.744 C71.451335,34.1826689 71.617,34.6866638 71.617,35.256 C71.617,35.8253362 71.4630015,36.3246645 71.155,36.754 C70.8469985,37.1833355 70.4060029,37.5123322 69.832,37.741 C69.2579971,37.9696678 68.5883372,38.084 67.823,38.084 C67.0576628,38.084 66.3880029,37.9696678 65.814,37.741 C65.2399971,37.5123322 64.7990015,37.1880021 64.491,36.768 C64.1829985,36.3479979 64.029,35.8533362 64.029,35.284 C64.029,34.7053304 64.2016649,34.1943355 64.547,33.751 C64.8923351,33.3076645 65.3683303,32.9786677 65.975,32.764 C65.5176644,32.5399989 65.1606679,32.2413352 64.904,31.868 C64.647332,31.4946648 64.519,31.0793356 64.519,30.622 C64.519,29.8566628 64.8153304,29.2476689 65.408,28.795 C66.0006696,28.3423311 66.800995,28.116 67.809,28.116 C68.8356718,28.116 69.6453304,28.3469977 70.238,28.809 Z M66.556,29.81 C66.2526651,30.0433345 66.101,30.3699979 66.101,30.79 C66.101,31.2100021 66.2526651,31.5366655 66.556,31.77 C66.8593348,32.0033345 67.281664,32.12 67.823,32.12 C68.364336,32.12 68.7843318,32.0033345 69.083,31.77 C69.3816682,31.5366655 69.531,31.2100021 69.531,30.79 C69.531,30.3699979 69.3816682,30.0433345 69.083,29.81 C68.7843318,29.5766655 68.364336,29.46 67.823,29.46 C67.281664,29.46 66.8593348,29.5766655 66.556,29.81 Z M66.325,33.968 C65.9703316,34.2293346 65.793,34.5979976 65.793,35.074 C65.793,35.5593358 65.9703316,35.937332 66.325,36.208 C66.6796684,36.478668 67.1789968,36.614 67.823,36.614 C68.4576698,36.614 68.9546649,36.4810013 69.314,36.215 C69.6733351,35.9489987 69.853,35.5733358 69.853,35.088 C69.853,34.6119976 69.6733351,34.2410013 69.314,33.975 C68.9546649,33.7089987 68.4530032,33.576 67.809,33.576 C67.1743302,33.576 66.6796684,33.7066654 66.325,33.968 Z M80.171,28.823 C80.9456705,29.2383354 81.5523311,29.8193296 81.991,30.566 C82.4296689,31.3126704 82.649,32.1573286 82.649,33.1 C82.649,34.0426714 82.4273356,34.8849963 81.984,35.627 C81.5406645,36.3690037 80.9270039,36.9499979 80.143,37.37 C79.3589961,37.7900021 78.4676717,38 77.469,38 L73.465,38 L73.465,28.2 L77.539,28.2 C78.5190049,28.2 79.3963295,28.4076646 80.171,28.823 Z M79.198,35.935 C79.6786691,35.6596653 80.054332,35.2770024 80.325,34.787 C80.595668,34.2969976 80.731,33.7393365 80.731,33.114 C80.731,32.4886635 80.5910014,31.9263358 80.311,31.427 C80.0309986,30.9276642 79.6460024,30.5403347 79.156,30.265 C78.6659976,29.9896653 78.1176697,29.852 77.511,29.852 L75.341,29.852 L75.341,36.348 L77.581,36.348 C78.1783363,36.348 78.7173309,36.2103347 79.198,35.935 Z M89.908,28.809 C90.5006696,29.2710023 90.797,29.8986627 90.797,30.692 C90.797,31.1400022 90.6756679,31.5459982 90.433,31.91 C90.1903321,32.2740018 89.8543355,32.5586656 89.425,32.764 C90.0036696,32.9786677 90.458665,33.3053311 90.79,33.744 C91.121335,34.1826689 91.287,34.6866638 91.287,35.256 C91.287,35.8253362 91.1330015,36.3246645 90.825,36.754 C90.5169985,37.1833355 90.0760029,37.5123322 89.502,37.741 C88.9279971,37.9696678 88.2583372,38.084 87.493,38.084 C86.7276628,38.084 86.0580029,37.9696678 85.484,37.741 C84.9099971,37.5123322 84.4690015,37.1880021 84.161,36.768 C83.8529985,36.3479979 83.699,35.8533362 83.699,35.284 C83.699,34.7053304 83.8716649,34.1943355 84.217,33.751 C84.5623351,33.3076645 85.0383303,32.9786677 85.645,32.764 C85.1876644,32.5399989 84.8306679,32.2413352 84.574,31.868 C84.3173321,31.4946648 84.189,31.0793356 84.189,30.622 C84.189,29.8566628 84.4853304,29.2476689 85.078,28.795 C85.6706696,28.3423311 86.470995,28.116 87.479,28.116 C88.5056718,28.116 89.3153304,28.3469977 89.908,28.809 Z M86.226,29.81 C85.9226652,30.0433345 85.771,30.3699979 85.771,30.79 C85.771,31.2100021 85.9226652,31.5366655 86.226,31.77 C86.5293348,32.0033345 86.951664,32.12 87.493,32.12 C88.034336,32.12 88.4543318,32.0033345 88.753,31.77 C89.0516682,31.5366655 89.201,31.2100021 89.201,30.79 C89.201,30.3699979 89.0516682,30.0433345 88.753,29.81 C88.4543318,29.5766655 88.034336,29.46 87.493,29.46 C86.951664,29.46 86.5293348,29.5766655 86.226,29.81 Z M85.995,33.968 C85.6403316,34.2293346 85.463,34.5979976 85.463,35.074 C85.463,35.5593358 85.6403316,35.937332 85.995,36.208 C86.3496684,36.478668 86.8489968,36.614 87.493,36.614 C88.1276698,36.614 88.6246649,36.4810013 88.984,36.215 C89.3433351,35.9489987 89.523,35.5733358 89.523,35.088 C89.523,34.6119976 89.3433351,34.2410013 88.984,33.975 C88.6246649,33.7089987 88.1230032,33.576 87.479,33.576 C86.8443302,33.576 86.3496684,33.7066654 85.995,33.968 Z M99.841,28.823 C100.615671,29.2383354 101.222331,29.8193296 101.661,30.566 C102.099669,31.3126704 102.319,32.1573286 102.319,33.1 C102.319,34.0426714 102.097336,34.8849963 101.654,35.627 C101.210664,36.3690037 100.597004,36.9499979 99.813,37.37 C99.0289961,37.7900021 98.1376717,38 97.139,38 L93.135,38 L93.135,28.2 L97.209,28.2 C98.1890049,28.2 99.0663295,28.4076646 99.841,28.823 Z M98.868,35.935 C99.3486691,35.6596653 99.724332,35.2770024 99.995,34.787 C100.265668,34.2969976 100.401,33.7393365 100.401,33.114 C100.401,32.4886635 100.261001,31.9263358 99.981,31.427 C99.7009986,30.9276642 99.3160024,30.5403347 98.826,30.265 C98.3359976,29.9896653 97.7876697,29.852 97.181,29.852 L95.011,29.852 L95.011,36.348 L97.251,36.348 C97.8483363,36.348 98.3873309,36.2103347 98.868,35.935 Z M109.578,28.809 C110.17067,29.2710023 110.467,29.8986627 110.467,30.692 C110.467,31.1400022 110.345668,31.5459982 110.103,31.91 C109.860332,32.2740018 109.524335,32.5586656 109.095,32.764 C109.67367,32.9786677 110.128665,33.3053311 110.46,33.744 C110.791335,34.1826689 110.957,34.6866638 110.957,35.256 C110.957,35.8253362 110.803002,36.3246645 110.495,36.754 C110.186998,37.1833355 109.746003,37.5123322 109.172,37.741 C108.597997,37.9696678 107.928337,38.084 107.163,38.084 C106.397663,38.084 105.728003,37.9696678 105.154,37.741 C104.579997,37.5123322 104.139002,37.1880021 103.831,36.768 C103.522998,36.3479979 103.369,35.8533362 103.369,35.284 C103.369,34.7053304 103.541665,34.1943355 103.887,33.751 C104.232335,33.3076645 104.70833,32.9786677 105.315,32.764 C104.857664,32.5399989 104.500668,32.2413352 104.244,31.868 C103.987332,31.4946648 103.859,31.0793356 103.859,30.622 C103.859,29.8566628 104.15533,29.2476689 104.748,28.795 C105.34067,28.3423311 106.140995,28.116 107.149,28.116 C108.175672,28.116 108.98533,28.3469977 109.578,28.809 Z M105.896,29.81 C105.592665,30.0433345 105.441,30.3699979 105.441,30.79 C105.441,31.2100021 105.592665,31.5366655 105.896,31.77 C106.199335,32.0033345 106.621664,32.12 107.163,32.12 C107.704336,32.12 108.124332,32.0033345 108.423,31.77 C108.721668,31.5366655 108.871,31.2100021 108.871,30.79 C108.871,30.3699979 108.721668,30.0433345 108.423,29.81 C108.124332,29.5766655 107.704336,29.46 107.163,29.46 C106.621664,29.46 106.199335,29.5766655 105.896,29.81 Z M105.665,33.968 C105.310332,34.2293346 105.133,34.5979976 105.133,35.074 C105.133,35.5593358 105.310332,35.937332 105.665,36.208 C106.019668,36.478668 106.518997,36.614 107.163,36.614 C107.79767,36.614 108.294665,36.4810013 108.654,36.215 C109.013335,35.9489987 109.193,35.5733358 109.193,35.088 C109.193,34.6119976 109.013335,34.2410013 108.654,33.975 C108.294665,33.7089987 107.793003,33.576 107.149,33.576 C106.51433,33.576 106.019668,33.7066654 105.665,33.968 Z"/>
        <circle cx="11" cy="34" r="11" fill="#F7F7F7"/>
      </g>
      <text fill="#4A4A4A" font-family="Montserrat-Medium, Montserrat" font-size="14" font-weight="400" transform="translate(569 174)">
        <tspan x="0" y="14">Portrait</tspan>
      </text>
      <path fill="#4A4A4A" d="M8.085,5.082 C8.76167005,5.67000294 9.1,6.5006613 9.1,7.574 C9.1,8.6940056 8.76167005,9.56433023 8.085,10.185 C7.40832995,10.8056698 6.45400616,11.116 5.222,11.116 L3.08,11.116 L3.08,14 L1.204,14 L1.204,4.2 L5.222,4.2 C6.45400616,4.2 7.40832995,4.49399706 8.085,5.082 Z M6.755,9.002 C7.13300189,8.69399846 7.322,8.2366697 7.322,7.63 C7.322,7.03266368 7.13300189,6.58466816 6.755,6.286 C6.37699811,5.98733184 5.83333688,5.838 5.124,5.838 L3.08,5.838 L3.08,9.464 L5.124,9.464 C5.83333688,9.464 6.37699811,9.31000154 6.755,9.002 Z M10.584,6.51 L12.404,6.51 L12.404,14 L10.584,14 L10.584,6.51 Z M12.222,3.598 C12.418001,3.80333436 12.516,4.06466508 12.516,4.382 C12.516,4.69000154 12.418001,4.94666564 12.222,5.152 C12.025999,5.35733436 11.7786682,5.46 11.48,5.46 C11.1813318,5.46 10.934001,5.35733436 10.738,5.152 C10.541999,4.94666564 10.444,4.69000154 10.444,4.382 C10.444,4.06466508 10.541999,3.80333436 10.738,3.598 C10.934001,3.39266564 11.1813318,3.29 11.48,3.29 C11.7786682,3.29 12.025999,3.39266564 12.222,3.598 Z M17.85,8.05 C17.2433303,8.05 16.7510019,8.25533128 16.373,8.666 C15.9949981,9.07666872 15.806,9.6086634 15.806,10.262 C15.806,10.9340034 15.9949981,11.4753313 16.373,11.886 C16.7510019,12.2966687 17.2433303,12.502 17.85,12.502 C18.7460045,12.502 19.4179978,12.2080029 19.866,11.62 L21,12.558 C20.6639983,13.0433358 20.2206694,13.4166654 19.67,13.678 C19.1193306,13.9393346 18.4800036,14.07 17.752,14.07 C17.014663,14.07 16.3590029,13.9113349 15.785,13.594 C15.2109971,13.2766651 14.7653349,12.8310029 14.448,12.257 C14.1306651,11.6829971 13.972,11.0226704 13.972,10.276 C13.972,9.51999622 14.1329984,8.85266956 14.455,8.274 C14.7770016,7.69533044 15.2249971,7.24733492 15.799,6.93 C16.3730029,6.61266508 17.0333296,6.454 17.78,6.454 C18.4613367,6.454 19.0703306,6.57299881 19.607,6.811 C20.1436693,7.04900119 20.5799983,7.38733114 20.916,7.826 L19.81,8.876 C19.3059975,8.32533058 18.6526707,8.05 17.85,8.05 Z M26.936,13.538 C26.3386637,13.9020018 25.7133366,14.084 25.06,14.084 C24.4159968,14.084 23.8886687,13.8950019 23.478,13.517 C23.0673313,13.1389981 22.862,12.581337 22.862,11.844 L22.862,8.148 L21.812,8.148 L21.798,6.818 L22.862,6.818 L22.862,4.76 L24.668,4.76 L24.668,6.818 L26.81,6.818 L26.81,8.148 L24.668,8.148 L24.668,11.522 C24.668,11.8673351 24.7333327,12.1123326 24.864,12.257 C24.9946673,12.4016674 25.1906654,12.474 25.452,12.474 C25.7320014,12.474 26.0866645,12.3713344 26.516,12.166 L26.936,13.538 Z M35.28,6.51 L35.28,14 L33.446,14 L33.446,12.614 C32.9419975,13.5846715 32.0740062,14.07 30.842,14.07 C30.0019958,14.07 29.3393358,13.8133359 28.854,13.3 C28.3686642,12.7866641 28.126,12.0866711 28.126,11.2 L28.126,6.51 L29.96,6.51 L29.96,10.668 C29.96,11.1906693 30.1023319,11.6013318 30.387,11.9 C30.6716681,12.1986682 31.0659975,12.348 31.57,12.348 C32.1486696,12.3386666 32.6059983,12.1333353 32.942,11.732 C33.2780017,11.3306647 33.446,10.8220031 33.446,10.206 L33.446,6.51 L35.28,6.51 Z M40.397,6.839 C40.8310022,6.58233205 41.3373304,6.44933338 41.916,6.44 L41.916,8.204 C41.1413295,8.1573331 40.5230023,8.33699797 40.061,8.743 C39.5989977,9.14900203 39.368,9.69732988 39.368,10.388 L39.368,14 L37.548,14 L37.548,6.51 L39.368,6.51 L39.368,7.952 C39.6200013,7.46666424 39.9629978,7.09566795 40.397,6.839 Z M49.007,7.476 C49.609003,8.15733674 49.91,9.11399384 49.91,10.346 C49.91,10.5886679 49.9053334,10.7706661 49.896,10.892 L44.366,10.892 C44.4873339,11.4240027 44.7369981,11.8416652 45.115,12.145 C45.4930019,12.4483349 45.9573306,12.6 46.508,12.6 C46.8906686,12.6 47.2569983,12.5276674 47.607,12.383 C47.9570017,12.2383326 48.2626654,12.030668 48.524,11.76 L49.504,12.782 C49.1306648,13.1926687 48.6756693,13.5099989 48.139,13.734 C47.6023306,13.9580011 47.0073366,14.07 46.354,14.07 C45.5886628,14.07 44.9143362,13.9113349 44.331,13.594 C43.7476637,13.2766651 43.2973349,12.8310029 42.98,12.257 C42.6626651,11.6829971 42.504,11.0226704 42.504,10.276 C42.504,9.5293296 42.6649984,8.86666956 42.987,8.288 C43.3090016,7.70933044 43.7593304,7.25900161 44.338,6.937 C44.9166696,6.61499839 45.574663,6.454 46.312,6.454 C47.5066726,6.454 48.404997,6.79466326 49.007,7.476 Z M48.244,9.674 C48.2253332,9.12333058 48.0433351,8.6846683 47.698,8.358 C47.3526649,8.0313317 46.8953362,7.868 46.326,7.868 C45.7939973,7.868 45.3483351,8.02899839 44.989,8.351 C44.6296649,8.67300161 44.4080004,9.1139972 44.324,9.674 L48.244,9.674 Z" transform="translate(569 316)"/>
      <g transform="translate(569 227)">
        <mask id="mmd_userflow1-b" fill="#fff">
          <use xlink:href="#mmd_userflow1-a"/>
        </mask>
        <use fill="#D8D8D8" xlink:href="#mmd_userflow1-a"/>
        <polygon fill="#9B9B9B" stroke="#979797" points="-.696 56.063 22.826 40.912 41.704 56.063 62.652 45.755 85.72 62.472 108.403 31.108 128.245 51.882 128.245 86.408 -2.941 86.408" mask="url(#mmd_userflow1-b)"/>
        <ellipse cx="19.618" cy="21.667" fill="#9B9B9B" mask="url(#mmd_userflow1-b)" rx="8.237" ry="8.218"/>
      </g>
      <path stroke="#EAEAEA" stroke-linecap="square" d="M254.5 92.5L254.5 246.5M498.5 93.5L498.5 247.5M30.5 92.5L864.617498 92.5"/>
    </g>
  </g>
</svg>
