<svg id="Draw_Layer" data-name="Draw Layer" xmlns="http://www.w3.org/2000/svg" viewBox="0 0 439.63 671.04"><defs><style>.cls-1{fill:#2c2c2c;}.cls-2{fill:#7fb2f0;}</style></defs><title>mmd_place</title><path class="cls-1" d="M814.89,506.69v0a5.7,5.7,0,0,0-2.11,2.07c-0.14.25-.29,0.49-0.45,0.73l-0.07.13-0.43.55-0.43.54a6.31,6.31,0,0,0-.45,1L810,513.29l-0.64,1.06-1.18,1.95-0.22.36c-1.27,2.11-2.82,4.66-4.28,7.16l-3.95,6.76-0.8,1.38-1.62,2.79q-2.37,4.06-4.73,8.12-6.5,11.21-12.95,22.46l-0.69,1.19-0.7,1.22-1.74,3-6.29,10.91c-11.44,19.86-28.6,49.6-45.56,78.54-15.1,25.79-30.26,51.93-45.05,77.68-3.44,6-6.91,12-10.77,18.58l-0.74,1.27c-1.74,3-3.46,6-5.2,9s-3.59,6.28-5.42,9.41c-6.93,11.9-13.5,23.42-20.77,36.16l-2.77,4.86c-2.35,4.11-4.47,7.81-6.56,11.58l-0.69,1.27-0.16.3-0.28.52-0.36.62,0,0-0.23.43h0q-6.94-12.15-13.87-24.3l-0.87-1.53c-7.95-13.94-15.12-26.51-22.36-39.11q-1.62-2.82-3.26-5.63l-1.8-3.11c-1.11-1.89-2.16-3.81-3.33-5.93l-0.29-.54-1.36-2.47c-3.13-5.65-6.37-11.37-9.7-17.23-3.92-6.89-8-14-11.67-20.18l-0.53-.91-1.12-1.92q-4-6.85-7.95-13.71c-8-13.94-15.27-26.49-22.64-38.91-6-10.09-12.23-20.29-18.25-30.14l-0.19-.31-0.1-.16-0.1-.17-4.3-7-0.49-.87-0.11-.17q-12.43-20.38-24.59-40.93c-8.08-13.68-16.15-27.37-24.07-41.14l-7.35-12.76a3.62,3.62,0,0,0-6.25,3.65q24.06,41.81,47.3,84.07,11,20,21.83,40.09c7.2,13.21,14.65,26.27,22.12,39.33,7.28,12.72,14.6,25.41,21.84,38.15q4.93,8.67,10,17.26c3.3,5.63,6.72,11.2,10,16.84,7.16,12.29,14.15,24.7,21.31,37,6.91,11.87,13.76,23.78,20.72,35.62,2.23,3.8,4.43,7.62,6.63,11.43a5.64,5.64,0,0,0,9.73,0l3.2-5.52c1.21-2,2.52-4,3.73-6,3.26-5.39,6.41-10.85,9.6-16.27,7.05-12,14.09-24,21-36,3.54-6.14,7.16-12.24,10.71-18.38,3.83-6.62,7.64-13.25,11.49-19.86q11.2-19.24,22.37-38.5c15-26,29.9-52.06,44.94-78q11.53-19.92,23.08-39.81l5.43-9.32,0-.16a9,9,0,0,1,1.36-3.17l0.12-.19c0.2-.48.42-1,0.65-1.44a7.06,7.06,0,0,1,1.57-2.05c0.14-.26.28-0.52,0.44-0.77q1.1-1.79,2.23-3.55c0.35-.54.72-1.07,1.11-1.58q4.8-8.23,9.57-16.48c3.68-6.36,7.32-12.75,11-19.12,1.72-3,3.41-6,5.05-9,0.58-1.08,1.19-2.15,1.8-3.21l0.11-.19a5.88,5.88,0,0,0,1.14-2.18c0.13-.25.27-0.51,0.41-0.76a5.68,5.68,0,0,0,.79-2.91,5.78,5.78,0,0,0-1.69-4.07,5.69,5.69,0,0,0-4-1.66,6,6,0,0,0-2.85.73h0Z" transform="translate(-396.57 -246.27)"/><path class="cls-1" d="M435,512.12a2.52,2.52,0,0,0-.89,3.41l4.36,7.59-0.09.16a5.79,5.79,0,0,0-.71,2.1l0.28,0.52c2.23,4,4.6,8,6.73,12.09,1.93,3.7,3.73,7.46,5.56,11.2l4.19,7.3q8.7,15.15,17.48,30.25,8.93,15.3,17.93,30.55c6.05,10.27,12.16,20.51,18.14,30.82l4.64,8,2.17,3.68c0.39,0.67.8,1.34,1.2,2a9.38,9.38,0,0,0,1.52,2.2,4.6,4.6,0,0,0,.89.69,4.46,4.46,0,0,0,3.4.45l0.13,0a4.33,4.33,0,0,0,1.79-1.07l0,0,0,0a4.41,4.41,0,0,0,.66-0.86,4.77,4.77,0,0,0,.26-0.53,5.2,5.2,0,0,0,.18-0.52,4.52,4.52,0,0,0-.23-3c-0.17-.38-0.39-0.75-0.58-1.1-0.36-.67-0.73-1.34-1.09-2-0.7-1.27-1.41-2.53-2.12-3.79-1.52-2.7-3.07-5.37-4.6-8.05q-4.51-7.9-8.95-15.85-2.44-4.38-4.89-8.74l-0.5-.82q-3.21-5.72-6.43-11.43l-2.76-4.9-2.78-4.94c-9.42-16.74-19.36-34-28.14-49.24l-0.69-1.2-4.32-7.51-0.11-.27-1.51-2.62c-1.51-2.62-3-5.25-4.52-7.89a42.38,42.38,0,0,0-3.9-6.47,5.33,5.33,0,0,0-2.36-1.38,5.39,5.39,0,0,0-1.62-.19L438.37,513a2.51,2.51,0,0,0-2.18-1.23,2.45,2.45,0,0,0-1.24.34h0Z" transform="translate(-396.57 -246.27)"/><path class="cls-1" d="M597,248.72a193.82,193.82,0,0,0-42.73,11.5,209.75,209.75,0,0,0-27,12.93c-4.21,2.4-8.3,5-12.33,7.66-3.67,2.44-7.19,5.09-10.67,7.79a10.09,10.09,0,0,0-1.15.9l-0.25.2,0,0-0.09.09A212.32,212.32,0,0,0,446,357.39q-2.76,5.19-5.19,10.54-0.8,1.72-1.57,3.45-3.06,6.88-5.7,13.95a185.48,185.48,0,0,0-6.87,22.6,218.61,218.61,0,0,0-4,22.79,197.91,197.91,0,0,0-.32,45.94,211.19,211.19,0,0,0,3.88,23.57c0.72,2,1.53,3.92,2.34,5.86,1,2.2,2.09,4.32,3.15,6.47,2.16,4.4,3.81,9,6.18,13.35,2.23,4,4.6,8,6.73,12.09,2.31,4.42,4.43,8.93,6.64,13.4,0.81,1.64,1.6,3.29,2.39,4.93a6.87,6.87,0,0,0,5.5-3.39,6.6,6.6,0,0,0,.69-5.29c-1-2.42-1.76-4.89-2.7-7.32-0.08-.22-0.17-0.44-0.26-0.65l-0.14-.24c-0.68-1.66-1.45-3.35-2.08-4.71l0-.11,0-.1a121.15,121.15,0,0,1-1.15-2.54,9.3,9.3,0,0,0-.64-1.4l-0.08-.19-0.07-.15a8.91,8.91,0,0,0-.75-1.72,203,203,0,0,1-13.47-49.46,209.56,209.56,0,0,1,0-52.6,204.31,204.31,0,0,1,13.28-49.17,189.79,189.79,0,0,1,57.59-74.65l0.72-.53,0.14-.11,0.39-.29,0.54-.39a3.33,3.33,0,0,0,.48-0.31,195.36,195.36,0,0,1,91.65-37.63,209.68,209.68,0,0,1,26.45-1.68,207.59,207.59,0,0,1,25.91,1.63,203,203,0,0,1,48.93,13.4c2.37,1,4.64,2,6.74,3.05,4.7,2.3,9.33,4.79,13.77,7.4a211.24,211.24,0,0,1,21.53,14.53,209.11,209.11,0,0,1,18.31,16.09,202.06,202.06,0,0,1,16.54,18.65,193,193,0,0,1,38.75,92.78,204.88,204.88,0,0,1,0,51.61,211.81,211.81,0,0,1-5.32,25.89l0,0a197.17,197.17,0,0,1-6.18,19c0,0.06,0,.12,0,0.18-1.08,2.85-2.28,5.66-3.45,8.48a6.43,6.43,0,0,0,2.75,7.14q1-2,2-4c0.95-1.8,2.13-3.42,3.23-5.12,2.33-3.63,4.6-7.31,6.93-10.95,1.21-1.88,2.38-3.8,3.63-5.66s2.5-3.52,3.67-5.33l1.16-1.81a208.09,208.09,0,0,0,4.6-20.36,203.33,203.33,0,0,0,2.85-44,205,205,0,0,0-50.81-127,210.71,210.71,0,0,0-33-30.45,186.07,186.07,0,0,0-31.89-19.11A213.78,213.78,0,0,0,691.18,256a210.38,210.38,0,0,0-46.76-9.07q-7.71-.66-15.42-0.64a219.78,219.78,0,0,0-32,2.45h0Z" transform="translate(-396.57 -246.27)"/><path class="cls-1" d="M785.48,573.32a4,4,0,0,0,1.35,3c0.21-.4.43-0.79,0.65-1.15l0.12-.19c0.21-.49.42-1,0.65-1.44a7.13,7.13,0,0,1,1.57-2.05c0.14-.26.29-0.52,0.44-0.77l0.67-1.09a3.91,3.91,0,0,0-1.47-.29,4,4,0,0,0-4,4h0Z" transform="translate(-396.57 -246.27)"/><path class="cls-1" d="M598.24,340.1A107,107,0,0,0,563.32,360a107.46,107.46,0,0,0-24.93,30.66,109.67,109.67,0,0,0-8,18.85,106.79,106.79,0,0,0-4.25,20.66,97.06,97.06,0,0,0-.62,10.81,107.41,107.41,0,0,0,1.09,15.39,104.67,104.67,0,0,0,2.07,10.76l0.13,0.65,0.14,0.65a39.4,39.4,0,0,0,1.74,7.91l0.41,1.37,0.14,0.77c0.15,0.46.31,0.93,0.47,1.39l0.17,0.49,0.17,0.49c0.12,0.32.23,0.65,0.34,1,0.67,1.95,1.46,3.85,2.16,5.48a95,95,0,0,0,9.59,17.2A108.33,108.33,0,0,0,557.39,520a107.83,107.83,0,0,0,34.4,22.34A100.69,100.69,0,0,0,610,547.9a113.16,113.16,0,0,0,19.45,2.27c0.88,0,1.76,0,2.64,0a110,110,0,0,0,18.71-1.74c11.31-1.92,23-6.31,34.82-13a113.29,113.29,0,0,0,15.75-11.09,103.56,103.56,0,0,0,14-14.05,110.67,110.67,0,0,0,11.41-16.72A103.9,103.9,0,0,0,739,455a102.2,102.2,0,0,0,.47-20.1c-0.18-2.66-.52-5.55-1.12-9.39-0.55-3.55-1.15-6.67-1.84-9.54a106.78,106.78,0,0,0-5.87-17,101.93,101.93,0,0,0-20.81-31.15,114.4,114.4,0,0,0-15-12.95,111.41,111.41,0,0,0-17.15-10,106.88,106.88,0,0,0-40.15-10.18c-1.71-.1-3.59-0.15-5.57-0.15a104.48,104.48,0,0,0-33.71,5.54h0Zm21.89,197.35a105.49,105.49,0,0,1-24.89-6.78,112.87,112.87,0,0,1-11-5.48,98.31,98.31,0,0,1-10.58-7.07,109.45,109.45,0,0,1-18-18.12,117.74,117.74,0,0,1-14-23.92l-0.16-.41c-0.32-.76-0.68-1.48-1-2.21-0.4-1-.77-2-1.13-3-0.52-1.43-1-2.87-1.62-4.24-0.14-.43-0.28-0.86-0.41-1.29-0.73-3.11-1.31-6.25-1.77-9.41a107.45,107.45,0,0,1,0-26.48,97.67,97.67,0,0,1,59-77.27,100.6,100.6,0,0,1,52.13-6.89A103,103,0,0,1,671,351.46a99.8,99.8,0,0,1,20.73,12.13,108.56,108.56,0,0,1,9.62,8.4,105.27,105.27,0,0,1,8.53,9.79l0.35,0.45a96.23,96.23,0,0,1,19.25,45.43,111.36,111.36,0,0,1,.84,13.05,102.7,102.7,0,0,1-.85,13.41,109.6,109.6,0,0,1-2.67,13,97.84,97.84,0,0,1-17,34.13,105.75,105.75,0,0,1-17.37,17.39,100.84,100.84,0,0,1-8.66,5.9,89.85,89.85,0,0,1-10.53,5.59c-4,1.63-8,3.06-12.16,4.29a101.57,101.57,0,0,1-14.35,3,107.66,107.66,0,0,1-13.36.83,109.3,109.3,0,0,1-13.27-.81h0Z" transform="translate(-396.57 -246.27)"/><path class="cls-1" d="M702.56,512.66a4,4,0,1,0,4-4,4,4,0,0,0-4,4h0Z" transform="translate(-396.57 -246.27)"/><path class="cls-1" d="M635.68,908.72q-35.75,0-71.51.11c-23.43.07-46.85,0.2-70.27,0.26-27.34.06-54.69,0.16-82,.16a3.76,3.76,0,1,0,0,7.52c46.77,0,93.53.22,140.29,0.38q71.07,0.25,142.14.14c13.86,0,27.72,0,41.59,0q10,0,20.09-.11L766.4,917l4.83,0,2.63,0c0.43,0,.87,0,1.3-0.05a4,4,0,0,0,1.1-.17,3.59,3.59,0,0,0,2-1.4,3.91,3.91,0,0,0,.64-1.3,4.11,4.11,0,0,0,0-2.06,3.91,3.91,0,0,0-.64-1.3,3.58,3.58,0,0,0-2.06-1.41,4.08,4.08,0,0,0-.94-0.16c-0.9-.1-1.82-0.06-2.71-0.08l-4,0-9.17-.08q-8.61-.07-17.22-0.11c-12-.05-23.95,0-35.92-0.05q-24,0-47.94,0H635.68Z" transform="translate(-396.57 -246.27)"/><path class="cls-1" d="M746.57,909l-3.18,0-1.74,0a5.2,5.2,0,0,0-.69.07,3.57,3.57,0,0,0-1.07.17,3.74,3.74,0,0,0-2.23,1.76,3.84,3.84,0,0,0-.36.83V912a3.78,3.78,0,0,0-.14,1V913a3.78,3.78,0,0,0,.14,1v0.1a3.84,3.84,0,0,0,.36.83,3.74,3.74,0,0,0,2.23,1.76,3.53,3.53,0,0,0,1.28.17c0.55,0.06,1.07.08,1.64,0.09l3.19,0c2.33,0,4.66,0,7,0,4.73,0,9.45-.05,14.17-0.11s9.7-.12,14.55-0.2c2.23,0,4.46-.12,6.7-0.2,2.46-.09,4.91-0.29,7.37-0.46l0.28,0,4.18-.07q5-.08,10-0.12c3,0,6.05-.11,9.07,0l0.57,0a2.7,2.7,0,0,0,2.24-1.08l0,0h0a2.92,2.92,0,0,0,.63-1.72s0,0,0-.07,0,0,0-.07a2.92,2.92,0,0,0-.63-1.72h0l0,0a2.7,2.7,0,0,0-2.24-1.08l-0.56,0c-2.82.13-5.66,0.06-8.48,0q-5,0-9.93-.11l-4.75-.07-0.33,0c-2.25-.16-4.5-0.35-6.76-0.43-2.44-.09-4.87-0.18-7.31-0.23q-7.28-.13-14.55-0.2C762.44,909,757.72,909,753,909l-6.42,0h0Z" transform="translate(-396.57 -246.27)"/><path class="cls-1" d="M685.88,753.92h-2a3.86,3.86,0,0,0-3.13,1.62,3,3,0,0,0,0,4.47l0.06,0.09a3.87,3.87,0,0,0,3.07,1.54h2.14c12.45,0,24.9,0,37.35,0q10.08,0,20.16,0l9.54,0,3,0a50,50,0,0,0,6.85-.2,3.55,3.55,0,0,0,.7-0.09h0.06a3.46,3.46,0,0,0,2.16-1.66,3.55,3.55,0,0,0,.31-0.69h0l0-.05,0-.11a3.59,3.59,0,0,0,.13-0.85h0v-0.21h0a3.56,3.56,0,0,0-.13-0.84v-0.05l0-.05,0-.06h0a3.55,3.55,0,0,0-.31-0.69,3.69,3.69,0,0,0-.25-0.37l0,0,0,0h0a3.19,3.19,0,0,0-1.84-1.21h0a3.53,3.53,0,0,0-.73-0.1,48.63,48.63,0,0,0-6.51-.2l-3.38,0-9.54,0q-10.08,0-20.16,0c-12.51,0-25,.06-37.54,0h0Z" transform="translate(-396.57 -246.27)"/><path class="cls-1" d="M550.83,754l-11.46.05c-7.41,0-14.83.12-22.24,0.32l-9.08,0-9.25,0h-7.25a8.72,8.72,0,0,1-1.36,0H490a3.4,3.4,0,0,0,0,6.77h0.3a12.27,12.27,0,0,1,1.29,0h6.62l9.25,0,9.77,0c7.38,0.2,14.78.28,22.17,0.32l11.46,0.05h5.61c2,0,3.92,0,5.88-.08A3.55,3.55,0,0,0,564,761a3.44,3.44,0,0,0,.43-0.25h9.09a3,3,0,0,0,0-6h-9.09a3.44,3.44,0,0,0-.43-0.25,3.55,3.55,0,0,0-1.67-.41c-2-.11-3.92-0.08-5.88-0.08h-5.61Z" transform="translate(-396.57 -246.27)"/><path class="cls-1" d="M492.85,750.63a14.56,14.56,0,0,0-1.08,1.17c-0.64.76-1.26,1.54-1.86,2.32-0.88,1.16-1.75,2.32-2.56,3.53q-1,1.51-2,3l0.21-.5c0.18-.41.37-0.82,0.53-1.24s0.41-1.09.58-1.64a2.35,2.35,0,0,0,.16-1,0.65,0.65,0,0,0-.47-0.62,0.71,0.71,0,0,0-.7.13,6,6,0,0,0-.71,1.17c-0.32.59-.68,1.16-1,1.74-0.71,1.19-1.39,2.39-2.09,3.59a0.41,0.41,0,0,0,.4.6q-0.67,1.21-1.36,2.4-2.23,3.9-4.52,7.77c-3,5.13-6.06,10.27-8.88,15.52s-5.67,10.79-8.54,16.17c-2.52,4.73-5.07,9.45-7.61,14.18-1.73,2.81-3.47,5.6-5.18,8.42-3.2,5.29-6.33,10.61-9.46,15.94-2.92,5-5.78,10-8.83,14.83-3.19,5.09-6.53,10.07-9.91,15s-6.67,9.71-9.84,14.67c-1.58,2.46-3.17,4.91-4.71,7.4-0.73,1.17-1.43,2.37-2.12,3.55s-1.48,2.43-2.23,3.65c-0.62,1-1.22,2.05-1.75,3.12a5,5,0,0,0-.52,3.92,5.09,5.09,0,0,0,6.26,3.55,5.21,5.21,0,0,0,3-2.34,21.87,21.87,0,0,0,1.18-2.21,3.18,3.18,0,0,0,2.45-.95,24.4,24.4,0,0,0,3.19-4.74c0.79-1.36,1.57-2.73,2.32-4.11,1.39-2.55,2.68-5.16,4-7.76q2.39-4.83,4.77-9.66c3.39-5,6.79-10.05,10-15.19,3.05-4.84,5.87-9.82,8.7-14.79,3-5.2,5.87-10.45,8.88-15.62,3.16-5.43,6.39-10.81,9.58-16.22,2.91-4.93,5.67-10,8.32-15.05q3-5.79,6.08-11.56,3.88-6.33,7.79-12.63c1.21-1.95,2.45-3.88,3.71-5.8,1.38-2.09,2.74-4.19,4.2-6.23s2.95-3.85,4.27-5.88a38.22,38.22,0,0,0,3-6.06c0.19-.46.39-0.91,0.58-1.37,0.09-.2.16-0.4,0.24-0.6a7.62,7.62,0,0,0,.3-1.68,3.29,3.29,0,0,0-1-2.43,3.49,3.49,0,0,0-2.43-1H496a4.51,4.51,0,0,0-3.18,1.48h0Z" transform="translate(-396.57 -246.27)"/><path class="cls-1" d="M763.61,756.51a4.65,4.65,0,0,0-.87,1,4,4,0,0,0-.45,1.68,13.76,13.76,0,0,0,.15,2.86,40.69,40.69,0,0,0,1.68,7.17c0.64,2,1.39,4.05,2.11,6.07,1.21,3.37,2.52,6.7,3.82,10,1.2,3.08,2.5,6.12,3.76,9.17s2.46,5.8,3.73,8.69q2.85,6.48,5.75,12.93c0.9,2.47,1.81,5,2.75,7.41q1.64,4.25,3.34,8.47,1.27,3.48,2.55,7c2.32,6.26,4.65,12.52,7.12,18.72,2.7,6.79,5.52,13.53,8.39,20.25,3.61,8.47,7.45,16.84,11.43,25.14a2.21,2.21,0,0,0,.31.47l0.78,1.87a34,34,0,0,0,1.87,4.18,4.27,4.27,0,0,0,7.37,0l0.43-1a4.3,4.3,0,0,0,0-2.27,7.49,7.49,0,0,0-.54-1.41c-0.19-.5-0.38-1-0.56-1.49-0.39-1.09-.77-2.17-1.16-3.26-0.79-2.2-1.66-4.36-2.54-6.52-1.79-4.42-3.69-8.8-5.56-13.19-2.62-6.26-5.21-12.53-7.89-18.77-1.25-2.91-2.5-5.83-3.75-8.75-1.37-3.18-2.7-6.39-4.14-9.55s-3-6.42-4.48-9.61c-1.3-2.71-2.63-5.39-4-8.09q-3.55-7.26-7.05-14.54c-2.19-5.79-4.62-11.48-6.64-17.34-2.14-6.22-4.12-12.49-6.24-18.72q-1.59-4.67-3.33-9.29-0.9-2.38-1.93-4.71-0.46-1-1-2.06c-0.17-.33-0.35-0.65-0.52-1s-0.27-.47-0.42-0.7a4.82,4.82,0,0,0-1.34-1.23,2,2,0,0,0-1.15-.35,2.83,2.83,0,0,0-1.85.74h0Z" transform="translate(-396.57 -246.27)"/><path class="cls-2" d="M603.26,263.38A195.36,195.36,0,0,0,511.61,301a3.33,3.33,0,0,1-.48.31l-0.54.39-0.39.29-0.14.11-0.72.53a189.79,189.79,0,0,0-57.59,74.65,204.31,204.31,0,0,0-13.28,49.17,209.56,209.56,0,0,0,0,52.6,203,203,0,0,0,13.47,49.46,8.91,8.91,0,0,1,.75,1.72l0.07,0.15,0.08,0.19a9.3,9.3,0,0,1,.64,1.4,121.15,121.15,0,0,0,1.15,2.54l0,0.1,0,0.11c0.63,1.36,1.4,3,2.08,4.71l4.32,7.51,0.69,1.2c8.77,15.23,18.72,32.5,28.14,49.24l2.78,4.94,2.76,4.9q3.22,5.71,6.43,11.43l4.3,7,0.1,0.17,0.1,0.16,0.19,0.31c6,9.86,12.25,20,18.25,30.14,7.37,12.41,14.61,25,22.64,38.91q3.95,6.87,7.95,13.71l1.12,1.92,0.53,0.91c3.63,6.23,7.75,13.3,11.67,20.18,3.32,5.86,6.57,11.58,9.7,17.23l1.36,2.47,0.29,0.54c1.17,2.13,2.23,4,3.33,5.93l1.8,3.11q1.63,2.81,3.26,5.63c7.24,12.6,14.41,25.17,22.36,39.11l0.88,1.53q6.93,12.16,13.87,24.3l0.64-1.1,0.28-.52,0.16-.3,0.69-1.27c2.09-3.77,4.21-7.47,6.56-11.58l2.77-4.86c7.26-12.74,13.84-24.26,20.77-36.16,1.82-3.12,3.62-6.27,5.42-9.41s3.46-6,5.2-9l0.74-1.27c3.86-6.62,7.33-12.59,10.77-18.58,14.79-25.75,30-51.89,45.05-77.68,17-28.94,34.13-58.68,45.56-78.54l6.29-10.91,1.74-3,0.7-1.22,0.69-1.19q6.46-11.23,12.95-22.46,2.36-4.06,4.73-8.12l1.63-2.79,0.8-1.38,3.95-6.76c1.46-2.51,3-5.06,4.28-7.16l0.22-.36,1.18-1.95,0.64-1.06,0.94-1.57a6.31,6.31,0,0,1,.45-1l0.43-.54,0.43-.55,0.07-.12c0.15-.24.3-0.48,0.45-0.73a5.7,5.7,0,0,1,2.11-2.07,211.81,211.81,0,0,0,5.32-25.89,194.64,194.64,0,0,0-13.51-101.23,205.18,205.18,0,0,0-25.25-43.17,202.06,202.06,0,0,0-16.54-18.65,209.11,209.11,0,0,0-18.31-16.09,211.24,211.24,0,0,0-21.53-14.53c-4.43-2.61-9.06-5.09-13.77-7.4-2.1-1-4.37-2-6.74-3.05a203,203,0,0,0-48.93-13.4,207.59,207.59,0,0,0-25.91-1.63,209.68,209.68,0,0,0-26.45,1.68h0Zm26.16,286.79A113.16,113.16,0,0,1,610,547.9a100.69,100.69,0,0,1-18.19-5.54A107.83,107.83,0,0,1,557.39,520a108.33,108.33,0,0,1-13.25-15.51,95,95,0,0,1-9.59-17.2c-0.69-1.63-1.48-3.53-2.16-5.48-0.11-.33-0.22-0.66-0.34-1l-0.17-.49-0.17-.49c-0.16-.46-0.32-0.93-0.47-1.39l-0.14-.77-0.41-1.37a39.4,39.4,0,0,1-1.74-7.91l-0.14-.65-0.12-.65a104.67,104.67,0,0,1-2.07-10.76A107.41,107.41,0,0,1,525.53,441a97.06,97.06,0,0,1,.62-10.81,106.79,106.79,0,0,1,4.25-20.66,109.67,109.67,0,0,1,8-18.85A107.46,107.46,0,0,1,563.32,360a107,107,0,0,1,34.92-19.92,104.48,104.48,0,0,1,33.71-5.54c2,0,3.86,0,5.57.15a106.88,106.88,0,0,1,40.15,10.18,111.41,111.41,0,0,1,17.15,10,114.4,114.4,0,0,1,15,12.95A101.93,101.93,0,0,1,730.65,399a106.78,106.78,0,0,1,5.87,17c0.69,2.88,1.29,6,1.84,9.54,0.6,3.84.95,6.73,1.12,9.39A102.2,102.2,0,0,1,739,455a103.9,103.9,0,0,1-12.27,38.59,110.67,110.67,0,0,1-11.41,16.72,103.56,103.56,0,0,1-14,14.05,113.29,113.29,0,0,1-15.75,11.09c-11.79,6.73-23.51,11.12-34.82,13a110,110,0,0,1-18.71,1.74c-0.88,0-1.76,0-2.64,0h0Z" transform="translate(-396.57 -246.27)"/></svg>