<svg xmlns="http://www.w3.org/2000/svg" xmlns:xlink="http://www.w3.org/1999/xlink" width="101" height="101" viewBox="0 0 101 101">
  <defs>
    <polygon id="thermostat_frequence-a" points="0 0 52 0 52 52 0 52"/>
  </defs>
  <g fill="none" fill-rule="evenodd" transform="translate(-7 18)">
    <mask id="thermostat_frequence-b" fill="#fff">
      <use xlink:href="#thermostat_frequence-a"/>
    </mask>
    <path fill="#000" fill-rule="nonzero" d="M19.0666667,24.6571429 L19.0666667,16.6428571 C19.0666667,13.6857143 21.456,11.2857143 24.4,11.2857143 C27.344,11.2857143 29.7333333,13.6857143 29.7333333,16.6428571 L29.7333333,24.6571429 C32.3146667,22.9214286 34,19.9857143 34,16.6428571 C34,11.3071429 29.712,7 24.4,7 C19.088,7 14.8,11.3071429 14.8,16.6428571 C14.8,19.9857143 16.4853333,22.9214286 19.0666667,24.6571429 Z M40.0586667,34.5785714 L30.3733333,29.7357143 C30.0106667,29.5857143 29.6266667,29.5 29.2213333,29.5 L27.6,29.5 L27.6,16.6428571 C27.6,14.8642857 26.1706667,13.4285714 24.4,13.4285714 C22.6293333,13.4285714 21.2,14.8642857 21.2,16.6428571 L21.2,39.6571429 L13.8826667,38.1142857 C13.712,38.0928571 13.5626667,38.05 13.3706667,38.05 C12.7093333,38.05 12.112,38.3285714 11.6853333,38.7571429 L10,40.4714286 L20.5386667,51.0571429 C21.1146667,51.6357143 21.9253333,52 22.8,52 L37.2853333,52 C38.8853333,52 40.1226667,50.8214286 40.3573333,49.2571429 L41.9573333,37.9642857 C41.9786667,37.8142857 42,37.6642857 42,37.5357143 C42,36.2071429 41.1893333,35.05 40.0586667,34.5785714 L40.0586667,34.5785714 Z" mask="url(#thermostat_frequence-b)"/>
  </g>
</svg>
