<svg xmlns="http://www.w3.org/2000/svg" width="101" height="101" viewBox="0 0 101 101">
  <g fill="none" fill-rule="evenodd" transform="translate(-9 12)">
    <polygon points="0 0 77 0 77 77 0 77"/>
    <path fill="#000" fill-rule="nonzero" d="M55.1111111,51.8888889 L42.2222222,39 L42.2222222,28.7533333 C45.96,27.4 48.6666667,23.8555556 48.6666667,19.6666667 C48.6666667,14.3177778 44.3488889,10 39,10 C33.6511111,10 29.3333333,14.3177778 29.3333333,19.6666667 C29.3333333,23.8555556 32.04,27.4 35.7777778,28.7533333 L35.7777778,39 L22.8888889,51.8888889 L10,51.8888889 L10,68 L26.1111111,68 L26.1111111,58.1722222 L39,44.6388889 L51.8888889,58.1722222 L51.8888889,68 L68,68 L68,51.8888889 L55.1111111,51.8888889 Z"/>
    <polygon points="0 0 77 0 77 77 0 77"/>
  </g>
</svg>
