<svg id="Draw_Layer" data-name="Draw Layer" xmlns="http://www.w3.org/2000/svg" viewBox="0 0 365.35 476.41"><defs><style>.cls-1{fill:#7fb2f0;}.cls-2{fill:#2c2c2c;}</style></defs><title>bulb</title><path class="cls-1" d="M434.1,488.46l-3.62,19.18c-0.84,4.46-1.32,9-1.92,13.49L429,518c-0.29,3-.7,6.05-0.91,9.1a44.11,44.11,0,0,0,5.72-7.6,60.92,60.92,0,0,0,5.35-12.57,74.77,74.77,0,0,0,2.81-15c0-.66-0.1-1.32-0.14-2a15.44,15.44,0,0,1-3-9.2,109.77,109.77,0,0,1-.17-13.09c-1.54,6.93-3.19,13.85-4.5,20.82h0Z" transform="translate(-156.24 -58.63)"/><path class="cls-1" d="M379.36,525.84c-0.62,1.6-1.27,3.18-1.94,4.76a20.21,20.21,0,0,1,5.52.8A16.94,16.94,0,0,1,389.3,535q2.77-.15,5.53-0.37l2.17-.17c-0.08-1-.1-2-0.09-3a15.11,15.11,0,0,1-4.14-1.66,15.59,15.59,0,0,1-5.56-5.56,15.41,15.41,0,0,1-2-6.25,15.22,15.22,0,0,1-3-.16c-0.89,2.67-1.82,5.33-2.84,8h0Z" transform="translate(-156.24 -58.63)"/><path class="cls-1" d="M363.7,62.11q-8.67,0-17.33.17c-5.35.09-10.7,0.34-16,.61-5,.26-9.88.7-14.82,1.13q-4.65,1.11-9.29,2.29a15.29,15.29,0,0,1-1.4,3.17A15.58,15.58,0,0,1,299.27,75l-3.7,1.56c-0.61.21-1.23,0.39-1.86,0.55a133.2,133.2,0,0,0-18.33,11.53c-5.13,4.63-10,9.5-15,14.33-3.43,3.36-6.82,6.77-10.06,10.32q-2.43,4.07-4.63,8.23c-2.47,4.66-4.83,9.32-7.11,14.08-1.37,2.86-2.62,5.76-3.86,8.67-2.75,7.13-5.44,14.28-8,21.48-3.9,10.91-7.93,21.88-9.81,33.35-0.72,6.5-1,13.07-1.46,19.59-0.68,9.58-1.35,19.13-.46,28.72a109.11,109.11,0,0,0,2.12,11.49c1.33,5.25,2.61,10.54,4.25,15.7s3.22,10.06,5,15c1.34,3.7,2.82,7.33,4.33,11l3.92,8.22c4.71,9.89,10,19.54,15.19,29.2,2.26,4.22,4.6,8.44,7.17,12.47,1.49,2.34,2.87,4.83,4.52,7.06l3.6,4.85c1.45,1.73,2.87,3.5,4.38,5.17,7,6.17,14.13,12,21.41,17.83l1.67,1.27c2.62,1.78,5.23,3.57,7.81,5.41q3.28,2.34,6.54,4.71c0.87,0.63,1.73,1.29,2.59,1.93l0.05,0c3,0.41,6,.75,8.95,1.05,3.34,0.34,6.7.55,10.05,0.66,1.85,0.25,3.7.47,5.54,0.65,2.55,0.25,5.16.32,7.72,0.36l10.25,0.13c5.41,0.07,10.82.1,16.23,0.13q16.29,0.08,32.58.44c4.89,0.1,9.77.23,14.66,0.36l5.05,0.11a16.86,16.86,0,0,1,2-6.33c2.74-5,8.48-7.35,13.32-9.91,2.46-1.3,4.87-2.68,7.29-4a151.48,151.48,0,0,0,13.28-8.63c1.36-1.06,2.72-2.13,4-3.29l6.35-5.88c2.09-1.93,3.95-4.16,5.9-6.23,1.38-1.46,2.64-3.07,3.9-4.66l3.37-4.6c1.46-2,2.74-4.15,4.09-6.22,0.52-.8,1-1.61,1.54-2.41q3.05-5.57,5.93-11.23c2-3.95,3.95-7.93,6-11.83l0.65-1.23c-0.15-10.45-.76-20.89-0.75-31.36,0-2,.12-4,0.28-6.05,0.15-.83.3-1.66,0.43-2.5a35.49,35.49,0,0,0,2.92-4.73c1.3-2.55,2.51-5.09,3.64-7.72a72,72,0,0,0,5.79-18.92c0.68-4.92,1.36-9.77,1.77-14.71l2.64-3.42a52.4,52.4,0,0,0,6.62-18.84c-0.05-.82-0.11-1.62-0.18-2.4q-0.24-2.72-.5-5.44c-0.23-2.43-.49-4.85-0.78-7.27l0-.09c-1.6-3.73-3.12-7.49-4.34-11.36a52.8,52.8,0,0,1-1.6-5.6c-0.21-1-.37-2.08-0.51-3.13q-1-2-2-3.9c-0.39-.72-0.81-1.42-1.25-2.12-0.89-1.21-1.8-2.4-2.74-3.57l-0.25-.7-0.18-.24c-3-3.6-6-7.16-8.93-10.74s-5.72-7.11-8.61-10.64c-7.09-8.67-14.46-17-22.12-25.2-2.32-2.47-4.62-4.95-7-7.39q-1.49-1.35-3-2.66c-1.8-1.55-3.62-3.09-5.5-4.57l-1.12-1.68L450.11,98c-0.8-.7-1.62-1.38-2.46-2-1.63-1.1-3.23-2.31-4.92-3.3l-5.58-3.25c-3.13-1.82-6.44-3.4-9.71-5q-5.94-2.87-11.89-5.69c-3.3-1.57-6.57-3.18-9.75-5a68.66,68.66,0,0,1-8.87-6.18,14.81,14.81,0,0,1-2.54-2.65c-0.81-.19-1.61-0.37-2.43-0.5l-5.87-1c-2-.24-3.94-0.47-5.92-0.6-5.38-.35-10.77-0.73-16.16-0.73H363.7Z" transform="translate(-156.24 -58.63)"/><path class="cls-1" d="M289.19,87.07a187.58,187.58,0,0,0-28.9,19.69c-4.24,3.59-8.42,7.23-12.45,11.06a144,144,0,0,0-10.55,11.55,229.5,229.5,0,0,0-20,28.18c-6.44,10.52-11,22.2-15.46,33.67a147.94,147.94,0,0,0-8.05,29.51c-2.13,13.15-3.62,26.51-2.78,39.86a214.33,214.33,0,0,0,3.53,26.29,99.52,99.52,0,0,0,4,15.32A200,200,0,0,0,209.1,326c2.32,4.5,4.63,9,7.32,13.31a187.28,187.28,0,0,0,14.92,20.08,101.37,101.37,0,0,0,10.42,11.09A312.8,312.8,0,0,0,272.09,394c3.77,2.61,7.64,5.11,11.33,7.84s7.24,5.5,11,8.13a67,67,0,0,0,6.79,4.17,14,14,0,0,1,7.31-4.47,64.65,64.65,0,0,1,13.7-1.63h0.63l2.17,0c-0.94-2.09-1.9-4.18-2.83-6.27-3.31-8.47-5.69-17.21-8.61-25.81-2.21-6.51-5.12-12.79-7.89-19.07Q303,350.93,300.39,345c-3.63-8.8-7.24-17.6-11-26.34l-0.53-1.25q-2.67-6.34-5.41-12.65l-0.55-1.3-0.54-1.29-0.54-1.28c-4.1-10.56-8.38-21-13-31.4-3.56-9.55-6.65-19.29-9.68-29a195.22,195.22,0,0,1-6.32-27.81c-1.85-15.2-3.08-30.41-1.56-45.69a177.21,177.21,0,0,1,4.35-19.66,170.13,170.13,0,0,1,6.47-18.18,172.3,172.3,0,0,1,8.78-16.93,184.55,184.55,0,0,1,11-15.94c2.45-3.05,4.88-6.12,7.35-9.16a0,0,0,0,0,0,0h0Z" transform="translate(-156.24 -58.63)"/><path class="cls-2" d="M335.25,58.66a191.59,191.59,0,0,0-23.06,2A172.87,172.87,0,0,0,270.25,72a192.07,192.07,0,0,0-20.53,9.82A175,175,0,0,0,231.51,93.6,193.55,193.55,0,0,0,214,108,181.91,181.91,0,0,0,156.91,226a177.54,177.54,0,0,0-.57,21.48,192.74,192.74,0,0,0,2.26,23,172.84,172.84,0,0,0,4.64,21,183.28,183.28,0,0,0,7.59,21.17,179.2,179.2,0,0,0,21,36.82,183.38,183.38,0,0,0,63.43,54.22L255.2,403q-0.42-4.51-.81-9c-0.17-2-.34-3.94-0.47-5.91-1.27-.89-2.5-1.84-3.72-2.84a29,29,0,0,1-5.95-6.69q-3.75-2.56-7.37-5.32a179.14,179.14,0,0,1-30-30A177.7,177.7,0,0,1,185.21,306a177,177,0,0,1-11.55-42.2,179.12,179.12,0,0,1,0-44.92,176.91,176.91,0,0,1,11.62-42.56,177.42,177.42,0,0,1,21.51-36.79,167.78,167.78,0,0,1,67.59-52.09A176.82,176.82,0,0,1,316.45,76a179.2,179.2,0,0,1,44.77,0,176.84,176.84,0,0,1,42.45,11.61q5.3,2.29,10.42,4.91l0.05,0,0.27,0.14a177.64,177.64,0,0,1,26.38,16.64,179.36,179.36,0,0,1,30.13,30.16,178.35,178.35,0,0,1,21.74,37.23,176.65,176.65,0,0,1,11.52,42.18,179.28,179.28,0,0,1,0,45,176.16,176.16,0,0,1-11.46,42A178,178,0,0,1,471,343a179,179,0,0,1-16.92,18.68c-0.15.26-.31,0.52-0.48,0.77-0.41.61-.84,1.21-1.27,1.8a67.41,67.41,0,0,1-4.93,6.16,52.41,52.41,0,0,1-6.55,5.82c-2.2,1.7-4.4,3.39-6.66,5l-1.64,1.82-4,4.48c0,1.41-.12,2.82-0.23,4.23-0.09,1.2-.21,2.38-0.32,3.57-0.18,1.9-.36,3.79-0.57,5.68l2.16-1.21a175.89,175.89,0,0,0,17.74-11.64,193,193,0,0,0,17.52-14.65,184.47,184.47,0,0,0,27.94-33.82,181.79,181.79,0,0,0,19.07-39.66,184.31,184.31,0,0,0,9-43.48,176.76,176.76,0,0,0,.57-21.62,192.32,192.32,0,0,0-2.26-22.9A172.82,172.82,0,0,0,514.54,191c-1.38-4.87-3-9.65-4.84-14.37q-0.46-1.2-.93-2.38c-0.36-.89-0.72-1.78-1.09-2.67l-0.75-1.8a178,178,0,0,0-17.76-32.24c-0.42-.61-0.84-1.21-1.27-1.82a183.43,183.43,0,0,0-62.39-55.28l-0.11-.06L425,80.13,424.74,80l-0.36-.19-0.26-.14-0.34-.18-0.29-.15-0.32-.17L422.9,79l-0.34-.18-0.23-.12-0.41-.21-0.11-.06-0.39-.2a181.5,181.5,0,0,0-41.39-15,195.94,195.94,0,0,0-22.82-3.7,172.71,172.71,0,0,0-18.53-1q-1.71,0-3.42,0h0Z" transform="translate(-156.24 -58.63)"/><path class="cls-2" d="M241.86,382.22c-0.75,2.74-.6,5.75-0.65,8.57s-0.08,5.92-.11,8.88q-0.09,8.74-.26,17.48-0.33,18.59-.5,37.19Q240,489.92,240,525.52a8.06,8.06,0,0,0,8,8q43.86,0,87.73-.06h2.72q46.18,0,92.36,0a8.05,8.05,0,0,0,8-8c0-11.69-.05-23.38,0-35.07,0-12.71-.05-25.42-0.38-38.14-0.33-13-.53-26-0.86-38.95q-0.23-9.08-.32-18.15c0-5.34-.21-10.68-0.2-16q-1.4,1-2.81,2.06l-1.64,1.82-4,4.48c0,1.41-.12,2.82-0.22,4.23-0.09,1.2-.21,2.38-0.32,3.57-0.21,2.17-.41,4.33-0.66,6.49q-0.4,3.57-.83,7.13a119.47,119.47,0,0,1-1.68,12.22,12.84,12.84,0,0,1-.94,2.7c-0.19,9.15-.36,18.29-0.6,27.44-0.33,12.74-.42,25.48-0.41,38.22,0,9.32,0,18.65,0,28q-41.72,0-83.43,0h-3.13q-40.14,0-80.29-.06,0-31.6-.33-63.2-0.16-18.19-.49-36.39c-0.1-5.8-.2-11.59-0.26-17.39q0-.38,0-0.76-0.27-2.93-.52-5.86c-0.18-2-.34-3.94-0.48-5.91-1.27-.89-2.49-1.84-3.71-2.84a29,29,0,0,1-5.83-6.5,6.34,6.34,0,0,0-2.51,3.52h0Z" transform="translate(-156.24 -58.63)"/><path class="cls-2" d="M420.06,490.76c-4.41.55-8.84,1-13.23,1.68-4.07.65-8.12,1.39-12.15,2.27s-8.29,1.86-12.45,2.64c-2,.37-4,0.8-6,1.09l-5.9.83c-5.23.46-10.46,0.93-15.72,1q-8.49.12-17,.17c-5.32,0-10.64,0-16-.08-2.43,0-4.84-.08-7.27-0.17s-5.05-.11-7.57-0.31c-4.73-.38-9.46-0.73-14.17-1.33q-8.1-1.14-16-3c-5.62-1.34-11.2-2.88-16.75-4.46a4.54,4.54,0,1,0-2.41,8.75c13.48,3.84,27.09,7.34,41.1,8.51l9.22,0.77c1.1,0.09,2.21.09,3.31,0.13l5.65,0.23c5.07,0.2,10.15.23,15.23,0.29s10.34,0.14,15.52.19c2.66,0,5.32.09,8,.05s5.35,0,8-.15,5.46-.24,8.18-0.55c3.07-.35,6.14-0.64,9.19-1.13,2.89-.47,5.78-0.93,8.66-1.48s5.6-1.11,8.4-1.68c5.21-1.07,10.45-2.06,15.64-3.27,2.58-.6,5.13-1.36,7.68-2.09a4.55,4.55,0,0,0,3.3-4.34,4.56,4.56,0,0,0-4.21-4.52l-0.29,0h0Z" transform="translate(-156.24 -58.63)"/><path class="cls-2" d="M255.37,462.78a4.54,4.54,0,0,0,1.61,6.15c2.5,1.48,5,2.89,7.62,4.2a76.2,76.2,0,0,0,9.7,4,107.62,107.62,0,0,0,19.07,4.32c4.63,0.7,9.31,1.32,14,1.68l8.6,0.66,7.32,0.57c1.58,0.13,3.18.14,4.77,0.2,4.45,0.18,8.91.44,13.37,0.51,4.77,0.07,9.56.25,14.34,0.22l7.8,0h1.88c1.37,0,2.73,0,4.1,0,4.35-.13,8.72-0.19,13.07-0.43,4.92-.27,9.84-0.56,14.75-0.94,11.56-.91,23.15-2.14,34.39-5.09a3.69,3.69,0,0,0,1.63-6.17,3.55,3.55,0,0,0-2.61-1.08c-4.66.5-9.33,0.84-14,1.35s-9,.94-13.57,1.36c-8.56.8-17.16,1.38-25.75,1.66l-7.93.25c-1.35,0-2.7,0-4,0h-1.94c-4.36,0-8.71,0-13.07-.05s-8.57-.11-12.86-0.28l-9.58-.39c-1.59-.07-3.18-0.08-4.77-0.2L312,474.41c-4.8-.37-9.58-0.81-14.37-1.42-4.24-.58-8.46-1.3-12.64-2.22a79.75,79.75,0,0,1-12.74-4,99.42,99.42,0,0,1-10.69-5.64,4.34,4.34,0,0,0-2.23-.61,4.56,4.56,0,0,0-3.93,2.22h0Z" transform="translate(-156.24 -58.63)"/><path class="cls-2" d="M261.81,429.77a5.61,5.61,0,0,0,3.88,6.82c3.93,1.14,7.83,2.34,11.8,3.32l10.27,2.54,10.64,2.63c1.23,0.3,2.44.62,3.69,0.83l20.34,3.45c1.78,0.3,3.55.53,5.35,0.71L339,451.23c2,0.2,4,.5,6,0.6l9.78,0.48c2.39,0.12,4.8.3,7.19,0.36l9.44,0.21c10.92,0.25,21.85.34,32.77,0.37,3.68,0,7.33-.16,11-0.36a60.93,60.93,0,0,0,7-.93,40.44,40.44,0,0,0,5.65-1.52,4.52,4.52,0,0,0,3.26-4.28,4.46,4.46,0,0,0-4.44-4.44c-2.66.14-5.32,0.13-8,.19s-5.5.12-8.25,0.16c-5.26.09-10.52,0-15.78-.11l-17.85-.25c-2.45,0-4.9-.11-7.35-0.17s-5.11-.05-7.66-0.18l-10-.48c-2.45-.12-4.93-0.12-7.37-0.37l-18-1.79-13-2.17-7.89-1.32c-0.88-.15-1.73-0.31-2.6-0.52l-16.45-4-7-1.72c-3.64-.89-7.22-2-10.82-3.07a5.21,5.21,0,0,0-1.45-.21,5.64,5.64,0,0,0-5.37,4.08h0Z" transform="translate(-156.24 -58.63)"/><path class="cls-2" d="M256.5,445.56a4.8,4.8,0,0,0,.48,3.67,5,5,0,0,0,2.85,2.19c3.47,1.17,6.93,2.37,10.43,3.46l8.89,2.78,5.58,1.74c0.56,0.18,1.16.27,1.72,0.4l4.41,1,8,1.86c1.43,0.33,2.91.5,4.36,0.74l9.31,1.51c1.54,0.25,3.08.49,4.64,0.65l16.22,1.61c1.3,0.13,2.61.15,3.92,0.21l9.64,0.48c8.12,0.41,16.25.59,24.37,0.91,9.17,0.35,18.34.79,27.51,0.77,2,0,3.92,0,5.89-.1,2.3-.13,4.59-0.25,6.88-0.53a60,60,0,0,0,13.88-3,3.53,3.53,0,0,0,2-1.55,3.37,3.37,0,0,0-1.21-4.62,3.55,3.55,0,0,0-2.6-.34c-0.7.13-1.4,0.25-2.1,0.36a120.62,120.62,0,0,1-12.21.78c-2.18,0-4.36.1-6.54,0l-8.07-.2c-4-.11-8-0.34-12.07-0.52-4.63-.21-9.26-0.47-13.89-0.64l-14.71-.54c-4-.14-7.93-0.38-11.9-0.58-3.78-.19-7.55-0.34-11.31-0.72L316.6,456l-13.29-2.15c-1.08-.17-2.12-0.39-3.18-0.64l-8.62-2-3.25-.75c-0.37-.09-0.75-0.15-1.12-0.27l-6.22-1.95-8.39-2.62c-3.41-1.07-6.79-2.24-10.18-3.38a4,4,0,0,0-1.28-.21,4.93,4.93,0,0,0-4.58,3.53h0Z" transform="translate(-156.24 -58.63)"/><path class="cls-2" d="M248.85,402a3.59,3.59,0,0,0-.36,2.75,3.73,3.73,0,0,0,1.64,2.13c1,0.67,2,1.36,3,2s2.11,1.26,3.18,1.88c2.32,1.34,4.69,2.61,7.11,3.75a90.7,90.7,0,0,0,14.68,5.16c5.11,1.41,10.26,2.57,15.47,3.57,2,0.39,4.09.71,6.13,1,3.66,0.59,7.31,1.19,11,1.68s7.26,1,10.9,1.43l12.79,1.34c1.13,0.12,2.27.19,3.41,0.28l7.8,0.62c6.49,0.52,13,.91,19.51,1.24q11.79,0.6,23.59,1.17c1.62,0.08,3.24.12,4.86,0.18s3.42,0.17,5.13.19c3.51,0,7,.17,10.52.06,4.31-.13,8.63-0.24,12.92-0.64,4.7-.44,9.38-1,14.05-1.68a2.86,2.86,0,0,0-.76-5.61c-3.8,0-7.61,0-11.41.13-3.38.09-6.77,0.23-10.15,0.29l-6.16.1c-1.94,0-3.89-.07-5.82-0.1-3.79-.07-7.57-0.22-11.36-0.36-7.18-.27-14.37-0.64-21.55-1q-4.68-.22-9.34-0.48c-3.64-.21-7.3-0.35-10.94-0.62l-12.18-.92c-2.86-.21-5.7-0.53-8.55-0.81s-5.73-.54-8.58-0.91l-10.49-1.35-11.41-1.82c-2.16-.34-4.3-0.8-6.44-1.23-2.71-.55-5.41-1.19-8.09-1.89A115.28,115.28,0,0,1,268.41,409c-2.55-1.12-5-2.41-7.45-3.77-1.26-.71-2.5-1.44-3.75-2.18s-2.32-1.54-3.48-2.32a3,3,0,0,0-1.71-.51,3.77,3.77,0,0,0-3.18,1.79h0Z" transform="translate(-156.24 -58.63)"/><path class="cls-2" d="M253,398.47a3.92,3.92,0,0,0,2.72,4.79c3.39,0.76,6.77,1.61,10.2,2.24l6.78,1.23,15.42,2.81c1.11,0.2,2.22.32,3.34,0.45l7.9,0.89,8.45,1c1,0.12,2,.25,3.07.32l14.56,0.93c1.5,0.09,3,.11,4.5.16l8.38,0.29c4.21,0.14,8.43.13,12.64,0.19s8.15,0,12.23-.07c8.23-.09,16.46-0.44,24.68-0.73,3.73-.13,7.46-0.26,11.19-0.33,4.2-.08,8.42-0.08,12.62-0.27,1.5-.07,3-0.11,4.5-0.25,1.87-.18,3.72-0.38,5.58-0.66,1.44-.21,2.85-0.48,4.27-0.76a38.32,38.32,0,0,0,4.78-1.42,3.44,3.44,0,0,0,2.48-3.26,3.39,3.39,0,0,0-1-2.39,3.24,3.24,0,0,0-2.39-1c-4.2.54-8.43,0.91-12.65,1.2-4,.28-8.05.25-12.08,0.31-8.36.11-16.7,0.4-25.05,0.72l-12.88.49c-1.82.07-3.65,0.06-5.48,0.09l-8.05.14c-4.22.07-8.45,0-12.66-.05s-8.3-.18-12.45-0.29c-2.68-.07-5.34-0.22-8-0.37l-7.12-.41c-1.05-.06-2.12-0.07-3.18-0.18l-19.71-2.16-14-2.54-8-1.45c-3.6-.65-7.16-1.53-10.73-2.33a4.41,4.41,0,0,0-1-.11,3.87,3.87,0,0,0-3.83,2.83h0Z" transform="translate(-156.24 -58.63)"/><path class="cls-2" d="M430.56,389.27q-5.06.53-10.09,1.2c-3.19.42-6.41,0.66-9.61,0.91-6.38.51-12.77,0.76-19.16,1.08-6.83.34-13.65,0.69-20.46,1.27-6.29.53-12.55,1.35-18.84,2-6.86.69-13.74,1.27-20.59,2-3.07.35-6.14,0.75-9.22,1.06l-5.69.58c-1.79.18-3.61,0.21-5.41,0.32-1.15.07-2.31,0.07-3.46,0.07H306.9c-1.48,0-3,0-4.44,0-3.36-.07-6.73-0.2-10.09-0.25-6.73-.11-13.46-0.13-20.2-0.19-1.75,0-3.5-.09-5.25-0.13-1.34,0-2.7,0-4-.11-4.46-.21-8.91-0.41-13.37-0.66a2.95,2.95,0,0,0-2.09,5,3.06,3.06,0,0,0,2.09.86c7.55,0.45,15.09.79,22.65,1.07,3.12,0.11,6.25.18,9.37,0.27,3.6,0.1,7.19.25,10.79,0.41,3.29,0.15,6.57.37,9.85,0.53,1.48,0.07,3,.13,4.45.16s3.11,0.12,4.66.07l5.59-.21c0.68,0,1.37-.11,2-0.17l3.49-.29c3-.25,6.07-0.61,9.1-0.92,6.88-.71,13.77-1.3,20.64-2,6.29-.67,12.55-1.58,18.84-2.23,6.79-.71,13.6-1.17,20.42-1.58,6.39-.38,12.79-0.67,19.15-1.42,3.57-.42,7.1-1,10.62-1.68,3.36-.68,6.66-1.59,10-2.39a2.35,2.35,0,0,0-.48-4.6h-0.14Z" transform="translate(-156.24 -58.63)"/><path class="cls-2" d="M339,199a86.25,86.25,0,0,0-15.76,3.86,3.16,3.16,0,1,0,1.68,6.09,91.24,91.24,0,0,1,14.37-3.65,33.41,33.41,0,0,1,6.79-.24,15,15,0,0,1,1.46.42c0.2,0.1.4,0.21,0.59,0.32q0,0.16.09,0.33a7.4,7.4,0,0,1,0,.81q-0.05.21-.13,0.42a17.74,17.74,0,0,1-1.08,1.71,31.51,31.51,0,0,1-4.29,4.25,69.52,69.52,0,0,1-7.54,4.83l-1.23-.39A43.49,43.49,0,0,0,322.4,216a39.6,39.6,0,0,0-10.61,1.45,33.74,33.74,0,0,0-10.5,4.73,23.2,23.2,0,0,0-3.93,3.3,12.56,12.56,0,0,0-2.47,4.26,7.55,7.55,0,0,0-.43,2.36,8.49,8.49,0,0,0,.28,2.17,6,6,0,0,0,1.46,2.3,7.54,7.54,0,0,0,3.09,1.71c2.07,0.82,4.47.07,6.5-.48,1.85-.5,3.66-1.09,5.47-1.7l6.61-2.21c3.73-1.25,7.39-2.75,11-4.34,1.92-.85,3.83-1.75,5.7-2.72l1,0.37a40.42,40.42,0,0,1,7.44,4.3,28.22,28.22,0,0,1,3.63,3.49,24.31,24.31,0,0,1,2.29,4,19.4,19.4,0,0,1,.73,2.59,20.82,20.82,0,0,1,0,3.28,26.69,26.69,0,0,1-1.25,4.78,34.4,34.4,0,0,1-3.72,6.11,45.05,45.05,0,0,1-4.33,4.68c-1.5,1.4-3.1,2.69-4.71,4s-3.31,2.37-5,3.46a57.21,57.21,0,0,0-5.91,1.63,55.55,55.55,0,0,0-7.79,3.28,42,42,0,0,0-6.78,4.86,5,5,0,0,0-1.27,2.17,4.84,4.84,0,0,0,.5,3.79c1.12,1.71,2.66,3.3,4.89,3.24a7.19,7.19,0,0,0,2.47-.43,13.16,13.16,0,0,0,2.46-1.27c0.71-.45,1.49-0.81,2.23-1.22s1.57-.91,2.36-1.37l1.78-1.05c2.23-1.33,4.45-2.65,6.65-4q2.34-.58,4.73-1a44.53,44.53,0,0,1,9.32-.06,18.17,18.17,0,0,1,3,.74,17.89,17.89,0,0,1,2.19,1.28l0.38,0.38,0.05,0.09a11.72,11.72,0,0,1,.35,1.34,15.48,15.48,0,0,1,0,1.78,17.26,17.26,0,0,1-.48,1.66,33.14,33.14,0,0,1-3.34,5.45,71.88,71.88,0,0,1-11.14,10.45c-1.65,1.26-3.33,2.49-5,3.71-0.73.53-1.45,1.08-2.19,1.62l-0.43.19a40.75,40.75,0,0,0-4.19,2.3,5.28,5.28,0,0,0,0,9.11,5.11,5.11,0,0,0,4.07.53,15.65,15.65,0,0,0,3.32-1.59l0.52-.36q0.59-.31,1.2-0.59a40.68,40.68,0,0,1,8.42-2.3,50.33,50.33,0,0,1,11.24,0,14.27,14.27,0,0,1,1.58.4l0.7,0.39c0,0.15,0,.3,0,0.45l-0.08.28a15.84,15.84,0,0,1-1,1.7,34.56,34.56,0,0,1-4.75,4.7q-1.54,1.14-3.14,2.21c-1.22.15-2.43,0.33-3.64,0.5a74.62,74.62,0,0,0-9.38,2.05,76.49,76.49,0,0,0-10.27,3.81,39.58,39.58,0,0,0-7.87,4.65q-1,.76-2,1.59l-0.52.52-1.53,2a8.59,8.59,0,0,0-1.27,4.12,17,17,0,0,0,.39,3.3,6.69,6.69,0,0,0,3.17,4.12,7.15,7.15,0,0,0,5.31.7c3.51-.76,6.78-2.56,10-4.06,1.91-.88,3.79-1.81,5.69-2.72,2.16-1,4.26-2.23,6.39-3.34q2.35-1.23,4.65-2.57l0.19,0q2.39-.28,4.78-0.45a35.88,35.88,0,0,1,5.7.1c0.44,0.08.88,0.18,1.32,0.29a24.07,24.07,0,0,1-1.67,2.59,48.06,48.06,0,0,1-7.12,6.59l-1,.69c-1,.26-2.06.56-3.09,0.84-2.06.56-4.08,1.26-6.09,2a42.72,42.72,0,0,0-10.93,5.68,34.9,34.9,0,0,0-4.3,3.52,12.64,12.64,0,0,0-1.93,2.68,9.55,9.55,0,0,0-1,5.57l0.28,2.07a7.73,7.73,0,0,0,2,3.44,7.85,7.85,0,0,0,7.58,2,30.09,30.09,0,0,0,4.94-1.84c1-.45,1.84-1.07,2.75-1.61l3.73-2.2c2-1.17,3.93-2.42,5.88-3.64q1.53-1,3-2c-0.82,2.8-1.9,5.53-3,8.25a38,38,0,0,0-1.57,4.38l-0.12.83a17.32,17.32,0,0,0-.32,2.91,20.14,20.14,0,0,0,.13,2.22,33.56,33.56,0,0,1-.15,5.7c-0.11.76-.22,1.52-0.31,2.28-0.26,1.88-.49,3.75-0.68,5.64a7.52,7.52,0,0,0,14.77,2,41.8,41.8,0,0,0,1.2-5.26c0.27-1.95.56-3.89,0.73-5.85a30.24,30.24,0,0,0,.06-3.52c0-1.06-.13-2.11-0.13-3.17a34.51,34.51,0,0,1,1.32-3.61c0.55-1.41,1.09-2.83,1.61-4.25a48.32,48.32,0,0,0,2.39-8.45,24.79,24.79,0,0,0,.38-3.71,21.33,21.33,0,0,0-.38-3.49,10.34,10.34,0,0,0-.53-2.09,12.23,12.23,0,0,0-1-2.19l0.29-.29a42.37,42.37,0,0,0,3.27-4.06,21.18,21.18,0,0,0,2.49-4.2,21.44,21.44,0,0,0,1-2.54,15.19,15.19,0,0,0,.55-3.42,19.42,19.42,0,0,0-.44-4.86,12.69,12.69,0,0,0-1-2.45,10.33,10.33,0,0,0-1.84-2.71,16.94,16.94,0,0,0-6.75-4.35,27.24,27.24,0,0,0,2-3,13.51,13.51,0,0,0,1.51-9.42,9.24,9.24,0,0,0-1.63-3.8,6.09,6.09,0,0,0-1.39-1.59,13.25,13.25,0,0,0-2.4-1.67,14.7,14.7,0,0,0-1.38-.63,18.29,18.29,0,0,0-2.89-1,32.42,32.42,0,0,0-4.84-.58q-1.35-.11-2.68-0.14a65.12,65.12,0,0,0,4.66-5,43.77,43.77,0,0,0,4.15-6.05,21.69,21.69,0,0,0,1.65-3.57,19.72,19.72,0,0,0,.93-4.44,14,14,0,0,0-.2-3.45,11.86,11.86,0,0,0-.71-2.82,10.23,10.23,0,0,0-1.9-3.22,16.73,16.73,0,0,0-3.25-2.7,18.3,18.3,0,0,0-6.5-2.55c-0.91-.19-1.83-0.33-2.77-0.44q1.14-1.08,2.22-2.22a50.85,50.85,0,0,0,3.91-4.86,32.06,32.06,0,0,0,4.76-9.28,30.61,30.61,0,0,0,1-5.4,20.16,20.16,0,0,0-.34-6.22,20.73,20.73,0,0,0-1.92-5.08,22.36,22.36,0,0,0-3-4.48,35.09,35.09,0,0,0-8.73-7.25l-0.81-.48c1.65-1.14,3.26-2.35,4.8-3.63a29,29,0,0,0,5.09-5.8,9.68,9.68,0,0,0,1.75-6,7.37,7.37,0,0,0-2.92-5.7,13.05,13.05,0,0,0-7.56-2A45.08,45.08,0,0,0,339,199h0Zm8.89,6.17,0.1,0.25-0.1-.25h0Zm0.19,2.26a6,6,0,0,1-.29.69l0.29-.69h0Zm-27,17.13c-2.59.93-5.2,1.78-7.84,2.58-2.33.71-4.66,1.44-7,2.09a31.29,31.29,0,0,1,4.18-2.3,40.37,40.37,0,0,1,8.18-2.19q1.25-.13,2.48-0.18h0ZM301.33,230l0.17,0.13-0.17-.13h0Zm-0.29.27,0.29,0-0.29,0h0Zm50.28,48,0.19,0.24-0.19-.24h0ZM337,299.73l-0.36.28,0.36-.28h0Zm19.2,12.59a3.26,3.26,0,0,1,.23.29h0l-0.23-.29h0Zm0.34,0.75,0,0.16h0l0-.17h0Zm0.18,0.06h0a3.38,3.38,0,0,1,.13.33l-0.15-.34h0Zm-0.15.12q0,0.15,0,.31l0-.3h0ZM358.92,337h0l0,0.18,0-.18h0Zm0.3,0.18h0a4.26,4.26,0,0,1,.16.4l-0.17-.41h0Zm-4.37,24.07,0.2,0.09-0.21-.09h0Z" transform="translate(-156.24 -58.63)"/></svg>