<svg xmlns="http://www.w3.org/2000/svg" xmlns:xlink="http://www.w3.org/1999/xlink" width="432" height="305" viewBox="0 0 432 305">
  <defs>
    <path id="philosophy-a" d="M205.46715,0 L418,82.0268199 L418,271 L198.135758,271 L198.135758,194.791905 L37.696278,194.791905 C37.696278,194.791905 4.28497971,197.952735 0.374162722,185.578951 C-3.53665427,173.205166 24.4990831,153.036118 24.4990831,153.036118 L205.46715,0 Z"/>
    <path id="philosophy-b" d="M205.46715,0 L418,82.0268199 L418,271 L198.135758,271 L198.135758,194.791905 L37.696278,194.791905 C37.696278,194.791905 4.28497971,197.952735 0.374162722,185.578951 C-3.53665427,173.205166 24.4990831,153.036118 24.4990831,153.036118 L205.46715,0 Z"/>
  </defs>
  <g fill="none" fill-rule="evenodd">
    <g transform="translate(14 34)">
      <use fill="#50E3C2" xlink:href="#philosophy-a"/>
    </g>
    <mask id="philosophy-c" fill="#fff">
      <use xlink:href="#philosophy-b"/>
    </mask>
    <path stroke="#000" stroke-width="10" d="M206.432296,5.73196677 L27.5780683,156.980511 L27.4190159,157.094934 C27.2584516,157.210445 26.9309178,157.451603 26.4606049,157.80696 C25.6619105,158.410434 24.768135,159.105644 23.8036063,159.880935 C21.0473969,162.096386 18.2920889,164.497147 15.7356304,166.98356 C12.2136867,170.409004 9.3719668,173.709289 7.47235827,176.700248 C5.36138231,180.024008 4.66599959,182.566992 5.14171011,184.072135 C5.93972684,186.597052 11.0804233,188.798244 19.3858007,189.694908 C24.4019144,190.236458 29.824342,190.263469 34.8543415,189.980499 C35.5216532,189.942959 36.1180114,189.902918 36.6336991,189.863164 C36.9338104,189.840029 37.1342499,189.82275 37.2253625,189.81413 L37.4602958,189.791905 L203.135758,189.791905 L203.135758,266 L413,266 L413,85.456545 L206.432296,5.73196677 Z"/>
    <path stroke="#000" stroke-linecap="round" stroke-linejoin="round" stroke-width="10" d="M199,227.243243 C199,227.243243 219.360494,231.195946 231.493827,227.243243 C243.62716,223.290541 255,209 255,209" mask="url(#philosophy-c)"/>
    <ellipse cx="206" cy="95.5" fill="#000" mask="url(#philosophy-c)" rx="17" ry="17.5"/>
  </g>
</svg>
