<svg xmlns="http://www.w3.org/2000/svg" xmlns:xlink="http://www.w3.org/1999/xlink" width="228" height="293" viewBox="0 0 228 293">
  <defs>
    <path id="mouse-a" d="M104,198 C141.447732,165.563166 176.114399,134.382425 208,104.457779 C208,46.7673407 161.437614,0 104,0 C46.562386,0 0,46.7673407 0,104.457779 C30.236686,133.441415 64.9033527,164.622155 104,198 Z"/>
    <path id="mouse-b" d="M89,183 C126.447732,150.563166 161.114399,119.382425 193,89.4577792 C193,31.7673407 146.437614,-15 89,-15 C31.562386,-15 -15,31.7673407 -15,89.4577792 C15.236686,118.441415 49.9033527,149.622155 89,183 Z"/>
  </defs>
  <g fill="none" fill-rule="evenodd" transform="translate(20 6)">
    <g transform="translate(0 89)">
      <use fill="#F8E71C" xlink:href="#mouse-a"/>
      <mask id="mouse-c" fill="#fff">
        <use xlink:href="#mouse-b"/>
      </mask>
      <use stroke="#000" stroke-width="10" xlink:href="#mouse-b"/>
      <path stroke="#000" stroke-linecap="square" stroke-width="10" d="M17.0643635 118.434783L165.278798 118.434783M89 118.696957L89 175.91097" mask="url(#mouse-c)"/>
    </g>
    <path stroke="#000" stroke-linecap="round" stroke-linejoin="round" stroke-width="10" d="M89,71.2618636 C94.4328543,38.2218302 113.007,23.0041025 118.386208,21.0805077 C123.787731,19.148933 130.477033,17.5428853 141.979022,21.0805077 C152.818766,24.4144459 152.299137,39.0970977 141.979022,45.3026171 C131.658907,51.5081364 115.274696,46.6658876 113.007,37.4067732 C110.739305,28.1476588 112.951048,20.197588 115.274696,16.041912 C117.598344,11.886236 128.964688,3.04553472 132.801401,1.63217698 C136.638115,0.218819242 146.871021,-1.84986022 158.888296,3.28090558 C166.899813,6.70141612 177.088292,16.5381317 189.453733,32.7910522"/>
  </g>
</svg>
